<?xml version="1.0" standalone="no"?>
<!DOCTYPE svg PUBLIC "-//W3C//DTD SVG 1.1//EN" "http://www.w3.org/Graphics/SVG/1.1/DTD/svg11.dtd" >
<svg xmlns="http://www.w3.org/2000/svg">
<metadata>
Created by FontPrep 20130207 at Wed Jul 16 09:05:39 2014
 By Michael Elliott
(c) 1991, 1992, 1995, 2002 Adobe Systems Incorporated. All rights reserved.
</metadata>
<defs>
<font id="6dce16d3600cd13efbbce8cb414a900d" horiz-adv-x='1024' >
  <font-face 
    font-family="CaeciliaLTStd-LightItalic"
    font-weight="300"
    font-style="italic"
    font-stretch="normal"
    units-per-em="2048"
    panose-1="2 6 5 3 4 5 5 9 2 4"
    ascent="1575"
    descent="-473"
    x-height="1053"
    cap-height="1434"
    bbox="-340 -547 2116 1862"
    underline-thickness="102"
    underline-position="-102"
    slope="-5"
    unicode-range="U+0020-FB02"
  />
<missing-glyph horiz-adv-x="1095" 
d="M174 1239v-1044l348 522zM236 102h696l-348 523zM645 717l348 -522v1044zM584 809l348 522h-696zM72 0v1434h1024v-1434h-1024z" />
    <glyph glyph-name="f_i" unicode="fi" 
d="M752 1591q119 0 227 -41l-10 -90q-115 41 -223 41q-219 0 -287 -126q-37 -67 -51 -137t-21 -185h567l-86 -963h174l-8 -90h-272l86 963h-467l-55 -734q-32 -428 -99 -566t-175 -178q-66 -24 -144 -24t-187 35l9 90q94 -35 164 -35q170 -1 236 147t93 531l51 734h-163
l8 90h162q18 283 121 411t350 127z" />
    <glyph glyph-name="f_l" unicode="fl" 
d="M752 1591q63 0 139 -16h108l-131 -1485h174l-8 -90h-272l131 1477q-61 25 -157 25q-208 -1 -277 -127q-37 -67 -51 -137t-21 -185h303l-8 -90h-301l-55 -734q-32 -428 -99 -566t-175 -178q-66 -24 -144 -24t-187 35l9 90q94 -35 164 -35q170 -1 236 147t93 531l51 734
h-163l8 90h162q18 283 121 411t350 127z" />
    <glyph glyph-name=".notdef" horiz-adv-x="1095" 
d="M174 1239v-1044l348 522zM236 102h696l-348 523zM645 717l348 -522v1044zM584 809l348 522h-696zM72 0v1434h1024v-1434h-1024z" />
    <glyph glyph-name=".null" horiz-adv-x="0" 
 />
    <glyph glyph-name="nonmarkingreturn" horiz-adv-x="681" 
 />
    <glyph glyph-name="space" unicode=" " horiz-adv-x="569" 
 />
    <glyph glyph-name="exclam" unicode="!" horiz-adv-x="606" 
d="M240 483l82 1092h114l-106 -1092h-90zM160 76q0 42 24 72t65 30q39 0 63 -28t24 -69q0 -40 -27 -67q-27 -26 -65 -26t-61 23q-23 24 -23 65z" />
    <glyph glyph-name="quotedbl" unicode="&#x22;" horiz-adv-x="796" 
d="M215 1520q0 24 18 48q17 24 55 24t56 -24t18 -48t-6 -80l-28 -285q-4 -49 -39 -49t-39 49l-29 285q-6 55 -6 80zM496 1520q0 24 18 48t55 24t56 -24q18 -24 18 -48t-6 -80l-29 -285q-4 -49 -39 -49t-39 49l-28 285q-6 55 -6 80z" />
    <glyph glyph-name="numbersign" unicode="#" 
d="M225 0l64 459h-236l15 98h235l45 320h-235l14 98h235l64 459h98l-63 -459h291l63 459h98l-63 -459h235l-14 -98h-235l-45 -320h235l-14 -98h-236l-63 -459h-99l64 459h-291l-63 -459h-99zM692 557l45 320h-291l-45 -320h291z" />
    <glyph glyph-name="dollar" unicode="$" 
d="M924 401q0 106 -69 159t-237 114l-55 -604q145 16 253 98t108 233zM254 1088q0 -116 64 -168q64 -50 223 -109l49 553q-140 -4 -238 -82t-98 -194zM139 1063q0 86 31 156q31 71 79 111q130 110 349 124l23 254h90l-23 -254q195 -10 322 -61l-13 -254h-84v188
q-119 37 -233 37l-51 -578q82 -29 128 -46t108 -51q62 -35 94 -69q81 -87 79 -212q0 -197 -142 -305t-341 -123l-25 -275h-90l25 275q-123 6 -237 28t-158 45l22 275h90l-6 -205q56 -21 152 -37t145 -16l57 632q-225 68 -308 153t-83 208z" />
    <glyph glyph-name="percent" unicode="%" horiz-adv-x="1630" 
d="M76 -39l1394 1571l66 -59l-1395 -1571zM1032 302q0 -232 182 -232q78 0 141 64q62 66 62 178t-42 168t-130 56q-89 0 -151 -58q-62 -60 -62 -176zM926 288q0 140 87 240q87 98 225 98t212 -76q74 -78 74 -226t-91 -246t-227 -98t-209 83q-71 85 -71 225zM402 807
q-136 0 -208 84q-72 85 -71 225q0 140 87 239q88 99 226 99t212 -77t73 -225q0 -148 -91 -247q-92 -98 -228 -98zM614 1139q0 225 -172 225q-88 0 -150 -60t-63 -176q0 -232 183 -231q78 0 140 65t62 177z" />
    <glyph glyph-name="ampersand" unicode="&#x26;" horiz-adv-x="1517" 
d="M213 385q0 -145 108 -220t246 -75q246 1 412 191l-461 503q-305 -188 -305 -399zM817 1210q0 82 -55 122t-143 40t-154 -53t-66 -161t148 -267q33 17 111 77q76 60 90 78q51 66 60 98q9 33 9 66zM1372 90h62l-9 -90h-82q-73 0 -107 22t-76 66t-45 45q-3 2 -6 6t-6 7t-7 8
l-60 61q-2 -2 -26 -27q-90 -91 -210 -140q-120 -48 -241 -48q-207 0 -330 103t-123 266t111 277q73 74 225 181q14 10 23 15q-164 174 -164 307t89 223q90 90 226 90t218 -64t82 -187q0 -122 -107 -218q-106 -96 -209 -155l438 -480q47 72 77 182t32 212h-164l8 90h400
l-9 -90h-137q-18 -281 -149 -457l112 -121q47 -52 80 -68t84 -16z" />
    <glyph glyph-name="quotesingle" unicode="'" horiz-adv-x="569" 
d="M242 1520q0 24 18 48t55 24t56 -24q18 -24 18 -48t-6 -80l-29 -285q-4 -49 -39 -49t-39 49l-28 285q-6 55 -6 80z" />
    <glyph glyph-name="parenleft" unicode="(" horiz-adv-x="681" 
d="M328 373q0 -487 231 -865l-63 -55q-139 215 -211 439t-72 530q-1 306 133 618t367 568l61 -54q-332 -426 -410 -815q-36 -174 -36 -366z" />
    <glyph glyph-name="parenright" unicode=")" horiz-adv-x="681" 
d="M252 688q0 487 -232 864l64 56q139 -216 211 -440t72 -529q1 -305 -133 -617t-367 -569l-62 53q333 427 411 816q36 174 36 366z" />
    <glyph glyph-name="asterisk" unicode="*" horiz-adv-x="681" 
d="M410 1012h-107l51 233l-207 -135l-49 94l228 86l-209 123l63 90l178 -168l4 240h107l-55 -240l194 140l54 -95l-230 -90l213 -114l-61 -89l-174 158v-233z" />
    <glyph glyph-name="plus" unicode="+" horiz-adv-x="1228" 
d="M565 0v469h-469v98h469v469h99v-469h469v-98h-469v-469h-99z" />
    <glyph glyph-name="comma" unicode="," horiz-adv-x="569" 
d="M231 -66q0 39 -31 79q-32 40 -32 79q0 40 27 60t71 20t72 -41q29 -41 29 -111q0 -132 -76 -206t-197 -127l-35 63q172 72 172 184z" />
    <glyph glyph-name="hyphen" unicode="-" horiz-adv-x="720" 
d="M133 483l8 99h426l-8 -99h-426z" />
    <glyph glyph-name="period" unicode="." horiz-adv-x="569" 
d="M150 76q0 42 24 72t65 30q39 0 63 -28t24 -69q0 -40 -27 -67q-27 -26 -65 -26t-61 23q-23 24 -23 65z" />
    <glyph glyph-name="slash" unicode="/" horiz-adv-x="796" 
d="M-33 -117l813 1708l82 -41l-813 -1708z" />
    <glyph glyph-name="zero" unicode="0" 
d="M207 592q0 -514 334 -514q305 0 388 488q19 118 19 239q0 279 -88 415t-239 136q-310 0 -395 -516q-19 -123 -19 -248zM100 569q0 525 230 759q123 126 297 126q106 0 187 -47t125 -116t80 -189t36 -284q0 -165 -28 -303t-87 -262t-168 -199t-252 -74q-216 0 -318 170
t-102 419z" />
    <glyph glyph-name="one" unicode="1" 
d="M227 0l9 90h264l108 1247l-4 4q-6 -12 -41 -36l-348 -207l-43 73l449 263h102l-117 -1344h297l-8 -90h-668z" />
    <glyph glyph-name="two" unicode="2" 
d="M614 1356q-272 0 -352 -305h-106q36 163 148 283t308 120t289 -108q94 -108 94 -246q0 -58 -12 -108q-34 -141 -181 -316q-91 -109 -233 -250l-333 -332v-4q45 8 65 8h694l-8 -98h-899l8 82q35 35 212 203t293 301q117 132 153 188t68 112q56 99 58 211q1 111 -72 185
t-194 74z" />
    <glyph glyph-name="three" unicode="3" 
d="M452 78q174 0 284 88t110 240q0 80 -32 137t-75 86q-99 67 -381 67l9 99h39q198 0 320 102t122 229q0 98 -67 164t-189 66t-205 -66q-84 -66 -106 -182h-107q-2 4 6 38t34 86t70 101t128 85t192 36q178 0 264 -93t86 -235t-99 -236q-99 -95 -255 -124v-4
q162 -20 261 -102t99 -252t-136 -299t-398 -129q-147 -1 -348 65l10 107q190 -74 364 -74z" />
    <glyph glyph-name="four" unicode="4" 
d="M676 90l33 375h-662l10 96l725 873h119l-76 -879h258l-8 -90h-260l-33 -375h172l-8 -90h-416l9 90h137zM244 555h475l67 739h-4l-620 -745q41 6 82 6z" />
    <glyph glyph-name="five" unicode="5" 
d="M950 472q0 -192 -127 -335q-63 -73 -173 -115t-258 -42t-286 47l9 106q111 -55 303 -55t310 104q116 104 116 264q0 200 -176 274q-90 38 -196 54t-263 25l63 635h691l-9 -99h-594l-47 -446q265 -3 440 -93q93 -48 145 -136t52 -188z" />
    <glyph glyph-name="six" unicode="6" 
d="M582 70q137 0 234 108t97 269q0 163 -87 253t-243 90t-296 -145q-25 -25 -60 -65q0 -196 70 -342q37 -78 110 -123t175 -45zM856 1364q-522 0 -625 -680l5 -4q51 84 151 146t252 62q153 0 267 -117q114 -119 114 -309t-121 -336t-340 -146t-329 154t-109 421
q0 130 35 282q35 153 88 249t130 180q76 86 200 137t266 51t233 -37l-22 -86q-80 33 -195 33z" />
    <glyph glyph-name="seven" unicode="7" 
d="M205 1335l8 99h846l-8 -74l-650 -1137q-43 -76 -141 -223h-125q125 172 176 260l541 938q53 96 90 137h-737z" />
    <glyph glyph-name="eight" unicode="8" 
d="M907 362q0 92 -69 178q-25 30 -86 68t-88 50q-27 13 -107 53q-156 -68 -266 -150q-109 -83 -109 -215q0 -131 94 -204q94 -72 262 -72t268 76q101 76 101 216zM604 1364q-133 0 -218 -74t-85 -183q0 -110 81 -177t193 -129q247 117 305 228q28 54 27 118q0 109 -85 163
t-218 54zM76 338q0 270 395 416q-74 44 -113 70t-83 68q-80 76 -80 204q0 127 73 212q127 146 359 146q159 0 273 -78t114 -232t-123 -252q-96 -76 -229 -134q180 -80 266 -168t86 -223q0 -172 -135 -280q-135 -107 -351 -107t-334 94t-118 264z" />
    <glyph glyph-name="nine" unicode="9" 
d="M557 1364q-129 0 -220 -102t-91 -257t88 -243t237 -88q182 0 332 196q0 278 -139 417q-78 77 -207 77zM543 575q-174 0 -289 109q-115 108 -115 318t134 331q135 121 317 121t301 -146t119 -440t-99 -508q-175 -380 -589 -380q-121 -1 -252 32l24 92q131 -35 225 -34
q504 0 584 698l-4 4q-123 -197 -356 -197z" />
    <glyph glyph-name="colon" unicode=":" horiz-adv-x="569" 
d="M318 825q-38 -1 -61 23q-24 24 -24 65t25 72t65 31q39 0 63 -29t24 -69t-27 -66q-27 -27 -65 -27zM150 76q0 42 24 72t65 30q39 0 63 -28t24 -69q0 -40 -27 -67q-27 -26 -65 -26t-61 23q-23 24 -23 65z" />
    <glyph glyph-name="semicolon" unicode=";" horiz-adv-x="569" 
d="M318 825q-38 -1 -61 23q-24 24 -24 65t25 72t65 31q39 0 63 -29t24 -69t-27 -66q-27 -27 -65 -27zM231 -66q0 39 -31 79q-32 40 -32 79q0 40 27 60t71 20t72 -41q29 -41 29 -111q0 -132 -76 -206t-197 -127l-35 63q172 72 172 184z" />
    <glyph glyph-name="less" unicode="&#x3c;" horiz-adv-x="1228" 
d="M1133 -16l-1037 477v114l1037 478v-115l-912 -420l912 -420v-114z" />
    <glyph glyph-name="equal" unicode="=" horiz-adv-x="1228" 
d="M96 268v99h1037v-99h-1037zM96 670v98h1037v-98h-1037z" />
    <glyph glyph-name="greater" unicode="&#x3e;" horiz-adv-x="1228" 
d="M96 1053l1037 -478v-114l-1037 -477v114l912 420l-912 420v115z" />
    <glyph glyph-name="question" unicode="?" horiz-adv-x="985" 
d="M207 76q1 42 25 72t64 30t64 -28t23 -69q0 -40 -27 -67q-26 -26 -64 -26t-62 23q-23 24 -23 65zM225 623q0 52 24 92t42 57q18 16 24 24q7 8 27 21q20 14 46 32t36 23l139 93q186 123 187 284q0 115 -79 179t-208 65q-129 0 -217 -39l-21 92q135 45 254 45q181 0 279 -95
t98 -224t-62 -217t-132 -135l-140 -95q-84 -57 -112 -77t-54 -52q-57 -73 17 -165q20 -25 24 -31l-82 -64q-90 96 -90 187z" />
    <glyph glyph-name="at" unicode="@" horiz-adv-x="1638" 
d="M860 1372q-296 0 -492 -192t-196 -465t199 -463t489 -191q166 0 321 76t238 205h119q-102 -170 -286 -270t-392 -101q-334 0 -560 218q-226 219 -226 529t230 527t542 217t515 -176q204 -176 204 -444q0 -222 -155 -396t-325 -174q-61 0 -99 35t-36 103h-4
q-143 -138 -273 -138t-203 80t-73 215q-1 221 141 405t349 183q164 0 225 -168h4l49 133h115l-205 -590q-27 -80 -26 -118q0 -49 55 -50q133 0 248 161t114 325q0 232 -179 378t-427 146zM504 578q0 -207 174 -207q150 0 260 167t111 324q0 100 -41 148t-131 47
q-153 1 -263 -159t-110 -320z" />
    <glyph glyph-name="A" unicode="A" horiz-adv-x="1554" 
d="M1004 672l-142 530q-25 96 -31 144h-4q-20 -61 -55 -144l-235 -530h467zM18 0l9 90h143l616 1354h115l377 -1354h172l-8 -90h-422l8 90h133l-133 492h-532l-220 -492h173l-9 -90h-422z" />
    <glyph glyph-name="B" unicode="B" horiz-adv-x="1175" 
d="M475 784h74q154 0 259 81t105 240t-113 205q-81 33 -212 33h-158l-49 -555q31 -4 94 -4zM606 1434q158 0 246 -43q176 -86 176 -281q0 -125 -80 -225t-231 -129v-4q145 2 247 -86t103 -244q0 -201 -178 -332q-123 -90 -402 -90h-421l8 90h139l111 1253h-170l8 91h444z
M563 90q130 0 245 60q64 32 104 104t40 172q0 141 -107 209q-108 68 -284 67h-106q-53 0 -82 -4l-54 -608h244z" />
    <glyph glyph-name="C" unicode="C" horiz-adv-x="1327" 
d="M866 1372q-135 0 -248 -46q-112 -46 -182 -120q-196 -208 -196 -573q0 -272 148 -422t409 -150q143 0 254 43l20 195h90l-20 -268q-72 -25 -184 -42t-175 -18q-180 -1 -312 57q-234 102 -311 371q-34 115 -34 225t16 207q16 96 68 213q51 117 131 206q80 88 219 150
t300 62t364 -59l-9 -270h-98l8 202q-123 37 -258 37z" />
    <glyph glyph-name="D" unicode="D" horiz-adv-x="1478" 
d="M698 1434q206 0 308 -33t170 -88q205 -166 204 -498q0 -291 -155 -514q-209 -301 -619 -301h-540l8 90h139l111 1253h-170l8 91h536zM610 90q377 0 543 299q113 201 113 427t-103 358q-70 90 -163 130t-255 39h-315l-111 -1253h291z" />
    <glyph glyph-name="E" unicode="E" 
d="M66 0l8 90h139l111 1253h-170l8 91h889l-25 -291h-90l8 200h-514l-49 -555h526l-6 -90h-528l-54 -608h576l29 201h90l-27 -291h-921z" />
    <glyph glyph-name="F" unicode="F" horiz-adv-x="1062" 
d="M213 90l111 1253h-170l8 91h882l-24 -299h-90l8 208h-508l-51 -585h504l-9 -90h-503l-52 -578h185l-8 -90h-430l8 90h139z" />
    <glyph glyph-name="G" unicode="G" horiz-adv-x="1441" 
d="M768 -29q-168 -1 -300 57q-232 101 -309 364q-34 112 -34 239q0 371 200 601t545 230q199 0 373 -59l-16 -266h-90v194q-104 41 -255 41t-264 -46q-112 -46 -182 -120q-196 -208 -196 -573q0 -266 150 -419t407 -153q147 0 270 52l37 381h-178l8 90h418l-9 -90h-141
l-37 -451q-229 -72 -397 -72z" />
    <glyph glyph-name="H" unicode="H" horiz-adv-x="1517" 
d="M371 668l-52 -578h170l-8 -90h-415l8 90h139l111 1253h-170l8 91h416l-9 -91h-139l-51 -585h768l51 585h-170l8 91h416l-8 -91h-139l-111 -1253h170l-8 -90h-416l8 90h139l52 578h-768z" />
    <glyph glyph-name="I" unicode="I" horiz-adv-x="643" 
d="M66 0l8 90h139l111 1253h-170l8 91h416l-9 -91h-139l-111 -1253h170l-8 -90h-415z" />
    <glyph glyph-name="J" unicode="J" horiz-adv-x="606" 
d="M154 1343l8 91h416l-9 -91h-139l-72 -804q-32 -403 -173 -596q-56 -78 -151 -157t-227 -138l-32 78q258 131 352 298t125 511l72 808h-170z" />
    <glyph glyph-name="K" unicode="K" horiz-adv-x="1290" 
d="M66 0l8 90h139l111 1253h-170l8 91h416l-9 -91h-139l-51 -581l647 581h-172l8 91h420l-8 -91h-123l-662 -593l607 -660h143l-8 -90h-422l8 90h144l-586 637l-56 -637h170l-8 -90h-415z" />
    <glyph glyph-name="L" unicode="L" horiz-adv-x="1024" 
d="M66 0l8 90h139l111 1253h-170l8 91h416l-9 -91h-139l-111 -1253h512l29 205h90l-32 -295h-852z" />
    <glyph glyph-name="M" unicode="M" horiz-adv-x="1781" 
d="M49 0l8 90h146l127 1253h-185l9 91h313l334 -1151q33 -109 45 -185h4q27 88 70 185l526 1151h287l-9 -91h-145l-86 -1253h170l-8 -90h-414l8 90h146l82 1200h-4q-27 -78 -99 -227l-493 -1063h-99l-317 1063q-29 94 -47 184h-4l-113 -1157h170l-8 -90h-414z" />
    <glyph glyph-name="N" unicode="N" horiz-adv-x="1554" 
d="M49 0l8 90h146l104 1253h-164l9 91h245l703 -1172q10 -18 28 -53l19 -33h4l102 1167h-182l8 91h426l-8 -91h-145l-117 -1343h-98l-703 1174q-23 41 -35 71h-4l-94 -1155h182l-8 -90h-426z" />
    <glyph glyph-name="O" unicode="O" horiz-adv-x="1478" 
d="M125 618q0 392 190 618t492 226q262 0 404 -172q143 -172 143 -484t-152 -562q-76 -125 -210 -199t-308 -74q-279 0 -419 180t-140 467zM1239 838q0 238 -110 386t-328 148q-127 0 -227 -48t-160 -123q-174 -214 -174 -588q0 -235 92 -369q123 -182 358 -183
q121 -1 236 63q114 64 184 178t99 236q30 122 30 300z" />
    <glyph glyph-name="P" unicode="P" horiz-adv-x="1099" 
d="M575 1434q463 0 463 -369q0 -213 -133 -339t-397 -126q-86 0 -143 8l-46 -518h187l-8 -90h-432l8 90h139l111 1253h-170l8 91h413zM535 682q92 0 179 34q149 58 197 208q20 61 21 129q0 291 -342 290h-160l-57 -653q70 -8 162 -8z" />
    <glyph glyph-name="Q" unicode="Q" horiz-adv-x="1478" 
d="M1440 -373q-62 0 -258 111l-215 123q-6 -1 -71 39q-115 71 -214 71q-279 -1 -418 181t-139 466q0 392 190 618t492 226q262 0 404 -172q143 -172 143 -474t-126 -530t-358 -290v-4q76 -8 189 -74l170 -100q168 -100 225 -100t133 32l-8 -88q-77 -35 -139 -35zM1239 838
q0 238 -110 386t-328 148q-127 0 -227 -48t-160 -123q-174 -214 -174 -588q0 -235 92 -369q123 -182 358 -183q121 -1 236 63q114 64 184 178t99 236q30 122 30 300z" />
    <glyph glyph-name="R" unicode="R" horiz-adv-x="1251" 
d="M588 1434q188 0 280 -45q170 -80 170 -304q0 -179 -116 -293t-297 -114v-4q80 -6 129 -48t108 -165l78 -160q72 -145 100 -178t78 -33h86l-8 -90h-139q-63 0 -102 42q-38 42 -105 183l-107 224q-59 125 -111 163t-161 39h-102l-50 -561h170l-8 -90h-415l8 90h139
l111 1253h-170l8 91h426zM539 733q188 0 290 98t103 254q0 99 -44 165q-23 39 -112 74q-53 19 -213 19h-133l-53 -604q86 -6 162 -6z" />
    <glyph glyph-name="S" unicode="S" horiz-adv-x="1099" 
d="M866 1149v184q-92 31 -243 39q-193 0 -284 -85t-91 -201t56 -165q56 -50 161 -87l237 -86q137 -50 213 -130t76 -217q0 -170 -132 -300t-390 -130q-168 0 -399 70l22 276h82l-6 -204q141 -51 289 -52q215 1 317 99t102 227t-92 191q-50 33 -80 47t-98 39l-160 59
q-150 55 -232 128t-81 204q0 188 132 298t360 109q170 0 340 -57l-17 -256h-82z" />
    <glyph glyph-name="T" unicode="T" horiz-adv-x="1214" 
d="M336 0l8 90h139l111 1253h-426l-31 -202h-90l33 293h1153l-25 -293h-90l8 202h-426l-110 -1253h174l-8 -90h-420z" />
    <glyph glyph-name="U" unicode="U" horiz-adv-x="1478" 
d="M672 -29q-459 0 -459 400q0 39 20 280l62 692h-170l8 91h414l-8 -91h-138l-61 -663q-20 -219 -21 -313q0 -305 359 -306q118 1 192 25t108 52t58 52t65 123q16 46 22 101q5 55 10 98l71 831h-182l8 91h414l-8 -91h-142l-71 -843q-25 -268 -117 -369q-150 -160 -434 -160z
" />
    <glyph glyph-name="V" unicode="V" horiz-adv-x="1402" 
d="M578 0l-347 1343h-168l9 91h413l-8 -91h-139l280 -1099q12 -47 29 -146h4q29 98 49 146l465 1099h-168l9 91h413l-8 -91h-139l-588 -1343h-106z" />
    <glyph glyph-name="W" unicode="W" horiz-adv-x="2086" 
d="M573 0l-333 1343h-168l8 91h414l-9 -91h-139l279 -1126q2 -8 24 -127h4q39 119 43 127l361 856l-68 270h-168l8 91h414l-8 -91h-139l274 -1091q14 -55 31 -162h4q25 90 49 162l397 1091h-174l9 91h417l-8 -91h-145l-496 -1343h-127l-227 922h-4l-396 -922h-127z" />
    <glyph glyph-name="X" unicode="X" horiz-adv-x="1441" 
d="M41 0l8 90h137l486 655l-330 598h-170l8 91h414l-8 -91h-137q20 -25 34 -49l254 -460l340 460q29 37 43 49h-182l8 91h420l-8 -91h-137l-439 -593l363 -660h168l-8 -90h-414l8 90h139q-8 8 -32 49l-287 520l-383 -520q-20 -33 -41 -49h180l-8 -90h-426z" />
    <glyph glyph-name="Y" unicode="Y" horiz-adv-x="1366" 
d="M428 0l8 90h142l45 518l-410 735h-168l8 91h414l-8 -91h-133q8 -8 32 -49l330 -598l426 598q20 33 41 49h-174l8 91h420l-8 -91h-146l-526 -731l-45 -522h172l-8 -90h-420z" />
    <glyph glyph-name="Z" unicode="Z" horiz-adv-x="1251" 
d="M279 90h725l32 205h90l-30 -295h-1039l6 74l938 1206q27 35 62 63l-4 5q-14 -4 -53 -5h-701l-26 -200h-91l23 291h983l-6 -74l-946 -1221q-6 -6 -47 -53q57 4 84 4z" />
    <glyph glyph-name="bracketleft" unicode="[" horiz-adv-x="606" 
d="M129 -514l182 2089h324l-8 -90h-224l-167 -1909h202l-8 -90h-301z" />
    <glyph glyph-name="backslash" unicode="\" horiz-adv-x="796" 
d="M139 1591l594 -1708l-82 -41l-594 1708z" />
    <glyph glyph-name="bracketright" unicode="]" horiz-adv-x="606" 
d="M444 1575l-182 -2089h-323l8 90h223l168 1909h-203l8 90h301z" />
    <glyph glyph-name="asciicircum" unicode="^" horiz-adv-x="1228" 
d="M190 686l375 748h99l374 -748h-114l-310 612l-309 -612h-115z" />
    <glyph glyph-name="underscore" unicode="_" horiz-adv-x="1024" 
d="M0 -256v102h1024v-102h-1024z" />
    <glyph glyph-name="grave" unicode="`" horiz-adv-x="569" 
d="M186 1526l254 -246l-69 -59l-267 247z" />
    <glyph glyph-name="a" unicode="a" horiz-adv-x="1099" 
d="M625 991q-197 0 -310 -184q-102 -176 -102 -453t135 -276q121 0 248 207t190 604l11 63q-96 39 -172 39zM334 -20q-227 0 -228 380q0 281 123 489q61 103 170 163t231 61q122 0 218 -39h59q-23 -111 -41 -338l-49 -606h168l-8 -90h-266l51 467q2 14 22 115h-4
q-29 -106 -30 -115q-59 -176 -151 -317q-50 -78 -120 -124t-145 -46z" />
    <glyph glyph-name="b" unicode="b" horiz-adv-x="1099" 
d="M455 61q117 1 205 63q150 107 204 368q23 104 23 218t-35 193q-35 80 -111 80q-131 -1 -273 -233t-183 -603l-6 -55q104 -31 176 -31zM757 1073q83 0 139 -58q97 -100 97 -292t-49 -330q-49 -139 -105 -220q-57 -81 -159 -137t-242 -56t-272 63l131 1442h-197l9 90h299
l-84 -887q-4 -53 -31 -190h4l31 123q27 113 136 269q54 77 132 130t161 53z" />
    <glyph glyph-name="c" unicode="c" horiz-adv-x="833" 
d="M563 1073q92 0 219 -35l-24 -247h-90l8 178q-37 14 -105 14q-203 0 -302 -153t-99 -373q0 -379 281 -379q127 0 274 86l-8 -107q-43 -29 -124 -53t-155 -24q-182 0 -278 124t-96 368q0 243 126 422q127 179 373 179z" />
    <glyph glyph-name="d" unicode="d" horiz-adv-x="1099" 
d="M649 1073q88 0 154 -26l41 438h-199l8 90h297l-131 -1485h168l-8 -90h-266l45 420q5 58 30 172h-4q-11 -57 -28 -115q-97 -273 -191 -381q-41 -47 -102 -82t-129 -34q-102 0 -165 101q-62 101 -63 269q0 344 166 551q139 172 377 172zM618 983q-108 0 -195 -61
q-87 -60 -129 -158q-81 -188 -81 -379q0 -307 141 -307q80 0 157 85q128 142 221 448q36 120 48 206l17 131q-71 35 -179 35z" />
    <glyph glyph-name="e" unicode="e" horiz-adv-x="909" 
d="M735 840q0 55 -38 99t-128 44q-156 0 -255 -134t-115 -341q229 18 383 108q153 91 153 224zM586 1073q124 0 190 -60q66 -59 66 -163t-64 -186t-166 -130q-196 -92 -413 -116q0 -187 57 -259q27 -34 81 -62t130 -27q123 0 295 96l-8 -105q-143 -82 -301 -81
q-199 0 -280 114t-81 342q0 227 115 423q57 97 157 155t222 59z" />
    <glyph glyph-name="f" unicode="f" horiz-adv-x="681" 
d="M752 1591q35 0 93 -9t73 -17l-9 -90q-74 27 -172 27q-210 -1 -278 -127q-37 -67 -51 -137t-21 -185h303l-8 -90h-301l-55 -734q-32 -428 -99 -566t-175 -178q-66 -24 -144 -24t-187 35l9 90q94 -35 164 -35q170 -1 236 147t93 531l51 734h-163l8 90h162q18 283 121 411
t350 127z" />
    <glyph glyph-name="g" unicode="g" horiz-adv-x="1099" 
d="M645 991q-100 0 -191 -55q-159 -96 -216 -349q-25 -108 -25 -236q0 -129 40 -201t105 -72q90 0 189 123t167 293t93 323l20 137q-82 37 -182 37zM649 1073q123 0 223 -39h70q-24 -134 -56 -579q-33 -445 -45 -525q-13 -80 -23 -123t-44 -111q-33 -68 -78 -107t-128 -71
q-82 -32 -208 -32t-280 72l8 108q135 -90 277 -90t206 47q37 27 64 51t46 72q19 47 35 94t40 289l16 170q10 127 51 303h-4q-4 -8 -15 -46t-20 -56q-102 -250 -178 -353q-119 -160 -262 -159q-70 0 -119 36q-115 85 -119 338q0 167 50 304q50 136 107 216q59 80 161 136
q102 55 225 55z" />
    <glyph glyph-name="h" unicode="h" 
d="M774 1073q176 0 176 -248q0 -150 -78 -735h170l-8 -90h-276q94 639 94 807t-102 168q-89 0 -195 -116q-225 -255 -303 -859h-98q31 233 51 455l90 1030h-199l8 90h299l-86 -881q-6 -68 -19 -144q-13 -75 -17 -101h4q4 14 11 44q43 186 163 375q57 90 140 148t175 57z" />
    <glyph glyph-name="i" unicode="i" horiz-adv-x="569" 
d="M264 1492q0 42 29 71t67 29t62 -26q22 -26 22 -69t-26 -71t-68 -28t-64 26t-22 68zM188 0l86 963h-174l9 90h272l-86 -963h174l-8 -90h-273z" />
    <glyph glyph-name="j" unicode="j" horiz-adv-x="569" 
d="M264 1492q0 42 29 71t67 29t62 -26q22 -26 22 -69t-26 -71t-68 -28t-64 26t-22 68zM-199 -539l-24 82q219 76 306 207t116 445l69 768h-172l6 90h279l-76 -844q-23 -248 -80 -392t-154 -223q-98 -78 -270 -133z" />
    <glyph glyph-name="k" unicode="k" horiz-adv-x="1062" 
d="M725 1073q90 0 149 -56t60 -149q0 -126 -136 -236t-343 -153l331 -389h162l-8 -90h-217l-412 487q-31 -135 -59 -487h-98q31 233 51 455l90 1030h-199l8 90h299l-51 -586q-8 -98 -57 -356h4q23 76 35 104q145 336 391 336zM827 854q0 57 -30 89q-31 32 -84 32
q-135 0 -239 -130t-157 -327q199 31 355 126q155 95 155 210z" />
    <glyph glyph-name="l" unicode="l" horiz-adv-x="530" 
d="M154 0l131 1485h-189l8 90h287l-131 -1485h174l-8 -90h-272z" />
    <glyph glyph-name="m" unicode="m" horiz-adv-x="1744" 
d="M948 832q0 -104 -30 -267h4q36 137 136 302q54 89 136 147t174 59q92 0 132 -60t43 -142q1 -26 1 -64q0 -129 -84 -717h166l-8 -90h-272q6 41 52 338t47 445q1 147 -45 176q-24 15 -61 16q-98 0 -214 -153t-170 -334t-99 -488h-98q4 27 19 131q15 103 21 147
q52 345 52 521t-98 176q-62 -1 -134 -59q-171 -138 -270 -477q-57 -196 -80 -439h-98q12 72 43 432l39 531h-176l8 90h276l-26 -299q-12 -150 -39 -287h4q8 25 14 59q26 118 129 308q54 102 142 171t191 69t138 -70q35 -68 35 -172z" />
    <glyph glyph-name="n" unicode="n" 
d="M774 1073q176 0 176 -248q0 -150 -78 -735h170l-8 -90h-276q94 639 94 807t-102 168q-89 0 -195 -116q-225 -255 -303 -859h-98q31 233 51 455l45 508h-187l9 90h286l-41 -359q-6 -68 -19 -144q-13 -75 -17 -101h4q4 14 11 44q43 186 163 375q57 90 140 148t175 57z" />
    <glyph glyph-name="o" unicode="o" horiz-adv-x="985" 
d="M432 70q96 0 169 50t111 131q74 158 74 348t-72 287t-178 97q-200 0 -287 -179q-79 -160 -79 -341t63 -287t199 -106zM63 451q0 349 202 526q112 96 273 96t258 -119q97 -118 97 -370t-123 -428t-342 -176q-160 0 -262 112t-103 359z" />
    <glyph glyph-name="p" unicode="p" horiz-adv-x="1099" 
d="M760 1073q70 0 119 -37q114 -86 114 -352q0 -170 -55 -325t-178 -263t-291 -108q-121 0 -201 26l-43 -438h176l-8 -90h-416l9 90h141l123 1387h-172l8 90h272l-20 -230q-10 -123 -49 -338h4q4 13 13 53t16 62q66 203 178 338q113 135 260 135zM887 711q0 272 -152 272
q-129 0 -269 -240t-171 -485q-6 -78 -21 -152q121 -37 183 -36q117 0 203 58q151 101 204 358q23 108 23 225z" />
    <glyph glyph-name="q" unicode="q" horiz-adv-x="1099" 
d="M645 991q-100 0 -191 -55q-159 -96 -216 -349q-25 -108 -25 -236q0 -129 40 -201t105 -72q90 0 189 123t167 293t93 323l20 137q-82 37 -182 37zM649 1073q123 0 223 -39h70q-14 -74 -31 -270l-104 -1188h174l-8 -90h-414l8 90h142l57 651q12 137 57 375h-4
q-4 -8 -15 -46t-20 -56q-102 -250 -178 -353q-119 -160 -262 -159q-70 0 -119 36q-115 85 -119 338q0 167 50 304q50 136 107 216q59 80 161 136q102 55 225 55z" />
    <glyph glyph-name="r" unicode="r" horiz-adv-x="796" 
d="M723 1073q43 0 78 -10l-17 -96q-37 8 -69 8q-80 0 -146 -51q-67 -52 -109 -142t-73 -186q-60 -186 -98 -571q-2 -16 -2 -25h-99q43 440 52 551l32 412h-172l9 90h268l-29 -283q-12 -106 -35 -229h4q6 18 14 53q7 35 11 53q61 203 117 285q98 141 264 141z" />
    <glyph glyph-name="s" unicode="s" horiz-adv-x="909" 
d="M76 295h98v-180q20 -13 82 -29t125 -16q133 0 207 54t74 137t-44 126t-204 107q-162 64 -229 115q-67 52 -67 180t103 206q102 78 281 78q121 0 266 -47v-244h-98v179q-88 31 -188 31t-179 -51q-78 -50 -78 -155q0 -66 48 -106q47 -40 151 -78q104 -39 146 -58
q138 -63 175 -141q23 -47 23 -112q0 -133 -98 -222t-282 -89t-312 61v254z" />
    <glyph glyph-name="t" unicode="t" horiz-adv-x="720" 
d="M436 70q111 0 215 65l-6 -96q-115 -59 -233 -59t-162 64q-43 64 -43 171q0 35 14 236l45 512h-180l8 90h180l25 278h98l-24 -278h315l-8 -90h-315l-43 -492q-16 -205 -17 -233q0 -168 131 -168z" />
    <glyph glyph-name="u" unicode="u" horiz-adv-x="1175" 
d="M375 -20q-176 0 -176 247q0 150 77 736h-170l9 90h276q-94 -639 -94 -807t102 -168q91 0 195 116q61 69 117 172q55 103 106 282t80 405h98q-31 -233 -51 -455l-45 -508h186l-8 -90h-286l40 350q6 47 21 131q14 84 18 113h-4q-40 -210 -182 -420q-57 -84 -139 -139
t-170 -55z" />
    <glyph glyph-name="v" unicode="v" 
d="M324 537q0 -252 33 -356q34 -103 120 -103q119 0 223 164q131 207 177 610l12 111h-180l8 90h278l-12 -140q-27 -328 -127 -583q-63 -162 -174 -256t-215 -94q-149 0 -196 135q-33 95 -39 197q-7 102 -7 229t17 422h-179l9 90h278q-26 -429 -26 -516z" />
    <glyph glyph-name="w" unicode="w" horiz-adv-x="1669" 
d="M897 441q0 -155 34 -259t127 -104t163 80q71 80 107 190t66 279q30 170 31 336h-172l7 90h272q-4 -70 -6 -116t-12 -137q-57 -546 -235 -720q-104 -102 -229 -101t-180 95t-55 243v82h-4q-41 -184 -138 -302q-97 -117 -223 -117t-178 84t-60 173q-9 89 -9 205
q0 117 33 521h-173l9 90h280q-6 -33 -26 -285t-17 -389q4 -137 18 -173q13 -36 29 -68q30 -60 118 -60t173 123q86 123 115 257t72 595h98q-35 -457 -35 -612z" />
    <glyph glyph-name="x" unicode="x" horiz-adv-x="1099" 
d="M63 0l9 82l424 465l-234 416h-160l9 90h225l235 -432l308 342h-179l9 90h295l-9 -90l-381 -420l246 -453h168l-8 -90h-227l-250 465l-344 -375h163l-8 -90h-291z" />
    <glyph glyph-name="y" unicode="y" horiz-adv-x="1062" 
d="M90 -539q-61 0 -100 15l14 90q154 -48 270 48q63 52 127 195q25 52 68 148l-270 1006h-154l8 90h238l209 -828q12 -53 28 -145h4q14 45 48 135l282 748h-178l8 90h287l-8 -66q-53 -160 -176 -472t-181 -460q-132 -340 -242 -467t-282 -127z" />
    <glyph glyph-name="z" unicode="z" horiz-adv-x="985" 
d="M63 0l9 86l630 811q27 37 60 66h-551l-23 -164h-82l23 254h766l-8 -68l-631 -819q-33 -43 -66 -76h582l25 164h82l-25 -254h-791z" />
    <glyph glyph-name="braceleft" unicode="{" horiz-adv-x="606" 
d="M338 -514q-182 0 -182 217q0 102 24 313t23 293q0 170 -113 176l8 90q70 4 108 74t52 240l35 407q23 279 227 279h105l-9 -90h-84q-115 0 -131 -158l-39 -459q-27 -307 -169 -336v-4q117 -41 116 -219l-47 -628q0 -104 103 -105h86l-9 -90h-104z" />
    <glyph glyph-name="bar" unicode="|" horiz-adv-x="454" 
d="M178 -512v2048h98v-2048h-98z" />
    <glyph glyph-name="braceright" unicode="}" horiz-adv-x="606" 
d="M207 1575q182 0 182 -217q1 -102 -23 -313t-24 -293q0 -170 113 -177l-9 -90q-70 -3 -108 -73t-51 -240l-35 -408q-23 -279 -227 -278h-105l8 90h84q115 0 131 158l39 459q27 307 170 335v4q-117 41 -116 220l47 628q0 104 -103 105h-86l8 90h105z" />
    <glyph glyph-name="asciitilde" unicode="~" horiz-adv-x="1228" 
d="M397 637q80 0 236 -70q156 -69 198 -69q43 0 79 26t52 44q15 19 52 69l73 -62q-41 -55 -67 -86t-78 -61q-51 -30 -120 -29q-69 0 -202 70q-133 69 -233 69t-172 -139l-74 62q92 176 256 176z" />
    <glyph glyph-name="uni00A0" unicode="&#xa0;" horiz-adv-x="569" 
 />
    <glyph glyph-name="exclamdown" unicode="&#xa1;" horiz-adv-x="606" 
d="M354 594l-82 -1092h-114l106 1092h90zM350 1090q38 0 60 -24q24 -24 24 -64q0 -41 -24 -72t-65 -31q-39 0 -63 29q-24 28 -24 68t27 67t65 27z" />
    <glyph glyph-name="cent" unicode="&#xa2;" 
d="M184 423q0 467 287 608q72 36 145 42l19 219h82l-19 -219q139 0 271 -41l-25 -241h-90l8 167q-86 25 -172 25l-80 -913q72 0 154 26t139 66l-14 -111q-129 -72 -287 -71l-22 -248h-82l22 248q-160 16 -248 139t-88 304zM291 442q0 -145 58 -244t179 -122l80 907
q-154 -20 -236 -175t-81 -366z" />
    <glyph glyph-name="sterling" unicode="&#xa3;" 
d="M285 674v33h-207l8 90h199v86q0 571 481 571q152 0 311 -55l-24 -260h-90l8 196q-76 29 -203 29q-205 0 -291 -117t-86 -356v-94h318l-9 -90h-309v-58q0 -188 -32 -346t-93 -209v-4h596l33 201h90l-31 -291h-927l8 90h133q117 154 117 584z" />
    <glyph glyph-name="currency" unicode="&#xa4;" 
d="M160 717q0 -168 121 -289t289 -121t288 121q121 121 121 289t-121 289q-121 120 -289 120q-169 0 -289 -120t-120 -289zM61 716q0 180 109 316l-109 115l78 78l109 -115q135 115 321 115t322 -115l108 115l78 -78l-108 -115q109 -135 109 -315t-109 -316l108 -114
l-78 -78l-108 115q-135 -115 -321 -115t-322 115l-109 -115l-78 78l109 114q-109 135 -109 315z" />
    <glyph glyph-name="yen" unicode="&#xa5;" 
d="M221 367l8 82h287l16 161h-286l8 82h238l-293 651h-138l9 91h344l-8 -91h-109l289 -643l401 643h-145l8 91h350l-8 -91h-123l-399 -651h248l-9 -82h-286l-17 -161h287l-8 -82h-287l-27 -277h144l-8 -90h-351l9 90h116l27 277h-287z" />
    <glyph glyph-name="brokenbar" unicode="&#xa6;" horiz-adv-x="454" 
d="M178 666v716h98v-716h-98zM178 -358v716h98v-716h-98z" />
    <glyph glyph-name="section" unicode="&#xa7;" 
d="M276 561q0 -168 355 -330q81 27 145 89t64 142q0 78 -33 133t-135 112l-193 108q-203 -92 -203 -254zM769 -330q-122 -94 -316 -94t-359 62l25 249h90l-8 -174q95 -47 243 -47t244 58t96 188q0 72 -42 118t-124 93l-215 123q-233 131 -233 301q0 121 76 204t178 103v4
q-74 32 -131 100t-57 170q0 154 109 244q110 90 289 90t335 -43l-25 -250h-90l8 181q-84 30 -208 30t-218 -56t-94 -175q0 -66 30 -114q30 -49 64 -73t111 -69l203 -117q92 -52 144 -116t52 -172t-78 -194q-78 -85 -174 -101v-5q197 -100 197 -262t-122 -256z" />
    <glyph glyph-name="dieresis" unicode="&#xa8;" horiz-adv-x="569" 
d="M575 1294q-78 0 -77 74q0 35 21 65q22 29 61 29t58 -22t19 -51q1 -31 -19 -63t-63 -32zM170 1294q-78 0 -78 74q0 35 22 65q22 29 60 29t58 -22q42 -47 0 -113q-19 -33 -62 -33z" />
    <glyph glyph-name="copyright" unicode="&#xa9;" horiz-adv-x="1638" 
d="M172 717q0 -267 189 -457t457 -190t459 189q189 189 189 457t-189 458t-457 190t-459 -189q-189 -190 -189 -458zM838 246q-199 0 -321 134t-122 339t119 336t324 131q150 0 255 -82t126 -227h-107q-18 92 -91 151t-183 59q-160 0 -248 -103t-88 -261q0 -159 92 -269
t244 -110q112 0 184 62t90 157h107q-33 -153 -133 -235t-248 -82zM74 717q0 309 218 527t527 218t527 -218t219 -527q0 -309 -218 -527q-217 -218 -527 -219q-310 1 -528 219t-218 527z" />
    <glyph glyph-name="ordfeminine" unicode="&#xaa;" horiz-adv-x="714" 
d="M190 1028q0 -156 89 -156q67 0 157 140t111 317l4 37q-49 23 -111 23t-117 -41q-89 -65 -121 -222q-12 -53 -12 -98zM92 1028q0 170 89 298t270 128q41 0 137 -20h67q-10 -41 -24 -205l-35 -348h96l-6 -66h-188l39 285h-5q-91 -214 -185 -274q-44 -28 -93 -27
q-90 1 -126 69t-36 160z" />
    <glyph glyph-name="guillemotleft" unicode="&#xab;" horiz-adv-x="948" 
d="M367 201l-263 309l9 74l311 280l65 -65l-282 -256l235 -277zM727 201l-262 309l8 74l311 280l66 -65l-283 -256l236 -277z" />
    <glyph glyph-name="logicalnot" unicode="&#xac;" horiz-adv-x="1228" 
d="M1034 227v443h-938v98h1037v-541h-99z" />
    <glyph glyph-name="uni00AD" unicode="&#xad;" horiz-adv-x="720" 
d="M133 483l8 99h426l-8 -99h-426z" />
    <glyph glyph-name="registered" unicode="&#xae;" horiz-adv-x="1638" 
d="M172 717q0 -267 189 -457t457 -190t459 189q189 189 189 457t-189 458t-457 190t-459 -189q-189 -190 -189 -458zM74 717q0 309 218 527t527 218t527 -218t219 -527q0 -309 -218 -527q-217 -218 -527 -219q-310 1 -528 219t-218 527zM633 1077v-319h225q217 -4 217 162
q0 158 -217 157h-225zM535 268v899h346q293 0 293 -249q0 -211 -226 -250l266 -400h-110l-266 400h-205v-400h-98z" />
    <glyph glyph-name="macron" unicode="&#xaf;" horiz-adv-x="569" 
d="M133 1323l8 90h459l-8 -90h-459z" />
    <glyph glyph-name="degree" unicode="&#xb0;" horiz-adv-x="819" 
d="M227 1161q-1 -84 59 -143q60 -60 144 -60t143 60t60 143t-59 143t-144 60t-144 -60t-59 -143zM137 1161q0 121 86 207t207 86t207 -86t86 -207t-86 -207t-207 -86t-207 86t-86 207z" />
    <glyph glyph-name="plusminus" unicode="&#xb1;" horiz-adv-x="1228" 
d="M96 0v98h1037v-98h-1037zM565 659v377h99v-377h469v-98h-469v-377h-99v377h-469v98h469z" />
    <glyph glyph-name="twosuperior" unicode="&#xb2;" horiz-adv-x="739" 
d="M549 1238q0 58 -42 100t-120 42t-123 -40t-74 -119h-90q18 96 94 169q76 72 205 72q128 0 188 -68t60 -146q0 -79 -54 -172t-228 -249l-185 -163h467l-6 -82h-584l6 75q219 201 315 301q97 99 134 161t37 119z" />
    <glyph glyph-name="threesuperior" unicode="&#xb3;" horiz-adv-x="739" 
d="M275 647q139 0 203 50q64 51 65 119q0 125 -99 153q-77 22 -202 22l6 82h26q121 0 196 56q75 55 75 117t-38 98t-114 36q-145 0 -180 -125h-90q1 27 23 67t50 69t83 51t124 20q119 0 177 -55t57 -141q0 -86 -66 -144t-172 -78v-4q242 -23 242 -200q0 -113 -90 -194
t-264 -81q-103 0 -226 39l7 90q68 -47 207 -47z" />
    <glyph glyph-name="acute" unicode="&#xb4;" horiz-adv-x="569" 
d="M627 1470l-305 -249l-68 57l291 248z" />
    <glyph glyph-name="mu" unicode="&#xb5;" horiz-adv-x="1175" 
d="M377 -20q-86 0 -115 59h-4l-65 -553h-99q68 633 182 1477h-170l9 90h276q-94 -639 -94 -807t102 -168q91 0 195 116q61 69 117 172q55 103 106 282t80 405h98q-31 -233 -51 -455l-45 -508h186l-8 -90h-286l40 350q6 47 21 131q14 84 18 113h-4q-40 -210 -182 -420
q-57 -84 -139 -139t-168 -55z" />
    <glyph glyph-name="paragraph" unicode="&#xb6;" horiz-adv-x="1228" 
d="M606 1434h361l-160 -1829h-98l151 1738h-215l-151 -1738h-99l92 1050q-135 0 -221 108t-82 265q2 190 123 298t299 108z" />
    <glyph glyph-name="periodcentered" unicode="&#xb7;" horiz-adv-x="569" 
d="M170 598q0 47 34 81t81 34t81 -34t34 -81t-34 -81t-81 -34t-81 34t-34 81z" />
    <glyph glyph-name="cedilla" unicode="&#xb8;" horiz-adv-x="569" 
d="M281 -346q111 0 110 78q0 37 -33 54t-59 17t-57 -6l16 203h90l-16 -131q174 0 174 -129q0 -70 -60 -123q-109 -97 -329 -23l6 89q86 -29 158 -29z" />
    <glyph glyph-name="onesuperior" unicode="&#xb9;" horiz-adv-x="739" 
d="M147 582l9 82h155l72 684l-244 -134l-26 74l290 158h82l-75 -782h180l-8 -82h-435z" />
    <glyph glyph-name="ordmasculine" unicode="&#xba;" horiz-adv-x="739" 
d="M219 1092q0 -211 152 -211q109 0 159 89t52 192q0 102 -44 156t-108 54q-102 0 -157 -91q-54 -92 -54 -189zM121 1082q0 150 80 262q80 110 241 110q110 0 174 -72t64 -224t-82 -255q-82 -104 -229 -104q-111 0 -180 66q-68 67 -68 217z" />
    <glyph glyph-name="guillemotright" unicode="&#xbb;" horiz-adv-x="948" 
d="M567 864l262 -309l-8 -74l-311 -280l-66 65l283 256l-235 277zM207 864l262 -309l-8 -74l-311 -280l-66 65l283 256l-236 277z" />
    <glyph glyph-name="onequarter" unicode="&#xbc;" horiz-adv-x="1708" 
d="M147 582l9 82h155l72 684l-244 -134l-26 74l290 158h82l-75 -782h180l-8 -82h-435zM344 -55l946 1587l76 -43l-946 -1587zM1356 82l20 188h-418l7 78l465 516h100l-47 -512h149l-6 -82h-151l-21 -188h105l-7 -82h-284l6 82h82zM1384 352l43 389h-4l-356 -389h317z" />
    <glyph glyph-name="onehalf" unicode="&#xbd;" horiz-adv-x="1708" 
d="M1518 656q0 56 -42 100q-42 43 -120 43t-123 -40t-74 -120h-90q18 96 94 169t204 73t188 -68q61 -69 61 -147t-54 -171t-229 -249l-184 -164h467l-6 -82h-584l6 76q125 115 179 166q216 204 261 281q46 77 46 133zM147 582l9 82h155l72 684l-244 -134l-26 74l290 158h82
l-75 -782h180l-8 -82h-435zM344 -55l946 1587l76 -43l-946 -1587z" />
    <glyph glyph-name="threequarters" unicode="&#xbe;" horiz-adv-x="1708" 
d="M275 647q139 0 203 50q64 51 65 119q0 125 -99 153q-77 22 -202 22l6 82h26q121 0 196 56q75 55 75 117t-38 98t-114 36q-145 0 -180 -125h-90q1 27 23 67t50 69t83 51t124 20q119 0 177 -55t57 -141q0 -86 -66 -144t-172 -78v-4q242 -23 242 -200q0 -113 -90 -194
t-264 -81q-103 0 -226 39l7 90q68 -47 207 -47zM344 -55l946 1587l76 -43l-946 -1587zM1356 82l20 188h-418l7 78l465 516h100l-47 -512h149l-6 -82h-151l-21 -188h105l-7 -82h-284l6 82h82zM1384 352l43 389h-4l-356 -389h317z" />
    <glyph glyph-name="questiondown" unicode="&#xbf;" horiz-adv-x="985" 
d="M597 1090q37 0 61 -24t24 -64q0 -41 -25 -72t-65 -31t-63 29q-23 28 -23 68t26 67q27 27 65 27zM426 -416q129 0 217 39l21 -92q-135 -45 -254 -45q-182 0 -280 95q-97 95 -97 225t62 217q62 88 132 135l140 94q85 58 113 78t52 52t25 74q-1 42 -31 79t-34 43l81 63
q90 -96 91 -186q0 -53 -23 -92t-42 -56q-19 -18 -32 -32t-33 -25q-20 -12 -42 -28t-27 -17l-139 -92q-186 -123 -187 -285q0 -116 79 -180t208 -64z" />
    <glyph glyph-name="Agrave" unicode="&#xc0;" horiz-adv-x="1554" 
d="M680 1825l254 -246l-70 -59l-266 247zM1004 672l-142 530q-25 96 -31 144h-4q-20 -61 -55 -144l-235 -530h467zM18 0l9 90h143l616 1354h115l377 -1354h172l-8 -90h-422l8 90h133l-133 492h-532l-220 -492h173l-9 -90h-422z" />
    <glyph glyph-name="Aacute" unicode="&#xc1;" horiz-adv-x="1554" 
d="M1120 1769l-305 -249l-67 57l290 248zM1004 672l-142 530q-25 96 -31 144h-4q-20 -61 -55 -144l-235 -530h467zM18 0l9 90h143l616 1354h115l377 -1354h172l-8 -90h-422l8 90h133l-133 492h-532l-220 -492h173l-9 -90h-422z" />
    <glyph glyph-name="Acircumflex" unicode="&#xc2;" horiz-adv-x="1554" 
d="M569 1610l265 207h86l231 -207l-82 -58l-201 191l-229 -191zM1004 672l-142 530q-25 96 -31 144h-4q-20 -61 -55 -144l-235 -530h467zM18 0l9 90h143l616 1354h115l377 -1354h172l-8 -90h-422l8 90h133l-133 492h-532l-220 -492h173l-9 -90h-422z" />
    <glyph glyph-name="Atilde" unicode="&#xc3;" horiz-adv-x="1554" 
d="M993 1546q-49 0 -135 58t-117 59q-31 0 -53 -19q-22 -20 -30 -36q-9 -16 -23 -52l-84 37q21 63 69 115t114 53q66 0 148 -58q84 -58 114 -58t53 21q22 22 51 67l74 -56q-72 -131 -181 -131zM1004 672l-142 530q-25 96 -31 144h-4q-20 -61 -55 -144l-235 -530h467zM18 0
l9 90h143l616 1354h115l377 -1354h172l-8 -90h-422l8 90h133l-133 492h-532l-220 -492h173l-9 -90h-422z" />
    <glyph glyph-name="Adieresis" unicode="&#xc4;" horiz-adv-x="1554" 
d="M1069 1593q-78 0 -78 74q0 35 22 65q23 30 61 30t58 -22q19 -22 19 -52q1 -30 -19 -62q-20 -33 -63 -33zM664 1593q-78 0 -78 74q0 35 21 65q22 30 61 30t58 -22t19 -52t-19 -62q-19 -33 -62 -33zM1004 672l-142 530q-25 96 -31 144h-4q-20 -61 -55 -144l-235 -530h467z
M18 0l9 90h143l616 1354h115l377 -1354h172l-8 -90h-422l8 90h133l-133 492h-532l-220 -492h173l-9 -90h-422z" />
    <glyph glyph-name="Aring" unicode="&#xc5;" horiz-adv-x="1554" 
d="M688 1660q0 75 53 138q53 64 133 64t124 -45q46 -45 46 -132t-55 -143t-134 -55q-79 0 -123 49t-44 124zM770 1667q0 -47 25 -77t71 -30t72 38q25 38 25 85q0 104 -89 105q-48 0 -76 -37t-28 -84zM1004 672l-142 530q-25 96 -31 144h-4q-20 -61 -55 -144l-235 -530h467z
M18 0l9 90h143l616 1354h115l377 -1354h172l-8 -90h-422l8 90h133l-133 492h-532l-220 -492h173l-9 -90h-422z" />
    <glyph glyph-name="AE" unicode="&#xc6;" horiz-adv-x="1933" 
d="M1077 758l51 585h-131l-352 -585h432zM-2 0l8 90h131l817 1344h871l-25 -293h-90l8 202h-483l-51 -585h506l-9 -90h-503l-54 -578h576l29 201h90l-27 -291h-924l9 90h141l53 578h-475l-346 -578h172l-8 -90h-416z" />
    <glyph glyph-name="Ccedilla" unicode="&#xc7;" horiz-adv-x="1327" 
d="M967 -260q1 -70 -59 -123t-150 -53t-180 30l6 89q86 -29 157 -29q111 0 111 78q0 37 -33 54t-59 17t-58 -6l17 174q-452 28 -563 439q-31 111 -31 218t16 203t68 213q51 117 131 206q80 88 219 150t300 62t364 -59l-9 -270h-98l8 202q-123 37 -258 37t-248 -46
q-112 -46 -182 -120q-196 -208 -196 -573q0 -272 148 -422t409 -150q143 0 254 43l20 195h90l-20 -268q-152 -51 -332 -60l-16 -102q174 0 174 -129z" />
    <glyph glyph-name="Egrave" unicode="&#xc8;" 
d="M471 1825l254 -246l-70 -59l-266 247zM66 0l8 90h139l111 1253h-170l8 91h889l-25 -291h-90l8 200h-514l-49 -555h526l-6 -90h-528l-54 -608h576l29 201h90l-27 -291h-921z" />
    <glyph glyph-name="Eacute" unicode="&#xc9;" 
d="M911 1769l-305 -249l-67 57l290 248zM66 0l8 90h139l111 1253h-170l8 91h889l-25 -291h-90l8 200h-514l-49 -555h526l-6 -90h-528l-54 -608h576l29 201h90l-27 -291h-921z" />
    <glyph glyph-name="Ecircumflex" unicode="&#xca;" 
d="M360 1610l265 207h86l231 -207l-82 -58l-201 191l-229 -191zM66 0l8 90h139l111 1253h-170l8 91h889l-25 -291h-90l8 200h-514l-49 -555h526l-6 -90h-528l-54 -608h576l29 201h90l-27 -291h-921z" />
    <glyph glyph-name="Edieresis" unicode="&#xcb;" 
d="M860 1593q-78 0 -78 74q0 35 22 65t60 30t59 -22q19 -22 19 -52t-20 -62q-20 -33 -62 -33zM455 1593q-78 0 -78 74q0 35 21 65q22 30 61 30t58 -22q41 -46 0 -114q-19 -33 -62 -33zM66 0l8 90h139l111 1253h-170l8 91h889l-25 -291h-90l8 200h-514l-49 -555h526l-6 -90
h-528l-54 -608h576l29 201h90l-27 -291h-921z" />
    <glyph glyph-name="Igrave" unicode="&#xcc;" horiz-adv-x="643" 
d="M223 1825l254 -246l-69 -59l-267 247zM66 0l8 90h139l111 1253h-170l8 91h416l-9 -91h-139l-111 -1253h170l-8 -90h-415z" />
    <glyph glyph-name="Iacute" unicode="&#xcd;" horiz-adv-x="643" 
d="M664 1769l-306 -249l-67 57l291 248zM66 0l8 90h139l111 1253h-170l8 91h416l-9 -91h-139l-111 -1253h170l-8 -90h-415z" />
    <glyph glyph-name="Icircumflex" unicode="&#xce;" horiz-adv-x="643" 
d="M113 1610l264 207h86l231 -207l-82 -58l-200 191l-230 -191zM66 0l8 90h139l111 1253h-170l8 91h416l-9 -91h-139l-111 -1253h170l-8 -90h-415z" />
    <glyph glyph-name="Idieresis" unicode="&#xcf;" horiz-adv-x="643" 
d="M612 1593q-78 0 -77 74q0 35 21 65q22 30 61 30t58 -22t19 -52t-20 -62q-20 -33 -62 -33zM207 1593q-78 0 -78 74q0 35 22 65q23 30 61 30t57 -22q41 -46 0 -114q-19 -33 -62 -33zM66 0l8 90h139l111 1253h-170l8 91h416l-9 -91h-139l-111 -1253h170l-8 -90h-415z" />
    <glyph glyph-name="Eth" unicode="&#xd0;" horiz-adv-x="1478" 
d="M698 1434q206 0 308 -33t170 -88q205 -166 204 -498q0 -291 -155 -514q-209 -301 -619 -301h-540l8 90h139l53 608h-151l8 90h151l50 555h-170l8 91h536zM610 90q377 0 543 299q113 201 113 427t-103 358q-70 90 -163 130t-255 39h-315l-49 -555h420l-8 -90h-420
l-54 -608h291z" />
    <glyph glyph-name="Ntilde" unicode="&#xd1;" horiz-adv-x="1554" 
d="M993 1546q-49 0 -135 58t-117 59q-31 0 -53 -19q-22 -20 -30 -36q-9 -16 -23 -52l-84 37q21 63 69 115t114 53q66 0 148 -58q84 -58 114 -58t53 21q22 22 51 67l74 -56q-72 -131 -181 -131zM49 0l8 90h146l104 1253h-164l9 91h245l703 -1172q10 -18 28 -53l19 -33h4
l102 1167h-182l8 91h426l-8 -91h-145l-117 -1343h-98l-703 1174q-23 41 -35 71h-4l-94 -1155h182l-8 -90h-426z" />
    <glyph glyph-name="Ograve" unicode="&#xd2;" horiz-adv-x="1478" 
d="M641 1825l254 -246l-70 -59l-266 247zM125 618q0 392 190 618t492 226q262 0 404 -172q143 -172 143 -484t-152 -562q-76 -125 -210 -199t-308 -74q-279 0 -419 180t-140 467zM1239 838q0 238 -110 386t-328 148q-127 0 -227 -48t-160 -123q-174 -214 -174 -588
q0 -235 92 -369q123 -182 358 -183q121 -1 236 63q114 64 184 178t99 236q30 122 30 300z" />
    <glyph glyph-name="Oacute" unicode="&#xd3;" horiz-adv-x="1478" 
d="M1081 1769l-305 -249l-67 57l290 248zM125 618q0 392 190 618t492 226q262 0 404 -172q143 -172 143 -484t-152 -562q-76 -125 -210 -199t-308 -74q-279 0 -419 180t-140 467zM1239 838q0 238 -110 386t-328 148q-127 0 -227 -48t-160 -123q-174 -214 -174 -588
q0 -235 92 -369q123 -182 358 -183q121 -1 236 63q114 64 184 178t99 236q30 122 30 300z" />
    <glyph glyph-name="Ocircumflex" unicode="&#xd4;" horiz-adv-x="1478" 
d="M530 1610l265 207h86l231 -207l-82 -58l-201 191l-229 -191zM125 618q0 392 190 618t492 226q262 0 404 -172q143 -172 143 -484t-152 -562q-76 -125 -210 -199t-308 -74q-279 0 -419 180t-140 467zM1239 838q0 238 -110 386t-328 148q-127 0 -227 -48t-160 -123
q-174 -214 -174 -588q0 -235 92 -369q123 -182 358 -183q121 -1 236 63q114 64 184 178t99 236q30 122 30 300z" />
    <glyph glyph-name="Otilde" unicode="&#xd5;" horiz-adv-x="1478" 
d="M954 1546q-49 0 -135 58t-117 59q-30 0 -52 -19q-22 -20 -30 -36t-24 -52l-84 37q20 63 68 115t114 53q66 0 149 -58t113 -58t54 21q22 22 51 67l74 -56q-72 -131 -181 -131zM125 618q0 392 190 618t492 226q262 0 404 -172q143 -172 143 -484t-152 -562
q-76 -125 -210 -199t-308 -74q-279 0 -419 180t-140 467zM1239 838q0 238 -110 386t-328 148q-127 0 -227 -48t-160 -123q-174 -214 -174 -588q0 -235 92 -369q123 -182 358 -183q121 -1 236 63q114 64 184 178t99 236q30 122 30 300z" />
    <glyph glyph-name="Odieresis" unicode="&#xd6;" horiz-adv-x="1478" 
d="M1030 1593q-78 0 -78 74q0 35 22 65t60 30t59 -22q19 -22 19 -52t-20 -62q-20 -33 -62 -33zM625 1593q-78 0 -78 74q0 35 21 65q22 30 61 30t58 -22q41 -46 0 -114q-19 -33 -62 -33zM125 618q0 392 190 618t492 226q262 0 404 -172q143 -172 143 -484t-152 -562
q-76 -125 -210 -199t-308 -74q-279 0 -419 180t-140 467zM1239 838q0 238 -110 386t-328 148q-127 0 -227 -48t-160 -123q-174 -214 -174 -588q0 -235 92 -369q123 -182 358 -183q121 -1 236 63q114 64 184 178t99 236q30 122 30 300z" />
    <glyph glyph-name="multiply" unicode="&#xd7;" horiz-adv-x="1228" 
d="M154 125l391 391l-391 391l69 70l391 -391l392 391l69 -70l-391 -391l391 -391l-69 -70l-392 391l-391 -391z" />
    <glyph glyph-name="Oslash" unicode="&#xd8;" horiz-adv-x="1478" 
d="M1239 838q0 246 -109 385l-716 -1067q117 -94 257 -94t255 62q114 64 184 178t99 236q30 122 30 300zM125 618q0 392 190 618t492 226q184 0 317 -92l179 264l71 -47l-182 -274q162 -171 162 -495t-152 -574q-76 -125 -210 -199t-320 -74t-316 97l-180 -269l-72 47
l187 279q-166 168 -166 493zM820 1372q-146 0 -246 -48t-160 -123q-174 -214 -174 -588q0 -235 92 -369q8 -15 20 -27l717 1069q-103 86 -249 86z" />
    <glyph glyph-name="Ugrave" unicode="&#xd9;" horiz-adv-x="1478" 
d="M641 1825l254 -246l-70 -59l-266 247zM672 -29q-459 0 -459 400q0 39 20 280l62 692h-170l8 91h414l-8 -91h-138l-61 -663q-20 -219 -21 -313q0 -305 359 -306q118 1 192 25t108 52t58 52t65 123q16 46 22 101q5 55 10 98l71 831h-182l8 91h414l-8 -91h-142l-71 -843
q-25 -268 -117 -369q-150 -160 -434 -160z" />
    <glyph glyph-name="Uacute" unicode="&#xda;" horiz-adv-x="1478" 
d="M1081 1769l-305 -249l-67 57l290 248zM672 -29q-459 0 -459 400q0 39 20 280l62 692h-170l8 91h414l-8 -91h-138l-61 -663q-20 -219 -21 -313q0 -305 359 -306q118 1 192 25t108 52t58 52t65 123q16 46 22 101q5 55 10 98l71 831h-182l8 91h414l-8 -91h-142l-71 -843
q-25 -268 -117 -369q-150 -160 -434 -160z" />
    <glyph glyph-name="Ucircumflex" unicode="&#xdb;" horiz-adv-x="1478" 
d="M530 1610l265 207h86l231 -207l-82 -58l-201 191l-229 -191zM672 -29q-459 0 -459 400q0 39 20 280l62 692h-170l8 91h414l-8 -91h-138l-61 -663q-20 -219 -21 -313q0 -305 359 -306q118 1 192 25t108 52t58 52t65 123q16 46 22 101q5 55 10 98l71 831h-182l8 91h414
l-8 -91h-142l-71 -843q-25 -268 -117 -369q-150 -160 -434 -160z" />
    <glyph glyph-name="Udieresis" unicode="&#xdc;" horiz-adv-x="1478" 
d="M1030 1593q-78 0 -78 74q0 35 22 65t60 30t59 -22q19 -22 19 -52t-20 -62q-20 -33 -62 -33zM625 1593q-78 0 -78 74q0 35 21 65q22 30 61 30t58 -22q41 -46 0 -114q-19 -33 -62 -33zM672 -29q-459 0 -459 400q0 39 20 280l62 692h-170l8 91h414l-8 -91h-138l-61 -663
q-20 -219 -21 -313q0 -305 359 -306q118 1 192 25t108 52t58 52t65 123q16 46 22 101q5 55 10 98l71 831h-182l8 91h414l-8 -91h-142l-71 -843q-25 -268 -117 -369q-150 -160 -434 -160z" />
    <glyph glyph-name="Yacute" unicode="&#xdd;" horiz-adv-x="1366" 
d="M1026 1769l-305 -249l-68 57l291 248zM428 0l8 90h142l45 518l-410 735h-168l8 91h414l-8 -91h-133q8 -8 32 -49l330 -598l426 598q20 33 41 49h-174l8 91h420l-8 -91h-146l-526 -731l-45 -522h172l-8 -90h-420z" />
    <glyph glyph-name="Thorn" unicode="&#xde;" horiz-adv-x="1099" 
d="M551 1167q461 0 463 -368q0 -211 -133 -336t-398 -125q-88 0 -141 8l-23 -256h187l-8 -90h-432l8 90h139l111 1253h-170l8 91h432l-8 -91h-156l-16 -176h137zM509 420q93 0 180 34q146 57 198 206q20 60 20 126q0 291 -342 291h-157l-58 -649q66 -8 159 -8z" />
    <glyph glyph-name="germandbls" unicode="&#xdf;" horiz-adv-x="1214" 
d="M-106 -449q143 -1 202 99t74 317l80 1139q16 231 133 358t334 127q176 1 272 -75t96 -187q0 -79 -45 -147q-46 -68 -110 -116t-128 -91q-154 -103 -155 -195q0 -92 164 -166q69 -30 137 -66t116 -98t48 -151q0 -147 -105 -233t-257 -86t-273 43l8 249h99l-9 -176
q76 -26 156 -26q242 2 270 174q4 25 5 51q0 119 -164 192q-68 31 -136 64t-117 90q-48 57 -48 133q0 132 154 238q65 43 129 86q154 103 155 225q0 90 -82 134t-180 44t-167 -34q-69 -33 -106 -77q-86 -101 -100 -352l-70 -1007q-6 -76 -11 -163t-21 -131t-34 -95t-46 -77
q-27 -25 -63 -53q-63 -48 -197 -51q-72 0 -181 35l9 90q94 -35 164 -35z" />
    <glyph glyph-name="agrave" unicode="&#xe0;" horiz-adv-x="1099" 
d="M453 1526l254 -246l-70 -59l-266 247zM625 991q-197 0 -310 -184q-102 -176 -102 -453t135 -276q121 0 248 207t190 604l11 63q-96 39 -172 39zM334 -20q-227 0 -228 380q0 281 123 489q61 103 170 163t231 61q122 0 218 -39h59q-23 -111 -41 -338l-49 -606h168l-8 -90
h-266l51 467q2 14 22 115h-4q-29 -106 -30 -115q-59 -176 -151 -317q-50 -78 -120 -124t-145 -46z" />
    <glyph glyph-name="aacute" unicode="&#xe1;" horiz-adv-x="1099" 
d="M893 1470l-305 -249l-68 57l291 248zM625 991q-197 0 -310 -184q-102 -176 -102 -453t135 -276q121 0 248 207t190 604l11 63q-96 39 -172 39zM334 -20q-227 0 -228 380q0 281 123 489q61 103 170 163t231 61q122 0 218 -39h59q-23 -111 -41 -338l-49 -606h168l-8 -90
h-266l51 467q2 14 22 115h-4q-29 -106 -30 -115q-59 -176 -151 -317q-50 -78 -120 -124t-145 -46z" />
    <glyph glyph-name="acircumflex" unicode="&#xe2;" horiz-adv-x="1099" 
d="M342 1311l264 207h86l232 -207l-82 -58l-201 191l-229 -191zM625 991q-197 0 -310 -184q-102 -176 -102 -453t135 -276q121 0 248 207t190 604l11 63q-96 39 -172 39zM334 -20q-227 0 -228 380q0 281 123 489q61 103 170 163t231 61q122 0 218 -39h59q-23 -111 -41 -338
l-49 -606h168l-8 -90h-266l51 467q2 14 22 115h-4q-29 -106 -30 -115q-59 -176 -151 -317q-50 -78 -120 -124t-145 -46z" />
    <glyph glyph-name="atilde" unicode="&#xe3;" horiz-adv-x="1099" 
d="M766 1247q-49 1 -135 59t-117 58q-30 0 -52 -19t-31 -35t-23 -53l-84 37q20 64 68 116t114 52t148 -58t114 -58q31 0 53 22t51 66l74 -56q-72 -131 -180 -131zM625 991q-197 0 -310 -184q-102 -176 -102 -453t135 -276q121 0 248 207t190 604l11 63q-96 39 -172 39z
M334 -20q-227 0 -228 380q0 281 123 489q61 103 170 163t231 61q122 0 218 -39h59q-23 -111 -41 -338l-49 -606h168l-8 -90h-266l51 467q2 14 22 115h-4q-29 -106 -30 -115q-59 -176 -151 -317q-50 -78 -120 -124t-145 -46z" />
    <glyph glyph-name="adieresis" unicode="&#xe4;" horiz-adv-x="1099" 
d="M842 1294q-78 0 -78 74q0 35 21 65q22 29 61 29t58 -22q42 -47 0 -113q-19 -33 -62 -33zM436 1294q-78 0 -78 74q0 35 22 65q22 29 61 29t58 -22t19 -51q0 -31 -20 -63t-62 -32zM625 991q-197 0 -310 -184q-102 -176 -102 -453t135 -276q121 0 248 207t190 604l11 63
q-96 39 -172 39zM334 -20q-227 0 -228 380q0 281 123 489q61 103 170 163t231 61q122 0 218 -39h59q-23 -111 -41 -338l-49 -606h168l-8 -90h-266l51 467q2 14 22 115h-4q-29 -106 -30 -115q-59 -176 -151 -317q-50 -78 -120 -124t-145 -46z" />
    <glyph glyph-name="aring" unicode="&#xe5;" horiz-adv-x="1099" 
d="M461 1361q0 75 53 138t132 63t125 -44q46 -45 46 -132q0 -86 -54 -142t-134 -56t-124 49t-44 124zM543 1368q1 -47 25 -77q24 -29 71 -29t72 38t24 84q0 104 -88 105q-47 0 -75 -37t-29 -84zM625 991q-197 0 -310 -184q-102 -176 -102 -453t135 -276q121 0 248 207
t190 604l11 63q-96 39 -172 39zM334 -20q-227 0 -228 380q0 281 123 489q61 103 170 163t231 61q122 0 218 -39h59q-23 -111 -41 -338l-49 -606h168l-8 -90h-266l51 467q2 14 22 115h-4q-29 -106 -30 -115q-59 -176 -151 -317q-50 -78 -120 -124t-145 -46z" />
    <glyph glyph-name="ae" unicode="&#xe6;" horiz-adv-x="1478" 
d="M725 305q0 47 8 96h-4q-28 -114 -120 -258q-45 -71 -115 -117t-143 -46q-141 0 -196 137q-47 110 -49 260q0 326 162 530q131 166 324 166q133 0 278 -117q109 117 281 117q123 0 191 -63q68 -62 67 -158q0 -96 -40 -167q-71 -127 -242 -189q-133 -51 -304 -62
q0 -208 56 -282q25 -33 75 -58t123 -24q115 0 271 84l-17 -109q-150 -66 -284 -65q-252 0 -309 226q-13 52 -13 99zM1112 983q-106 0 -182 -78q-50 -49 -70 -133t-37 -256q201 18 340 97t140 216q0 68 -42 111q-43 43 -149 43zM582 983q-100 0 -180 -62t-121 -171
q-68 -168 -68 -344t43 -252t106 -76q106 0 210 158t149 374l63 310q-102 63 -202 63z" />
    <glyph glyph-name="ccedilla" unicode="&#xe7;" horiz-adv-x="833" 
d="M393 -346q111 0 111 78q0 37 -33 54t-59 17t-58 -6l17 191q-113 16 -185 90t-97 166q-26 92 -26 205q0 266 127 445t373 179q92 0 219 -35l-24 -247h-90l8 178q-37 14 -105 14q-203 0 -302 -153t-99 -373q0 -166 64 -273q64 -106 200 -106t291 86l-8 -107
q-119 -70 -256 -77l-17 -111q174 0 174 -129q0 -70 -59 -123q-109 -98 -330 -23l7 89q86 -29 157 -29z" />
    <glyph glyph-name="egrave" unicode="&#xe8;" horiz-adv-x="909" 
d="M397 1526l254 -246l-69 -59l-267 247zM735 840q0 55 -38 99t-128 44q-156 0 -255 -134t-115 -341q229 18 383 108q153 91 153 224zM586 1073q124 0 190 -60q66 -59 66 -163t-64 -186t-166 -130q-196 -92 -413 -116q0 -187 57 -259q27 -34 81 -62t130 -27q123 0 295 96
l-8 -105q-143 -82 -301 -81q-199 0 -280 114t-81 342q0 227 115 423q57 97 157 155t222 59z" />
    <glyph glyph-name="eacute" unicode="&#xe9;" horiz-adv-x="909" 
d="M838 1470l-306 -249l-67 57l291 248zM735 840q0 55 -38 99t-128 44q-156 0 -255 -134t-115 -341q229 18 383 108q153 91 153 224zM586 1073q124 0 190 -60q66 -59 66 -163t-64 -186t-166 -130q-196 -92 -413 -116q0 -187 57 -259q27 -34 81 -62t130 -27q123 0 295 96
l-8 -105q-143 -82 -301 -81q-199 0 -280 114t-81 342q0 227 115 423q57 97 157 155t222 59z" />
    <glyph glyph-name="ecircumflex" unicode="&#xea;" horiz-adv-x="909" 
d="M287 1311l264 207h86l231 -207l-82 -58l-200 191l-230 -191zM735 840q0 55 -38 99t-128 44q-156 0 -255 -134t-115 -341q229 18 383 108q153 91 153 224zM586 1073q124 0 190 -60q66 -59 66 -163t-64 -186t-166 -130q-196 -92 -413 -116q0 -187 57 -259q27 -34 81 -62
t130 -27q123 0 295 96l-8 -105q-143 -82 -301 -81q-199 0 -280 114t-81 342q0 227 115 423q57 97 157 155t222 59z" />
    <glyph glyph-name="edieresis" unicode="&#xeb;" horiz-adv-x="909" 
d="M786 1294q-78 0 -77 74q0 35 21 65q22 29 61 29t58 -22t19 -51q0 -31 -20 -63t-62 -32zM381 1294q-78 0 -78 74q0 35 22 65q23 29 61 29t57 -22q42 -47 0 -113q-19 -33 -62 -33zM735 840q0 55 -38 99t-128 44q-156 0 -255 -134t-115 -341q229 18 383 108q153 91 153 224z
M586 1073q124 0 190 -60q66 -59 66 -163t-64 -186t-166 -130q-196 -92 -413 -116q0 -187 57 -259q27 -34 81 -62t130 -27q123 0 295 96l-8 -105q-143 -82 -301 -81q-199 0 -280 114t-81 342q0 227 115 423q57 97 157 155t222 59z" />
    <glyph glyph-name="igrave" unicode="&#xec;" horiz-adv-x="569" 
d="M186 1526l254 -246l-69 -59l-267 247zM188 0l86 963h-174l9 90h272l-86 -963h174l-8 -90h-273z" />
    <glyph glyph-name="iacute" unicode="&#xed;" horiz-adv-x="569" 
d="M627 1470l-305 -249l-68 57l291 248zM188 0l86 963h-174l9 90h272l-86 -963h174l-8 -90h-273z" />
    <glyph glyph-name="icircumflex" unicode="&#xee;" horiz-adv-x="569" 
d="M55 1311l264 207h87l231 -207l-82 -58l-201 191l-229 -191zM188 0l86 963h-174l9 90h272l-86 -963h174l-8 -90h-273z" />
    <glyph glyph-name="idieresis" unicode="&#xef;" horiz-adv-x="569" 
d="M575 1294q-78 0 -77 74q0 35 21 65q22 29 61 29t58 -22t19 -51q1 -31 -19 -63t-63 -32zM170 1294q-78 0 -78 74q0 35 22 65q22 29 60 29t58 -22q42 -47 0 -113q-19 -33 -62 -33zM188 0l86 963h-174l9 90h272l-86 -963h174l-8 -90h-273z" />
    <glyph glyph-name="eth" unicode="&#xf0;" horiz-adv-x="985" 
d="M432 70q96 0 169 50t111 131q74 158 74 348t-72 287t-178 97q-200 0 -287 -179q-79 -160 -79 -342t61 -287t201 -105zM893 604q0 -272 -123 -448t-342 -176q-160 0 -262 112t-103 359q0 349 202 526q113 96 267 96t226 -115l4 5q-35 215 -172 376l-221 -106l-56 61
l222 107q-68 72 -181 141l86 49q104 -63 187 -145l211 100l55 -61l-209 -101q115 -131 162 -319q47 -189 47 -461z" />
    <glyph glyph-name="ntilde" unicode="&#xf1;" 
d="M764 1247q-49 1 -135 59t-117 58q-30 0 -52 -19t-31 -35t-23 -53l-84 37q20 64 68 116t114 52t148 -58t114 -58q31 0 53 22t51 66l74 -56q-72 -131 -180 -131zM774 1073q176 0 176 -248q0 -150 -78 -735h170l-8 -90h-276q94 639 94 807t-102 168q-89 0 -195 -116
q-225 -255 -303 -859h-98q31 233 51 455l45 508h-187l9 90h286l-41 -359q-6 -68 -19 -144q-13 -75 -17 -101h4q4 14 11 44q43 186 163 375q57 90 140 148t175 57z" />
    <glyph glyph-name="ograve" unicode="&#xf2;" horiz-adv-x="985" 
d="M395 1526l254 -246l-69 -59l-267 247zM432 70q96 0 169 50t111 131q74 158 74 348t-72 287t-178 97q-200 0 -287 -179q-79 -160 -79 -341t63 -287t199 -106zM63 451q0 349 202 526q112 96 273 96t258 -119q97 -118 97 -370t-123 -428t-342 -176q-160 0 -262 112t-103 359
z" />
    <glyph glyph-name="oacute" unicode="&#xf3;" horiz-adv-x="985" 
d="M836 1470l-306 -249l-67 57l291 248zM432 70q96 0 169 50t111 131q74 158 74 348t-72 287t-178 97q-200 0 -287 -179q-79 -160 -79 -341t63 -287t199 -106zM63 451q0 349 202 526q112 96 273 96t258 -119q97 -118 97 -370t-123 -428t-342 -176q-160 0 -262 112t-103 359z
" />
    <glyph glyph-name="ocircumflex" unicode="&#xf4;" horiz-adv-x="985" 
d="M285 1311l264 207h86l231 -207l-82 -58l-200 191l-230 -191zM432 70q96 0 169 50t111 131q74 158 74 348t-72 287t-178 97q-200 0 -287 -179q-79 -160 -79 -341t63 -287t199 -106zM63 451q0 349 202 526q112 96 273 96t258 -119q97 -118 97 -370t-123 -428t-342 -176
q-160 0 -262 112t-103 359z" />
    <glyph glyph-name="otilde" unicode="&#xf5;" horiz-adv-x="985" 
d="M709 1247q-49 1 -135 59t-118 58q-30 0 -52 -19t-30 -35t-24 -53l-84 37q20 64 68 116t114 52t149 -58t114 -58t53 22t51 66l74 -56q-72 -131 -180 -131zM432 70q96 0 169 50t111 131q74 158 74 348t-72 287t-178 97q-200 0 -287 -179q-79 -160 -79 -341t63 -287
t199 -106zM63 451q0 349 202 526q112 96 273 96t258 -119q97 -118 97 -370t-123 -428t-342 -176q-160 0 -262 112t-103 359z" />
    <glyph glyph-name="odieresis" unicode="&#xf6;" horiz-adv-x="985" 
d="M784 1294q-78 0 -77 74q0 35 21 65q22 29 61 29t58 -22t19 -51q0 -31 -20 -63t-62 -32zM379 1294q-78 0 -78 74q0 35 22 65q23 29 61 29t57 -22q42 -47 0 -113q-19 -33 -62 -33zM432 70q96 0 169 50t111 131q74 158 74 348t-72 287t-178 97q-200 0 -287 -179
q-79 -160 -79 -341t63 -287t199 -106zM63 451q0 349 202 526q112 96 273 96t258 -119q97 -118 97 -370t-123 -428t-342 -176q-160 0 -262 112t-103 359z" />
    <glyph glyph-name="divide" unicode="&#xf7;" horiz-adv-x="1228" 
d="M500 90q0 47 34 81t80 34t81 -34q34 -34 34 -81t-34 -81t-81 -34q-46 0 -80 34t-34 81zM500 946q0 47 34 81t80 34t81 -34q34 -34 34 -81t-34 -81t-81 -34q-46 0 -80 34t-34 81zM96 469v98h1037v-98h-1037z" />
    <glyph glyph-name="oslash" unicode="&#xf8;" horiz-adv-x="985" 
d="M522 1073q144 0 228 -72l145 218l61 -41l-155 -232q92 -122 92 -368t-123 -422t-342 -176q-135 0 -219 75l-148 -221l-61 45l156 232q-92 117 -93 340q0 349 202 526q113 96 257 96zM786 627q0 123 -51 221l-471 -709q64 -69 164 -69t173 50t111 131t56 167t18 209z
M528 983q-262 0 -339 -351q-19 -91 -19 -213t49 -214l471 708q-64 70 -162 70z" />
    <glyph glyph-name="ugrave" unicode="&#xf9;" horiz-adv-x="1175" 
d="M489 1526l254 -246l-69 -59l-266 247zM375 -20q-176 0 -176 247q0 150 77 736h-170l9 90h276q-94 -639 -94 -807t102 -168q91 0 195 116q61 69 117 172q55 103 106 282t80 405h98q-31 -233 -51 -455l-45 -508h186l-8 -90h-286l40 350q6 47 21 131q14 84 18 113h-4
q-40 -210 -182 -420q-57 -84 -139 -139t-170 -55z" />
    <glyph glyph-name="uacute" unicode="&#xfa;" horiz-adv-x="1175" 
d="M930 1470l-305 -249l-68 57l291 248zM375 -20q-176 0 -176 247q0 150 77 736h-170l9 90h276q-94 -639 -94 -807t102 -168q91 0 195 116q61 69 117 172q55 103 106 282t80 405h98q-31 -233 -51 -455l-45 -508h186l-8 -90h-286l40 350q6 47 21 131q14 84 18 113h-4
q-40 -210 -182 -420q-57 -84 -139 -139t-170 -55z" />
    <glyph glyph-name="ucircumflex" unicode="&#xfb;" horiz-adv-x="1175" 
d="M358 1311l265 207h86l231 -207l-82 -58l-201 191l-229 -191zM375 -20q-176 0 -176 247q0 150 77 736h-170l9 90h276q-94 -639 -94 -807t102 -168q91 0 195 116q61 69 117 172q55 103 106 282t80 405h98q-31 -233 -51 -455l-45 -508h186l-8 -90h-286l40 350q6 47 21 131
q14 84 18 113h-4q-40 -210 -182 -420q-57 -84 -139 -139t-170 -55z" />
    <glyph glyph-name="udieresis" unicode="&#xfc;" horiz-adv-x="1175" 
d="M858 1294q-78 0 -78 74q0 35 22 65q22 29 60 29t59 -21q19 -22 19 -52q0 -31 -20 -63t-62 -32zM453 1294q-78 0 -78 74q0 35 21 65q22 29 61 29t58 -22q42 -47 0 -113q-19 -33 -62 -33zM375 -20q-176 0 -176 247q0 150 77 736h-170l9 90h276q-94 -639 -94 -807t102 -168
q91 0 195 116q61 69 117 172q55 103 106 282t80 405h98q-31 -233 -51 -455l-45 -508h186l-8 -90h-286l40 350q6 47 21 131q14 84 18 113h-4q-40 -210 -182 -420q-57 -84 -139 -139t-170 -55z" />
    <glyph glyph-name="yacute" unicode="&#xfd;" horiz-adv-x="1062" 
d="M874 1470l-305 -249l-67 57l291 248zM90 -539q-61 0 -100 15l14 90q154 -48 270 48q63 52 127 195q25 52 68 148l-270 1006h-154l8 90h238l209 -828q12 -53 28 -145h4q14 45 48 135l282 748h-178l8 90h287l-8 -66q-53 -160 -176 -472t-181 -460q-132 -340 -242 -467
t-282 -127z" />
    <glyph glyph-name="thorn" unicode="&#xfe;" horiz-adv-x="1099" 
d="M760 1073q70 0 119 -37q114 -86 114 -352q0 -170 -55 -325t-178 -263t-291 -108q-121 0 -201 26l-43 -438h176l-8 -90h-416l9 90h141l170 1909h-197l9 90h299l-70 -752q-10 -123 -49 -338h4q4 13 13 53t16 62q66 203 178 338q113 135 260 135zM887 711q0 272 -152 272
q-129 0 -269 -240t-171 -485q-6 -78 -21 -152q121 -37 183 -36q117 0 203 58q151 101 204 358q23 108 23 225z" />
    <glyph glyph-name="ydieresis" unicode="&#xff;" horiz-adv-x="1062" 
d="M782 1294q-78 0 -77 74q0 35 21 65q22 29 61 29t58 -22t19 -51q0 -31 -20 -63t-62 -32zM377 1294q-78 0 -78 74q0 35 22 65q23 29 61 29t57 -22q42 -47 0 -113q-19 -33 -62 -33zM90 -539q-61 0 -100 15l14 90q154 -48 270 48q63 52 127 195q25 52 68 148l-270 1006h-154
l8 90h238l209 -828q12 -53 28 -145h4q14 45 48 135l282 748h-178l8 90h287l-8 -66q-53 -160 -176 -472t-181 -460q-132 -340 -242 -467t-282 -127z" />
    <glyph glyph-name="dotlessi" unicode="&#x131;" horiz-adv-x="569" 
d="M188 0l86 963h-174l9 90h272l-86 -963h174l-8 -90h-273z" />
    <glyph glyph-name="Lslash" unicode="&#x141;" horiz-adv-x="1024" 
d="M66 0l8 90h139l45 506l-160 -109l8 105l162 108l56 643h-170l8 91h416l-9 -91h-139l-49 -565l362 248l-8 -104l-364 -248l-52 -584h512l29 205h90l-32 -295h-852z" />
    <glyph glyph-name="lslash" unicode="&#x142;" horiz-adv-x="530" 
d="M154 0l67 778l-164 -123l9 107l165 123l54 600h-189l8 90h287l-53 -612l164 122l-8 -106l-166 -123l-68 -766h174l-8 -90h-272z" />
    <glyph glyph-name="OE" unicode="&#x152;" horiz-adv-x="1933" 
d="M125 631q0 354 193 584q194 230 524 231l299 -12h704l-24 -291h-90l8 200h-527l-49 -555h537l-8 -90h-537l-53 -608h588l28 201h90l-26 -291h-678l-350 -12q-629 0 -629 643zM240 643q0 -329 161 -460q53 -42 95 -61q42 -20 113 -32q70 -12 181 -12t205 12l111 1262
l-254 12q-354 0 -514 -296q-98 -181 -98 -425z" />
    <glyph glyph-name="oe" unicode="&#x153;" horiz-adv-x="1517" 
d="M176 428q0 -148 60 -253t196 -105q100 0 182 81t101 228q25 197 25 325t-59 203q-58 76 -171 76t-193 -87q-81 -87 -111 -203q-30 -117 -30 -265zM420 -20q-144 0 -247 110t-103 346q0 146 43 286t125 228q115 123 297 123q133 0 199 -88t73 -186h4q98 274 371 274
q126 0 196 -63t70 -168t-62 -188q-101 -136 -358 -193q-98 -23 -199 -27q1 -140 15 -183q14 -42 32 -77q32 -61 115 -90q43 -14 96 -14q111 0 283 80l-10 -103q-164 -67 -308 -67t-223 88q-80 88 -79 182h-5q-16 -92 -98 -181q-83 -89 -227 -89zM1341 814q0 70 -43 120
q-44 50 -146 49q-102 0 -182 -75q-140 -131 -141 -392q177 13 326 73q84 34 135 94q51 61 51 131z" />
    <glyph glyph-name="Scaron" unicode="&#x160;" horiz-adv-x="1099" 
d="M942 1759l-264 -207h-86l-232 207l82 58l201 -191l229 191zM866 1149v184q-92 31 -243 39q-193 0 -284 -85t-91 -201t56 -165q56 -50 161 -87l237 -86q137 -50 213 -130t76 -217q0 -170 -132 -300t-390 -130q-168 0 -399 70l22 276h82l-6 -204q141 -51 289 -52
q215 1 317 99t102 227t-92 191q-50 33 -80 47t-98 39l-160 59q-150 55 -232 128t-81 204q0 188 132 298t360 109q170 0 340 -57l-17 -256h-82z" />
    <glyph glyph-name="scaron" unicode="&#x161;" horiz-adv-x="909" 
d="M795 1460l-265 -207h-86l-231 207l82 58l201 -191l229 191zM76 295h98v-180q20 -13 82 -29t125 -16q133 0 207 54t74 137t-44 126t-204 107q-162 64 -229 115q-67 52 -67 180t103 206q102 78 281 78q121 0 266 -47v-244h-98v179q-88 31 -188 31t-179 -51
q-78 -50 -78 -155q0 -66 48 -106q47 -40 151 -78q104 -39 146 -58q138 -63 175 -141q23 -47 23 -112q0 -133 -98 -222t-282 -89t-312 61v254z" />
    <glyph glyph-name="Ydieresis" unicode="&#x178;" horiz-adv-x="1366" 
d="M975 1593q-78 0 -78 74q0 35 22 65q23 30 61 30t57 -22q41 -46 0 -114q-19 -33 -62 -33zM569 1593q-78 0 -77 74q0 35 21 65q22 30 61 30t58 -22t19 -52q1 -30 -19 -62q-20 -33 -63 -33zM428 0l8 90h142l45 518l-410 735h-168l8 91h414l-8 -91h-133q8 -8 32 -49l330 -598
l426 598q20 33 41 49h-174l8 91h420l-8 -91h-146l-526 -731l-45 -522h172l-8 -90h-420z" />
    <glyph glyph-name="Zcaron" unicode="&#x17d;" horiz-adv-x="1251" 
d="M1018 1759l-264 -207h-86l-232 207l82 58l201 -191l229 191zM279 90h725l32 205h90l-30 -295h-1039l6 74l938 1206q27 35 62 63l-4 5q-14 -4 -53 -5h-701l-26 -200h-91l23 291h983l-6 -74l-946 -1221q-6 -6 -47 -53q57 4 84 4z" />
    <glyph glyph-name="zcaron" unicode="&#x17e;" horiz-adv-x="985" 
d="M813 1460l-264 -207h-86l-232 207l82 58l201 -191l229 191zM63 0l9 86l630 811q27 37 60 66h-551l-23 -164h-82l23 254h766l-8 -68l-631 -819q-33 -43 -66 -76h582l25 164h82l-25 -254h-791z" />
    <glyph glyph-name="florin" unicode="&#x192;" 
d="M950 1454q111 0 185 -29l-9 -90q-80 29 -182 29q-152 0 -230 -87t-98 -276l-16 -159h322l-9 -90h-319l-47 -602q-23 -307 -113 -418q-106 -131 -284 -131q-104 0 -146 20l8 90q66 -20 113 -20q182 0 256 151q43 88 68 359l47 551h-224l9 90h221l16 176q23 233 131 335
q109 101 301 101z" />
    <glyph glyph-name="circumflex" unicode="&#x2c6;" horiz-adv-x="569" 
d="M76 1311l264 207h86l231 -207l-82 -58l-200 191l-230 -191z" />
    <glyph glyph-name="caron" unicode="&#x2c7;" horiz-adv-x="569" 
d="M676 1460l-264 -207h-86l-232 207l82 58l201 -191l229 191z" />
    <glyph glyph-name="uni02C9" unicode="&#x2c9;" horiz-adv-x="569" 
d="M133 1323l8 90h459l-8 -90h-459z" />
    <glyph glyph-name="breve" unicode="&#x2d8;" horiz-adv-x="569" 
d="M380 1337q124 0 191 150l91 -39q-92 -201 -286 -201t-270 201l91 47q59 -158 183 -158z" />
    <glyph glyph-name="dotaccent" unicode="&#x2d9;" horiz-adv-x="569" 
d="M373 1294q-78 0 -78 74q0 35 21 65q22 29 61 29t58 -22q42 -47 0 -113q-19 -33 -62 -33z" />
    <glyph glyph-name="ring" unicode="&#x2da;" horiz-adv-x="569" 
d="M551 1386q0 -86 -54 -142q-55 -56 -135 -56t-124 49t-43 124q0 75 53 138t132 63t125 -44q46 -45 46 -132zM276 1368q0 -47 25 -77q25 -29 72 -29t71 38t25 84q0 104 -88 105q-47 0 -76 -37t-29 -84z" />
    <glyph glyph-name="ogonek" unicode="&#x2db;" horiz-adv-x="569" 
d="M385 -436q-63 0 -107 34t-45 109q0 139 164 293h74q-123 -138 -123 -242t98 -104q88 0 156 63l-8 -73q-88 -80 -209 -80z" />
    <glyph glyph-name="tilde" unicode="&#x2dc;" horiz-adv-x="569" 
d="M500 1247q-50 1 -136 59t-116 58t-52 -19t-31 -35t-24 -53l-84 37q21 64 69 116t114 52t148 -58t114 -58q31 0 53 22t51 66l74 -56q-72 -131 -180 -131z" />
    <glyph glyph-name="hungarumlaut" unicode="&#x2dd;" horiz-adv-x="569" 
d="M801 1470l-305 -249l-68 57l291 248zM453 1470l-306 -249l-67 57l291 248z" />
    <glyph glyph-name="uni03A9" unicode="&#x3a9;" horiz-adv-x="1492" 
d="M389 84v6q-119 109 -186 280q-68 171 -49 382q27 309 219 500q193 192 453 192t410 -199q151 -199 126 -487q-18 -219 -120 -394t-234 -274v-6h323l-6 -84h-469l4 61q152 93 266 273t134 406q19 226 -88 414q-52 90 -144 148t-211 58q-227 0 -384 -179t-177 -419t64 -426
t212 -275l-4 -61h-469l9 84h321z" />
    <glyph glyph-name="uni03BC" unicode="&#x3bc;" horiz-adv-x="1175" 
d="M377 -20q-86 0 -115 59h-4l-65 -553h-99q68 633 182 1477h-170l9 90h276q-94 -639 -94 -807t102 -168q91 0 195 116q61 69 117 172q55 103 106 282t80 405h98q-31 -233 -51 -455l-45 -508h186l-8 -90h-286l40 350q6 47 21 131q14 84 18 113h-4q-40 -210 -182 -420
q-57 -84 -139 -139t-168 -55z" />
    <glyph glyph-name="pi" unicode="&#x3c0;" 
d="M336 1053h797l-21 -88h-176l-59 -666q-16 -209 6 -299h-97q-29 57 -10 285l60 680h-416q-33 -236 -107 -536t-139 -429h-98q72 150 142 438t101 527q-176 0 -245 -27l-15 66q92 49 277 49z" />
    <glyph glyph-name="uni2010" unicode="&#x2010;" horiz-adv-x="720" 
d="M133 483l8 99h426l-8 -99h-426z" />
    <glyph glyph-name="endash" unicode="&#x2013;" horiz-adv-x="1024" 
d="M-16 487l16 91h1024l-16 -91h-1024z" />
    <glyph glyph-name="emdash" unicode="&#x2014;" horiz-adv-x="2048" 
d="M-16 487l16 91h2048l-16 -91h-2048z" />
    <glyph glyph-name="quoteleft" unicode="&#x2018;" horiz-adv-x="569" 
d="M313 1343q0 -39 32 -79t32 -78q0 -40 -27 -60q-26 -20 -70 -20t-73 41t-29 110q0 131 76 206t197 128l34 -63q-172 -72 -172 -185z" />
    <glyph glyph-name="quoteright" unicode="&#x2019;" horiz-adv-x="569" 
d="M319 1354q0 39 -31 79q-32 41 -32 79t27 58t71 21q44 0 72 -41q29 -41 29 -110q0 -131 -76 -206t-197 -128l-35 63q172 72 172 185z" />
    <glyph glyph-name="quotesinglbase" unicode="&#x201a;" horiz-adv-x="569" 
d="M211 -66q0 39 -32 79t-32 79q0 40 27 60t71 20q45 0 73 -41t28 -111q0 -132 -76 -206t-196 -127l-35 63q172 72 172 184z" />
    <glyph glyph-name="quotedblleft" unicode="&#x201c;" horiz-adv-x="796" 
d="M676 1343q0 -39 32 -79t32 -78q0 -39 -27 -60q-27 -20 -71 -20t-73 41t-28 110q0 131 75 206q76 75 197 128l35 -63q-172 -72 -172 -185zM281 1343q-1 -39 31 -79t32 -78q0 -40 -27 -60t-71 -20t-72 41q-29 41 -29 110q0 131 76 206t197 128l35 -63q-172 -72 -172 -185z
" />
    <glyph glyph-name="quotedblright" unicode="&#x201d;" horiz-adv-x="796" 
d="M672 1354q0 39 -32 79q-32 41 -32 79t27 58t71 21q44 0 72 -41q29 -41 29 -110q1 -131 -75 -206t-197 -128l-35 63q172 72 172 185zM276 1354q0 39 -31 79q-32 41 -32 79t27 58q26 20 70 21q44 0 73 -41t29 -110q0 -131 -76 -206t-197 -128l-35 63q172 72 172 185z" />
    <glyph glyph-name="quotedblbase" unicode="&#x201e;" horiz-adv-x="796" 
d="M508 -66q0 39 -32 79t-32 79q0 40 27 60t71 20t72 -41q29 -41 29 -111q1 -132 -75 -206t-197 -127l-35 63q172 72 172 184zM129 -66q0 39 -32 79q-31 40 -31 79t26 60q27 20 71 20t73 -41t28 -111q0 -132 -76 -206t-196 -127l-35 63q172 72 172 184z" />
    <glyph glyph-name="dagger" unicode="&#x2020;" 
d="M111 932l8 90h409l33 412h107l-33 -412h409l-8 -90h-409l-107 -1327h-106l106 1327h-409z" />
    <glyph glyph-name="daggerdbl" unicode="&#x2021;" 
d="M418 -395l41 501h-410l8 91h408l55 673h-409l8 91h407l39 473h107l-39 -473h411l-8 -91h-409l-56 -673h412l-8 -91h-410l-41 -501h-106z" />
    <glyph glyph-name="bullet" unicode="&#x2022;" horiz-adv-x="1024" 
d="M154 717q0 150 104 254t254 104t254 -104t104 -254t-104 -254q-104 -105 -254 -105t-254 104t-104 255z" />
    <glyph glyph-name="ellipsis" unicode="&#x2026;" horiz-adv-x="2048" 
d="M1577 76q0 42 25 72q24 30 64 30t64 -28t24 -69q0 -40 -28 -67q-26 -26 -64 -26t-62 24t-23 64zM895 76q0 42 25 72q24 30 64 30t64 -28t24 -69q0 -40 -28 -67q-26 -26 -64 -26t-62 24t-23 64zM213 76q0 42 25 72q24 30 64 30t64 -28t24 -69q0 -40 -28 -67
q-26 -26 -64 -26t-62 24t-23 64z" />
    <glyph glyph-name="perthousand" unicode="&#x2030;" horiz-adv-x="2238" 
d="M76 -39l1394 1571l66 -59l-1395 -1571zM938 302q0 -232 182 -232q78 0 141 64q62 66 62 178t-42 168t-130 56q-89 0 -151 -58q-62 -60 -62 -176zM1430 324q0 -148 -92 -246t-227 -98q-136 0 -208 84t-72 224q-1 140 87 240q88 98 226 98t212 -76q74 -78 74 -226zM402 807
q-136 0 -208 84q-72 85 -71 225q0 140 87 239q88 99 226 99t212 -77t73 -225q0 -148 -91 -247q-92 -98 -228 -98zM614 1139q0 225 -172 225q-88 0 -150 -60t-63 -176q0 -232 183 -231q78 0 140 65t62 177zM1518 288q0 140 87 240q87 98 225 98t212 -76q74 -78 74 -226
t-92 -246t-227 -98q-136 0 -208 83q-71 85 -71 225zM1624 302q0 -232 182 -232q78 0 141 64q62 66 62 178t-42 168t-130 56q-89 0 -151 -58q-62 -60 -62 -176z" />
    <glyph glyph-name="guilsinglleft" unicode="&#x2039;" horiz-adv-x="606" 
d="M377 201l-262 309l8 74l311 280l66 -65l-283 -256l236 -277z" />
    <glyph glyph-name="guilsinglright" unicode="&#x203a;" horiz-adv-x="606" 
d="M217 864l262 -309l-8 -74l-311 -280l-66 65l283 256l-236 277z" />
    <glyph glyph-name="fraction" unicode="&#x2044;" horiz-adv-x="342" 
d="M-340 -55l946 1587l76 -43l-946 -1587z" />
    <glyph glyph-name="Euro" unicode="&#x20ac;" 
d="M817 1372q-205 0 -325 -132t-168 -347h710l-53 -86h-672q-10 -78 -10 -139h635l-53 -86h-582q16 -211 115 -367t321 -156q123 0 320 62l-6 -94q-176 -57 -332 -58q-248 0 -384 176t-151 437h-131l53 86h78q4 90 11 139h-144l53 86h107q53 249 204 407t388 158
q165 0 319 -57l-12 -271h-88l6 201q-104 41 -209 41z" />
    <glyph glyph-name="afii61289" unicode="&#x2113;" horiz-adv-x="964" 
d="M588 1493q-74 0 -140 -93t-83 -288l-46 -516q187 182 293 339t119 314q20 244 -143 244zM599 1573q118 0 171 -88t41 -228q-33 -348 -502 -770l-4 -57q-16 -184 47 -272q62 -88 162 -88t181 61t130 143l54 -41q-150 -244 -383 -243q-160 0 -230 112t-57 285q0 20 2 29
q-55 -41 -133 -103l-33 64q131 100 174 141l51 580q23 256 117 366t212 109z" />
    <glyph glyph-name="trademark" unicode="&#x2122;" horiz-adv-x="2027" 
d="M958 590v844h168l275 -695l266 695h168v-844h-98v753h-4l-306 -753h-61l-305 753h-4v-753h-99zM426 590v753h-279v91h656v-91h-279v-753h-98z" />
    <glyph glyph-name="Omega" unicode="&#x2126;" horiz-adv-x="1492" 
d="M389 84v6q-119 109 -186 280q-68 171 -49 382q27 309 219 500q193 192 453 192t410 -199q151 -199 126 -487q-18 -219 -120 -394t-234 -274v-6h323l-6 -84h-469l4 61q152 93 266 273t134 406q19 226 -88 414q-52 90 -144 148t-211 58q-227 0 -384 -179t-177 -419t64 -426
t212 -275l-4 -61h-469l9 84h321z" />
    <glyph glyph-name="estimated" unicode="&#x212e;" horiz-adv-x="1851" 
d="M1481 748v405q0 29 -21 47q-214 209 -500 209t-497 -215q-18 -23 -19 -51v-395q0 -12 11 -13h1018q8 1 8 13zM1782 696h-1327q-10 0 -11 -8v-401q0 -25 17 -47q211 -217 514 -217t516 243h119q-113 -131 -284 -208t-365 -76q-338 0 -578 215t-240 520t240 521t579 216
q340 0 580 -216t240 -521v-21z" />
    <glyph glyph-name="partialdiff" unicode="&#x2202;" horiz-adv-x="1091" 
d="M430 70h2q156 0 275 162t163 401q-25 90 -107 170q-83 80 -213 80t-244 -125t-128 -298t54 -282q69 -108 198 -108zM568 1509q-160 0 -289 -98l-37 70q143 111 337 111t321 -185q62 -90 91 -241t13 -341q-33 -365 -187 -601t-401 -236q-182 0 -269 136q-85 136 -67 345
t160 352t315 144q131 0 220 -72t120 -143h2q2 14 6 50t6 50q25 297 -79 478q-102 181 -262 181z" />
    <glyph glyph-name="Delta" unicode="&#x2206;" horiz-adv-x="1318" 
d="M123 82h975l-258 870q-10 36 -56 184t-59 203h-8q-16 -45 -82 -183t-80 -169zM16 0l7 80l659 1382h111l413 -1380l-8 -82h-1182z" />
    <glyph glyph-name="product" unicode="&#x220f;" horiz-adv-x="1480" 
d="M1425 1329h-233v-1526h-96v1526h-641v-1526h-97v1526h-233v90h1300v-90z" />
    <glyph glyph-name="summation" unicode="&#x2211;" horiz-adv-x="1198" 
d="M1151 -197h-1034v70l579 735l-551 742v69h975v-88h-831v-6l524 -704l-561 -715v-6h899v-97z" />
    <glyph glyph-name="minus" unicode="&#x2212;" horiz-adv-x="1228" 
d="M96 469v98h1037v-98h-1037z" />
    <glyph glyph-name="uni2215" unicode="&#x2215;" horiz-adv-x="342" 
d="M-340 -55l946 1587l76 -43l-946 -1587z" />
    <glyph glyph-name="uni2219" unicode="&#x2219;" horiz-adv-x="569" 
d="M170 598q0 47 34 81t81 34t81 -34t34 -81t-34 -81t-81 -34t-81 34t-34 81z" />
    <glyph glyph-name="radical" unicode="&#x221a;" horiz-adv-x="1218" 
d="M1214 1679l-452 -1992h-98l-340 970l-152 -57l-27 68l244 92l289 -815q4 -17 16 -65l17 -68h2q4 30 13 72q9 43 11 57l398 1738h79z" />
    <glyph glyph-name="infinity" unicode="&#x221e;" horiz-adv-x="1611" 
d="M1208 825h-2q-51 1 -105 -29t-87 -60t-83 -82t-63 -64q125 -134 195 -186q69 -52 157 -52t147 70q58 70 58 174t-61 166q-62 63 -156 63zM440 352h2q80 0 159 61t177 169q-116 137 -190 190t-167 53t-151 -71q-57 -72 -57 -171q-1 -99 63 -165t164 -66zM1505 592v-2
q0 -135 -90 -222q-91 -87 -199 -87t-187 57t-208 192q-172 -191 -277 -230q-54 -19 -114 -19q-123 0 -210 89t-87 218t88 218q89 89 207 89t206 -67t193 -187q148 164 198 193q109 61 192 61q131 0 209 -85t79 -218z" />
    <glyph glyph-name="integral" unicode="&#x222b;" horiz-adv-x="763" 
d="M389 184q0 158 -13 529t-14 524q0 311 103 416q70 72 168 71q57 1 104 -28l-24 -72q-31 23 -87 23q-171 0 -169 -420l26 -1047q0 -283 -96 -411q-61 -84 -172 -84q-72 0 -121 34l25 74q53 -27 94 -26q176 0 176 417z" />
    <glyph glyph-name="approxequal" unicode="&#x2248;" horiz-adv-x="1187" 
d="M829 299q-57 0 -105 19t-156 79t-183 60q-115 0 -211 -156l-49 39q96 188 272 188q73 0 113 -20t78 -42t46 -25q7 -3 23 -12q17 -9 23 -12l20 -10l22 -11q28 -12 40 -14q12 -3 29 -7t64 -4q97 0 183 153l47 -41q-96 -184 -256 -184zM829 631q-57 0 -105 19t-158 79
t-181 59q-113 0 -211 -155l-49 39q96 188 274 188q72 0 131 -32q70 -33 91 -48q22 -14 48 -27q25 -13 33 -17q59 -36 129 -36t115 37t92 119l47 -41q-96 -184 -256 -184z" />
    <glyph glyph-name="notequal" unicode="&#x2260;" horiz-adv-x="1206" 
d="M1098 807v-74h-375l-148 -311h523v-72h-553l-117 -248l-59 31l102 217h-324v72h357l145 311h-502v74h533l115 242l59 -31l-100 -211h344z" />
    <glyph glyph-name="lessequal" unicode="&#x2264;" horiz-adv-x="1218" 
d="M1110 29h-952v75h952v-75zM1106 190l-934 463v76l932 463v-90l-846 -406v-6l848 -409v-91z" />
    <glyph glyph-name="greaterequal" unicode="&#x2265;" horiz-adv-x="1218" 
d="M1110 29h-950v75h950v-75zM172 1192l934 -463v-76l-934 -463v91l846 407v4l-846 410v90z" />
    <glyph glyph-name="lozenge" unicode="&#x25ca;" horiz-adv-x="1224" 
d="M1012 707l-324 616q-20 47 -39 98h-4q-23 -63 -41 -98l-319 -610l325 -619q27 -59 37 -96h6q14 51 37 94zM1106 709l-418 -799h-82l-416 799l418 800h82z" />
    <glyph glyph-name="A.sc" unicode="&#xe000;" horiz-adv-x="1062" 
d="M-57 0l8 90h115l448 1020h107l282 -1020h133l-8 -90h-393l8 90h145l-92 365h-368l-156 -365h158l-8 -90h-379zM362 537h314l-96 376q-12 47 -17 115h-4q-12 -55 -39 -119z" />
    <glyph glyph-name="AE.sc" unicode="&#xe001;" horiz-adv-x="1402" 
d="M817 586l37 426h-92l-270 -426h325zM-57 0l8 90h112l650 1012h684l-6 -254h-84l-7 164h-339l-37 -426h366l-8 -90h-367l-36 -406h393l28 176h84l-36 -266h-723l8 90h139l37 406h-375l-258 -406h154l-8 -90h-379z" />
    <glyph glyph-name="Aacute.sc" unicode="&#xe002;" horiz-adv-x="1062" 
d="M874 1470l-305 -249l-67 57l291 248zM-57 0l8 90h115l448 1020h107l282 -1020h133l-8 -90h-393l8 90h145l-92 365h-368l-156 -365h158l-8 -90h-379zM362 537h314l-96 376q-12 47 -17 115h-4q-12 -55 -39 -119z" />
    <glyph glyph-name="Acircumflex.sc" unicode="&#xe003;" horiz-adv-x="1062" 
d="M324 1311l264 207h86l231 -207l-82 -58l-200 191l-230 -191zM-57 0l8 90h115l448 1020h107l282 -1020h133l-8 -90h-393l8 90h145l-92 365h-368l-156 -365h158l-8 -90h-379zM362 537h314l-96 376q-12 47 -17 115h-4q-12 -55 -39 -119z" />
    <glyph glyph-name="Adieresis.sc" unicode="&#xe004;" horiz-adv-x="1062" 
d="M823 1294q-78 0 -78 74q0 35 22 65q22 29 61 29t58 -22t19 -51q1 -31 -19 -63t-63 -32zM418 1294q-78 0 -78 74q0 35 21 65q22 29 61 29t58 -22q42 -47 0 -113q-19 -33 -62 -33zM-57 0l8 90h115l448 1020h107l282 -1020h133l-8 -90h-393l8 90h145l-92 365h-368l-156 -365
h158l-8 -90h-379zM362 537h314l-96 376q-12 47 -17 115h-4q-12 -55 -39 -119z" />
    <glyph glyph-name="Agrave.sc" unicode="&#xe005;" horiz-adv-x="1062" 
d="M434 1526l254 -246l-70 -59l-266 247zM-57 0l8 90h115l448 1020h107l282 -1020h133l-8 -90h-393l8 90h145l-92 365h-368l-156 -365h158l-8 -90h-379zM362 537h314l-96 376q-12 47 -17 115h-4q-12 -55 -39 -119z" />
    <glyph glyph-name="Aring.sc" unicode="&#xe006;" horiz-adv-x="1062" 
d="M381 1361q0 75 53 138t132 63t125 -44q46 -45 46 -132q0 -86 -55 -142t-134 -56t-123 49t-44 124zM463 1368q1 -47 25 -77q24 -29 71 -29t72 38t24 84q0 104 -88 105q-47 0 -75 -37t-29 -84zM-57 0l8 90h115l448 1020h107l282 -1020h133l-8 -90h-393l8 90h145l-92 365
h-368l-156 -365h158l-8 -90h-379zM362 537h314l-96 376q-12 47 -17 115h-4q-12 -55 -39 -119z" />
    <glyph glyph-name="Atilde.sc" unicode="&#xe007;" horiz-adv-x="1062" 
d="M748 1247q-50 1 -136 59t-116 58t-53 -19t-31 -35t-23 -53l-84 37q21 64 69 116t114 52t148 -58q83 -58 114 -58t53 22t51 66l74 -56q-72 -131 -180 -131zM-57 0l8 90h115l448 1020h107l282 -1020h133l-8 -90h-393l8 90h145l-92 365h-368l-156 -365h158l-8 -90h-379z
M362 537h314l-96 376q-12 47 -17 115h-4q-12 -55 -39 -119z" />
    <glyph glyph-name="B.sc" unicode="&#xe008;" horiz-adv-x="985" 
d="M584 1102q116 0 180 -65t63 -173q0 -201 -219 -274v-4q115 -6 182 -74t66 -182q0 -150 -92 -240t-254 -90h-449l9 90h139l82 922h-170l8 90h455zM465 618q119 0 191 71t73 169q0 154 -182 154h-150l-32 -394h100zM500 90q122 0 186 71t64 169q0 199 -248 198h-148
l-39 -438h185z" />
    <glyph glyph-name="C.sc" unicode="&#xe009;" horiz-adv-x="1024" 
d="M586 -18q-229 0 -355 136q-125 136 -125 371q0 297 160 464t408 167q129 0 276 -45l-8 -239h-86v168q-113 27 -190 26q-213 0 -333 -138t-120 -358t89 -336q89 -118 312 -118q98 0 177 18l24 166h82l-25 -235q-111 -47 -286 -47z" />
    <glyph glyph-name="Ccedilla.sc" unicode="&#xe00a;" horiz-adv-x="1024" 
d="M856 836v168q-113 27 -190 26q-213 0 -333 -138t-120 -358t89 -336q89 -118 312 -118q98 0 177 18l24 166h82l-25 -235q-111 -47 -286 -47q-8 0 -13 2l-14 -115q174 0 174 -129q0 -70 -59 -123q-58 -53 -148 -53t-182 30l6 89q86 -29 158 -29q111 0 110 78q0 37 -32 54
q-34 17 -60 17t-57 -6l14 195q-182 29 -279 160t-98 337q0 297 160 464t408 167q129 0 276 -45l-8 -239h-86z" />
    <glyph glyph-name="D.sc" unicode="&#xe00b;" horiz-adv-x="1214" 
d="M518 90q119 0 193 28q73 28 141 94t107 174q40 108 40 220q0 406 -372 406h-230l-82 -922h203zM645 1102q461 0 461 -488q0 -264 -148 -439t-395 -175h-502l9 90h139l82 922h-170l8 90h516z" />
    <glyph glyph-name="E.sc" unicode="&#xe00c;" horiz-adv-x="1024" 
d="M72 0l8 90h139l82 922h-170l8 90h735l-4 -254h-86l-4 164h-372l-37 -406h364l-8 -90h-365l-36 -426h393l29 176h83l-36 -266h-723z" />
    <glyph glyph-name="Eacute.sc" unicode="&#xe00d;" horiz-adv-x="1024" 
d="M895 1470l-305 -249l-68 57l291 248zM72 0l8 90h139l82 922h-170l8 90h735l-4 -254h-86l-4 164h-372l-37 -406h364l-8 -90h-365l-36 -426h393l29 176h83l-36 -266h-723z" />
    <glyph glyph-name="Ecircumflex.sc" unicode="&#xe00e;" horiz-adv-x="1024" 
d="M344 1311l264 207h86l232 -207l-82 -58l-201 191l-229 -191zM72 0l8 90h139l82 922h-170l8 90h735l-4 -254h-86l-4 164h-372l-37 -406h364l-8 -90h-365l-36 -426h393l29 176h83l-36 -266h-723z" />
    <glyph glyph-name="Edieresis.sc" unicode="&#xe00f;" horiz-adv-x="1024" 
d="M844 1294q-78 0 -78 74q0 35 21 65q22 29 61 29t58 -22q42 -47 0 -113q-19 -33 -62 -33zM438 1294q-78 0 -78 74q0 35 22 65q22 29 61 29t58 -22t19 -51q0 -31 -20 -63t-62 -32zM72 0l8 90h139l82 922h-170l8 90h735l-4 -254h-86l-4 164h-372l-37 -406h364l-8 -90h-365
l-36 -426h393l29 176h83l-36 -266h-723z" />
    <glyph glyph-name="Egrave.sc" unicode="&#xe010;" horiz-adv-x="1024" 
d="M455 1526l254 -246l-70 -59l-266 247zM72 0l8 90h139l82 922h-170l8 90h735l-4 -254h-86l-4 164h-372l-37 -406h364l-8 -90h-365l-36 -426h393l29 176h83l-36 -266h-723z" />
    <glyph glyph-name="Eth.sc" unicode="&#xe011;" horiz-adv-x="1214" 
d="M518 90q119 0 193 28q73 28 141 94t107 174q40 108 40 220q0 406 -372 406h-230l-35 -394h293l-8 -90h-293l-39 -438h203zM645 1102q461 0 461 -488q0 -264 -148 -439t-395 -175h-502l9 90h139l39 438h-154l8 90h154l35 394h-170l8 90h516z" />
    <glyph glyph-name="F.sc" unicode="&#xe012;" horiz-adv-x="948" 
d="M72 0l8 90h139l82 922h-170l8 90h727l-8 -254h-84l-4 164h-362l-37 -426h379l-9 -90h-379l-36 -406h170l-9 -90h-415z" />
    <glyph glyph-name="G.sc" unicode="&#xe013;" 
d="M963 836h-86l-9 170q-90 25 -202 24q-213 0 -333 -138t-120 -358t89 -336q89 -118 312 -118q115 0 195 26l18 248h-165l8 90h395l-8 -90h-127l-27 -315q-131 -57 -317 -57q-229 0 -355 136q-125 136 -125 371q0 297 160 464t408 167q137 0 289 -39v-245z" />
    <glyph glyph-name="H.sc" unicode="&#xe014;" horiz-adv-x="1290" 
d="M72 0l8 90h139l82 922h-170l8 90h416l-8 -90h-139l-37 -426h557l37 426h-170l8 90h416l-9 -90h-139l-82 -922h170l-8 -90h-416l8 90h140l37 406h-558l-36 -406h170l-9 -90h-415z" />
    <glyph glyph-name="I.sc" unicode="&#xe015;" horiz-adv-x="606" 
d="M61 0l9 90h139l82 922h-170l8 90h416l-8 -90h-140l-82 -922h170l-8 -90h-416z" />
    <glyph glyph-name="Iacute.sc" unicode="&#xe016;" horiz-adv-x="606" 
d="M645 1470l-305 -249l-68 57l291 248zM61 0l9 90h139l82 922h-170l8 90h416l-8 -90h-140l-82 -922h170l-8 -90h-416z" />
    <glyph glyph-name="Icircumflex.sc" unicode="&#xe017;" horiz-adv-x="606" 
d="M74 1311l264 207h86l231 -207l-82 -58l-200 191l-230 -191zM61 0l9 90h139l82 922h-170l8 90h416l-8 -90h-140l-82 -922h170l-8 -90h-416z" />
    <glyph glyph-name="Idieresis.sc" unicode="&#xe018;" horiz-adv-x="606" 
d="M594 1294q-78 0 -78 74q0 35 22 65q22 29 60 29t58 -22q42 -47 0 -113q-19 -33 -62 -33zM188 1294q-78 0 -77 74q0 35 21 65q22 29 61 29t58 -22t19 -51q0 -31 -20 -63t-62 -32zM61 0l9 90h139l82 922h-170l8 90h416l-8 -90h-140l-82 -922h170l-8 -90h-416z" />
    <glyph glyph-name="Igrave.sc" unicode="&#xe019;" horiz-adv-x="606" 
d="M205 1526l254 -246l-70 -59l-266 247zM61 0l9 90h139l82 922h-170l8 90h416l-8 -90h-140l-82 -922h170l-8 -90h-416z" />
    <glyph glyph-name="J.sc" unicode="&#xe01a;" horiz-adv-x="569" 
d="M-66 -301l-32 82q186 87 246 197t81 337l62 697h-170l8 90h416l-8 -90h-140l-59 -680q-8 -104 -17 -164t-35 -138q-26 -79 -66 -130q-94 -120 -286 -201z" />
    <glyph glyph-name="K.sc" unicode="&#xe01b;" horiz-adv-x="1099" 
d="M72 0l8 90h139l82 922h-170l8 90h416l-8 -90h-139l-39 -428l487 428h-164l8 90h379l-8 -90h-88l-516 -451l440 -471h121l-8 -90h-393l8 90h143l-411 451l-41 -451h170l-9 -90h-415z" />
    <glyph glyph-name="L.sc" unicode="&#xe01c;" horiz-adv-x="833" 
d="M61 0l9 90h139l82 922h-170l8 90h416l-8 -90h-140l-82 -922h394l28 176h84l-37 -266h-723z" />
    <glyph glyph-name="Lslash.sc" unicode="&#xe01d;" horiz-adv-x="833" 
d="M61 0l9 90h139l31 346l-156 -100l8 98l156 101l43 477h-170l8 90h416l-8 -90h-140l-37 -406l304 193l-9 -99l-303 -192l-37 -418h394l28 176h84l-37 -266h-723z" />
    <glyph glyph-name="M.sc" unicode="&#xe01e;" horiz-adv-x="1517" 
d="M399 932q0 -59 -6 -117l-65 -725h170l-9 -90h-407l8 90h139l82 922h-170l9 90h282l281 -869q25 -84 32 -135h5q14 66 45 135l393 869h252l-8 -90h-140l-57 -922h170l-8 -90h-408l8 90h131l58 711q8 90 16 127l-4 4q-25 -84 -43 -119l-369 -813h-98l-256 801
q-27 78 -29 131h-4z" />
    <glyph glyph-name="N.sc" unicode="&#xe01f;" horiz-adv-x="1327" 
d="M981 131q0 100 4 164l57 717h-170l9 90h407l-8 -90h-139l-90 -1012h-99l-497 840q-45 74 -60 127h-4q0 -115 -2 -138l-53 -739h170l-8 -90h-416l8 90h139l82 922h-170l9 90h266l489 -819q43 -72 72 -152h4z" />
    <glyph glyph-name="Ntilde.sc" unicode="&#xe020;" horiz-adv-x="1327" 
d="M858 1247q-49 1 -135 59t-117 58q-30 0 -52 -19t-31 -35t-23 -53l-84 37q20 64 68 116t114 52t148 -58t114 -58t54 22t51 66l73 -56q-72 -131 -180 -131zM981 131q0 100 4 164l57 717h-170l9 90h407l-8 -90h-139l-90 -1012h-99l-497 840q-45 74 -60 127h-4
q0 -115 -2 -138l-53 -739h170l-8 -90h-416l8 90h139l82 922h-170l9 90h266l489 -819q43 -72 72 -152h4z" />
    <glyph glyph-name="O.sc" unicode="&#xe021;" horiz-adv-x="1175" 
d="M963 578q-1 444 -351 444q-180 0 -290 -148t-109 -357q0 -209 87 -323t267 -114t288 142t108 356zM1069 614q0 -305 -156 -469q-155 -163 -363 -163t-326 138t-118 365q0 311 153 473t365 162t328 -138t117 -368z" />
    <glyph glyph-name="OE.sc" unicode="&#xe022;" horiz-adv-x="1554" 
d="M106 471q0 323 198 503q147 132 394 132l168 -4h564l-5 -254h-86l-4 164h-372l-37 -406h364l-8 -90h-364l-37 -426h393l29 176h83l-36 -266h-580l-188 -4q-246 0 -361 128t-115 347zM680 1020q-225 0 -346 -155t-121 -365t103 -314t331 -104q70 0 127 8l82 922
q-78 8 -176 8z" />
    <glyph glyph-name="Oacute.sc" unicode="&#xe023;" horiz-adv-x="1175" 
d="M930 1470l-305 -249l-68 57l291 248zM963 578q-1 444 -351 444q-180 0 -290 -148t-109 -357q0 -209 87 -323t267 -114t288 142t108 356zM1069 614q0 -305 -156 -469q-155 -163 -363 -163t-326 138t-118 365q0 311 153 473t365 162t328 -138t117 -368z" />
    <glyph glyph-name="Ocircumflex.sc" unicode="&#xe024;" horiz-adv-x="1175" 
d="M379 1311l264 207h86l232 -207l-82 -58l-201 191l-229 -191zM963 578q-1 444 -351 444q-180 0 -290 -148t-109 -357q0 -209 87 -323t267 -114t288 142t108 356zM1069 614q0 -305 -156 -469q-155 -163 -363 -163t-326 138t-118 365q0 311 153 473t365 162t328 -138
t117 -368z" />
    <glyph glyph-name="Odieresis.sc" unicode="&#xe025;" horiz-adv-x="1175" 
d="M879 1294q-78 0 -78 74q0 35 21 65q22 29 61 29t58 -22q42 -47 0 -113q-19 -33 -62 -33zM473 1294q-78 0 -78 74q0 35 22 65q23 29 61 29t58 -21q19 -22 19 -52q1 -31 -19 -63t-63 -32zM963 578q-1 444 -351 444q-180 0 -290 -148t-109 -357q0 -209 87 -323t267 -114
t288 142t108 356zM1069 614q0 -305 -156 -469q-155 -163 -363 -163t-326 138t-118 365q0 311 153 473t365 162t328 -138t117 -368z" />
    <glyph glyph-name="Ograve.sc" unicode="&#xe026;" horiz-adv-x="1175" 
d="M489 1526l254 -246l-69 -59l-266 247zM963 578q-1 444 -351 444q-180 0 -290 -148t-109 -357q0 -209 87 -323t267 -114t288 142t108 356zM1069 614q0 -305 -156 -469q-155 -163 -363 -163t-326 138t-118 365q0 311 153 473t365 162t328 -138t117 -368z" />
    <glyph glyph-name="Oslash.sc" unicode="&#xe027;" horiz-adv-x="1175" 
d="M106 485q0 311 153 473t368 162q162 0 272 -86l133 176l68 -51l-142 -186q111 -131 111 -359q0 -305 -156 -469t-372 -163q-152 0 -262 88l-136 -179l-67 52l141 188q-111 133 -111 354zM612 1022q-180 0 -290 -148t-109 -349q0 -200 72 -304l551 727q-84 74 -224 74z
M563 80q184 0 292 142t108 350t-72 313l-549 -729q82 -76 221 -76z" />
    <glyph glyph-name="Otilde.sc" unicode="&#xe028;" horiz-adv-x="1175" 
d="M803 1247q-49 1 -135 59t-117 58t-53 -19t-30 -35q-9 -16 -24 -53l-84 37q20 64 68 116t115 52t149 -58t113 -58t53 22t51 66l74 -56q-72 -131 -180 -131zM963 578q-1 444 -351 444q-180 0 -290 -148t-109 -357q0 -209 87 -323t267 -114t288 142t108 356zM1069 614
q0 -305 -156 -469q-155 -163 -363 -163t-326 138t-118 365q0 311 153 473t365 162t328 -138t117 -368z" />
    <glyph glyph-name="P.sc" unicode="&#xe029;" horiz-adv-x="909" 
d="M489 545q127 0 190 73q62 74 62 182q0 210 -202 212h-142l-41 -467h133zM514 1102q166 0 250 -74t84 -203q0 -182 -106 -272t-255 -90h-139l-33 -373h170l-8 -90h-416l9 90h139l82 922h-170l8 90h385z" />
    <glyph glyph-name="Q.sc" unicode="&#xe02a;" horiz-adv-x="1175" 
d="M963 578q-1 444 -351 444q-180 0 -290 -148t-109 -357q0 -209 87 -323t267 -114t288 142t108 356zM1032 -293q-94 -1 -204 63t-208 136t-149 82q-170 24 -267 158t-98 339q0 311 153 473t365 162t328 -138t117 -386q0 -248 -120 -407t-300 -191v-4q51 -8 115 -58t134 -95
q72 -43 128 -43t119 14l-6 -91q-90 -14 -107 -14z" />
    <glyph glyph-name="R.sc" unicode="&#xe02b;" horiz-adv-x="1024" 
d="M489 586q119 0 186 74t66 174q0 178 -198 178h-146l-39 -426h131zM539 1102q165 0 233 -71t68 -208q0 -250 -285 -309v-4q45 -12 86 -80l147 -235q39 -66 66 -85t66 -20h65l-8 -90h-119q-45 0 -73 18t-56 70l-188 326q-35 57 -64 73t-100 17h-25l-37 -414h170l-8 -90
h-416l9 90h139l82 922h-170l8 90h410z" />
    <glyph glyph-name="S.sc" unicode="&#xe02c;" horiz-adv-x="948" 
d="M829 305q1 -139 -107 -231t-278 -92t-325 55l4 242h86l4 -175q98 -32 220 -32t206 63t84 172q0 76 -56 124q-57 48 -137 75q-80 26 -160 56t-136 93t-56 162q0 139 104 221t252 82t293 -49l-4 -223h-86l-4 156q-98 27 -184 26q-133 0 -199 -59t-66 -141t57 -132
q56 -48 136 -74t160 -56t136 -94t56 -169z" />
    <glyph glyph-name="Scaron.sc" unicode="&#xe02d;" horiz-adv-x="948" 
d="M815 1460l-264 -207h-86l-232 207l82 58l201 -191l229 191zM829 305q1 -139 -107 -231t-278 -92t-325 55l4 242h86l4 -175q98 -32 220 -32t206 63t84 172q0 76 -56 124q-57 48 -137 75q-80 26 -160 56t-136 93t-56 162q0 139 104 221t252 82t293 -49l-4 -223h-86l-4 156
q-98 27 -184 26q-133 0 -199 -59t-66 -141t57 -132q56 -48 136 -74t160 -56t136 -94t56 -169z" />
    <glyph glyph-name="T.sc" unicode="&#xe02e;" horiz-adv-x="985" 
d="M958 1102v-254h-86l-8 164h-295l-82 -922h170l-8 -90h-416l9 90h139l82 922h-301l-33 -164h-90l37 254h882z" />
    <glyph glyph-name="Thorn.sc" unicode="&#xe02f;" horiz-adv-x="909" 
d="M471 348q127 0 189 74t62 181q1 212 -202 212h-141l-41 -467h133zM496 905q166 0 250 -74t83 -202q0 -183 -106 -273t-254 -90h-137l-17 -176h170l-8 -90h-416l9 90h139l82 922h-170l8 90h416l-8 -90h-140l-10 -107h109z" />
    <glyph glyph-name="U.sc" unicode="&#xe030;" horiz-adv-x="1251" 
d="M604 -18q-389 0 -389 280q0 57 61 750h-170l9 90h415l-8 -90h-139q-61 -702 -61 -742q0 -94 72 -146t210 -52q281 0 305 278l60 662h-170l8 90h393l-8 -90h-125l-59 -668q-16 -188 -116 -275t-288 -87z" />
    <glyph glyph-name="Uacute.sc" unicode="&#xe031;" horiz-adv-x="1251" 
d="M969 1470l-305 -249l-68 57l291 248zM604 -18q-389 0 -389 280q0 57 61 750h-170l9 90h415l-8 -90h-139q-61 -702 -61 -742q0 -94 72 -146t210 -52q281 0 305 278l60 662h-170l8 90h393l-8 -90h-125l-59 -668q-16 -188 -116 -275t-288 -87z" />
    <glyph glyph-name="Ucircumflex.sc" unicode="&#xe032;" horiz-adv-x="1251" 
d="M397 1311l265 207h86l231 -207l-82 -58l-201 191l-229 -191zM604 -18q-389 0 -389 280q0 57 61 750h-170l9 90h415l-8 -90h-139q-61 -702 -61 -742q0 -94 72 -146t210 -52q281 0 305 278l60 662h-170l8 90h393l-8 -90h-125l-59 -668q-16 -188 -116 -275t-288 -87z" />
    <glyph glyph-name="Udieresis.sc" unicode="&#xe033;" horiz-adv-x="1251" 
d="M897 1294q-78 0 -78 74q0 35 22 65q23 29 61 29t57 -22q42 -47 0 -113q-19 -33 -62 -33zM492 1294q-78 0 -78 74q0 35 21 65q22 29 61 29t58 -22t19 -51q0 -31 -19 -63t-62 -32zM604 -18q-389 0 -389 280q0 57 61 750h-170l9 90h415l-8 -90h-139q-61 -702 -61 -742
q0 -94 72 -146t210 -52q281 0 305 278l60 662h-170l8 90h393l-8 -90h-125l-59 -668q-16 -188 -116 -275t-288 -87z" />
    <glyph glyph-name="Ugrave.sc" unicode="&#xe034;" horiz-adv-x="1251" 
d="M528 1526l254 -246l-69 -59l-267 247zM604 -18q-389 0 -389 280q0 57 61 750h-170l9 90h415l-8 -90h-139q-61 -702 -61 -742q0 -94 72 -146t210 -52q281 0 305 278l60 662h-170l8 90h393l-8 -90h-125l-59 -668q-16 -188 -116 -275t-288 -87z" />
    <glyph glyph-name="V.sc" unicode="&#xe035;" horiz-adv-x="1024" 
d="M-2 1012l8 90h387l-8 -90h-145l217 -785q18 -61 24 -137h4q10 49 43 137l328 785h-164l8 90h387l-8 -90h-116l-435 -1020h-106l-289 1020h-135z" />
    <glyph glyph-name="W.sc" unicode="&#xe036;" horiz-adv-x="1554" 
d="M457 90h4q20 78 55 154l248 561l-55 207h-136l9 90h401l-8 -90h-160l199 -785q20 -82 24 -137h4q16 72 37 127l307 795h-163l8 90h387l-8 -90h-117l-418 -1020h-98l-180 688h-4l-293 -688h-99l-268 1020h-135l8 90h387l-8 -90h-145l192 -770q25 -94 25 -152z" />
    <glyph glyph-name="X.sc" unicode="&#xe037;" horiz-adv-x="1062" 
d="M823 1012h-170l9 90h378l-8 -90h-110l-347 -443l295 -479h129l-8 -90h-393l8 90h158q-29 25 -55 70l-195 327l-246 -325q-37 -51 -69 -68v-4h170l-9 -90h-387l9 90h110l377 479l-268 443h-129l8 90h393l-8 -90h-158q35 -41 53 -72l170 -289l224 289q39 49 69 68v4z" />
    <glyph glyph-name="Y.sc" unicode="&#xe038;" horiz-adv-x="985" 
d="M831 1012h-169l8 90h379l-9 -90h-110l-371 -541l-35 -381h170l-8 -90h-416l9 90h139l35 379l-314 543h-131l8 90h394l-9 -90h-163q33 -29 63 -82l215 -371l246 369q41 63 69 80v4z" />
    <glyph glyph-name="Yacute.sc" unicode="&#xe039;" horiz-adv-x="985" 
d="M836 1470l-306 -249l-67 57l291 248zM831 1012h-169l8 90h379l-9 -90h-110l-371 -541l-35 -381h170l-8 -90h-416l9 90h139l35 379l-314 543h-131l8 90h394l-9 -90h-163q33 -29 63 -82l215 -371l246 369q41 63 69 80v4z" />
    <glyph glyph-name="Ydieresis.sc" unicode="&#xe03a;" horiz-adv-x="985" 
d="M743 1294q-78 0 -77 74q0 35 21 65q22 29 61 29t58 -22t19 -51q1 -31 -19 -63t-63 -32zM338 1294q-78 0 -78 74q0 35 22 65q22 29 60 29t58 -22q42 -47 0 -113q-19 -33 -62 -33zM831 1012h-169l8 90h379l-9 -90h-110l-371 -541l-35 -381h170l-8 -90h-416l9 90h139l35 379
l-314 543h-131l8 90h394l-9 -90h-163q33 -29 63 -82l215 -371l246 369q41 63 69 80v4z" />
    <glyph glyph-name="Z.sc" unicode="&#xe03b;" horiz-adv-x="948" 
d="M152 90h579l33 170h84l-33 -260h-776l8 90l658 840q49 61 79 78v4h-557l-20 -168h-84l24 258h762l-8 -80l-661 -842q-47 -61 -88 -86v-4z" />
    <glyph glyph-name="Zcaron.sc" unicode="&#xe03c;" horiz-adv-x="948" 
d="M795 1460l-265 -207h-86l-231 207l82 58l201 -191l229 191zM152 90h579l33 170h84l-33 -260h-776l8 90l658 840q49 61 79 78v4h-557l-20 -168h-84l24 258h762l-8 -80l-661 -842q-47 -61 -88 -86v-4z" />
    <glyph glyph-name="germandbls.sc" unicode="&#xe03f;" horiz-adv-x="1896" 
d="M1392 -18q-170 0 -325 55l4 242h86l4 -175q98 -32 220 -32t206 63t84 172q0 76 -56 124t-136 75q-80 26 -160 56t-136 93t-57 162q0 139 104 221t252 82t294 -49l-4 -223h-86l-5 156q-98 27 -184 26q-133 0 -199 -59t-66 -141t57 -132q56 -48 136 -74t160 -56t136 -94
t57 -169q0 -139 -108 -231t-278 -92zM829 305q1 -139 -107 -231t-278 -92t-325 55l4 242h86l4 -175q98 -32 220 -32t206 63t84 172q0 76 -56 124q-57 48 -137 75q-80 26 -160 56t-136 93t-56 162q0 139 104 221t252 82t293 -49l-4 -223h-86l-4 156q-98 27 -184 26
q-133 0 -199 -59t-66 -141t57 -132q56 -48 136 -74t160 -56t136 -94t56 -169z" />
    <glyph glyph-name="zero.taboldstyle" unicode="&#xf643;" 
d="M209 499q0 -209 88 -321t255 -112t272 137q106 137 106 347t-88 322t-255 111q-167 0 -273 -137q-105 -138 -105 -347zM597 1073q322 0 415 -323q54 -191 -10 -410q-64 -220 -241 -312q-99 -52 -219 -52q-230 -1 -335 154t-105 366q0 210 118 386q58 86 158 139
q100 52 219 52z" />
    <glyph glyph-name="one.taboldstyle" unicode="&#xf644;" 
d="M256 0l8 90h213l78 868h-213l8 91h533l-9 -91h-212l-78 -868h213l-9 -90h-532z" />
    <glyph glyph-name="two.taboldstyle" unicode="&#xf645;" 
d="M829 774q0 86 -60 144t-175 57q-116 -1 -184 -59t-97 -179h-106q59 336 407 336q154 0 238 -83t84 -212q0 -158 -153 -316t-507 -368v-4h662l-8 -90h-778l8 98q393 264 531 408t138 268z" />
    <glyph glyph-name="three.taboldstyle" unicode="&#xf646;" 
d="M602 1073q156 0 246 -84t90 -214t-90 -247t-281 -149v-4q167 -11 269 -105t102 -254t-131 -294q-131 -132 -381 -132q-201 0 -369 78l13 103q166 -82 354 -82t298 96q110 95 110 237t-116 219t-347 76h-37l10 91q188 0 339 92t150 262q0 96 -67 154q-68 58 -180 58
t-191 -58q-80 -58 -102 -152h-107q63 309 418 309z" />
    <glyph glyph-name="four.taboldstyle" unicode="&#xf647;" 
d="M612 -393l45 489h-630l8 82l704 871h107l-76 -863h320l-9 -90h-319l-43 -489h-107zM129 186h537l57 643q6 68 16 113l-4 4q-27 -66 -73 -123l-449 -553q-47 -55 -84 -80v-4z" />
    <glyph glyph-name="five.taboldstyle" unicode="&#xf648;" 
d="M973 89q0 -210 -152 -354t-385 -145q-178 0 -293 43l11 97q106 -49 256 -49q212 1 334 109t122 292t-151 254t-479 72l57 641h684l-8 -91h-584l-41 -452q309 -6 469 -106t160 -311z" />
    <glyph glyph-name="six.taboldstyle" unicode="&#xf649;" 
d="M215 524q0 -206 94 -332q93 -126 251 -126t245 109q86 111 86 263t-76 246t-240 94q-206 1 -360 -196v-58zM877 1372q-537 0 -662 -686l4 -4q150 195 385 195q188 0 290 -118q102 -119 103 -309q-1 -190 -117 -332t-327 -142t-328 163q-117 164 -117 408q0 245 84 447
q82 202 260 335t416 133q74 0 203 -18l-18 -92q-70 20 -176 20z" />
    <glyph glyph-name="seven.taboldstyle" unicode="&#xf64a;" 
d="M989 1049l-8 -78q-59 -102 -167 -302t-180 -328q-214 -377 -372 -557q-100 -116 -205 -194l-57 68q139 117 267 287q128 171 210 321t196 355t206 337h-732l9 91h833z" />
    <glyph glyph-name="eight.taboldstyle" unicode="&#xf64b;" 
d="M219 334q0 -276 348 -277q172 0 267 81q94 81 94 214q0 92 -69 169t-286 186q-209 -103 -281 -191t-73 -182zM911 1149q0 92 -73 162q-74 69 -212 69t-224 -82t-87 -186q0 -188 279 -313q317 143 317 350zM217 1106q0 156 115 256q116 100 306 100t281 -92t91 -211
q0 -248 -336 -405q204 -96 278 -182t74 -214q0 -160 -116 -272t-349 -111q-233 -1 -341 101t-107 264q0 129 94 226t293 184q-160 80 -222 160t-61 196z" />
    <glyph glyph-name="nine.taboldstyle" unicode="&#xf64c;" 
d="M554 983q-142 0 -236 -97t-93 -254q0 -157 90 -245t240 -88q98 0 188 51t142 137v45q0 219 -94 335q-95 116 -237 116zM262 -303q114 0 220 44q191 78 299 276q91 169 104 374l-4 4q-57 -94 -153 -144t-204 -50q-164 -1 -284 111t-121 311q0 199 125 325t319 125
q155 0 280 -112q67 -59 107 -179t41 -280q0 -410 -204 -653t-527 -242q-115 -1 -213 24l19 86q82 -20 196 -20z" />
    <glyph glyph-name="dollar.taboldstyle" unicode="&#xf653;" 
d="M924 401q0 106 -69 159t-237 114l-55 -604q145 16 253 98t108 233zM254 1088q0 -116 64 -168q64 -50 223 -109l49 553q-140 -4 -238 -82t-98 -194zM139 1063q0 86 31 156q31 71 79 111q130 110 349 124l23 254h90l-23 -254q195 -10 322 -61l-13 -254h-84v188
q-119 37 -233 37l-51 -578q82 -29 128 -46t108 -51q62 -35 94 -69q81 -87 79 -212q0 -197 -142 -305t-341 -123l-25 -275h-90l25 275q-123 6 -237 28t-158 45l22 275h90l-6 -205q56 -21 152 -37t145 -16l57 632q-225 68 -308 153t-83 208z" />
    <glyph glyph-name="cent.taboldstyle" unicode="&#xf654;" 
d="M184 423q0 467 287 608q72 36 145 42l19 219h82l-19 -219q139 0 271 -41l-25 -241h-90l8 167q-86 25 -172 25l-80 -913q72 0 154 26t139 66l-14 -111q-129 -72 -287 -71l-22 -248h-82l22 248q-160 16 -248 139t-88 304zM291 442q0 -145 58 -244t179 -122l80 907
q-154 -20 -236 -175t-81 -366z" />
    <glyph glyph-name="breve.sc" unicode="&#xf6f4;" horiz-adv-x="569" 
d="M380 1337q124 0 191 150l91 -39q-92 -201 -286 -201t-270 201l91 47q59 -158 183 -158z" />
    <glyph glyph-name="caron.sc" unicode="&#xf6f5;" horiz-adv-x="569" 
d="M676 1460l-264 -207h-86l-232 207l82 58l201 -191l229 191z" />
    <glyph glyph-name="circumflex.sc" unicode="&#xf6f6;" horiz-adv-x="569" 
d="M76 1311l264 207h86l231 -207l-82 -58l-200 191l-230 -191z" />
    <glyph glyph-name="dotaccent.sc" unicode="&#xf6f7;" horiz-adv-x="569" 
d="M373 1294q-78 0 -78 74q0 35 21 65q22 29 61 29t58 -22q42 -47 0 -113q-19 -33 -62 -33z" />
    <glyph glyph-name="hungarumlaut.sc" unicode="&#xf6f8;" horiz-adv-x="569" 
d="M801 1470l-305 -249l-68 57l291 248zM453 1470l-306 -249l-67 57l291 248z" />
    <glyph glyph-name="lslash.sc" unicode="&#xf6f9;" horiz-adv-x="833" 
d="M61 0l9 90h139l31 346l-156 -100l8 98l156 101l43 477h-170l8 90h416l-8 -90h-140l-37 -406l304 193l-9 -99l-303 -192l-37 -418h394l28 176h84l-37 -266h-723z" />
    <glyph glyph-name="oe.sc" unicode="&#xf6fa;" horiz-adv-x="1554" 
d="M106 471q0 323 198 503q147 132 394 132l168 -4h564l-5 -254h-86l-4 164h-372l-37 -406h364l-8 -90h-364l-37 -426h393l29 176h83l-36 -266h-580l-188 -4q-246 0 -361 128t-115 347zM680 1020q-225 0 -346 -155t-121 -365t103 -314t331 -104q70 0 127 8l82 922
q-78 8 -176 8z" />
    <glyph glyph-name="ogonek.sc" unicode="&#xf6fb;" horiz-adv-x="569" 
d="M385 -436q-63 0 -107 34t-45 109q0 139 164 293h74q-123 -138 -123 -242t98 -104q88 0 156 63l-8 -73q-88 -80 -209 -80z" />
    <glyph glyph-name="ring.sc" unicode="&#xf6fc;" horiz-adv-x="569" 
d="M551 1386q0 -86 -54 -142q-55 -56 -135 -56t-124 49t-43 124q0 75 53 138t132 63t125 -44q46 -45 46 -132zM276 1368q0 -47 25 -77q25 -29 72 -29t71 38t25 84q0 104 -88 105q-47 0 -76 -37t-29 -84z" />
    <glyph glyph-name="scaron.sc" unicode="&#xf6fd;" horiz-adv-x="948" 
d="M815 1460l-264 -207h-86l-232 207l82 58l201 -191l229 191zM829 305q1 -139 -107 -231t-278 -92t-325 55l4 242h86l4 -175q98 -32 220 -32t206 63t84 172q0 76 -56 124q-57 48 -137 75q-80 26 -160 56t-136 93t-56 162q0 139 104 221t252 82t293 -49l-4 -223h-86l-4 156
q-98 27 -184 26q-133 0 -199 -59t-66 -141t57 -132q56 -48 136 -74t160 -56t136 -94t56 -169z" />
    <glyph glyph-name="tilde.sc" unicode="&#xf6fe;" horiz-adv-x="569" 
d="M500 1247q-50 1 -136 59t-116 58t-52 -19t-31 -35t-24 -53l-84 37q21 64 69 116t114 52t148 -58t114 -58q31 0 53 22t51 66l74 -56q-72 -131 -180 -131z" />
    <glyph glyph-name="zcaron.sc" unicode="&#xf6ff;" horiz-adv-x="948" 
d="M795 1460l-265 -207h-86l-231 207l82 58l201 -191l229 191zM152 90h579l33 170h84l-33 -260h-776l8 90l658 840q49 61 79 78v4h-557l-20 -168h-84l24 258h762l-8 -80l-661 -842q-47 -61 -88 -86v-4z" />
    <glyph glyph-name="exclam.sc" unicode="&#xf721;" horiz-adv-x="606" 
d="M240 483l82 1092h114l-106 -1092h-90zM160 76q0 42 24 72t65 30q39 0 63 -28t24 -69q0 -40 -27 -67q-27 -26 -65 -26t-61 23q-23 24 -23 65z" />
    <glyph glyph-name="ampersand.sc" unicode="&#xf726;" horiz-adv-x="1402" 
d="M473 983q-113 0 -205 -120t-92 -320q0 -125 39 -205l221 207q109 100 144 158t34 139q0 141 -141 141zM78 521q0 249 123 401t297 151q90 0 144 -52t54 -127t-43 -153l4 -4l512 473l64 -61l-971 -891q137 -186 385 -186q193 0 331 127t173 329h-190l8 90h413l-8 -90h-125
q-48 -272 -237 -425q-155 -123 -385 -122q-229 1 -389 146t-160 394z" />
    <glyph glyph-name="question.sc" unicode="&#xf73f;" horiz-adv-x="985" 
d="M207 76q1 42 25 72t64 30t64 -28t23 -69q0 -40 -27 -67q-26 -26 -64 -26t-62 23q-23 24 -23 65zM225 623q0 52 24 92t42 57q18 16 24 24q7 8 27 21q20 14 46 32t36 23l139 93q186 123 187 284q0 115 -79 179t-208 65q-129 0 -217 -39l-21 92q135 45 254 45q181 0 279 -95
t98 -224t-62 -217t-132 -135l-140 -95q-84 -57 -112 -77t-54 -52q-57 -73 17 -165q20 -25 24 -31l-82 -64q-90 96 -90 187z" />
    <glyph glyph-name="grave.sc" unicode="&#xf760;" horiz-adv-x="569" 
d="M186 1526l254 -246l-69 -59l-267 247z" />
    <glyph glyph-name="a.sc" unicode="&#xf761;" horiz-adv-x="1062" 
d="M-57 0l8 90h115l448 1020h107l282 -1020h133l-8 -90h-393l8 90h145l-92 365h-368l-156 -365h158l-8 -90h-379zM362 537h314l-96 376q-12 47 -17 115h-4q-12 -55 -39 -119z" />
    <glyph glyph-name="b.sc" unicode="&#xf762;" horiz-adv-x="985" 
d="M584 1102q116 0 180 -65t63 -173q0 -201 -219 -274v-4q115 -6 182 -74t66 -182q0 -150 -92 -240t-254 -90h-449l9 90h139l82 922h-170l8 90h455zM465 618q119 0 191 71t73 169q0 154 -182 154h-150l-32 -394h100zM500 90q122 0 186 71t64 169q0 199 -248 198h-148
l-39 -438h185z" />
    <glyph glyph-name="c.sc" unicode="&#xf763;" horiz-adv-x="1024" 
d="M586 -18q-229 0 -355 136q-125 136 -125 371q0 297 160 464t408 167q129 0 276 -45l-8 -239h-86v168q-113 27 -190 26q-213 0 -333 -138t-120 -358t89 -336q89 -118 312 -118q98 0 177 18l24 166h82l-25 -235q-111 -47 -286 -47z" />
    <glyph glyph-name="d.sc" unicode="&#xf764;" horiz-adv-x="1214" 
d="M518 90q119 0 193 28q73 28 141 94t107 174q40 108 40 220q0 406 -372 406h-230l-82 -922h203zM645 1102q461 0 461 -488q0 -264 -148 -439t-395 -175h-502l9 90h139l82 922h-170l8 90h516z" />
    <glyph glyph-name="e.sc" unicode="&#xf765;" horiz-adv-x="1024" 
d="M72 0l8 90h139l82 922h-170l8 90h735l-4 -254h-86l-4 164h-372l-37 -406h364l-8 -90h-365l-36 -426h393l29 176h83l-36 -266h-723z" />
    <glyph glyph-name="f.sc" unicode="&#xf766;" horiz-adv-x="948" 
d="M72 0l8 90h139l82 922h-170l8 90h727l-8 -254h-84l-4 164h-362l-37 -426h379l-9 -90h-379l-36 -406h170l-9 -90h-415z" />
    <glyph glyph-name="g.sc" unicode="&#xf767;" 
d="M963 836h-86l-9 170q-90 25 -202 24q-213 0 -333 -138t-120 -358t89 -336q89 -118 312 -118q115 0 195 26l18 248h-165l8 90h395l-8 -90h-127l-27 -315q-131 -57 -317 -57q-229 0 -355 136q-125 136 -125 371q0 297 160 464t408 167q137 0 289 -39v-245z" />
    <glyph glyph-name="h.sc" unicode="&#xf768;" horiz-adv-x="1290" 
d="M72 0l8 90h139l82 922h-170l8 90h416l-8 -90h-139l-37 -426h557l37 426h-170l8 90h416l-9 -90h-139l-82 -922h170l-8 -90h-416l8 90h140l37 406h-558l-36 -406h170l-9 -90h-415z" />
    <glyph glyph-name="i.sc" unicode="&#xf769;" horiz-adv-x="606" 
d="M61 0l9 90h139l82 922h-170l8 90h416l-8 -90h-140l-82 -922h170l-8 -90h-416z" />
    <glyph glyph-name="j.sc" unicode="&#xf76a;" horiz-adv-x="569" 
d="M-66 -301l-32 82q186 87 246 197t81 337l62 697h-170l8 90h416l-8 -90h-140l-59 -680q-8 -104 -17 -164t-35 -138q-26 -79 -66 -130q-94 -120 -286 -201z" />
    <glyph glyph-name="k.sc" unicode="&#xf76b;" horiz-adv-x="1099" 
d="M72 0l8 90h139l82 922h-170l8 90h416l-8 -90h-139l-39 -428l487 428h-164l8 90h379l-8 -90h-88l-516 -451l440 -471h121l-8 -90h-393l8 90h143l-411 451l-41 -451h170l-9 -90h-415z" />
    <glyph glyph-name="l.sc" unicode="&#xf76c;" horiz-adv-x="833" 
d="M61 0l9 90h139l82 922h-170l8 90h416l-8 -90h-140l-82 -922h394l28 176h84l-37 -266h-723z" />
    <glyph glyph-name="m.sc" unicode="&#xf76d;" horiz-adv-x="1517" 
d="M399 932q0 -59 -6 -117l-65 -725h170l-9 -90h-407l8 90h139l82 922h-170l9 90h282l281 -869q25 -84 32 -135h5q14 66 45 135l393 869h252l-8 -90h-140l-57 -922h170l-8 -90h-408l8 90h131l58 711q8 90 16 127l-4 4q-25 -84 -43 -119l-369 -813h-98l-256 801
q-27 78 -29 131h-4z" />
    <glyph glyph-name="n.sc" unicode="&#xf76e;" horiz-adv-x="1327" 
d="M981 131q0 100 4 164l57 717h-170l9 90h407l-8 -90h-139l-90 -1012h-99l-497 840q-45 74 -60 127h-4q0 -115 -2 -138l-53 -739h170l-8 -90h-416l8 90h139l82 922h-170l9 90h266l489 -819q43 -72 72 -152h4z" />
    <glyph glyph-name="o.sc" unicode="&#xf76f;" horiz-adv-x="1175" 
d="M963 578q-1 444 -351 444q-180 0 -290 -148t-109 -357q0 -209 87 -323t267 -114t288 142t108 356zM1069 614q0 -305 -156 -469q-155 -163 -363 -163t-326 138t-118 365q0 311 153 473t365 162t328 -138t117 -368z" />
    <glyph glyph-name="p.sc" unicode="&#xf770;" horiz-adv-x="909" 
d="M489 545q127 0 190 73q62 74 62 182q0 210 -202 212h-142l-41 -467h133zM514 1102q166 0 250 -74t84 -203q0 -182 -106 -272t-255 -90h-139l-33 -373h170l-8 -90h-416l9 90h139l82 922h-170l8 90h385z" />
    <glyph glyph-name="q.sc" unicode="&#xf771;" horiz-adv-x="1175" 
d="M963 578q-1 444 -351 444q-180 0 -290 -148t-109 -357q0 -209 87 -323t267 -114t288 142t108 356zM1032 -293q-94 -1 -204 63t-208 136t-149 82q-170 24 -267 158t-98 339q0 311 153 473t365 162t328 -138t117 -386q0 -248 -120 -407t-300 -191v-4q51 -8 115 -58t134 -95
q72 -43 128 -43t119 14l-6 -91q-90 -14 -107 -14z" />
    <glyph glyph-name="r.sc" unicode="&#xf772;" horiz-adv-x="1024" 
d="M489 586q119 0 186 74t66 174q0 178 -198 178h-146l-39 -426h131zM539 1102q165 0 233 -71t68 -208q0 -250 -285 -309v-4q45 -12 86 -80l147 -235q39 -66 66 -85t66 -20h65l-8 -90h-119q-45 0 -73 18t-56 70l-188 326q-35 57 -64 73t-100 17h-25l-37 -414h170l-8 -90
h-416l9 90h139l82 922h-170l8 90h410z" />
    <glyph glyph-name="s.sc" unicode="&#xf773;" horiz-adv-x="948" 
d="M829 305q1 -139 -107 -231t-278 -92t-325 55l4 242h86l4 -175q98 -32 220 -32t206 63t84 172q0 76 -56 124q-57 48 -137 75q-80 26 -160 56t-136 93t-56 162q0 139 104 221t252 82t293 -49l-4 -223h-86l-4 156q-98 27 -184 26q-133 0 -199 -59t-66 -141t57 -132
q56 -48 136 -74t160 -56t136 -94t56 -169z" />
    <glyph glyph-name="t.sc" unicode="&#xf774;" horiz-adv-x="985" 
d="M958 1102v-254h-86l-8 164h-295l-82 -922h170l-8 -90h-416l9 90h139l82 922h-301l-33 -164h-90l37 254h882z" />
    <glyph glyph-name="u.sc" unicode="&#xf775;" horiz-adv-x="1251" 
d="M604 -18q-389 0 -389 280q0 57 61 750h-170l9 90h415l-8 -90h-139q-61 -702 -61 -742q0 -94 72 -146t210 -52q281 0 305 278l60 662h-170l8 90h393l-8 -90h-125l-59 -668q-16 -188 -116 -275t-288 -87z" />
    <glyph glyph-name="v.sc" unicode="&#xf776;" horiz-adv-x="1024" 
d="M-2 1012l8 90h387l-8 -90h-145l217 -785q18 -61 24 -137h4q10 49 43 137l328 785h-164l8 90h387l-8 -90h-116l-435 -1020h-106l-289 1020h-135z" />
    <glyph glyph-name="w.sc" unicode="&#xf777;" horiz-adv-x="1554" 
d="M457 90h4q20 78 55 154l248 561l-55 207h-136l9 90h401l-8 -90h-160l199 -785q20 -82 24 -137h4q16 72 37 127l307 795h-163l8 90h387l-8 -90h-117l-418 -1020h-98l-180 688h-4l-293 -688h-99l-268 1020h-135l8 90h387l-8 -90h-145l192 -770q25 -94 25 -152z" />
    <glyph glyph-name="x.sc" unicode="&#xf778;" horiz-adv-x="1062" 
d="M823 1012h-170l9 90h378l-8 -90h-110l-347 -443l295 -479h129l-8 -90h-393l8 90h158q-29 25 -55 70l-195 327l-246 -325q-37 -51 -69 -68v-4h170l-9 -90h-387l9 90h110l377 479l-268 443h-129l8 90h393l-8 -90h-158q35 -41 53 -72l170 -289l224 289q39 49 69 68v4z" />
    <glyph glyph-name="y.sc" unicode="&#xf779;" horiz-adv-x="985" 
d="M831 1012h-169l8 90h379l-9 -90h-110l-371 -541l-35 -381h170l-8 -90h-416l9 90h139l35 379l-314 543h-131l8 90h394l-9 -90h-163q33 -29 63 -82l215 -371l246 369q41 63 69 80v4z" />
    <glyph glyph-name="z.sc" unicode="&#xf77a;" horiz-adv-x="948" 
d="M152 90h579l33 170h84l-33 -260h-776l8 90l658 840q49 61 79 78v4h-557l-20 -168h-84l24 258h762l-8 -80l-661 -842q-47 -61 -88 -86v-4z" />
    <glyph glyph-name="exclamdown.sc" unicode="&#xf7a1;" horiz-adv-x="606" 
d="M354 594l-82 -1092h-114l106 1092h90zM350 1090q38 0 60 -24q24 -24 24 -64q0 -41 -24 -72t-65 -31q-39 0 -63 29q-24 28 -24 68t27 67t65 27z" />
    <glyph glyph-name="dieresis.sc" unicode="&#xf7a8;" horiz-adv-x="569" 
d="M575 1294q-78 0 -77 74q0 35 21 65q22 29 61 29t58 -22t19 -51q1 -31 -19 -63t-63 -32zM170 1294q-78 0 -78 74q0 35 22 65q22 29 60 29t58 -22q42 -47 0 -113q-19 -33 -62 -33z" />
    <glyph glyph-name="macron.sc" unicode="&#xf7af;" horiz-adv-x="569" 
d="M133 1323l8 90h459l-8 -90h-459z" />
    <glyph glyph-name="acute.sc" unicode="&#xf7b4;" horiz-adv-x="569" 
d="M627 1470l-305 -249l-68 57l291 248z" />
    <glyph glyph-name="cedilla.sc" unicode="&#xf7b8;" horiz-adv-x="569" 
d="M281 -346q111 0 110 78q0 37 -33 54t-59 17t-57 -6l16 203h90l-16 -131q174 0 174 -129q0 -70 -60 -123q-109 -97 -329 -23l6 89q86 -29 158 -29z" />
    <glyph glyph-name="questiondown.sc" unicode="&#xf7bf;" horiz-adv-x="985" 
d="M597 1090q37 0 61 -24t24 -64q0 -41 -25 -72t-65 -31t-63 29q-23 28 -23 68t26 67q27 27 65 27zM426 -416q129 0 217 39l21 -92q-135 -45 -254 -45q-182 0 -280 95q-97 95 -97 225t62 217q62 88 132 135l140 94q85 58 113 78t52 52t25 74q-1 42 -31 79t-34 43l81 63
q90 -96 91 -186q0 -53 -23 -92t-42 -56q-19 -18 -32 -32t-33 -25q-20 -12 -42 -28t-27 -17l-139 -92q-186 -123 -187 -285q0 -116 79 -180t208 -64z" />
    <glyph glyph-name="agrave.sc" unicode="&#xf7e0;" horiz-adv-x="1062" 
d="M434 1526l254 -246l-70 -59l-266 247zM-57 0l8 90h115l448 1020h107l282 -1020h133l-8 -90h-393l8 90h145l-92 365h-368l-156 -365h158l-8 -90h-379zM362 537h314l-96 376q-12 47 -17 115h-4q-12 -55 -39 -119z" />
    <glyph glyph-name="aacute.sc" unicode="&#xf7e1;" horiz-adv-x="1062" 
d="M874 1470l-305 -249l-67 57l291 248zM-57 0l8 90h115l448 1020h107l282 -1020h133l-8 -90h-393l8 90h145l-92 365h-368l-156 -365h158l-8 -90h-379zM362 537h314l-96 376q-12 47 -17 115h-4q-12 -55 -39 -119z" />
    <glyph glyph-name="acircumflex.sc" unicode="&#xf7e2;" horiz-adv-x="1062" 
d="M324 1311l264 207h86l231 -207l-82 -58l-200 191l-230 -191zM-57 0l8 90h115l448 1020h107l282 -1020h133l-8 -90h-393l8 90h145l-92 365h-368l-156 -365h158l-8 -90h-379zM362 537h314l-96 376q-12 47 -17 115h-4q-12 -55 -39 -119z" />
    <glyph glyph-name="atilde.sc" unicode="&#xf7e3;" horiz-adv-x="1062" 
d="M748 1247q-50 1 -136 59t-116 58t-53 -19t-31 -35t-23 -53l-84 37q21 64 69 116t114 52t148 -58q83 -58 114 -58t53 22t51 66l74 -56q-72 -131 -180 -131zM-57 0l8 90h115l448 1020h107l282 -1020h133l-8 -90h-393l8 90h145l-92 365h-368l-156 -365h158l-8 -90h-379z
M362 537h314l-96 376q-12 47 -17 115h-4q-12 -55 -39 -119z" />
    <glyph glyph-name="adieresis.sc" unicode="&#xf7e4;" horiz-adv-x="1062" 
d="M823 1294q-78 0 -78 74q0 35 22 65q22 29 61 29t58 -22t19 -51q1 -31 -19 -63t-63 -32zM418 1294q-78 0 -78 74q0 35 21 65q22 29 61 29t58 -22q42 -47 0 -113q-19 -33 -62 -33zM-57 0l8 90h115l448 1020h107l282 -1020h133l-8 -90h-393l8 90h145l-92 365h-368l-156 -365
h158l-8 -90h-379zM362 537h314l-96 376q-12 47 -17 115h-4q-12 -55 -39 -119z" />
    <glyph glyph-name="aring.sc" unicode="&#xf7e5;" horiz-adv-x="1062" 
d="M381 1361q0 75 53 138t132 63t125 -44q46 -45 46 -132q0 -86 -55 -142t-134 -56t-123 49t-44 124zM463 1368q1 -47 25 -77q24 -29 71 -29t72 38t24 84q0 104 -88 105q-47 0 -75 -37t-29 -84zM-57 0l8 90h115l448 1020h107l282 -1020h133l-8 -90h-393l8 90h145l-92 365
h-368l-156 -365h158l-8 -90h-379zM362 537h314l-96 376q-12 47 -17 115h-4q-12 -55 -39 -119z" />
    <glyph glyph-name="ae.sc" unicode="&#xf7e6;" horiz-adv-x="1402" 
d="M817 586l37 426h-92l-270 -426h325zM-57 0l8 90h112l650 1012h684l-6 -254h-84l-7 164h-339l-37 -426h366l-8 -90h-367l-36 -406h393l28 176h84l-36 -266h-723l8 90h139l37 406h-375l-258 -406h154l-8 -90h-379z" />
    <glyph glyph-name="ccedilla.sc" unicode="&#xf7e7;" horiz-adv-x="1024" 
d="M856 836v168q-113 27 -190 26q-213 0 -333 -138t-120 -358t89 -336q89 -118 312 -118q98 0 177 18l24 166h82l-25 -235q-111 -47 -286 -47q-8 0 -13 2l-14 -115q174 0 174 -129q0 -70 -59 -123q-58 -53 -148 -53t-182 30l6 89q86 -29 158 -29q111 0 110 78q0 37 -32 54
q-34 17 -60 17t-57 -6l14 195q-182 29 -279 160t-98 337q0 297 160 464t408 167q129 0 276 -45l-8 -239h-86z" />
    <glyph glyph-name="egrave.sc" unicode="&#xf7e8;" horiz-adv-x="1024" 
d="M455 1526l254 -246l-70 -59l-266 247zM72 0l8 90h139l82 922h-170l8 90h735l-4 -254h-86l-4 164h-372l-37 -406h364l-8 -90h-365l-36 -426h393l29 176h83l-36 -266h-723z" />
    <glyph glyph-name="eacute.sc" unicode="&#xf7e9;" horiz-adv-x="1024" 
d="M895 1470l-305 -249l-68 57l291 248zM72 0l8 90h139l82 922h-170l8 90h735l-4 -254h-86l-4 164h-372l-37 -406h364l-8 -90h-365l-36 -426h393l29 176h83l-36 -266h-723z" />
    <glyph glyph-name="ecircumflex.sc" unicode="&#xf7ea;" horiz-adv-x="1024" 
d="M344 1311l264 207h86l232 -207l-82 -58l-201 191l-229 -191zM72 0l8 90h139l82 922h-170l8 90h735l-4 -254h-86l-4 164h-372l-37 -406h364l-8 -90h-365l-36 -426h393l29 176h83l-36 -266h-723z" />
    <glyph glyph-name="edieresis.sc" unicode="&#xf7eb;" horiz-adv-x="1024" 
d="M844 1294q-78 0 -78 74q0 35 21 65q22 29 61 29t58 -22q42 -47 0 -113q-19 -33 -62 -33zM438 1294q-78 0 -78 74q0 35 22 65q22 29 61 29t58 -22t19 -51q0 -31 -20 -63t-62 -32zM72 0l8 90h139l82 922h-170l8 90h735l-4 -254h-86l-4 164h-372l-37 -406h364l-8 -90h-365
l-36 -426h393l29 176h83l-36 -266h-723z" />
    <glyph glyph-name="igrave.sc" unicode="&#xf7ec;" horiz-adv-x="606" 
d="M205 1526l254 -246l-70 -59l-266 247zM61 0l9 90h139l82 922h-170l8 90h416l-8 -90h-140l-82 -922h170l-8 -90h-416z" />
    <glyph glyph-name="iacute.sc" unicode="&#xf7ed;" horiz-adv-x="606" 
d="M645 1470l-305 -249l-68 57l291 248zM61 0l9 90h139l82 922h-170l8 90h416l-8 -90h-140l-82 -922h170l-8 -90h-416z" />
    <glyph glyph-name="icircumflex.sc" unicode="&#xf7ee;" horiz-adv-x="606" 
d="M74 1311l264 207h86l231 -207l-82 -58l-200 191l-230 -191zM61 0l9 90h139l82 922h-170l8 90h416l-8 -90h-140l-82 -922h170l-8 -90h-416z" />
    <glyph glyph-name="idieresis.sc" unicode="&#xf7ef;" horiz-adv-x="606" 
d="M594 1294q-78 0 -78 74q0 35 22 65q22 29 60 29t58 -22q42 -47 0 -113q-19 -33 -62 -33zM188 1294q-78 0 -77 74q0 35 21 65q22 29 61 29t58 -22t19 -51q0 -31 -20 -63t-62 -32zM61 0l9 90h139l82 922h-170l8 90h416l-8 -90h-140l-82 -922h170l-8 -90h-416z" />
    <glyph glyph-name="eth.sc" unicode="&#xf7f0;" horiz-adv-x="1214" 
d="M518 90q119 0 193 28q73 28 141 94t107 174q40 108 40 220q0 406 -372 406h-230l-35 -394h293l-8 -90h-293l-39 -438h203zM645 1102q461 0 461 -488q0 -264 -148 -439t-395 -175h-502l9 90h139l39 438h-154l8 90h154l35 394h-170l8 90h516z" />
    <glyph glyph-name="ntilde.sc" unicode="&#xf7f1;" horiz-adv-x="1327" 
d="M858 1247q-49 1 -135 59t-117 58q-30 0 -52 -19t-31 -35t-23 -53l-84 37q20 64 68 116t114 52t148 -58t114 -58t54 22t51 66l73 -56q-72 -131 -180 -131zM981 131q0 100 4 164l57 717h-170l9 90h407l-8 -90h-139l-90 -1012h-99l-497 840q-45 74 -60 127h-4
q0 -115 -2 -138l-53 -739h170l-8 -90h-416l8 90h139l82 922h-170l9 90h266l489 -819q43 -72 72 -152h4z" />
    <glyph glyph-name="ograve.sc" unicode="&#xf7f2;" horiz-adv-x="1175" 
d="M489 1526l254 -246l-69 -59l-266 247zM963 578q-1 444 -351 444q-180 0 -290 -148t-109 -357q0 -209 87 -323t267 -114t288 142t108 356zM1069 614q0 -305 -156 -469q-155 -163 -363 -163t-326 138t-118 365q0 311 153 473t365 162t328 -138t117 -368z" />
    <glyph glyph-name="oacute.sc" unicode="&#xf7f3;" horiz-adv-x="1175" 
d="M930 1470l-305 -249l-68 57l291 248zM963 578q-1 444 -351 444q-180 0 -290 -148t-109 -357q0 -209 87 -323t267 -114t288 142t108 356zM1069 614q0 -305 -156 -469q-155 -163 -363 -163t-326 138t-118 365q0 311 153 473t365 162t328 -138t117 -368z" />
    <glyph glyph-name="ocircumflex.sc" unicode="&#xf7f4;" horiz-adv-x="1175" 
d="M379 1311l264 207h86l232 -207l-82 -58l-201 191l-229 -191zM963 578q-1 444 -351 444q-180 0 -290 -148t-109 -357q0 -209 87 -323t267 -114t288 142t108 356zM1069 614q0 -305 -156 -469q-155 -163 -363 -163t-326 138t-118 365q0 311 153 473t365 162t328 -138
t117 -368z" />
    <glyph glyph-name="otilde.sc" unicode="&#xf7f5;" horiz-adv-x="1175" 
d="M803 1247q-49 1 -135 59t-117 58t-53 -19t-30 -35q-9 -16 -24 -53l-84 37q20 64 68 116t115 52t149 -58t113 -58t53 22t51 66l74 -56q-72 -131 -180 -131zM963 578q-1 444 -351 444q-180 0 -290 -148t-109 -357q0 -209 87 -323t267 -114t288 142t108 356zM1069 614
q0 -305 -156 -469q-155 -163 -363 -163t-326 138t-118 365q0 311 153 473t365 162t328 -138t117 -368z" />
    <glyph glyph-name="odieresis.sc" unicode="&#xf7f6;" horiz-adv-x="1175" 
d="M879 1294q-78 0 -78 74q0 35 21 65q22 29 61 29t58 -22q42 -47 0 -113q-19 -33 -62 -33zM473 1294q-78 0 -78 74q0 35 22 65q23 29 61 29t58 -21q19 -22 19 -52q1 -31 -19 -63t-63 -32zM963 578q-1 444 -351 444q-180 0 -290 -148t-109 -357q0 -209 87 -323t267 -114
t288 142t108 356zM1069 614q0 -305 -156 -469q-155 -163 -363 -163t-326 138t-118 365q0 311 153 473t365 162t328 -138t117 -368z" />
    <glyph glyph-name="oslash.sc" unicode="&#xf7f8;" horiz-adv-x="1175" 
d="M106 485q0 311 153 473t368 162q162 0 272 -86l133 176l68 -51l-142 -186q111 -131 111 -359q0 -305 -156 -469t-372 -163q-152 0 -262 88l-136 -179l-67 52l141 188q-111 133 -111 354zM612 1022q-180 0 -290 -148t-109 -349q0 -200 72 -304l551 727q-84 74 -224 74z
M563 80q184 0 292 142t108 350t-72 313l-549 -729q82 -76 221 -76z" />
    <glyph glyph-name="ugrave.sc" unicode="&#xf7f9;" horiz-adv-x="1251" 
d="M528 1526l254 -246l-69 -59l-267 247zM604 -18q-389 0 -389 280q0 57 61 750h-170l9 90h415l-8 -90h-139q-61 -702 -61 -742q0 -94 72 -146t210 -52q281 0 305 278l60 662h-170l8 90h393l-8 -90h-125l-59 -668q-16 -188 -116 -275t-288 -87z" />
    <glyph glyph-name="uacute.sc" unicode="&#xf7fa;" horiz-adv-x="1251" 
d="M969 1470l-305 -249l-68 57l291 248zM604 -18q-389 0 -389 280q0 57 61 750h-170l9 90h415l-8 -90h-139q-61 -702 -61 -742q0 -94 72 -146t210 -52q281 0 305 278l60 662h-170l8 90h393l-8 -90h-125l-59 -668q-16 -188 -116 -275t-288 -87z" />
    <glyph glyph-name="ucircumflex.sc" unicode="&#xf7fb;" horiz-adv-x="1251" 
d="M397 1311l265 207h86l231 -207l-82 -58l-201 191l-229 -191zM604 -18q-389 0 -389 280q0 57 61 750h-170l9 90h415l-8 -90h-139q-61 -702 -61 -742q0 -94 72 -146t210 -52q281 0 305 278l60 662h-170l8 90h393l-8 -90h-125l-59 -668q-16 -188 -116 -275t-288 -87z" />
    <glyph glyph-name="udieresis.sc" unicode="&#xf7fc;" horiz-adv-x="1251" 
d="M897 1294q-78 0 -78 74q0 35 22 65q23 29 61 29t57 -22q42 -47 0 -113q-19 -33 -62 -33zM492 1294q-78 0 -78 74q0 35 21 65q22 29 61 29t58 -22t19 -51q0 -31 -19 -63t-62 -32zM604 -18q-389 0 -389 280q0 57 61 750h-170l9 90h415l-8 -90h-139q-61 -702 -61 -742
q0 -94 72 -146t210 -52q281 0 305 278l60 662h-170l8 90h393l-8 -90h-125l-59 -668q-16 -188 -116 -275t-288 -87z" />
    <glyph glyph-name="yacute.sc" unicode="&#xf7fd;" horiz-adv-x="985" 
d="M836 1470l-306 -249l-67 57l291 248zM831 1012h-169l8 90h379l-9 -90h-110l-371 -541l-35 -381h170l-8 -90h-416l9 90h139l35 379l-314 543h-131l8 90h394l-9 -90h-163q33 -29 63 -82l215 -371l246 369q41 63 69 80v4z" />
    <glyph glyph-name="thorn.sc" unicode="&#xf7fe;" horiz-adv-x="909" 
d="M471 348q127 0 189 74t62 181q1 212 -202 212h-141l-41 -467h133zM496 905q166 0 250 -74t83 -202q0 -183 -106 -273t-254 -90h-137l-17 -176h170l-8 -90h-416l9 90h139l82 922h-170l8 90h416l-8 -90h-140l-10 -107h109z" />
    <glyph glyph-name="ydieresis.sc" unicode="&#xf7ff;" horiz-adv-x="985" 
d="M743 1294q-78 0 -77 74q0 35 21 65q22 29 61 29t58 -22t19 -51q1 -31 -19 -63t-63 -32zM338 1294q-78 0 -78 74q0 35 22 65q22 29 60 29t58 -22q42 -47 0 -113q-19 -33 -62 -33zM831 1012h-169l8 90h379l-9 -90h-110l-371 -541l-35 -381h170l-8 -90h-416l9 90h139l35 379
l-314 543h-131l8 90h394l-9 -90h-163q33 -29 63 -82l215 -371l246 369q41 63 69 80v4z" />
    <glyph glyph-name="fi" unicode="&#xfb01;" 
d="M752 1591q119 0 227 -41l-10 -90q-115 41 -223 41q-219 0 -287 -126q-37 -67 -51 -137t-21 -185h567l-86 -963h174l-8 -90h-272l86 963h-467l-55 -734q-32 -428 -99 -566t-175 -178q-66 -24 -144 -24t-187 35l9 90q94 -35 164 -35q170 -1 236 147t93 531l51 734h-163
l8 90h162q18 283 121 411t350 127z" />
    <glyph glyph-name="fl" unicode="&#xfb02;" 
d="M752 1591q63 0 139 -16h108l-131 -1485h174l-8 -90h-272l131 1477q-61 25 -157 25q-208 -1 -277 -127q-37 -67 -51 -137t-21 -185h303l-8 -90h-301l-55 -734q-32 -428 -99 -566t-175 -178q-66 -24 -144 -24t-187 35l9 90q94 -35 164 -35q170 -1 236 147t93 531l51 734
h-163l8 90h162q18 283 121 411t350 127z" />
    <glyph glyph-name="one.superior" horiz-adv-x="739" 
d="M147 582l9 82h155l72 684l-244 -134l-26 74l290 158h82l-75 -782h180l-8 -82h-435z" />
    <glyph glyph-name="two.superior" horiz-adv-x="739" 
d="M549 1238q0 58 -42 100t-120 42t-123 -40t-74 -119h-90q18 96 94 169q76 72 205 72q128 0 188 -68t60 -146q0 -79 -54 -172t-228 -249l-185 -163h467l-6 -82h-584l6 75q219 201 315 301q97 99 134 161t37 119z" />
    <glyph glyph-name="three.superior" horiz-adv-x="739" 
d="M275 647q139 0 203 50q64 51 65 119q0 125 -99 153q-77 22 -202 22l6 82h26q121 0 196 56q75 55 75 117t-38 98t-114 36q-145 0 -180 -125h-90q1 27 23 67t50 69t83 51t124 20q119 0 177 -55t57 -141q0 -86 -66 -144t-172 -78v-4q242 -23 242 -200q0 -113 -90 -194
t-264 -81q-103 0 -226 39l7 90q68 -47 207 -47z" />
    <glyph glyph-name="dotlessi.sc" horiz-adv-x="606" 
d="M61 0l9 90h139l82 922h-170l8 90h416l-8 -90h-140l-82 -922h170l-8 -90h-416z" />
    <glyph glyph-name="a.superior" horiz-adv-x="714" 
d="M190 1028q0 -156 89 -156q67 0 157 140t111 317l4 37q-49 23 -111 23t-117 -41q-89 -65 -121 -222q-12 -53 -12 -98zM92 1028q0 170 89 298t270 128q41 0 137 -20h67q-10 -41 -24 -205l-35 -348h96l-6 -66h-188l39 285h-5q-91 -214 -185 -274q-44 -28 -93 -27
q-90 1 -126 69t-36 160z" />
    <glyph glyph-name="o.superior" horiz-adv-x="739" 
d="M219 1092q0 -211 152 -211q109 0 159 89t52 192q0 102 -44 156t-108 54q-102 0 -157 -91q-54 -92 -54 -189zM121 1082q0 150 80 262q80 110 241 110q110 0 174 -72t64 -224t-82 -255q-82 -104 -229 -104q-111 0 -180 66q-68 67 -68 217z" />
    <glyph glyph-name="fi.sc" horiz-adv-x="1554" 
d="M1010 0l8 90h139l82 922h-170l8 90h416l-8 -90h-139l-82 -922h170l-9 -90h-415zM72 0l8 90h139l82 922h-170l8 90h727l-8 -254h-84l-4 164h-362l-37 -426h379l-9 -90h-379l-36 -406h170l-9 -90h-415z" />
    <glyph glyph-name="fl.sc" horiz-adv-x="1781" 
d="M1010 0l8 90h139l82 922h-170l8 90h416l-8 -90h-139l-82 -922h393l29 176h83l-36 -266h-723zM72 0l8 90h139l82 922h-170l8 90h727l-8 -254h-84l-4 164h-362l-37 -426h379l-9 -90h-379l-36 -406h170l-9 -90h-415z" />
    </font>
</defs>
</svg>
