<?xml version="1.0" standalone="no"?>
<!DOCTYPE svg PUBLIC "-//W3C//DTD SVG 1.1//EN" "http://www.w3.org/Graphics/SVG/1.1/DTD/svg11.dtd" >
<svg xmlns="http://www.w3.org/2000/svg">
<metadata>
Created by FontPrep 20130207 at Wed Jul 16 09:05:38 2014
 By Michael Elliott
(c) 1991, 1992, 2002 Adobe Systems Incorporated. All rights reserved.
</metadata>
<defs>
<font id="f7f1222cd08cff9dd5b41a23c79708fd" horiz-adv-x='1024' >
  <font-face 
    font-family="CaeciliaLTStd-Light"
    font-weight="300"
    font-stretch="normal"
    units-per-em="2048"
    panose-1="2 6 5 3 4 5 5 2 2 4"
    ascent="1575"
    descent="-473"
    x-height="1053"
    cap-height="1434"
    bbox="-336 -545 2314 1860"
    underline-thickness="102"
    underline-position="-102"
    unicode-range="U+0020-FB02"
  />
<missing-glyph horiz-adv-x="1024" 
d="M102 1239v-1044l349 522zM164 102h696l-348 523zM573 717l349 -522v1044zM512 809l348 522h-696zM0 0v1434h1024v-1434h-1024z" />
    <glyph glyph-name="f_i" unicode="fi" horiz-adv-x="1251" 
d="M715 0v90h186l8 873h-520l-4 -873h186v-90h-471v90h179l4 873h-226v90h226l2 176q4 172 114 267q111 95 301 95q131 0 258 -30v-97q-92 37 -248 37t-236 -78q-79 -78 -83 -206l-2 -164h627l-8 -963h186v-90h-479z" />
    <glyph glyph-name="f_l" unicode="fl" horiz-adv-x="1290" 
d="M762 0v90h176l8 1378q-88 33 -240 33t-232 -78q-79 -78 -83 -206l-2 -164h318v-90h-318l-4 -873h186v-90h-471v90h179l4 873h-226v90h226l2 176q4 172 114 267q111 95 301 95q139 0 258 -28l95 12l-9 -1485h177v-90h-459z" />
    <glyph glyph-name=".notdef" horiz-adv-x="1024" 
d="M102 1239v-1044l349 522zM164 102h696l-348 523zM573 717l349 -522v1044zM512 809l348 522h-696zM0 0v1434h1024v-1434h-1024z" />
    <glyph glyph-name=".null" horiz-adv-x="0" 
 />
    <glyph glyph-name="nonmarkingreturn" horiz-adv-x="681" 
 />
    <glyph glyph-name="space" unicode=" " horiz-adv-x="569" 
 />
    <glyph glyph-name="exclam" unicode="!" horiz-adv-x="647" 
d="M229 74q0 42 28 70t67 28q38 0 66 -29t28 -69t-28 -70q-28 -29 -66 -29t-67 29q-28 29 -28 70zM385 1575l-16 -1083h-90l-17 1083h123z" />
    <glyph glyph-name="quotedbl" unicode="&#x22;" horiz-adv-x="681" 
d="M262 1512q0 -32 -6 -87l-20 -278q-4 -55 -52 -55t-51 55l-20 278q-7 55 -7 87t18 56t60 23q78 -1 78 -79zM420 1512q0 80 78 79q41 1 59 -23t18 -56t-6 -87l-20 -278q-3 -55 -51 -55t-52 55l-20 278q-6 55 -6 87z" />
    <glyph glyph-name="numbersign" unicode="#" 
d="M59 459v98h244l45 320h-229v98h243l64 459h98l-63 -459h291l63 459h98l-63 -459h229v-98h-243l-45 -320h229v-98h-244l-63 -459h-99l64 459h-291l-63 -459h-99l64 459h-230zM692 557l45 320h-291l-45 -320h291z" />
    <glyph glyph-name="dollar" unicode="$" 
d="M938 377q0 205 -240 262l-88 20l-4 -581q135 4 234 82q98 78 98 217zM201 1068q0 -106 63 -165t180 -92l76 -20l4 565q-163 0 -264 -116q-59 -66 -59 -172zM86 1059q0 106 46 188t117 124q140 83 275 83l4 260h90l-4 -260q188 0 361 -57l-4 -262h-99l5 180
q-23 12 -107 26t-156 15l-4 -582l99 -24q344 -86 344 -363q0 -187 -129 -293t-318 -114l-4 -275h-90l4 275q-106 0 -240 18t-188 35l4 286h98l-4 -200q141 -41 330 -41l4 598l-78 18q-356 84 -356 365z" />
    <glyph glyph-name="percent" unicode="%" horiz-adv-x="1744" 
d="M422 -111l-74 50l940 1605l74 -49zM1327 549q-99 0 -157 -66t-58 -175t55 -178t155 -69t155 69t55 177t-53 175q-54 67 -152 67zM1014 304q0 142 87 234t224 93q137 0 221 -87t84 -238q0 -150 -87 -238t-224 -88t-221 91t-84 233zM428 1372q-98 0 -157 -65
q-58 -65 -58 -175t55 -179q54 -69 154 -69t156 69q55 69 55 177t-53 176q-54 66 -152 66zM115 1127q0 143 87 235t224 92t221 -87t84 -237t-87 -239q-87 -88 -224 -88t-221 91t-84 233z" />
    <glyph glyph-name="ampersand" unicode="&#x26;" horiz-adv-x="1669" 
d="M307 364q-1 -114 103 -202t250 -88t247 53q100 53 162 127l-500 481l-61 -41q-106 -80 -154 -147q-47 -69 -47 -183zM854 1154q0 114 -60 164t-156 50t-163 -61q-65 -61 -65 -155t112 -216l76 -76l82 60q174 121 174 234zM1063 752v90h457v-90h-177q-8 -281 -147 -478
q80 -84 170 -151q43 -33 113 -33h51v-90h-70q-72 0 -129 30t-143 109l-53 54q-174 -209 -461 -209q-236 0 -359 116t-122 279q0 203 260 385l51 37l-82 84q-119 137 -119 269t96 218t253 86t233 -84t76 -186q0 -172 -160 -287l-144 -102l471 -457q109 170 109 410h-174z" />
    <glyph glyph-name="quotesingle" unicode="'" horiz-adv-x="454" 
d="M150 1512q0 32 18 56t59 24t60 -24q18 -24 18 -56t-6 -87l-20 -278q-3 -55 -51 -55t-52 55l-20 278q-6 55 -6 87z" />
    <glyph glyph-name="parenleft" unicode="(" horiz-adv-x="645" 
d="M190 528q0 354 92 608t248 470l82 -52q-66 -86 -110 -160t-96 -199q-109 -255 -109 -626q1 -371 99 -629t239 -429l-76 -56q-369 475 -369 1073z" />
    <glyph glyph-name="parenright" unicode=")" horiz-adv-x="645" 
d="M455 528q0 -354 -91 -607t-249 -466l-82 51q230 299 288 649q28 169 27 373q0 330 -98 589q-99 259 -240 433l76 56q369 -481 369 -1078z" />
    <glyph glyph-name="asterisk" unicode="*" horiz-adv-x="684" 
d="M291 1575h98l-16 -270l231 131l37 -72l-240 -115l240 -112l-37 -72l-231 131l16 -268h-98l16 268l-229 -131l-35 72l238 112l-238 115l35 72l229 -131z" />
    <glyph glyph-name="plus" unicode="+" horiz-adv-x="1228" 
d="M565 0v469h-469v98h469v469h99v-469h469v-98h-469v-469h-99z" />
    <glyph glyph-name="comma" unicode="," horiz-adv-x="569" 
d="M186 95q0 34 27 56q27 21 69 21t76 -44t33 -127q0 -83 -47 -177t-117 -152l-49 49q31 31 65 86q33 55 33 107t-45 100q-45 47 -45 81z" />
    <glyph glyph-name="hyphen" unicode="-" horiz-adv-x="796" 
d="M150 479v107h497v-107h-497z" />
    <glyph glyph-name="period" unicode="." horiz-adv-x="569" 
d="M190 74q0 42 28 70t67 28t67 -29t27 -69q0 -40 -28 -70q-29 -29 -67 -29t-66 29t-28 70z" />
    <glyph glyph-name="slash" unicode="/" horiz-adv-x="796" 
d="M-8 -125l719 1716l94 -32l-719 -1717z" />
    <glyph glyph-name="zero" unicode="0" 
d="M92 724q0 163 52 331q52 167 171 283t287 116q205 0 325 -199t120 -495t-116 -531q-57 -113 -153 -181t-218 -68t-216 63t-147 169q-105 208 -105 512zM207 714q0 -280 93 -458t259 -178t269 181q104 181 104 471t-95 458t-260 168t-268 -180q-102 -182 -102 -462z" />
    <glyph glyph-name="one" unicode="1" 
d="M295 0v90h293l8 1227q-37 -33 -49 -39l-332 -213l-55 82l452 287h90l-8 -1344h305v-90h-704z" />
    <glyph glyph-name="two" unicode="2" 
d="M129 0v84l379 377q338 338 338 600q0 139 -78 217t-217 78q-80 0 -140 -31q-99 -51 -142 -158q-27 -67 -27 -112h-107q0 66 37 144q37 79 81 130t126 88t188 37q189 0 291 -111t103 -274q0 -305 -379 -668l-314 -301v-6q66 4 164 4h567v-98h-870z" />
    <glyph glyph-name="three" unicode="3" 
d="M488 78q172 0 278 83t106 237t-112 216q-113 63 -367 64h-28v98h30q136 0 270 74q150 82 150 278q0 102 -73 165t-181 63q-199 1 -267 -102q-54 -79 -54 -160h-107q0 187 175 299q97 61 237 61q184 0 284 -94q101 -94 101 -238t-85 -239q-85 -94 -208 -129v-4
q118 -8 224 -82q56 -39 91 -110t35 -165q0 -186 -137 -300t-373 -113q-189 -1 -336 71l6 111q169 -84 341 -84z" />
    <glyph glyph-name="four" unicode="4" 
d="M522 0v90h168l4 359h-637v79l641 906h107l-4 -895h286v-90h-286l-4 -359h182v-90h-457zM336 539h358l4 579q0 36 7 176h-5q-39 -74 -86 -139l-442 -620q66 4 164 4z" />
    <glyph glyph-name="five" unicode="5" 
d="M909 1434v-99h-604l-4 -473q666 0 666 -438q-1 -199 -141 -322t-380 -122q-170 0 -290 53v104q115 -59 298 -59q182 0 290 89t108 243q0 202 -167 278t-490 76l4 670h710z" />
    <glyph glyph-name="six" unicode="6" 
d="M901 421q0 157 -80 248t-234 91t-289 -127q-60 -58 -60 -76q0 -209 92 -344t266 -135q129 0 217 93t88 250zM778 1356q-114 0 -225 -52t-168 -127t-102 -202t-45 -303q158 186 364 186t309 -126q105 -126 105 -310t-113 -314q-113 -128 -309 -128q-296 0 -408 263
q-63 146 -63 361q0 386 169 618t527 232q45 0 105 -9t75 -15l-14 -99q-93 25 -207 25z" />
    <glyph glyph-name="seven" unicode="7" 
d="M141 1335v99h852v-74l-192 -414q-256 -578 -498 -946h-131q180 250 369 643q53 113 175 377t154 315h-729z" />
    <glyph glyph-name="eight" unicode="8" 
d="M905 352q0 82 -46 142t-138 112l-156 90l-96 -53q-121 -65 -178 -131t-57 -180t94 -185q94 -69 246 -69t241 73q90 73 90 201zM864 1134q0 98 -79 160t-207 62t-214 -64q-88 -64 -88 -168t50 -162t149 -108l96 -51l95 57q98 60 148 118t50 156zM170 1090q0 170 113 267
t299 97t287 -88t102 -231q0 -203 -217 -330l-88 -51l110 -62q117 -66 180 -140t64 -200q0 -166 -126 -269t-334 -103t-324 100t-117 254q0 217 254 356l94 51l-113 68q-184 111 -184 281z" />
    <glyph glyph-name="nine" unicode="9" 
d="M238 1013q0 -157 80 -248t235 -91q156 0 288 127q60 58 60 76q0 209 -92 344t-266 135q-129 0 -217 -93t-88 -250zM123 1012q0 186 113 314t309 128q293 0 407 -263q62 -143 64 -362q0 -385 -169 -617t-528 -232q-45 0 -105 9t-75 15l15 98q94 -25 176 -24q145 0 256 52
t168 127t102 201t45 304q-158 -186 -364 -186t-310 125q-104 126 -104 311z" />
    <glyph glyph-name="colon" unicode=":" horiz-adv-x="569" 
d="M190 74q0 42 28 70t67 28t67 -29t27 -69q0 -40 -28 -70q-29 -29 -67 -29t-66 29t-28 70zM190 918q0 42 28 70t67 28t67 -29t27 -69q0 -40 -28 -70q-29 -29 -67 -29t-66 29t-28 70z" />
    <glyph glyph-name="semicolon" unicode=";" horiz-adv-x="569" 
d="M190 918q0 42 28 70t67 28t67 -29t27 -69q0 -40 -28 -70q-29 -29 -67 -29t-66 29t-28 70zM186 95q0 34 27 56q27 21 69 21t76 -44t33 -127q0 -83 -47 -177t-117 -152l-49 49q31 31 65 86q33 55 33 107t-45 100q-45 47 -45 81z" />
    <glyph glyph-name="less" unicode="&#x3c;" horiz-adv-x="1228" 
d="M96 461v114l1037 478v-103l-938 -432l938 -432v-102z" />
    <glyph glyph-name="equal" unicode="=" horiz-adv-x="1228" 
d="M96 268v99h1037v-99h-1037zM96 670v98h1037v-98h-1037z" />
    <glyph glyph-name="greater" unicode="&#x3e;" horiz-adv-x="1228" 
d="M1133 575v-114l-1037 -477v102l938 432l-938 432v103z" />
    <glyph glyph-name="question" unicode="?" horiz-adv-x="1024" 
d="M307 74q0 42 27 70q28 28 68 28t67 -29t27 -69t-27 -70q-27 -29 -68 -29t-67 29t-27 70zM291 645q1 61 27 103t92 94l196 155q131 106 131 240q0 96 -69 176q-70 80 -197 80t-219 -39l-14 100q94 37 223 37q178 0 284 -97t107 -239q0 -182 -152 -305l-184 -149
q-41 -33 -58 -48q-16 -15 -34 -44t-18 -53q0 -63 49 -112l14 -14l-78 -69q-100 80 -100 184z" />
    <glyph glyph-name="at" unicode="@" horiz-adv-x="1638" 
d="M860 1368q-292 0 -488 -192t-196 -462q0 -268 199 -458t485 -190q166 0 320 76t231 200h123q-102 -168 -286 -267t-388 -100q-330 -1 -556 217t-226 525t229 524t539 217t512 -176q203 -176 203 -440q0 -222 -153 -396t-323 -174q-61 0 -99 35t-36 103h-4
q-143 -138 -273 -138t-203 80t-73 215q-1 221 141 405t349 183q164 0 225 -168h4l49 133h115l-205 -590q-27 -80 -26 -118q0 -49 55 -50q131 0 245 162t113 324q0 228 -179 374t-423 146zM504 578q0 -207 174 -207q150 0 260 167t111 324q0 100 -41 148t-131 47
q-153 1 -263 -159t-110 -320z" />
    <glyph glyph-name="A" unicode="A" horiz-adv-x="1478" 
d="M971 688l-193 537q-20 55 -24 78h-4q-4 -23 -25 -78l-217 -537h463zM16 0v90h138l553 1344h114l492 -1344h149v-90h-450v90h178l-186 508h-533l-203 -508h191v-90h-443z" />
    <glyph glyph-name="B" unicode="B" horiz-adv-x="1251" 
d="M588 90q410 0 409 305q0 152 -108 226q-109 74 -277 73h-227l-4 -604h207zM555 784q141 0 243 75q101 75 101 229t-123 221q-63 35 -194 34h-193l-4 -559h170zM102 0v90h164l8 1253h-172v91h455q257 0 357 -104t100 -235t-72 -223t-194 -112v-4q126 -4 237 -81
q57 -40 92 -113t35 -169q0 -189 -133 -291t-377 -102h-500z" />
    <glyph glyph-name="C" unicode="C" horiz-adv-x="1402" 
d="M866 1360q-289 0 -463 -176t-174 -475t168 -467t457 -168q147 0 291 32l2 222h106l-2 -297q-4 0 -129 -27t-282 -29q-328 -1 -527 189t-199 544t210 553q209 198 550 197q223 0 400 -65l-4 -287h-107l4 215q-143 39 -301 39z" />
    <glyph glyph-name="D" unicode="D" horiz-adv-x="1554" 
d="M688 90q303 0 476 167t173 470t-168 460t-469 156h-311l-8 -1253h307zM102 0v90h164l8 1253h-172v91h627q351 0 537 -184t186 -525t-192 -533t-560 -192h-598z" />
    <glyph glyph-name="E" unicode="E" horiz-adv-x="1175" 
d="M102 0v90h164l8 1253h-172v91h924v-287h-90v196h-547l-4 -573h498v-90h-498l-4 -590h567l17 213h98l-16 -303h-945z" />
    <glyph glyph-name="F" unicode="F" 
d="M575 0h-473v90h164l8 1253h-172v91h924l-4 -293h-94l-4 202h-535l-4 -585h547v-90h-547l-4 -578h194v-90z" />
    <glyph glyph-name="G" unicode="G" horiz-adv-x="1478" 
d="M971 598h456v-90h-167l-9 -477q-4 0 -129 -27t-282 -29q-328 -1 -527 189t-199 544t210 553q209 198 550 197q209 0 418 -67v-277h-106v199q-119 47 -303 47q-305 0 -479 -175t-175 -475q0 -300 168 -468t457 -168q147 0 291 32l8 402h-182v90z" />
    <glyph glyph-name="H" unicode="H" horiz-adv-x="1593" 
d="M102 0v90h164l8 1253h-172v91h459v-91h-172l-4 -585h823l4 585h-180v91h459v-91h-164l-8 -1253h172v-90h-459v90h172l4 578h-823l-4 -578h180v-90h-459z" />
    <glyph glyph-name="I" unicode="I" horiz-adv-x="684" 
d="M567 0h-450v90h164l8 1253h-172v91h450v-91h-164l-8 -1253h172v-90z" />
    <glyph glyph-name="J" unicode="J" horiz-adv-x="645" 
d="M96 1434h451v-91h-164l-10 -954q-3 -127 -21 -224q-46 -242 -207 -378q-94 -80 -235 -139l-33 90q184 92 283 238q98 146 100 384l8 983h-172v91z" />
    <glyph glyph-name="K" unicode="K" horiz-adv-x="1402" 
d="M102 0v90h164l8 1253h-172v91h451v-91h-164l-4 -581l678 581h-178v91h450v-91h-133l-694 -602l694 -651h141v-90h-466v90h178l-670 617l-4 -617h172v-90h-451z" />
    <glyph glyph-name="L" unicode="L" 
d="M102 0v90h164l8 1253h-172v91h451v-91h-164l-8 -1253h567l17 213h98l-16 -303h-945z" />
    <glyph glyph-name="M" unicode="M" horiz-adv-x="1857" 
d="M86 0v90h174l8 1253h-182v91h336l489 -1221q14 -39 17 -53h4q2 14 16 53l494 1221h330v-91h-183l8 -1253h175v-90h-463v90h182l-8 1167h-4q-6 -27 -21 -59l-485 -1198h-92l-482 1184q-14 33 -20 65h-4l-8 -1159h182v-90h-463z" />
    <glyph glyph-name="N" unicode="N" horiz-adv-x="1630" 
d="M84 0v90h166l8 1253h-195v91h312l872 -1194q23 -35 43 -78h4l6 1181h-200v91h467v-91h-158l-10 -1343h-115l-874 1198q-29 41 -41 74h-4l-9 -1182h189v-90h-461z" />
    <glyph glyph-name="O" unicode="O" horiz-adv-x="1552" 
d="M1323 717q0 305 -145 474q-146 169 -402 169t-401 -169t-145 -474t144 -474q146 -169 402 -169t402 169q145 169 145 474zM773 -25q-333 0 -495 202t-163 533q0 332 166 540q167 208 499 208t495 -202t163 -532q0 -331 -166 -540t-499 -209z" />
    <glyph glyph-name="P" unicode="P" 
d="M102 0v90h164l8 1253h-172v91h437q271 0 397 -108q49 -42 81 -117t32 -177q0 -192 -125 -312t-332 -120h-207l-4 -510h192v-90h-471zM598 698q150 0 243 84t93 244t-101 239t-268 78h-176l-4 -645h213z" />
    <glyph glyph-name="Q" unicode="Q" horiz-adv-x="1552" 
d="M1323 717q0 305 -145 474q-146 169 -402 169t-401 -169t-145 -474t144 -474q146 -169 402 -169t402 169q145 169 145 474zM115 717q0 325 166 533q167 208 499 208t495 -202t163 -539q0 -287 -130 -486t-390 -241v-4q492 -260 688 -260q82 0 118 6v-99q-92 -6 -135 -6
q-193 0 -619 221q-213 111 -249 129q-307 16 -457 216t-149 524z" />
    <glyph glyph-name="R" unicode="R" horiz-adv-x="1327" 
d="M582 750q150 0 252 78t102 229t-88 219t-275 67h-184l-4 -593h197zM102 0v90h164l8 1253h-172v91h476q231 0 352 -85t121 -284q0 -96 -37 -172q-61 -126 -199 -182q-53 -23 -98 -25v-4q53 -10 93 -53t81 -111l160 -268q59 -100 92 -130t78 -30t82 8v-98q-49 -8 -113 -8
t-102 22t-82 97l-220 368q-55 94 -101 133t-126 39h-174l-4 -561h186v-90h-465z" />
    <glyph glyph-name="S" unicode="S" horiz-adv-x="1175" 
d="M580 74q180 0 275 84t95 208t-82 192t-198 98t-231 64t-197 116t-82 234t121 270t334 118t391 -65l4 -263h-99l-4 189q-117 41 -279 41t-258 -81t-96 -183t44 -162q44 -59 114 -90t223 -72t237 -89q173 -98 173 -314q0 -174 -131 -284t-347 -110t-433 68l-4 281h106
l4 -197q140 -53 320 -53z" />
    <glyph glyph-name="T" unicode="T" horiz-adv-x="1368" 
d="M442 0v90h181l8 1253h-459l-8 -231h-98l8 322h1220l9 -322h-99l-8 231h-451l-8 -1253h189v-90h-484z" />
    <glyph glyph-name="U" unicode="U" horiz-adv-x="1556" 
d="M76 1343v91h465v-91h-168l-8 -796q0 -277 88 -375t335 -98q127 0 206 28q146 51 184 257q16 93 18 247l8 737h-180v91h457v-91h-162l-8 -786q-2 -137 -24 -234t-77 -181q-110 -168 -426 -167q-388 0 -482 224q-32 77 -42 151t-10 178l8 815h-182z" />
    <glyph glyph-name="V" unicode="V" horiz-adv-x="1441" 
d="M4 1343v91h449v-91h-179l431 -1134q16 -43 20 -70h4q4 27 21 70l434 1134h-180v91h434v-91h-140l-518 -1343h-114l-514 1343h-148z" />
    <glyph glyph-name="W" unicode="W" horiz-adv-x="2162" 
d="M16 1343v91h445v-91h-168l375 -1159q12 -31 18 -69h4q8 31 23 69l350 873l-88 286h-162v91h442v-91h-165l360 -1159q10 -41 16 -69h4q4 27 21 69l407 1159h-190v91h438v-91h-141l-481 -1343h-129l-285 915h-4l-361 -915h-131l-444 1343h-154z" />
    <glyph glyph-name="X" unicode="X" horiz-adv-x="1402" 
d="M893 0v90h176q-20 25 -37 49l-334 508l-348 -508q-25 -33 -39 -49h193v-90h-449v90h131l459 649l-412 604h-151v91h461v-91h-185q29 -33 39 -49l312 -473l329 473q16 25 41 49h-186v91h444v-91h-141l-428 -604l434 -649h146v-90h-455z" />
    <glyph glyph-name="Y" unicode="Y" horiz-adv-x="1441" 
d="M508 0v90h166l8 549l-516 704h-154v91h441v-91h-154q25 -25 41 -49l397 -553l400 553q16 25 41 49h-189v91h441v-91h-136l-497 -704l-9 -549h179v-90h-459z" />
    <glyph glyph-name="Z" unicode="Z" horiz-adv-x="1327" 
d="M125 0v90l909 1204q18 25 43 49h-821l-8 -221h-98l8 312h1044v-91l-901 -1204q-18 -25 -43 -49h836l8 227h98l-8 -317h-1067z" />
    <glyph glyph-name="bracketleft" unicode="[" horiz-adv-x="645" 
d="M569 1575v-90h-221l-8 -1909h211v-90h-318l9 2089h327z" />
    <glyph glyph-name="backslash" unicode="\" horiz-adv-x="796" 
d="M711 -158l-719 1717l94 32l719 -1716z" />
    <glyph glyph-name="bracketright" unicode="]" horiz-adv-x="645" 
d="M76 -514v90h221l8 1909h-211v90h318l-9 -2089h-327z" />
    <glyph glyph-name="asciicircum" unicode="^" horiz-adv-x="1228" 
d="M190 686l377 748h95l376 -748h-112l-312 612l-311 -612h-113z" />
    <glyph glyph-name="underscore" unicode="_" horiz-adv-x="1024" 
d="M1024 -256h-1024v102h1024v-102z" />
    <glyph glyph-name="grave" unicode="`" horiz-adv-x="569" 
d="M379 1241l-354 305l69 64l357 -314z" />
    <glyph glyph-name="a" unicode="a" horiz-adv-x="1175" 
d="M250 270q0 -88 62 -142t173 -54q145 0 230 110q53 68 68 134t16 184q-327 -6 -420 -42t-116 -102q-13 -37 -13 -88zM1069 90v-90h-274q0 109 22 240h-4q-100 -264 -344 -265q-147 0 -241 75q-93 75 -93 216q-1 141 103 218t276 89l285 19q4 66 4 96q-1 143 -59 217
t-198 74t-263 -41l-4 -176h-99l4 242q137 74 361 73q360 0 360 -336l-8 -651h172z" />
    <glyph glyph-name="b" unicode="b" horiz-adv-x="1214" 
d="M559 66q213 0 320 135q106 135 106 337t-82 321q-81 120 -241 120q-160 -1 -258 -115t-101 -268l-2 -477q117 -53 258 -53zM0 1575h311l-4 -545q0 -147 -22 -229h4q43 127 140 201t239 75q204 0 318 -141t114 -348q0 -272 -134 -442t-411 -171q-205 0 -358 82l8 1428
h-205v90z" />
    <glyph glyph-name="c" unicode="c" horiz-adv-x="1062" 
d="M854 766v180q-94 33 -227 33q-195 0 -296 -123t-101 -330q0 -208 100 -330q102 -122 296 -122t320 61v-104q-125 -55 -323 -56q-246 0 -377 156q-131 157 -131 395t135 395t383 156q166 0 319 -55v-256h-98z" />
    <glyph glyph-name="d" unicode="d" horiz-adv-x="1251" 
d="M647 979q-211 0 -314 -130q-103 -129 -103 -333t79 -323q80 -119 244 -119t254 120t92 336l2 398q-119 51 -254 51zM672 1575h338l-9 -1485h181v-90h-291q0 74 16 217h-4q-45 -113 -130 -177t-237 -65q-152 0 -276 105q-66 55 -105 164q-40 109 -40 254q0 256 141 418
t385 161q133 0 260 -51l4 459h-233v90z" />
    <glyph glyph-name="e" unicode="e" horiz-adv-x="1099" 
d="M614 -25q-252 0 -384 151q-132 150 -132 398t123 401t340 152q125 0 214 -47t136 -128q92 -159 90 -365h-788q6 -463 418 -463q159 0 323 88l-4 -107q-53 -33 -147 -57t-189 -23zM213 627h674q0 152 -84 252t-248 100q-92 0 -163 -37q-117 -61 -162 -207
q-17 -57 -17 -108z" />
    <glyph glyph-name="f" unicode="f" horiz-adv-x="757" 
d="M125 0v90h154l4 873h-189v90h189l2 176q4 172 110 267t285 95q119 0 194 -24l-10 -97q-92 31 -178 31q-147 0 -219 -77t-76 -207l-2 -164h299v-90h-299l-4 -873h190v-90h-450z" />
    <glyph glyph-name="g" unicode="g" horiz-adv-x="1099" 
d="M193 -249q0 -75 102 -137t271 -62t285 56q116 58 116 173q1 75 -45 107t-148 55l-299 45q-141 -24 -228 -109q-54 -53 -54 -128zM227 694q0 -127 81 -214q80 -87 226 -87t227 81t81 210t-84 212t-222 83t-224 -79q-85 -79 -85 -206zM948 700q0 -174 -105 -286t-286 -111
q-119 0 -185 -35t-65 -82q0 -70 172 -98l340 -61q121 -19 188 -69t67 -175t-122 -223q-120 -98 -358 -98t-373 73q-135 74 -135 211q0 98 84 174t197 90v4q-166 39 -166 158q0 72 56 110t132 48v4q-92 25 -154 78q-116 101 -115 269q1 169 113 283q113 114 295 113
q102 0 179 -33h387v-90h-97l-170 11l-4 -4q125 -87 125 -261z" />
    <glyph glyph-name="h" unicode="h" horiz-adv-x="1327" 
d="M694 979q-148 0 -240 -116t-96 -273l-4 -500h166v-90h-430v90h158l8 1395h-233v90h339l-4 -588q0 -104 -22 -186h4q39 127 137 201t248 75q354 0 354 -411l-8 -576h166v-90h-430v90h158l8 569q0 164 -66 242q-65 78 -213 78z" />
    <glyph glyph-name="i" unicode="i" horiz-adv-x="606" 
d="M199 1485q0 45 27 76q28 31 71 31t71 -32q28 -30 28 -75t-28 -76t-71 -31t-71 31q-27 31 -27 76zM66 0v90h180l6 873h-203v90h309l-6 -963h189v-90h-475z" />
    <glyph glyph-name="j" unicode="j" horiz-adv-x="645" 
d="M250 1485q0 45 28 76t70 31t71 -32q27 -30 27 -75t-28 -76t-70 -31t-70 31t-28 76zM100 963v90h310l-11 -955q-7 -303 -135 -449q-51 -57 -141 -109t-211 -79l-16 93q204 45 298 173q101 135 101 451l8 785h-203z" />
    <glyph glyph-name="k" unicode="k" horiz-adv-x="1175" 
d="M90 0v90h158l8 1395h-233v90h339l-4 -993l451 376v5h-152v90h410v-90h-125l-465 -396l522 -477h113v-90h-405v90h147l-496 449l-4 -449h166v-90h-430z" />
    <glyph glyph-name="l" unicode="l" horiz-adv-x="647" 
d="M92 0v90h174l8 1395h-233v90h340l-8 -1485h182v-90h-463z" />
    <glyph glyph-name="m" unicode="m" horiz-adv-x="2007" 
d="M1917 90v-90h-430v90h158l8 569q0 319 -275 320q-133 0 -223 -114t-94 -265l-8 -510h166v-90h-431v90h158q4 381 4 569q0 319 -266 320q-139 0 -232 -114t-96 -265l-4 -510h166v-90h-428v90h156l4 873h-182v90h290q0 -113 -24 -252h4q37 125 137 201t230 75
q266 0 329 -250q114 250 371 250q354 0 354 -411l-8 -576h166z" />
    <glyph glyph-name="n" unicode="n" horiz-adv-x="1327" 
d="M694 979q-148 0 -240 -116t-96 -273l-4 -500h166v-90h-430v90h158l4 873h-184v90h292q0 -113 -24 -252h4q39 127 137 201t248 75q354 0 354 -411l-8 -576h166v-90h-430v90h158l8 569q0 164 -66 242q-65 78 -213 78z" />
    <glyph glyph-name="o" unicode="o" horiz-adv-x="1175" 
d="M98 526q0 238 128 395t362 157t361 -158q128 -156 128 -394t-128 -394t-361 -157q-234 1 -362 157t-128 394zM213 526q0 -204 97 -328q98 -124 278 -124t277 124t97 328t-96 329q-98 124 -278 124t-278 -124t-97 -329z" />
    <glyph glyph-name="p" unicode="p" horiz-adv-x="1251" 
d="M1038 542q0 437 -338 437q-154 0 -248 -115t-96 -319l-2 -432q86 -47 258 -47q213 0 320 135q106 135 106 341zM74 -514v90h170l10 1387h-199v90h307q0 -119 -14 -222l6 5q60 119 144 180t223 61q207 0 319 -138t113 -351q0 -272 -134 -442t-411 -171q-154 0 -254 37
l-4 -436h191v-90h-467z" />
    <glyph glyph-name="q" unicode="q" horiz-adv-x="1251" 
d="M719 -514v90h170l4 428q0 104 10 207h-4q-92 -236 -367 -236q-148 0 -272 105q-66 55 -105 164q-40 109 -40 254q0 254 143 416t393 163q117 0 273 -49l80 16l-9 -1468h197v-90h-473zM647 979q-211 0 -314 -130q-103 -129 -103 -333t79 -323q80 -119 244 -119t254 120
t92 336l2 398q-119 51 -254 51z" />
    <glyph glyph-name="r" unicode="r" horiz-adv-x="872" 
d="M100 0v90h168l8 873h-198v90h309q0 -113 -16 -338h4q39 154 129 258t223 104q57 0 147 -22l-16 -103q-63 27 -129 27q-139 0 -243 -153t-107 -373l-4 -363h196v-90h-471z" />
    <glyph glyph-name="s" unicode="s" horiz-adv-x="985" 
d="M456 66q154 0 222 64t68 142q0 76 -41 120t-140 69l-180 43q-279 66 -279 278q0 131 102 213t269 82q168 0 316 -65l4 -240h-99l-4 170q-82 45 -210 45t-196 -52t-67 -142q0 -154 178 -193l195 -43q137 -29 202 -93t64 -173q0 -156 -106 -236t-303 -80t-332 70l-8 254
h100l4 -178q87 -55 241 -55z" />
    <glyph glyph-name="t" unicode="t" horiz-adv-x="796" 
d="M258 318q0 194 4 645h-184v90h184l4 274l107 8l-4 -282h350v-90h-350q-4 -426 -4 -603t38 -236q39 -58 147 -58t226 59l-10 -96q-113 -53 -246 -53q-134 0 -198 74t-64 268z" />
    <glyph glyph-name="u" unicode="u" horiz-adv-x="1327" 
d="M78 963v90h287l-9 -660q0 -163 66 -241t216 -78t239 114q88 114 92 320l8 455h-189v90h295l-8 -963h164v-90h-268q0 113 24 252h-4q-37 -125 -137 -201t-229 -76q-175 1 -275 95t-100 317l8 576h-180z" />
    <glyph glyph-name="v" unicode="v" 
d="M25 963v90h391v-90h-133l264 -750q16 -47 24 -123h4q12 78 29 123l273 750h-154v90h391v-90h-123l-370 -963h-99l-362 963h-135z" />
    <glyph glyph-name="w" unicode="w" horiz-adv-x="1705" 
d="M39 1053h397v-90h-151l284 -848h4l23 82l213 587l-61 179h-121v90h397v-90h-162l244 -750l24 -98h5l26 98l264 750h-155v90h397v-90h-135l-348 -963h-115l-186 561q-16 43 -27 111h-4q-4 -12 -37 -113l-199 -559h-106l-340 963h-131v90z" />
    <glyph glyph-name="x" unicode="x" horiz-adv-x="1175" 
d="M51 0v90h131l348 447l-317 426h-143v90h407v-90h-147q31 -31 49 -58l217 -295l221 295q18 27 49 58h-161v90h397v-90h-127l-322 -420l340 -453h131v-90h-397v90h141q-23 23 -47 57l-233 316l-240 -316q-18 -27 -49 -57h150v-90h-398z" />
    <glyph glyph-name="y" unicode="y" 
d="M10 1053h412v-90h-150l285 -777q12 -31 23 -77h4q4 33 18 73l272 781h-157v90h391v-90h-127l-367 -1026q-90 -252 -196 -364t-285 -112q-53 0 -123 17v100q111 -18 129 -18q211 0 305 223l80 190l-377 990h-137v90z" />
    <glyph glyph-name="z" unicode="z" horiz-adv-x="1062" 
d="M115 0v90l665 815q27 33 54 58h-584l-8 -185h-101l13 275h804v-90l-665 -816q-27 -33 -53 -57h608l12 195h101l-17 -285h-829z" />
    <glyph glyph-name="braceleft" unicode="{" horiz-adv-x="645" 
d="M256 889v407q0 135 46 207t157 72h104v-90h-102q-98 0 -99 -158v-459q2 -305 -139 -336v-4q141 -31 139 -335v-459q0 -158 99 -158h102v-90h-104q-111 0 -157 72t-46 206v408q0 170 -32 240t-99 73v90q67 4 99 74t32 240z" />
    <glyph glyph-name="bar" unicode="|" horiz-adv-x="454" 
d="M178 -512v2048h98v-2048h-98z" />
    <glyph glyph-name="braceright" unicode="}" horiz-adv-x="645" 
d="M82 1575h104q111 0 157 -72t46 -207v-407q0 -170 32 -240t99 -74v-90q-68 -3 -100 -73t-31 -240v-408q0 -134 -46 -206t-157 -72h-104v90h102q98 0 99 158v459q-2 305 139 335v4q-141 31 -139 336v459q0 158 -99 158h-102v90z" />
    <glyph glyph-name="asciitilde" unicode="~" horiz-adv-x="1228" 
d="M397 641q113 0 236 -70q156 -69 198 -69q43 0 79 26t52 44q15 19 52 69l73 -61q-41 -55 -67 -86t-78 -61q-51 -30 -91 -30q-39 -1 -61 3q-81 13 -188 67q-131 69 -223 69t-164 -139l-74 62q92 176 256 176z" />
    <glyph glyph-name="uni00A0" unicode="&#xa0;" horiz-adv-x="569" 
 />
    <glyph glyph-name="exclamdown" unicode="&#xa1;" horiz-adv-x="647" 
d="M418 1004q0 -41 -28 -70t-66 -29t-67 29q-28 29 -28 70q0 42 28 70t67 28q38 0 66 -28t28 -70zM262 -498l17 1084h90l16 -1084h-123z" />
    <glyph glyph-name="cent" unicode="&#xa2;" 
d="M987 766h-98v180q-88 31 -201 31l-4 -901q176 0 299 59v-104q-121 -53 -299 -54l-2 -251h-90l2 256q-215 20 -329 172q-113 152 -113 372t114 374q115 153 332 171l2 227h90l-2 -223q162 -2 299 -53v-256zM266 528q0 -188 83 -308t245 -140l4 893q-164 -18 -248 -138
q-84 -119 -84 -307z" />
    <glyph glyph-name="sterling" unicode="&#xa3;" 
d="M49 0v90h158q80 129 80 324q0 55 -8 293h-191v90h184q-14 172 -14 215q0 198 120 318t357 124q127 2 322 -53l-4 -262h-99l4 180q-119 37 -225 37q-174 0 -267 -90t-93 -226t10 -243h324v-90h-320q14 -257 14 -313q1 -56 -21 -158t-58 -146h620l16 199h99l-17 -289h-991z
" />
    <glyph glyph-name="currency" unicode="&#xa4;" 
d="M160 717q0 -168 121 -289t289 -121t288 121q121 121 121 289t-121 289q-121 120 -289 120q-169 0 -289 -120t-120 -289zM61 725q0 185 115 305l-115 117l78 78l115 -113q133 113 315 113t316 -113l114 113l78 -78l-110 -111q111 -129 111 -314t-109 -321l108 -114
l-78 -78l-108 119q-133 -119 -321 -119t-322 119l-109 -119l-78 78l111 116q-111 137 -111 322z" />
    <glyph glyph-name="yen" unicode="&#xa5;" 
d="M399 0v90h131l5 268h-302v78h302l2 209h-304v78h259l-340 620h-121v91h348v-91h-121l324 -618l317 618h-139v91h348v-91h-107l-323 -620h252v-78h-295l-2 -209h297v-78h-297l-4 -268h133v-90h-363z" />
    <glyph glyph-name="brokenbar" unicode="&#xa6;" horiz-adv-x="454" 
d="M178 666v716h98v-716h-98zM178 -358v716h98v-716h-98z" />
    <glyph glyph-name="section" unicode="&#xa7;" 
d="M301 584q0 -70 30 -114t101 -83l252 -137l57 41q109 77 109 197t-145 198l-230 125l-57 -33q-117 -76 -117 -194zM850 1161v158q-108 41 -248 41t-214 -60t-73 -147q0 -88 45 -139t127 -94l258 -140q215 -119 216 -293q0 -79 -42 -147t-104 -107l-49 -30l57 -41
q135 -86 135 -238t-114 -250q-115 -98 -296 -98t-370 68v264h90v-189q130 -45 268 -45t223 64t85 170q0 135 -174 229l-248 133q-117 63 -176 129q-60 67 -60 177t50 170t157 114q-104 66 -148 125t-44 158q0 147 116 231q117 84 292 84t339 -59v-238h-98z" />
    <glyph glyph-name="dieresis" unicode="&#xa8;" horiz-adv-x="569" 
d="M-23 1409q0 41 26 70t65 29q38 0 64 -30q26 -28 26 -69t-26 -70t-64 -29t-65 30q-26 28 -26 69zM412 1409q0 41 25 70q26 29 65 29q38 0 64 -30q26 -28 26 -69t-26 -70t-64 -29t-65 29q-25 29 -25 70z" />
    <glyph glyph-name="copyright" unicode="&#xa9;" horiz-adv-x="1638" 
d="M176 717q0 -267 188 -455t455 -188q266 0 455 188q188 188 188 454t-188 455t-454 189t-456 -188q-188 -188 -188 -455zM78 717q0 307 217 524t524 217t524 -217t217 -524t-216 -524q-218 -217 -525 -217t-524 216q-217 218 -217 525zM844 246q-203 0 -326 134t-123 339
t119 336t324 131q150 0 255 -82t126 -227h-107q-18 92 -91 151t-183 59q-160 0 -248 -103t-88 -261q0 -159 93 -269t249 -110q106 0 178 62t90 157h107q-33 -141 -135 -229t-240 -88z" />
    <glyph glyph-name="ordfeminine" unicode="&#xaa;" horiz-adv-x="704" 
d="M164 977q0 -49 40 -81t118 -32t138 58t60 139v49l-170 -8q-186 -10 -186 -125zM709 872v-57h-191q0 49 14 143h-6q-57 -160 -225 -159q-102 0 -165 45q-62 45 -62 131t66 131q67 45 179 51l201 12l4 60q2 78 -35 119t-130 41t-173 -25l-4 -100h-65l4 145q31 13 103 29
t132 16q252 0 248 -223l-4 -359h109z" />
    <glyph glyph-name="guillemotleft" unicode="&#xab;" horiz-adv-x="948" 
d="M123 489v86l274 295l70 -63l-254 -275l244 -272l-70 -65zM481 489v86l275 295l69 -63l-254 -275l244 -272l-70 -65z" />
    <glyph glyph-name="logicalnot" unicode="&#xac;" horiz-adv-x="1228" 
d="M1034 227v443h-938v98h1037v-541h-99z" />
    <glyph glyph-name="uni00AD" unicode="&#xad;" horiz-adv-x="796" 
d="M150 479v107h497v-107h-497z" />
    <glyph glyph-name="registered" unicode="&#xae;" horiz-adv-x="1638" 
d="M176 717q0 -267 188 -455t455 -188q266 0 455 188q188 188 188 454t-188 455t-454 189t-456 -188q-188 -188 -188 -455zM78 717q0 307 217 524t524 217t524 -217t217 -524t-216 -524q-218 -217 -525 -217t-524 216q-217 218 -217 525zM633 1077v-319h225q217 -4 217 162
q0 158 -217 157h-225zM535 268v899h346q293 0 293 -249q0 -211 -226 -250l266 -400h-110l-266 400h-205v-400h-98z" />
    <glyph glyph-name="macron" unicode="&#xaf;" horiz-adv-x="569" 
d="M16 1382v91h537v-91h-537z" />
    <glyph glyph-name="degree" unicode="&#xb0;" horiz-adv-x="819" 
d="M207 1161q0 -84 59 -143q60 -60 144 -60t143 60t59 143t-59 143t-143 60t-144 -59q-59 -60 -59 -144zM117 1161q0 121 86 207t207 86q120 0 206 -86t86 -207t-86 -207t-206 -86t-207 86q-86 86 -86 207z" />
    <glyph glyph-name="plusminus" unicode="&#xb1;" horiz-adv-x="1228" 
d="M96 0v98h1037v-98h-1037zM565 659v377h99v-377h469v-98h-469v-377h-99v377h-469v98h469z" />
    <glyph glyph-name="twosuperior" unicode="&#xb2;" horiz-adv-x="681" 
d="M649 655v-73h-567v77l244 222q215 193 215 338q0 73 -49 117t-114 44q-110 0 -156 -58t-46 -108h-98q0 54 45 131q65 109 269 109q112 0 180 -66t67 -165q0 -166 -246 -389l-205 -187v-4l88 12h373z" />
    <glyph glyph-name="threesuperior" unicode="&#xb3;" horiz-adv-x="681" 
d="M316 639q100 0 168 48t67 136q0 88 -69 124t-226 36h-18v74h18q139 0 213 77q45 46 45 112t-45 100t-130 34t-124 -46t-39 -97h-98q0 81 70 149t200 68q131 0 198 -56q66 -56 66 -144t-59 -144q-59 -57 -139 -78v-4q86 -4 160 -54t75 -161q0 -111 -89 -179
q-90 -68 -234 -69q-144 0 -234 43v82q124 -51 224 -51z" />
    <glyph glyph-name="acute" unicode="&#xb4;" horiz-adv-x="569" 
d="M190 1241l-71 55l356 314l70 -64z" />
    <glyph glyph-name="mu" unicode="&#xb5;" horiz-adv-x="1327" 
d="M636 74q148 0 238 112t95 267l8 510h-189v90h295l-8 -963h164v-90h-268q0 113 24 252h-4q-37 -125 -137 -201t-229 -76q-82 0 -156 37t-113 101h-4q4 -47 4 -169t-4 -458h-104l2 901l8 576h-180v90h287l-9 -660q0 -163 66 -241t214 -78z" />
    <glyph glyph-name="paragraph" unicode="&#xb6;" horiz-adv-x="1228" 
d="M520 -399v1054q-137 0 -236 110t-100 263q0 193 106 299t281 107h361v-1833h-98v1742h-216v-1742h-98z" />
    <glyph glyph-name="periodcentered" unicode="&#xb7;" horiz-adv-x="569" 
d="M170 598q0 47 34 81t81 34t81 -34t34 -81t-34 -81t-81 -34t-81 34t-34 81z" />
    <glyph glyph-name="cedilla" unicode="&#xb8;" horiz-adv-x="569" 
d="M260 16h82v-147h27q59 0 104 -39q45 -40 45 -108t-51 -113t-155 -45t-195 37l14 73q88 -37 162 -36q119 0 119 81q0 76 -111 76h-41v221z" />
    <glyph glyph-name="onesuperior" unicode="&#xb9;" horiz-adv-x="681" 
d="M180 582v73h182l5 709l-240 -145l-37 63l291 172h76l-4 -799h184v-73h-457z" />
    <glyph glyph-name="ordmasculine" unicode="&#xba;" horiz-adv-x="704" 
d="M352 799q-156 0 -240 93t-83 234q0 140 85 234q84 94 238 94t239 -93t85 -235t-84 -234q-84 -93 -240 -93zM119 1126q0 -118 61 -190t172 -72t172 73q62 73 62 189t-62 190q-62 73 -172 73q-109 0 -171 -73t-62 -190z" />
    <glyph glyph-name="guillemotright" unicode="&#xbb;" horiz-adv-x="948" 
d="M825 575v-86l-274 -294l-70 63l254 274l-243 273l69 65zM467 575v-86l-274 -294l-70 63l254 274l-244 273l70 65z" />
    <glyph glyph-name="onequarter" unicode="&#xbc;" horiz-adv-x="1708" 
d="M152 582v73h182l4 709l-240 -145l-37 63l291 172h76l-4 -799h184v-73h-456zM422 -111l-74 50l940 1605l74 -49zM1280 0v74h98l4 194h-405v70l409 534h93l-4 -530h172v-74h-172l-5 -194h107v-74h-297zM1069 338l68 4h245l4 340q0 25 7 92h-4q-16 -37 -50 -78z" />
    <glyph glyph-name="onehalf" unicode="&#xbd;" horiz-adv-x="1708" 
d="M1647 74v-74h-568v78l244 221q215 193 215 338q0 74 -49 118t-113 44t-110 -21q-45 -21 -68 -72q-24 -52 -24 -73h-99q0 53 45 130q28 46 92 78t156 31q133 0 201 -66t67 -165q0 -166 -245 -389l-205 -186v-5l88 13h373zM152 582v73h182l4 709l-240 -145l-37 63l291 172
h76l-4 -799h184v-73h-456zM422 -111l-74 50l940 1605l74 -49z" />
    <glyph glyph-name="threequarters" unicode="&#xbe;" horiz-adv-x="1708" 
d="M300 639q99 0 167 48t68 136t-69 124t-226 36h-19v74h19q138 0 213 77q45 46 45 112t-45 100t-130 34t-124 -46t-39 -97h-99q0 81 70 149t201 68q132 0 198 -56t66 -144t-59 -144q-59 -57 -140 -78v-4q86 -4 161 -54t75 -161t-89 -179q-90 -68 -234 -69q-144 0 -234 43
v82q125 -51 224 -51zM422 -111l-74 50l940 1605l74 -49zM1280 0v74h98l4 194h-405v70l409 534h93l-4 -530h172v-74h-172l-5 -194h107v-74h-297zM1069 338l68 4h245l4 340q0 25 7 92h-4q-16 -37 -50 -78z" />
    <glyph glyph-name="questiondown" unicode="&#xbf;" horiz-adv-x="1024" 
d="M717 1004q0 -41 -27 -70q-28 -29 -68 -29t-67 29t-27 70q0 42 27 70t68 28t67 -28t27 -70zM733 432q-1 -61 -27 -102t-92 -94l-196 -156q-131 -106 -131 -240q-1 -96 69 -176t197 -80t219 39l14 -100q-94 -37 -223 -37q-178 0 -284 97t-107 239q0 182 152 305l184 149
q41 32 58 48q52 47 52 95q0 65 -47 112l-16 16l78 69q100 -80 100 -184z" />
    <glyph glyph-name="Agrave" unicode="&#xc0;" horiz-adv-x="1478" 
d="M858 1489l-354 305l69 64l357 -314zM971 688l-193 537q-20 55 -24 78h-4q-4 -23 -25 -78l-217 -537h463zM16 0v90h138l553 1344h114l492 -1344h149v-90h-450v90h178l-186 508h-533l-203 -508h191v-90h-443z" />
    <glyph glyph-name="Aacute" unicode="&#xc1;" horiz-adv-x="1478" 
d="M670 1489l-72 55l356 314l70 -64zM971 688l-193 537q-20 55 -24 78h-4q-4 -23 -25 -78l-217 -537h463zM16 0v90h138l553 1344h114l492 -1344h149v-90h-450v90h178l-186 508h-533l-203 -508h191v-90h-443z" />
    <glyph glyph-name="Acircumflex" unicode="&#xc2;" horiz-adv-x="1478" 
d="M995 1493l-227 262l-240 -262l-67 61l258 283h98l250 -283zM971 688l-193 537q-20 55 -24 78h-4q-4 -23 -25 -78l-217 -537h463zM16 0v90h138l553 1344h114l492 -1344h149v-90h-450v90h178l-186 508h-533l-203 -508h191v-90h-443z" />
    <glyph glyph-name="Atilde" unicode="&#xc3;" horiz-adv-x="1478" 
d="M897 1567q-59 0 -144 53t-133 53t-102 -78l-14 -20l-80 53l16 27q78 117 187 117q68 0 126 -35t73 -43l36 -18t43 -11q51 0 111 70l16 22l72 -53l-19 -31q-78 -106 -188 -106zM971 688l-193 537q-20 55 -24 78h-4q-4 -23 -25 -78l-217 -537h463zM16 0v90h138l553 1344
h114l492 -1344h149v-90h-450v90h178l-186 508h-533l-203 -508h191v-90h-443z" />
    <glyph glyph-name="Adieresis" unicode="&#xc4;" horiz-adv-x="1478" 
d="M457 1657q-1 41 25 69t65 29q39 0 65 -29q26 -30 25 -70q0 -40 -26 -69q-27 -29 -65 -29t-64 29q-25 29 -25 70zM891 1657q-1 41 25 69t65 29q39 0 65 -29q26 -30 26 -70t-26 -69t-65 -29t-65 29q-25 29 -25 70zM971 688l-193 537q-20 55 -24 78h-4q-4 -23 -25 -78
l-217 -537h463zM16 0v90h138l553 1344h114l492 -1344h149v-90h-450v90h178l-186 508h-533l-203 -508h191v-90h-443z" />
    <glyph glyph-name="Aring" unicode="&#xc5;" horiz-adv-x="1478" 
d="M659 1673q0 -47 29 -80t76 -33t76 34q29 32 28 79q0 47 -28 80q-29 33 -76 33t-76 -33t-29 -80zM578 1673q0 76 55 131q55 56 131 56t131 -56t55 -131q0 -76 -55 -131t-131 -55t-131 55t-55 131zM971 688l-193 537q-20 55 -24 78h-4q-4 -23 -25 -78l-217 -537h463zM16 0
v90h138l553 1344h114l492 -1344h149v-90h-450v90h178l-186 508h-533l-203 -508h191v-90h-443z" />
    <glyph glyph-name="AE" unicode="&#xc6;" horiz-adv-x="1972" 
d="M606 735h463l4 608h-127zM899 0v90h166l4 555h-508l-309 -555h180v-90h-442v90h139l762 1344h907l4 -289h-98l-4 198h-512l-4 -608h504v-90h-504l-4 -555h567l12 215h101l-17 -305h-944z" />
    <glyph glyph-name="Ccedilla" unicode="&#xc7;" horiz-adv-x="1402" 
d="M770 -205v185q-299 18 -477 206t-178 532t209 543q209 198 550 197q223 0 400 -65l-4 -287h-107l4 215q-143 39 -301 39q-291 2 -467 -176t-170 -479q0 -295 168 -463t457 -168q147 0 291 32l2 222h106l-2 -297q-12 -3 -59 -13q-179 -40 -340 -43v-106h27q59 0 104 -39
q45 -40 45 -108t-51 -113t-155 -45t-195 37l14 73q88 -37 162 -36q119 0 119 81q0 76 -111 76h-41z" />
    <glyph glyph-name="Egrave" unicode="&#xc8;" horiz-adv-x="1175" 
d="M682 1489l-354 305l69 64l357 -314zM102 0v90h164l8 1253h-172v91h924v-287h-90v196h-547l-4 -573h498v-90h-498l-4 -590h567l17 213h98l-16 -303h-945z" />
    <glyph glyph-name="Eacute" unicode="&#xc9;" horiz-adv-x="1175" 
d="M494 1489l-72 55l356 314l70 -64zM102 0v90h164l8 1253h-172v91h924v-287h-90v196h-547l-4 -573h498v-90h-498l-4 -590h567l17 213h98l-16 -303h-945z" />
    <glyph glyph-name="Ecircumflex" unicode="&#xca;" horiz-adv-x="1175" 
d="M819 1493l-227 262l-240 -262l-67 61l258 283h98l250 -283zM102 0v90h164l8 1253h-172v91h924v-287h-90v196h-547l-4 -573h498v-90h-498l-4 -590h567l17 213h98l-16 -303h-945z" />
    <glyph glyph-name="Edieresis" unicode="&#xcb;" horiz-adv-x="1175" 
d="M281 1657q-1 41 25 69t65 29q39 0 65 -29q26 -30 25 -70q0 -40 -26 -69q-27 -29 -65 -29t-64 29q-25 29 -25 70zM715 1657q-1 41 25 69t65 29q39 0 65 -29q26 -30 25 -70q0 -40 -26 -69q-27 -29 -65 -29t-64 29q-25 29 -25 70zM102 0v90h164l8 1253h-172v91h924v-287h-90
v196h-547l-4 -573h498v-90h-498l-4 -590h567l17 213h98l-16 -303h-945z" />
    <glyph glyph-name="Igrave" unicode="&#xcc;" horiz-adv-x="684" 
d="M436 1489l-354 305l70 64l356 -314zM567 0h-450v90h164l8 1253h-172v91h450v-91h-164l-8 -1253h172v-90z" />
    <glyph glyph-name="Iacute" unicode="&#xcd;" horiz-adv-x="684" 
d="M248 1489l-72 55l356 314l70 -64zM567 0h-450v90h164l8 1253h-172v91h450v-91h-164l-8 -1253h172v-90z" />
    <glyph glyph-name="Icircumflex" unicode="&#xce;" horiz-adv-x="684" 
d="M573 1493l-227 262l-240 -262l-67 61l258 283h98l250 -283zM567 0h-450v90h164l8 1253h-172v91h450v-91h-164l-8 -1253h172v-90z" />
    <glyph glyph-name="Idieresis" unicode="&#xcf;" horiz-adv-x="684" 
d="M35 1657q-1 41 25 69t65 29q39 0 65 -29q26 -30 25 -70q0 -40 -26 -69q-27 -29 -65 -29t-64 29q-25 29 -25 70zM469 1657q0 41 26 69q27 28 65 29q38 0 64 -29q26 -30 26 -70t-26 -69t-65 -29t-65 30q-26 28 -25 69zM567 0h-450v90h164l8 1253h-172v91h450v-91h-164
l-8 -1253h172v-90z" />
    <glyph glyph-name="Eth" unicode="&#xd0;" horiz-adv-x="1554" 
d="M852 827v-98h-467l-4 -639h352q270 0 437 172t167 470t-168 455t-469 156h-311l-4 -516h467zM102 0v90h164l4 639h-180v98h180l4 516h-172v91h627q351 0 537 -184t186 -525t-192 -533t-560 -192h-598z" />
    <glyph glyph-name="Ntilde" unicode="&#xd1;" horiz-adv-x="1630" 
d="M948 1567q-59 0 -144 53t-133 53t-102 -78l-14 -20l-80 53l17 27q78 117 186 117q68 0 128 -36t73 -43l34 -17t43 -11q51 0 111 70l16 22l72 -53l-18 -31q-78 -106 -189 -106zM84 0v90h166l8 1253h-195v91h312l872 -1194q23 -35 43 -78h4l6 1181h-200v91h467v-91h-158
l-10 -1343h-115l-874 1198q-29 41 -41 74h-4l-9 -1182h189v-90h-461z" />
    <glyph glyph-name="Ograve" unicode="&#xd2;" horiz-adv-x="1552" 
d="M870 1489l-354 305l70 64l356 -314zM1323 717q0 305 -145 474q-146 169 -402 169t-401 -169t-145 -474t144 -474q146 -169 402 -169t402 169q145 169 145 474zM773 -25q-333 0 -495 202t-163 533q0 332 166 540q167 208 499 208t495 -202t163 -532q0 -331 -166 -540
t-499 -209z" />
    <glyph glyph-name="Oacute" unicode="&#xd3;" horiz-adv-x="1552" 
d="M682 1489l-72 55l357 314l69 -64zM1323 717q0 305 -145 474q-146 169 -402 169t-401 -169t-145 -474t144 -474q146 -169 402 -169t402 169q145 169 145 474zM773 -25q-333 0 -495 202t-163 533q0 332 166 540q167 208 499 208t495 -202t163 -532q0 -331 -166 -540
t-499 -209z" />
    <glyph glyph-name="Ocircumflex" unicode="&#xd4;" horiz-adv-x="1552" 
d="M1008 1493l-228 262l-239 -262l-68 61l258 283h98l250 -283zM1323 717q0 305 -145 474q-146 169 -402 169t-401 -169t-145 -474t144 -474q146 -169 402 -169t402 169q145 169 145 474zM773 -25q-333 0 -495 202t-163 533q0 332 166 540q167 208 499 208t495 -202
t163 -532q0 -331 -166 -540t-499 -209z" />
    <glyph glyph-name="Otilde" unicode="&#xd5;" horiz-adv-x="1552" 
d="M909 1567q-59 0 -144 53t-133 53t-102 -78l-14 -20l-80 53l17 27q78 117 186 117q68 0 128 -36t73 -43l34 -17t44 -11q51 0 110 70l16 22l72 -53l-18 -31q-78 -106 -189 -106zM1323 717q0 305 -145 474q-146 169 -402 169t-401 -169t-145 -474t144 -474
q146 -169 402 -169t402 169q145 169 145 474zM773 -25q-333 0 -495 202t-163 533q0 332 166 540q167 208 499 208t495 -202t163 -532q0 -331 -166 -540t-499 -209z" />
    <glyph glyph-name="Odieresis" unicode="&#xd6;" horiz-adv-x="1552" 
d="M469 1657q0 41 26 69q27 28 65 29q38 0 64 -29q26 -30 26 -70t-26 -69t-65 -29t-65 30q-26 28 -25 69zM903 1657q0 41 26 69q27 28 65 29q38 0 64 -29q26 -30 26 -70t-26 -69t-65 -29t-65 30q-26 28 -25 69zM1323 717q0 305 -145 474q-146 169 -402 169t-401 -169
t-145 -474t144 -474q146 -169 402 -169t402 169q145 169 145 474zM773 -25q-333 0 -495 202t-163 533q0 332 166 540q167 208 499 208t495 -202t163 -532q0 -331 -166 -540t-499 -209z" />
    <glyph glyph-name="multiply" unicode="&#xd7;" horiz-adv-x="1228" 
d="M1004 55l-392 391l-387 -391l-73 74l389 389l-389 389l73 74l387 -391l392 391l73 -74l-389 -389l389 -389z" />
    <glyph glyph-name="Oslash" unicode="&#xd8;" horiz-adv-x="1552" 
d="M776 1458q211 0 357 -84l143 234l82 -49l-146 -240q225 -190 226 -602q0 -324 -166 -533t-496 -209q-195 0 -338 74l-153 -250l-82 49l153 254q-242 188 -241 615q0 325 166 533t495 208zM776 1360q-256 0 -401 -169t-146 -474q1 -348 187 -516l659 1079q-125 80 -299 80
zM1323 730q0 318 -172 489l-655 -1076q119 -70 280 -69q256 0 402 169q145 169 145 487z" />
    <glyph glyph-name="Ugrave" unicode="&#xd9;" horiz-adv-x="1556" 
d="M872 1489l-354 305l70 64l356 -314zM76 1343v91h465v-91h-168l-8 -796q0 -277 88 -375t335 -98q127 0 206 28q146 51 184 257q16 93 18 247l8 737h-180v91h457v-91h-162l-8 -786q-2 -137 -24 -234t-77 -181q-110 -168 -426 -167q-388 0 -482 224q-32 77 -42 151t-10 178
l8 815h-182z" />
    <glyph glyph-name="Uacute" unicode="&#xda;" horiz-adv-x="1556" 
d="M684 1489l-72 55l357 314l69 -64zM76 1343v91h465v-91h-168l-8 -796q0 -277 88 -375t335 -98q127 0 206 28q146 51 184 257q16 93 18 247l8 737h-180v91h457v-91h-162l-8 -786q-2 -137 -24 -234t-77 -181q-110 -168 -426 -167q-388 0 -482 224q-32 77 -42 151t-10 178
l8 815h-182z" />
    <glyph glyph-name="Ucircumflex" unicode="&#xdb;" horiz-adv-x="1556" 
d="M1010 1493l-228 262l-239 -262l-68 61l258 283h98l250 -283zM76 1343v91h465v-91h-168l-8 -796q0 -277 88 -375t335 -98q127 0 206 28q146 51 184 257q16 93 18 247l8 737h-180v91h457v-91h-162l-8 -786q-2 -137 -24 -234t-77 -181q-110 -168 -426 -167q-388 0 -482 224
q-32 77 -42 151t-10 178l8 815h-182z" />
    <glyph glyph-name="Udieresis" unicode="&#xdc;" horiz-adv-x="1556" 
d="M492 1657q0 41 26 69t64 29q38 0 64 -29q26 -30 26 -70t-26 -69t-64 -29t-65 29q-25 29 -25 70zM926 1657q0 41 26 69t64 29q38 0 64 -29q26 -30 26 -70t-26 -69t-64 -29t-65 29q-25 29 -25 70zM76 1343v91h465v-91h-168l-8 -796q0 -277 88 -375t335 -98q127 0 206 28
q146 51 184 257q16 93 18 247l8 737h-180v91h457v-91h-162l-8 -786q-2 -137 -24 -234t-77 -181q-110 -168 -426 -167q-388 0 -482 224q-32 77 -42 151t-10 178l8 815h-182z" />
    <glyph glyph-name="Yacute" unicode="&#xdd;" horiz-adv-x="1441" 
d="M698 1489l-71 55l356 314l70 -64zM508 0v90h166l8 549l-516 704h-154v91h441v-91h-154q25 -25 41 -49l397 -553l400 553q16 25 41 49h-189v91h441v-91h-136l-497 -704l-9 -549h179v-90h-459z" />
    <glyph glyph-name="Thorn" unicode="&#xde;" 
d="M102 0v90h164l8 1253h-172v91h451v-91h-164v-161h150q271 0 397 -108q49 -42 81 -117t32 -177q0 -192 -125 -312t-332 -120h-209l-2 -258h172v-90h-451zM598 446q150 0 243 84t93 244t-101 239t-268 79h-178l-4 -646h215z" />
    <glyph glyph-name="germandbls" unicode="&#xdf;" horiz-adv-x="1402" 
d="M111 0v90h165l9 873h-205v90h205l2 98q0 153 100 288q51 69 151 111t236 41q207 0 319 -81t111 -220q0 -100 -44 -160t-126 -106l-178 -100q-61 -35 -90 -72t-29 -94q0 -98 176 -154l166 -51q94 -29 152 -98q57 -70 57 -160q0 -131 -92 -221t-275 -90t-290 41v260h90
v-191q86 -20 210 -20t187 61t64 141q0 131 -146 181l-239 82q-80 29 -123 89t-43 136t35 126t114 95l189 109q129 76 129 187t-93 165t-251 55q-158 0 -259 -93t-104 -288l-8 -1030h139v-90h-411z" />
    <glyph glyph-name="agrave" unicode="&#xe0;" horiz-adv-x="1175" 
d="M621 1241l-355 305l70 64l356 -314zM250 270q0 -88 62 -142t173 -54q145 0 230 110q53 68 68 134t16 184q-327 -6 -420 -42t-116 -102q-13 -37 -13 -88zM1069 90v-90h-274q0 109 22 240h-4q-100 -264 -344 -265q-147 0 -241 75q-93 75 -93 216q-1 141 103 218t276 89
l285 19q4 66 4 96q-1 143 -59 217t-198 74t-263 -41l-4 -176h-99l4 242q137 74 361 73q360 0 360 -336l-8 -651h172z" />
    <glyph glyph-name="aacute" unicode="&#xe1;" horiz-adv-x="1175" 
d="M432 1241l-72 55l357 314l69 -64zM250 270q0 -88 62 -142t173 -54q145 0 230 110q53 68 68 134t16 184q-327 -6 -420 -42t-116 -102q-13 -37 -13 -88zM1069 90v-90h-274q0 109 22 240h-4q-100 -264 -344 -265q-147 0 -241 75q-93 75 -93 216q-1 141 103 218t276 89
l285 19q4 66 4 96q-1 143 -59 217t-198 74t-263 -41l-4 -176h-99l4 242q137 74 361 73q360 0 360 -336l-8 -651h172z" />
    <glyph glyph-name="acircumflex" unicode="&#xe2;" horiz-adv-x="1175" 
d="M758 1245l-228 262l-239 -262l-68 62l258 282h99l249 -282zM250 270q0 -88 62 -142t173 -54q145 0 230 110q53 68 68 134t16 184q-327 -6 -420 -42t-116 -102q-13 -37 -13 -88zM1069 90v-90h-274q0 109 22 240h-4q-100 -264 -344 -265q-147 0 -241 75q-93 75 -93 216
q-1 141 103 218t276 89l285 19q4 66 4 96q-1 143 -59 217t-198 74t-263 -41l-4 -176h-99l4 242q137 74 361 73q360 0 360 -336l-8 -651h172z" />
    <glyph glyph-name="atilde" unicode="&#xe3;" horiz-adv-x="1175" 
d="M659 1319q-59 0 -144 53t-133 53t-101 -77l-15 -21l-80 53l17 27q78 117 186 117q68 0 158 -51l24 -16q65 -40 107 -40q41 0 100 70l17 22l71 -53l-18 -31q-78 -106 -189 -106zM250 270q0 -88 62 -142t173 -54q145 0 230 110q53 68 68 134t16 184q-327 -6 -420 -42
t-116 -102q-13 -37 -13 -88zM1069 90v-90h-274q0 109 22 240h-4q-100 -264 -344 -265q-147 0 -241 75q-93 75 -93 216q-1 141 103 218t276 89l285 19q4 66 4 96q-1 143 -59 217t-198 74t-263 -41l-4 -176h-99l4 242q137 74 361 73q360 0 360 -336l-8 -651h172z" />
    <glyph glyph-name="adieresis" unicode="&#xe4;" horiz-adv-x="1175" 
d="M219 1409q0 41 26 70q27 29 65 29t64 -30q26 -28 26 -69t-26 -70t-65 -29t-65 30q-26 28 -25 69zM653 1409q0 41 26 70q27 29 65 29t64 -30q26 -28 26 -69t-26 -70t-65 -29t-65 30q-26 28 -25 69zM250 270q0 -88 62 -142t173 -54q145 0 230 110q53 68 68 134t16 184
q-327 -6 -420 -42t-116 -102q-13 -37 -13 -88zM1069 90v-90h-274q0 109 22 240h-4q-100 -264 -344 -265q-147 0 -241 75q-93 75 -93 216q-1 141 103 218t276 89l285 19q4 66 4 96q-1 143 -59 217t-198 74t-263 -41l-4 -176h-99l4 242q137 74 361 73q360 0 360 -336l-8 -651
h172z" />
    <glyph glyph-name="aring" unicode="&#xe5;" horiz-adv-x="1175" 
d="M422 1425q0 -47 29 -79t75 -33q46 0 76 33q29 34 29 80t-29 79t-76 33q-48 0 -76 -33t-28 -80zM340 1425q0 79 55 133t131 54t131 -54t55 -132t-54 -133q-56 -54 -132 -54t-131 54t-55 132zM250 270q0 -88 62 -142t173 -54q145 0 230 110q53 68 68 134t16 184
q-327 -6 -420 -42t-116 -102q-13 -37 -13 -88zM1069 90v-90h-274q0 109 22 240h-4q-100 -264 -344 -265q-147 0 -241 75q-93 75 -93 216q-1 141 103 218t276 89l285 19q4 66 4 96q-1 143 -59 217t-198 74t-263 -41l-4 -176h-99l4 242q137 74 361 73q360 0 360 -336l-8 -651
h172z" />
    <glyph glyph-name="ae" unicode="&#xe6;" horiz-adv-x="1781" 
d="M934 602h627q0 156 -77 266t-238 111q-312 0 -312 -377zM827 418v94l-247 -12q-330 -14 -330 -217q0 -88 65 -149q65 -60 203 -60t224 110t85 234zM1675 512h-741v-98q0 -164 98 -252t272 -88t308 78v-107q-43 -27 -132 -49t-194 -21q-156 0 -268 73t-146 198h-4
q-31 -119 -133 -195q-103 -76 -249 -76t-248 79q-102 78 -102 220t104 225q106 83 317 91l270 12v72q0 305 -311 305q-123 0 -246 -41l-4 -176h-98l4 242q45 26 156 50t224 24q114 0 208 -59q94 -58 133 -159q102 217 352 217t345 -169q85 -150 85 -396z" />
    <glyph glyph-name="ccedilla" unicode="&#xe7;" horiz-adv-x="1062" 
d="M854 766v180q-94 33 -227 33q-195 0 -296 -123t-101 -330q0 -208 100 -330q102 -122 296 -122t320 61v-104q-121 -53 -295 -56v-106h27q59 0 104 -39q45 -40 45 -108t-51 -113q-50 -45 -154 -45t-196 37l14 73q88 -37 162 -36q119 0 119 81q0 76 -111 76h-41v180
q-221 16 -338 171q-117 156 -117 388t132 388q131 156 377 155q176 0 329 -55v-256h-98z" />
    <glyph glyph-name="egrave" unicode="&#xe8;" horiz-adv-x="1099" 
d="M670 1241l-355 305l70 64l356 -314zM614 -25q-252 0 -384 151q-132 150 -132 398t123 401t340 152q125 0 214 -47t136 -128q92 -159 90 -365h-788q6 -463 418 -463q159 0 323 88l-4 -107q-53 -33 -147 -57t-189 -23zM213 627h674q0 152 -84 252t-248 100q-92 0 -163 -37
q-117 -61 -162 -207q-17 -57 -17 -108z" />
    <glyph glyph-name="eacute" unicode="&#xe9;" horiz-adv-x="1099" 
d="M498 1241l-72 55l356 314l70 -64zM614 -25q-252 0 -384 151q-132 150 -132 398t123 401t340 152q125 0 214 -47t136 -128q92 -159 90 -365h-788q6 -463 418 -463q159 0 323 88l-4 -107q-53 -33 -147 -57t-189 -23zM213 627h674q0 152 -84 252t-248 100q-92 0 -163 -37
q-117 -61 -162 -207q-17 -57 -17 -108z" />
    <glyph glyph-name="ecircumflex" unicode="&#xea;" horiz-adv-x="1099" 
d="M807 1245l-227 262l-240 -262l-68 62l258 282h99l250 -282zM614 -25q-252 0 -384 151q-132 150 -132 398t123 401t340 152q125 0 214 -47t136 -128q92 -159 90 -365h-788q6 -463 418 -463q159 0 323 88l-4 -107q-53 -33 -147 -57t-189 -23zM213 627h674q0 152 -84 252
t-248 100q-92 0 -163 -37q-117 -61 -162 -207q-17 -57 -17 -108z" />
    <glyph glyph-name="edieresis" unicode="&#xeb;" horiz-adv-x="1099" 
d="M268 1409q0 41 26 70t64 29t65 -30q26 -28 26 -69t-26 -70t-65 -29q-38 0 -64 30q-26 28 -26 69zM702 1409q0 41 26 70t65 29t65 -30q26 -28 25 -69q0 -41 -26 -70q-27 -29 -65 -29t-64 30q-26 28 -26 69zM614 -25q-252 0 -384 151q-132 150 -132 398t123 401t340 152
q125 0 214 -47t136 -128q92 -159 90 -365h-788q6 -463 418 -463q159 0 323 88l-4 -107q-53 -33 -147 -57t-189 -23zM213 627h674q0 152 -84 252t-248 100q-92 0 -163 -37q-117 -61 -162 -207q-17 -57 -17 -108z" />
    <glyph glyph-name="igrave" unicode="&#xec;" horiz-adv-x="606" 
d="M377 1241l-354 305l69 64l357 -314zM66 0v90h180l6 873h-203v90h309l-6 -963h189v-90h-475z" />
    <glyph glyph-name="iacute" unicode="&#xed;" horiz-adv-x="606" 
d="M209 1241l-72 55l357 314l69 -64zM66 0v90h180l6 873h-203v90h309l-6 -963h189v-90h-475z" />
    <glyph glyph-name="icircumflex" unicode="&#xee;" horiz-adv-x="606" 
d="M514 1245l-227 262l-240 -262l-67 62l258 282h98l250 -282zM66 0v90h180l6 873h-203v90h309l-6 -963h189v-90h-475z" />
    <glyph glyph-name="idieresis" unicode="&#xef;" horiz-adv-x="606" 
d="M-25 1409q0 41 26 70t65 29q38 0 64 -30q26 -28 26 -69t-26 -70t-64 -29t-65 30q-26 28 -26 69zM410 1409q0 41 25 70q26 29 65 29q38 0 64 -30q26 -28 26 -69t-26 -70t-64 -29t-65 29q-25 29 -25 70zM66 0v90h180l6 873h-203v90h309l-6 -963h189v-90h-475z" />
    <glyph glyph-name="eth" unicode="&#xf0;" horiz-adv-x="1175" 
d="M1077 526q0 -242 -129 -397q-129 -154 -361 -154t-361 157q-128 156 -128 394t128 395t362 156q184 0 301 -119h4q-96 209 -305 408l-191 -115l-61 62l188 112q-76 68 -153 115l92 51q80 -55 143 -114l189 114l61 -61l-184 -113l57 -61q174 -186 261 -387t87 -443z
M213 526q0 -204 97 -328q98 -124 278 -124t277 124t97 328t-96 329q-98 124 -278 124t-278 -124t-97 -329z" />
    <glyph glyph-name="ntilde" unicode="&#xf1;" horiz-adv-x="1327" 
d="M797 1319q-59 0 -145 53t-133 53q-48 0 -101 -77l-15 -21l-79 53l16 27q78 117 186 117q68 0 158 -51q84 -56 128 -56t103 70l17 22l72 -53l-19 -31q-78 -106 -188 -106zM694 979q-148 0 -240 -116t-96 -273l-4 -500h166v-90h-430v90h158l4 873h-184v90h292
q0 -113 -24 -252h4q39 127 137 201t248 75q354 0 354 -411l-8 -576h166v-90h-430v90h158l8 569q0 164 -66 242q-65 78 -213 78z" />
    <glyph glyph-name="ograve" unicode="&#xf2;" horiz-adv-x="1175" 
d="M682 1241l-354 305l69 64l357 -314zM98 526q0 238 128 395t362 157t361 -158q128 -156 128 -394t-128 -394t-361 -157q-234 1 -362 157t-128 394zM213 526q0 -204 97 -328q98 -124 278 -124t277 124t97 328t-96 329q-98 124 -278 124t-278 -124t-97 -329z" />
    <glyph glyph-name="oacute" unicode="&#xf3;" horiz-adv-x="1175" 
d="M494 1241l-72 55l356 314l70 -64zM98 526q0 238 128 395t362 157t361 -158q128 -156 128 -394t-128 -394t-361 -157q-234 1 -362 157t-128 394zM213 526q0 -204 97 -328q98 -124 278 -124t277 124t97 328t-96 329q-98 124 -278 124t-278 -124t-97 -329z" />
    <glyph glyph-name="ocircumflex" unicode="&#xf4;" horiz-adv-x="1175" 
d="M819 1245l-227 262l-240 -262l-67 62l258 282h98l250 -282zM98 526q0 238 128 395t362 157t361 -158q128 -156 128 -394t-128 -394t-361 -157q-234 1 -362 157t-128 394zM213 526q0 -204 97 -328q98 -124 278 -124t277 124t97 328t-96 329q-98 124 -278 124t-278 -124
t-97 -329z" />
    <glyph glyph-name="otilde" unicode="&#xf5;" horiz-adv-x="1175" 
d="M721 1319q-59 0 -144 53t-133 53t-102 -77l-14 -21l-80 53l16 27q78 117 187 117q68 0 157 -51q84 -56 128 -56t104 70l16 22l72 -53l-19 -31q-78 -106 -188 -106zM98 526q0 238 128 395t362 157t361 -158q128 -156 128 -394t-128 -394t-361 -157q-234 1 -362 157
t-128 394zM213 526q0 -204 97 -328q98 -124 278 -124t277 124t97 328t-96 329q-98 124 -278 124t-278 -124t-97 -329z" />
    <glyph glyph-name="odieresis" unicode="&#xf6;" horiz-adv-x="1175" 
d="M281 1409q0 41 25 70q26 29 65 29t65 -30q26 -28 25 -69q0 -41 -26 -70q-27 -29 -65 -29t-64 29q-25 29 -25 70zM715 1409q0 41 25 70q26 29 65 29t65 -30q26 -28 25 -69q0 -41 -26 -70q-27 -29 -65 -29t-64 29q-25 29 -25 70zM98 526q0 238 128 395t362 157t361 -158
q128 -156 128 -394t-128 -394t-361 -157q-234 1 -362 157t-128 394zM213 526q0 -204 97 -328q98 -124 278 -124t277 124t97 328t-96 329q-98 124 -278 124t-278 -124t-97 -329z" />
    <glyph glyph-name="divide" unicode="&#xf7;" horiz-adv-x="1228" 
d="M500 90q0 47 34 81t80 34t81 -34q34 -34 34 -81t-34 -81t-81 -34q-46 0 -80 34t-34 81zM500 946q0 47 34 81t80 34t81 -34q34 -34 34 -81t-34 -81t-81 -34q-46 0 -80 34t-34 81zM96 469v98h1037v-98h-1037z" />
    <glyph glyph-name="oslash" unicode="&#xf8;" horiz-adv-x="1175" 
d="M588 74q180 0 277 124t97 338t-110 332l-446 -747q74 -47 182 -47zM1077 526q0 -238 -128 -394t-361 -157q-131 0 -236 56l-123 -205l-73 49l123 205q-180 156 -181 446q0 238 128 395t362 156q143 0 248 -61l125 209l73 -49l-127 -213q170 -147 170 -437zM588 979
q-180 0 -278 -124t-97 -345q0 -221 121 -338l448 754q-78 53 -194 53z" />
    <glyph glyph-name="ugrave" unicode="&#xf9;" horiz-adv-x="1327" 
d="M758 1241l-355 305l70 64l356 -314zM78 963v90h287l-9 -660q0 -163 66 -241t216 -78t239 114q88 114 92 320l8 455h-189v90h295l-8 -963h164v-90h-268q0 113 24 252h-4q-37 -125 -137 -201t-229 -76q-175 1 -275 95t-100 317l8 576h-180z" />
    <glyph glyph-name="uacute" unicode="&#xfa;" horiz-adv-x="1327" 
d="M569 1241l-71 55l356 314l70 -64zM78 963v90h287l-9 -660q0 -163 66 -241t216 -78t239 114q88 114 92 320l8 455h-189v90h295l-8 -963h164v-90h-268q0 113 24 252h-4q-37 -125 -137 -201t-229 -76q-175 1 -275 95t-100 317l8 576h-180z" />
    <glyph glyph-name="ucircumflex" unicode="&#xfb;" horiz-adv-x="1327" 
d="M895 1245l-227 262l-240 -262l-68 62l258 282h99l250 -282zM78 963v90h287l-9 -660q0 -163 66 -241t216 -78t239 114q88 114 92 320l8 455h-189v90h295l-8 -963h164v-90h-268q0 113 24 252h-4q-37 -125 -137 -201t-229 -76q-175 1 -275 95t-100 317l8 576h-180z" />
    <glyph glyph-name="udieresis" unicode="&#xfc;" horiz-adv-x="1327" 
d="M336 1409q0 41 25 70q26 29 65 29q38 0 64 -30q26 -28 26 -69t-26 -70t-64 -29t-65 29q-25 29 -25 70zM770 1409q0 41 26 70t64 29t65 -30q25 -28 25 -69t-26 -70t-64 -29t-64 30q-26 28 -26 69zM78 963v90h287l-9 -660q0 -163 66 -241t216 -78t239 114q88 114 92 320
l8 455h-189v90h295l-8 -963h164v-90h-268q0 113 24 252h-4q-37 -125 -137 -201t-229 -76q-175 1 -275 95t-100 317l8 576h-180z" />
    <glyph glyph-name="yacute" unicode="&#xfd;" 
d="M475 1241l-72 55l357 314l69 -64zM10 1053h412v-90h-150l285 -777q12 -31 23 -77h4q4 33 18 73l272 781h-157v90h391v-90h-127l-367 -1026q-90 -252 -196 -364t-285 -112q-53 0 -123 17v100q111 -18 129 -18q211 0 305 223l80 190l-377 990h-137v90z" />
    <glyph glyph-name="thorn" unicode="&#xfe;" horiz-adv-x="1251" 
d="M612 66q213 0 320 135q106 135 106 341q0 437 -338 437q-146 -1 -244 -115t-100 -268l-2 -477q117 -53 258 -53zM721 1077q207 0 319 -138t113 -351q0 -272 -134 -442t-411 -171q-154 0 -254 37l-4 -436h191v-90h-467v90h170l8 1909h-197v90h303l-4 -539l-4 -200h4
q60 119 144 180t223 61z" />
    <glyph glyph-name="ydieresis" unicode="&#xff;" 
d="M262 1409q0 41 26 70t64 29t65 -30q25 -28 25 -69t-26 -70t-64 -29t-64 30q-26 28 -26 69zM696 1409q0 41 26 70t64 29t65 -30q26 -28 26 -69t-26 -70t-65 -29q-38 0 -64 30q-26 28 -26 69zM10 1053h412v-90h-150l285 -777q12 -31 23 -77h4q4 33 18 73l272 781h-157v90
h391v-90h-127l-367 -1026q-90 -252 -196 -364t-285 -112q-53 0 -123 17v100q111 -18 129 -18q211 0 305 223l80 190l-377 990h-137v90z" />
    <glyph glyph-name="dotlessi" unicode="&#x131;" horiz-adv-x="606" 
d="M66 0v90h180l6 873h-203v90h309l-6 -963h189v-90h-475z" />
    <glyph glyph-name="Lslash" unicode="&#x141;" 
d="M102 0v90h164l4 557l-213 -164v107l213 166l4 587h-172v91h451v-91h-164l-4 -501l340 258v-107l-340 -258l-4 -645h567l17 213h98l-16 -303h-945z" />
    <glyph glyph-name="lslash" unicode="&#x142;" horiz-adv-x="647" 
d="M41 1485v90h340l-4 -653l223 172v-99l-223 -172l-4 -733h182v-90h-463v90h174l4 651l-207 -159v98l207 160l4 645h-233z" />
    <glyph glyph-name="OE" unicode="&#x152;" horiz-adv-x="2086" 
d="M856 1360q-293 0 -460 -173t-167 -481t166 -470t457 -162q180 0 276 16l9 1251q-15 -1 -113 9t-168 10zM115 715q0 354 202 549q203 195 543 194q96 0 318 -26h745v-285h-90v194h-582l-4 -571h533v-90h-533l-4 -590h602l17 213h98l-16 -303h-760q-232 -23 -361 -25
q-344 0 -526 193t-182 547z" />
    <glyph glyph-name="oe" unicode="&#x153;" horiz-adv-x="1857" 
d="M1010 627h635q0 154 -76 253t-229 99q-154 0 -242 -91t-88 -261zM903 481v144q0 170 -83 262q-82 92 -248 92t-262 -124t-97 -329q0 -204 95 -328t265 -124q330 -1 330 407zM1759 537h-749v-125q0 -164 103 -251t253 -87t334 76v-99q-184 -76 -338 -76t-268 71
q-115 71 -142 204h-4q-29 -113 -127 -194t-241 -81q-227 0 -355 158q-127 159 -127 395t128 393t362 156q262 0 375 -239h4q39 100 132 170t238 69q422 1 422 -540z" />
    <glyph glyph-name="Scaron" unicode="&#x160;" horiz-adv-x="1175" 
d="M575 1513l-249 283l71 62l228 -263l239 263l68 -62l-258 -283h-99zM580 74q180 0 275 84t95 208t-82 192t-198 98t-231 64t-197 116t-82 234t121 270t334 118t391 -65l4 -263h-99l-4 189q-117 41 -279 41t-258 -81t-96 -183t44 -162q44 -59 114 -90t223 -72t237 -89
q173 -98 173 -314q0 -174 -131 -284t-347 -110t-433 68l-4 281h106l4 -197q140 -53 320 -53z" />
    <glyph glyph-name="scaron" unicode="&#x161;" horiz-adv-x="985" 
d="M440 1245l-250 283l72 61l227 -262l240 262l68 -61l-258 -283h-99zM456 66q154 0 222 64t68 142q0 76 -41 120t-140 69l-180 43q-279 66 -279 278q0 131 102 213t269 82q168 0 316 -65l4 -240h-99l-4 170q-82 45 -210 45t-196 -52t-67 -142q0 -154 178 -193l195 -43
q137 -29 202 -93t64 -173q0 -156 -106 -236t-303 -80t-332 70l-8 254h100l4 -178q87 -55 241 -55z" />
    <glyph glyph-name="Ydieresis" unicode="&#x178;" horiz-adv-x="1441" 
d="M434 1657q0 41 26 69t64 29q38 0 65 -29q25 -30 25 -70t-26 -69t-64 -29t-64 30q-26 28 -26 69zM868 1657q0 41 26 69t64 29q38 0 65 -29q26 -30 26 -70t-26 -69t-65 -29q-38 0 -64 30q-26 28 -26 69zM508 0v90h166l8 549l-516 704h-154v91h441v-91h-154q25 -25 41 -49
l397 -553l400 553q16 25 41 49h-189v91h441v-91h-136l-497 -704l-9 -549h179v-90h-459z" />
    <glyph glyph-name="Zcaron" unicode="&#x17d;" horiz-adv-x="1327" 
d="M610 1493l-250 283l72 61l227 -262l240 262l68 -61l-258 -283h-99zM125 0v90l909 1204q18 25 43 49h-821l-8 -221h-98l8 312h1044v-91l-901 -1204q-18 -25 -43 -49h836l8 227h98l-8 -317h-1067z" />
    <glyph glyph-name="zcaron" unicode="&#x17e;" horiz-adv-x="1062" 
d="M479 1245l-250 283l72 61l227 -262l240 262l68 -61l-258 -283h-99zM115 0v90l665 815q27 33 54 58h-584l-8 -185h-101l13 275h804v-90l-665 -816q-27 -33 -53 -57h608l12 195h101l-17 -285h-829z" />
    <glyph glyph-name="florin" unicode="&#x192;" 
d="M221 752v90h242l14 180q37 432 420 432q70 0 170 -18l-4 -97q-98 25 -172 25q-287 0 -316 -344l-14 -178h322v-90h-328l-47 -611q-20 -262 -112 -401t-287 -139q-55 0 -148 30l12 97q53 -29 140 -29q258 0 293 426l49 627h-234z" />
    <glyph glyph-name="circumflex" unicode="&#x2c6;" horiz-adv-x="569" 
d="M516 1245l-227 262l-240 -262l-67 62l258 282h98l250 -282z" />
    <glyph glyph-name="caron" unicode="&#x2c7;" horiz-adv-x="569" 
d="M231 1245l-249 283l71 61l228 -262l239 262l68 -61l-258 -283h-99z" />
    <glyph glyph-name="uni02C9" unicode="&#x2c9;" horiz-adv-x="569" 
d="M16 1382v91h537v-91h-537z" />
    <glyph glyph-name="breve" unicode="&#x2d8;" horiz-adv-x="569" 
d="M286 1380q146 0 195 176l13 41l94 -32l-13 -47q-67 -228 -291 -228t-288 228l-14 47l94 32l12 -41q52 -176 198 -176z" />
    <glyph glyph-name="dotaccent" unicode="&#x2d9;" horiz-adv-x="569" 
d="M195 1409q0 41 25 70q26 29 65 29t65 -30q26 -28 25 -69q0 -41 -26 -70q-27 -29 -65 -29t-64 29q-25 29 -25 70z" />
    <glyph glyph-name="ring" unicode="&#x2da;" horiz-adv-x="569" 
d="M180 1425q0 -47 29 -79t76 -33q47 0 75 33q28 34 29 80q0 46 -29 79q-30 33 -76 33t-75 -33t-29 -80zM98 1425q0 79 56 133t131 54q76 0 131 -54t55 -132t-55 -133q-55 -54 -131 -54q-75 0 -131 54t-56 132z" />
    <glyph glyph-name="ogonek" unicode="&#x2db;" horiz-adv-x="569" 
d="M313 -254q0 -143 201 -98l21 -70q-63 -14 -145 -14t-132 45q-51 45 -51 120t55 151t121 120h82q-152 -117 -152 -254z" />
    <glyph glyph-name="tilde" unicode="&#x2dc;" horiz-adv-x="569" 
d="M418 1319q-58 0 -144 53t-134 53t-101 -77l-14 -21l-80 53l16 27q78 117 186 117q68 0 158 -51q84 -56 128 -56t104 70l16 22l72 -53l-19 -31q-78 -106 -188 -106z" />
    <glyph glyph-name="hungarumlaut" unicode="&#x2dd;" horiz-adv-x="569" 
d="M395 1241l-71 55l356 314l70 -64zM-14 1241l-72 55l356 314l70 -64z" />
    <glyph glyph-name="uni03A9" unicode="&#x3a9;" horiz-adv-x="1488" 
d="M432 86v6q-129 111 -211 281t-82 379q0 309 176 500q177 192 437 192t428 -199t168 -485q0 -217 -86 -393t-207 -275v-6h321v-86h-471v63q143 95 241 273t97 407q0 145 -53 281t-169 234q-116 97 -271 98q-224 0 -364 -178t-140 -417t99 -424t237 -274v-63h-469v86h319z
" />
    <glyph glyph-name="uni03BC" unicode="&#x3bc;" horiz-adv-x="1327" 
d="M636 74q148 0 238 112t95 267l8 510h-189v90h295l-8 -963h164v-90h-268q0 113 24 252h-4q-37 -125 -137 -201t-229 -76q-82 0 -156 37t-113 101h-4q4 -47 4 -169t-4 -458h-104l2 901l8 576h-180v90h287l-9 -660q0 -163 66 -241t214 -78z" />
    <glyph glyph-name="pi" unicode="&#x3c0;" horiz-adv-x="1140" 
d="M907 963v-664q0 -188 31 -299h-100q-33 57 -33 285v678h-414q-12 -236 -58 -535t-102 -428h-102q57 150 102 436t56 527q-170 0 -242 -29l-20 70q84 49 274 49h797l-13 -90h-176z" />
    <glyph glyph-name="uni2010" unicode="&#x2010;" horiz-adv-x="796" 
d="M150 479v107h497v-107h-497z" />
    <glyph glyph-name="endash" unicode="&#x2013;" horiz-adv-x="1024" 
d="M0 483v99h1024v-99h-1024z" />
    <glyph glyph-name="emdash" unicode="&#x2014;" horiz-adv-x="2048" 
d="M0 483v99h2048v-99h-2048z" />
    <glyph glyph-name="quoteleft" unicode="&#x2018;" horiz-adv-x="569" 
d="M293 1352q0 -48 45 -98t45 -82t-26 -56q-25 -24 -67 -24t-77 41t-35 109t29 152q29 83 86 144l49 53l49 -49q-35 -29 -67 -86t-31 -104z" />
    <glyph glyph-name="quoteright" unicode="&#x2019;" horiz-adv-x="569" 
d="M186 1510q0 32 26 57t68 25t76 -42t35 -110q0 -68 -29 -151t-86 -144l-49 -53l-49 49q35 29 67 86q31 57 31 104t-45 97t-45 82z" />
    <glyph glyph-name="quotesinglbase" unicode="&#x201a;" horiz-adv-x="569" 
d="M186 91q0 33 26 57t68 24t76 -41t35 -109q0 -68 -30 -152t-85 -144l-49 -54l-49 49q35 29 67 86q31 57 31 105t-45 97q-45 50 -45 82z" />
    <glyph glyph-name="quotedblleft" unicode="&#x201c;" horiz-adv-x="796" 
d="M328 1172q0 -32 -26 -56t-68 -24t-76 41q-35 41 -35 109t29 152q29 83 86 144l49 53l49 -49q-35 -29 -67 -86q-31 -57 -31 -104q0 -48 45 -98t45 -82zM575 1352q-1 -48 45 -98t46 -82t-26 -56t-68 -24t-76 41t-35 109q0 68 28 152q29 83 86 144l50 53l49 -49
q-35 -29 -67 -86t-32 -104z" />
    <glyph glyph-name="quotedblright" unicode="&#x201d;" horiz-adv-x="796" 
d="M221 1331q0 47 -45 97t-45 82t26 57q25 25 67 25t77 -42t35 -110t-29 -151t-86 -144l-49 -53l-49 49q35 29 66 86q32 57 32 104zM559 1331q0 47 -45 97t-45 82t26 57q25 25 67 25t77 -42t35 -110t-29 -151t-86 -144l-49 -53l-49 49q35 29 66 86q32 57 32 104z" />
    <glyph glyph-name="quotedblbase" unicode="&#x201e;" horiz-adv-x="796" 
d="M221 -88q0 48 -45 97q-45 50 -45 82q0 33 26 57q25 24 67 24t77 -41t35 -109t-30 -152t-85 -144l-49 -54l-49 49q35 29 66 86q32 57 32 105zM559 -88q0 48 -45 97q-45 50 -45 82q0 33 26 57q25 24 67 24t77 -41t35 -109t-30 -152t-85 -144l-49 -54l-49 49q35 29 66 86
q32 57 32 105z" />
    <glyph glyph-name="dagger" unicode="&#x2020;" 
d="M1032 961v-91h-409l-5 -1269h-106l4 1269h-410v91h410l4 473h107l-4 -473h409z" />
    <glyph glyph-name="daggerdbl" unicode="&#x2021;" 
d="M106 106v91h408l2 673h-410v91h410l4 473h107l-4 -473h409v-91h-409l-2 -673h411v-91h-411l-3 -505h-106l2 505h-408z" />
    <glyph glyph-name="bullet" unicode="&#x2022;" horiz-adv-x="1024" 
d="M154 717q0 150 104 254t254 104t254 -104t104 -254t-104 -254q-104 -105 -254 -105t-254 104t-104 255z" />
    <glyph glyph-name="ellipsis" unicode="&#x2026;" horiz-adv-x="2048" 
d="M1612 74q0 42 28 70t66 28q39 0 67 -29q27 -29 27 -69t-28 -70q-28 -29 -66 -29q-39 0 -67 29q-27 29 -27 70zM930 74q0 42 28 70t66 28q39 0 67 -29q27 -29 27 -69t-28 -70q-28 -29 -66 -29q-39 0 -67 29q-27 29 -27 70zM248 74q0 42 28 70t66 28q39 0 67 -29
q27 -29 27 -69t-28 -70q-28 -29 -66 -29q-39 0 -67 29q-27 29 -27 70z" />
    <glyph glyph-name="perthousand" unicode="&#x2030;" horiz-adv-x="2390" 
d="M383 -111l-74 50l940 1605l74 -49zM1288 549q-98 0 -156 -66t-58 -175t54 -178t154 -69t156 69q55 69 55 177t-53 175q-54 67 -152 67zM975 304q0 142 87 234t224 93q137 0 221 -87t84 -238q0 -150 -87 -238t-224 -88t-221 91t-84 233zM389 1372q-98 0 -157 -65
q-58 -65 -58 -175t55 -179t155 -69t155 69t55 177t-53 176q-54 66 -152 66zM76 1127q0 143 87 235t224 92t221 -87t84 -237t-87 -239q-87 -88 -224 -88t-221 91t-84 233zM2011 549q-99 0 -157 -66t-58 -175t55 -178t155 -69t155 69t55 177t-53 175q-54 67 -152 67zM1698 304
q0 142 87 234t224 93q137 0 221 -87t84 -238q0 -150 -87 -238t-224 -88t-221 91t-84 233z" />
    <glyph glyph-name="guilsinglleft" unicode="&#x2039;" horiz-adv-x="606" 
d="M131 489v86l275 295l69 -63l-254 -275l244 -272l-70 -65z" />
    <glyph glyph-name="guilsinglright" unicode="&#x203a;" horiz-adv-x="606" 
d="M475 575v-86l-274 -294l-70 63l254 274l-244 273l70 65z" />
    <glyph glyph-name="fraction" unicode="&#x2044;" horiz-adv-x="342" 
d="M-262 -111l-74 50l940 1605l74 -49z" />
    <glyph glyph-name="Euro" unicode="&#x20ac;" 
d="M1104 1147h-94v166q-111 39 -213 39q-389 0 -475 -457h657l-41 -94h-627q-4 -53 -4 -94v-35h586l-41 -94h-537q66 -496 471 -496q127 0 299 61l-2 -106q-139 -51 -307 -51q-262 0 -406 161t-171 431h-117l41 94h70q0 98 2 129h-117l41 94h88q47 249 191 401t388 152
q160 0 318 -68v-233z" />
    <glyph glyph-name="afii61289" unicode="&#x2113;" horiz-adv-x="966" 
d="M324 1112v-512q168 180 260 336t92 311q0 242 -164 242q-74 0 -131 -92t-57 -285zM225 1096q0 256 86 366t204 111q118 0 179 -90t62 -228q0 -348 -432 -766v-59q0 -182 70 -269t169 -87q100 0 175 60t118 145l57 -46q-129 -244 -362 -243q-160 0 -240 112t-84 283v29
q-35 -27 -123 -103l-38 66q129 111 159 141v578z" />
    <glyph glyph-name="trademark" unicode="&#x2122;" horiz-adv-x="2027" 
d="M1774 1434v-844h-99v753h-4l-305 -753h-61l-306 753h-4v-753h-98v844h168l274 -695l267 695h168zM365 590v753h-279v91h655v-91h-278v-753h-98z" />
    <glyph glyph-name="Omega" unicode="&#x2126;" horiz-adv-x="1488" 
d="M432 86v6q-129 111 -211 281t-82 379q0 309 176 500q177 192 437 192t428 -199t168 -485q0 -217 -86 -393t-207 -275v-6h321v-86h-471v63q143 95 241 273t97 407q0 145 -53 281t-169 234q-116 97 -271 98q-224 0 -364 -178t-140 -417t99 -424t237 -274v-63h-469v86h319z
" />
    <glyph glyph-name="estimated" unicode="&#x212e;" horiz-adv-x="1777" 
d="M1405 748v405q0 29 -19 47q-214 209 -500 209t-497 -215q-18 -23 -18 -51v-395q0 -12 10 -13h1016q8 1 8 13zM1706 696h-1325q-10 0 -10 -8v-401q0 -25 16 -47q211 -217 502 -217q154 -1 291 65t237 178h117q-111 -131 -282 -208t-365 -76q-338 0 -578 215t-239 520
q0 305 239 521q240 216 579 216q338 0 578 -216t240 -521v-21z" />
    <glyph glyph-name="partialdiff" unicode="&#x2202;" horiz-adv-x="1093" 
d="M479 74h2q154 0 257 160t128 399q-31 90 -121 168q-91 78 -219 78t-230 -124t-101 -295q0 -171 78 -279q79 -107 206 -107zM985 829q0 -369 -133 -605t-381 -236q-182 0 -281 136q-98 136 -98 346t128 352t304 143q132 0 226 -71t131 -140h2q2 27 2 98q0 295 -119 474
q-120 179 -280 179t-279 -98l-43 74q138 113 334 113t342 -198q145 -198 145 -567z" />
    <glyph glyph-name="Delta" unicode="&#x2206;" horiz-adv-x="1318" 
d="M172 86h967l-332 862q-15 46 -73 190t-72 197h-9q-9 -40 -63 -178q-54 -137 -68 -174zM68 0v82l536 1380h117l530 -1378v-84h-1183z" />
    <glyph glyph-name="product" unicode="&#x220f;" horiz-adv-x="1411" 
d="M1356 1325h-232v-1522h-102v1522h-635v-1522h-100v1522h-234v94h1303v-94z" />
    <glyph glyph-name="summation" unicode="&#x2211;" horiz-adv-x="1130" 
d="M1081 -197h-1034v72l578 733l-551 740v71h975v-90h-826v-8l522 -700l-559 -711v-6h895v-101z" />
    <glyph glyph-name="minus" unicode="&#x2212;" horiz-adv-x="1228" 
d="M96 469v98h1037v-98h-1037z" />
    <glyph glyph-name="uni2215" unicode="&#x2215;" horiz-adv-x="342" 
d="M-262 -111l-74 50l940 1605l74 -49z" />
    <glyph glyph-name="uni2219" unicode="&#x2219;" horiz-adv-x="569" 
d="M170 598q0 47 34 81t81 34t81 -34t34 -81t-34 -81t-81 -34t-81 34t-34 81z" />
    <glyph glyph-name="radical" unicode="&#x221a;" horiz-adv-x="1148" 
d="M1143 1681l-453 -1994h-100l-340 968l-154 -57l-24 70l245 94l287 -809q4 -23 16 -70t17 -65h2q4 34 13 75q9 40 12 54l397 1734h82z" />
    <glyph glyph-name="infinity" unicode="&#x221e;" horiz-adv-x="1585" 
d="M1182 823h-2q-48 -1 -104 -29t-88 -58t-82 -82t-62 -64q126 -131 194 -183q68 -53 156 -53t146 70t58 172t-60 165q-60 62 -156 62zM416 354h2q84 0 156 58t120 107q47 50 60 63q-117 135 -170 174q-90 68 -184 68t-153 -72q-57 -72 -57 -169t63 -163t163 -66zM1479 592
v-2q0 -137 -90 -224q-89 -87 -197 -87t-188 57t-209 192q-76 -84 -116 -124t-118 -82t-158 -43q-121 0 -209 90t-88 219t88 218t224 89q74 0 148 -41t120 -86q47 -45 117 -125q51 57 69 77t66 64q125 111 255 111t208 -84t78 -219z" />
    <glyph glyph-name="integral" unicode="&#x222b;" horiz-adv-x="694" 
d="M554 1645q-170 0 -169 -420q0 -157 13 -521t14 -524q0 -281 -95 -411q-59 -84 -174 -84q-76 0 -123 32l25 78q53 -27 94 -26q176 0 174 415l-26 1051q0 313 104 418q68 74 170 73q62 1 105 -30l-25 -74q-31 23 -87 23z" />
    <glyph glyph-name="approxequal" unicode="&#x2248;" horiz-adv-x="1167" 
d="M807 297q-68 0 -115 22q-47 21 -57 27t-39 20t-35 19q-127 72 -197 72t-116 -41t-94 -117l-54 41q98 188 275 188q68 0 128 -28q59 -28 88 -45t54 -30t34 -17t41 -20t95 -17t107 35t92 118l49 -41q-94 -186 -256 -186zM807 631q-79 0 -152 38q-27 13 -126 67t-167 52
q-115 0 -208 -155l-54 41q100 186 277 186q73 0 132 -31q23 -9 59 -31t60 -34l42 -21q18 -10 50 -24t94 -15q62 -2 108 35q45 37 92 119l49 -41q-94 -186 -256 -186z" />
    <glyph glyph-name="notequal" unicode="&#x2260;" horiz-adv-x="1167" 
d="M1059 809v-76h-375l-147 -311h522v-74h-553l-115 -246l-61 31l100 215h-324v74h359l143 311h-502v76h535l113 242l61 -31l-98 -211h342z" />
    <glyph glyph-name="lessequal" unicode="&#x2264;" horiz-adv-x="1167" 
d="M1057 27h-951v77h951v-77zM1053 190l-934 463v78l934 463v-92l-846 -406v-4l846 -407v-95z" />
    <glyph glyph-name="greaterequal" unicode="&#x2265;" horiz-adv-x="1167" 
d="M1057 27h-948v77h948v-77zM121 1194l932 -463v-78l-932 -463v95l844 405v4l-844 408v92z" />
    <glyph glyph-name="lozenge" unicode="&#x25ca;" horiz-adv-x="1150" 
d="M936 707l-322 612q-23 45 -39 98h-4q-23 -63 -41 -98l-317 -606l324 -617q25 -53 36 -96h7q10 45 36 96zM1034 709l-418 -799h-84l-415 799l418 800h83z" />
    <glyph glyph-name="A.sc" unicode="&#xe000;" horiz-adv-x="1214" 
d="M23 0v90h127l407 1024h123l371 -1024h141v-90h-416v90h160l-127 365h-416l-137 -365h160v-90h-393zM428 545h348l-135 389q-23 66 -29 106h-4q-6 -33 -33 -106z" />
    <glyph glyph-name="AE.sc" unicode="&#xe001;" horiz-adv-x="1669" 
d="M872 586l7 438h-117l-238 -438h348zM1380 586v-90h-401v-406h442l17 180h90l-17 -270h-802v90h163v406h-399l-221 -406h160v-90h-404v90h137l568 1024h755l7 -258h-91l-6 168h-393l-6 -438h401z" />
    <glyph glyph-name="Aacute.sc" unicode="&#xe002;" horiz-adv-x="1214" 
d="M514 1180l-72 55l357 313l69 -63zM23 0v90h127l407 1024h123l371 -1024h141v-90h-416v90h160l-127 365h-416l-137 -365h160v-90h-393zM428 545h348l-135 389q-23 66 -29 106h-4q-6 -33 -33 -106z" />
    <glyph glyph-name="Acircumflex.sc" unicode="&#xe003;" horiz-adv-x="1214" 
d="M840 1184l-228 262l-239 -262l-68 61l258 283h99l249 -283zM23 0v90h127l407 1024h123l371 -1024h141v-90h-416v90h160l-127 365h-416l-137 -365h160v-90h-393zM428 545h348l-135 389q-23 66 -29 106h-4q-6 -33 -33 -106z" />
    <glyph glyph-name="Adieresis.sc" unicode="&#xe004;" horiz-adv-x="1214" 
d="M301 1348q0 42 26 70q27 28 65 28t64 -29t26 -69t-26 -70q-26 -29 -65 -29t-65 29t-25 70zM735 1348q0 42 26 70q27 28 65 28t64 -29t26 -69t-26 -70q-26 -29 -65 -29t-65 29t-25 70zM23 0v90h127l407 1024h123l371 -1024h141v-90h-416v90h160l-127 365h-416l-137 -365
h160v-90h-393zM428 545h348l-135 389q-23 66 -29 106h-4q-6 -33 -33 -106z" />
    <glyph glyph-name="Agrave.sc" unicode="&#xe005;" horiz-adv-x="1214" 
d="M702 1180l-354 305l70 63l356 -313zM23 0v90h127l407 1024h123l371 -1024h141v-90h-416v90h160l-127 365h-416l-137 -365h160v-90h-393zM428 545h348l-135 389q-23 66 -29 106h-4q-6 -33 -33 -106z" />
    <glyph glyph-name="Aring.sc" unicode="&#xe006;" horiz-adv-x="1214" 
d="M504 1354q0 -47 28 -80t76 -33q47 0 76 33t29 80t-29 80q-29 32 -76 32t-76 -32q-28 -33 -28 -80zM422 1354q0 76 55 131t131 55t131 -55t55 -131t-54 -131q-56 -55 -132 -55t-131 54q-55 56 -55 132zM23 0v90h127l407 1024h123l371 -1024h141v-90h-416v90h160l-127 365
h-416l-137 -365h160v-90h-393zM428 545h348l-135 389q-23 66 -29 106h-4q-6 -33 -33 -106z" />
    <glyph glyph-name="Atilde.sc" unicode="&#xe007;" horiz-adv-x="1214" 
d="M464 1364q-48 0 -102 -78l-14 -20l-80 53l17 27q78 117 186 116q68 0 158 -51q82 -55 127 -55t104 69l17 23l71 -53l-18 -31q-78 -106 -189 -107q-59 -1 -144 53t-133 54zM23 0v90h127l407 1024h123l371 -1024h141v-90h-416v90h160l-127 365h-416l-137 -365h160v-90h-393
zM428 545h348l-135 389q-23 66 -29 106h-4q-6 -33 -33 -106z" />
    <glyph glyph-name="B.sc" unicode="&#xe008;" horiz-adv-x="1024" 
d="M555 90q151 0 219 60t68 158q0 96 -75 158t-230 62h-162l-2 -438h182zM496 618q112 0 190 56t78 164q0 186 -205 186h-180l-4 -406h121zM102 0v90h164l6 934h-170v90h443q157 0 241 -72t84 -196q0 -88 -50 -159t-154 -97v-4q134 -8 208 -80t74 -206t-95 -217t-300 -83
h-451z" />
    <glyph glyph-name="C.sc" unicode="&#xe009;" 
d="M96 557q0 262 169 419t437 157q203 0 318 -62v-250h-90v187q-113 35 -228 34q-242 0 -366 -132t-125 -353q0 -221 125 -353t366 -132q115 -6 222 20l6 213h90l-6 -285q-141 -39 -312 -38q-268 0 -437 156t-169 419z" />
    <glyph glyph-name="Ccedilla.sc" unicode="&#xe00a;" 
d="M719 -131h26q59 0 105 -39q46 -40 45 -108q0 -68 -51 -113t-155 -45t-195 37l14 73q88 -37 162 -36q119 0 118 81q0 76 -110 76h-41v187q-241 22 -391 176t-150 408t169 410q169 157 437 157q203 0 318 -62v-250h-90v187q-113 35 -228 34q-242 0 -366 -132t-125 -353
q0 -221 125 -353t366 -132q115 -6 222 20l6 213h90l-6 -285q-137 -37 -295 -38v-113z" />
    <glyph glyph-name="D.sc" unicode="&#xe00b;" horiz-adv-x="1290" 
d="M602 90q223 0 354 124t131 344t-114 343q-115 123 -330 123h-264l-6 -934h229zM102 0v90h164l6 934h-170v90h523q291 0 430 -150t139 -394q0 -246 -148 -408t-450 -162h-494z" />
    <glyph glyph-name="E.sc" unicode="&#xe00c;" horiz-adv-x="1062" 
d="M102 0v90h164l6 934h-170v90h789v-260h-90v170h-422l-4 -418h397v-90h-397l-2 -426h442l16 180h91l-17 -270h-803z" />
    <glyph glyph-name="Eacute.sc" unicode="&#xe00d;" horiz-adv-x="1062" 
d="M479 1180l-71 55l356 313l70 -63zM102 0v90h164l6 934h-170v90h789v-260h-90v170h-422l-4 -418h397v-90h-397l-2 -426h442l16 180h91l-17 -270h-803z" />
    <glyph glyph-name="Ecircumflex.sc" unicode="&#xe00e;" horiz-adv-x="1062" 
d="M764 1184l-227 262l-240 -262l-68 61l258 283h99l250 -283zM102 0v90h164l6 934h-170v90h789v-260h-90v170h-422l-4 -418h397v-90h-397l-2 -426h442l16 180h91l-17 -270h-803z" />
    <glyph glyph-name="Edieresis.sc" unicode="&#xe00f;" horiz-adv-x="1062" 
d="M225 1348q0 42 26 70q27 28 65 28t64 -29t26 -69t-26 -70q-26 -29 -65 -29t-65 29t-25 70zM659 1348q0 42 26 70t65 28q38 0 64 -29t26 -69t-26 -70q-26 -29 -64 -29t-65 29q-26 29 -26 70zM102 0v90h164l6 934h-170v90h789v-260h-90v170h-422l-4 -418h397v-90h-397
l-2 -426h442l16 180h91l-17 -270h-803z" />
    <glyph glyph-name="Egrave.sc" unicode="&#xe010;" horiz-adv-x="1062" 
d="M651 1180l-354 305l70 63l356 -313zM102 0v90h164l6 934h-170v90h789v-260h-90v170h-422l-4 -418h397v-90h-397l-2 -426h442l16 180h91l-17 -270h-803z" />
    <glyph glyph-name="Eth.sc" unicode="&#xe011;" horiz-adv-x="1290" 
d="M705 618v-90h-330l-2 -438h229q223 0 354 124t131 344t-114 343q-115 123 -330 123h-264l-4 -406h330zM102 528v90h166l4 406h-170v90h523q291 0 430 -150t139 -394q0 -246 -148 -408t-450 -162h-494v90h164l2 438h-166z" />
    <glyph glyph-name="F.sc" unicode="&#xe012;" horiz-adv-x="985" 
d="M102 0v90h164l6 934h-170v90h781v-268h-99v178h-405l-6 -438h430v-90h-430v-406h170v-90h-441z" />
    <glyph glyph-name="G.sc" unicode="&#xe013;" horiz-adv-x="1251" 
d="M1016 379v-359q-145 -39 -314 -38q-268 0 -437 156t-169 419q0 262 169 419t437 157q201 0 340 -60v-252h-90v187q-90 35 -250 34q-242 0 -366 -132t-125 -353q0 -221 125 -353t366 -132q121 -6 216 20v287h-175v90h420v-90h-147z" />
    <glyph glyph-name="H.sc" unicode="&#xe014;" horiz-adv-x="1366" 
d="M96 0v90h164l6 934h-170v90h441v-90h-164l-4 -418h626l4 418h-170v90h441v-90h-164l-6 -934h170v-90h-441v90h164l2 426h-626l-2 -426h170v-90h-441z" />
    <glyph glyph-name="I.sc" unicode="&#xe015;" horiz-adv-x="645" 
d="M102 0v90h164l6 934h-170v90h441v-90h-164l-6 -934h170v-90h-441z" />
    <glyph glyph-name="Iacute.sc" unicode="&#xe016;" horiz-adv-x="645" 
d="M229 1180l-71 55l356 313l70 -63zM102 0v90h164l6 934h-170v90h441v-90h-164l-6 -934h170v-90h-441z" />
    <glyph glyph-name="Icircumflex.sc" unicode="&#xe017;" horiz-adv-x="645" 
d="M555 1184l-227 262l-240 -262l-68 61l259 283h98l250 -283zM102 0v90h164l6 934h-170v90h441v-90h-164l-6 -934h170v-90h-441z" />
    <glyph glyph-name="Idieresis.sc" unicode="&#xe018;" horiz-adv-x="645" 
d="M6 1348q0 42 26 70t64 28t65 -29q25 -29 25 -69t-26 -70q-26 -29 -64 -29t-64 29t-26 70zM440 1348q0 42 26 70t64 28t65 -29q26 -29 26 -69t-26 -70q-26 -29 -65 -29q-38 0 -64 29t-26 70zM102 0v90h164l6 934h-170v90h441v-90h-164l-6 -934h170v-90h-441z" />
    <glyph glyph-name="Igrave.sc" unicode="&#xe019;" horiz-adv-x="645" 
d="M418 1180l-355 305l70 63l356 -313zM102 0v90h164l6 934h-170v90h441v-90h-164l-6 -934h170v-90h-441z" />
    <glyph glyph-name="J.sc" unicode="&#xe01a;" horiz-adv-x="606" 
d="M102 1024v90h441v-90h-164l-6 -559q-2 -131 -8 -210q-16 -204 -106 -324q-91 -119 -302 -207l-31 75q206 88 268 212q47 93 57 188q11 94 15 268l6 557h-170z" />
    <glyph glyph-name="K.sc" unicode="&#xe01b;" horiz-adv-x="1214" 
d="M102 0v90h164l6 934h-170v90h441v-90h-164l-4 -434l508 434h-164v90h403v-90h-108l-527 -459l543 -475h123v-90h-426v90h154l-506 451l-2 -451h170v-90h-441z" />
    <glyph glyph-name="L.sc" unicode="&#xe01c;" horiz-adv-x="985" 
d="M102 0v90h164l6 934h-170v90h441v-90h-164l-6 -934h442l6 178h90l-6 -268h-803z" />
    <glyph glyph-name="Lslash.sc" unicode="&#xe01d;" horiz-adv-x="985" 
d="M102 0v90h164l4 356l-168 -120v106l168 121l2 471h-170v90h441v-90h-164l-2 -395l260 186v-106l-260 -187l-4 -432h442l6 178h90l-6 -268h-803z" />
    <glyph glyph-name="M.sc" unicode="&#xe01e;" horiz-adv-x="1593" 
d="M102 0v90h164l6 934h-170v90h308l356 -887q25 -61 35 -112h4q10 51 35 112l344 887h307v-90h-170l6 -934h164v-90h-432v90h170l-6 860h-4q-10 -35 -43 -119l-328 -831h-98l-332 831q-33 84 -43 119h-4l-6 -860h170v-90h-433z" />
    <glyph glyph-name="N.sc" unicode="&#xe01f;" horiz-adv-x="1402" 
d="M96 0v90h164l6 934h-170v90h269l626 -846q41 -57 64 -104h4l6 860h-170v90h412v-90h-144l-6 -1024h-98l-608 827q-57 78 -76 123h-4l-4 -860h170v-90h-441z" />
    <glyph glyph-name="Ntilde.sc" unicode="&#xe020;" horiz-adv-x="1402" 
d="M558 1364q-48 0 -101 -78l-15 -20l-80 53l17 27q78 117 186 116q68 0 158 -51q7 -4 25 -15q18 -12 25 -16q38 -25 80 -24q42 0 101 69l17 23l71 -53l-18 -31q-78 -106 -188 -107q-58 -1 -144 53t-134 54zM96 0v90h164l6 934h-170v90h269l626 -846q41 -57 64 -104h4l6 860
h-170v90h412v-90h-144l-6 -1024h-98l-608 827q-57 78 -76 123h-4l-4 -860h170v-90h-441z" />
    <glyph glyph-name="O.sc" unicode="&#xe021;" horiz-adv-x="1251" 
d="M96 557q0 248 138 412t392 164t391 -164q138 -164 138 -412t-138 -412q-138 -163 -391 -163t-392 163q-138 164 -138 412zM211 557q0 -217 114 -347t301 -130t301 130t113 347q0 217 -113 347q-114 130 -301 130t-301 -130t-114 -347z" />
    <glyph glyph-name="OE.sc" unicode="&#xe022;" horiz-adv-x="1705" 
d="M687 1034q-99 0 -194 -36t-147 -87t-93 -139q-42 -88 -42 -215q0 -225 123 -351t356 -126q17 0 205 10l6 930q-115 14 -214 14zM688 1133q61 1 136 -9t96 -10h600v-260h-90v170h-422l-4 -418h397v-90h-397l-3 -426h443l16 180h90l-16 -270h-592l-254 -18q-295 0 -443 162
q-149 162 -149 414q0 253 164 414t428 161z" />
    <glyph glyph-name="Oacute.sc" unicode="&#xe023;" horiz-adv-x="1251" 
d="M532 1180l-71 55l356 313l70 -63zM96 557q0 248 138 412t392 164t391 -164q138 -164 138 -412t-138 -412q-138 -163 -391 -163t-392 163q-138 164 -138 412zM211 557q0 -217 114 -347t301 -130t301 130t113 347q0 217 -113 347q-114 130 -301 130t-301 -130t-114 -347z
" />
    <glyph glyph-name="Ocircumflex.sc" unicode="&#xe024;" horiz-adv-x="1251" 
d="M858 1184l-227 262l-240 -262l-67 61l258 283h98l250 -283zM96 557q0 248 138 412t392 164t391 -164q138 -164 138 -412t-138 -412q-138 -163 -391 -163t-392 163q-138 164 -138 412zM211 557q0 -217 114 -347t301 -130t301 130t113 347q0 217 -113 347
q-114 130 -301 130t-301 -130t-114 -347z" />
    <glyph glyph-name="Odieresis.sc" unicode="&#xe025;" horiz-adv-x="1251" 
d="M319 1348q0 42 26 70t65 28q38 0 64 -29t26 -69t-26 -70q-26 -29 -64 -29t-65 29q-26 29 -26 70zM754 1348q0 42 26 70t64 28t64 -29t26 -69t-26 -70q-26 -29 -64 -29t-65 29q-25 29 -25 70zM96 557q0 248 138 412t392 164t391 -164q138 -164 138 -412t-138 -412
q-138 -163 -391 -163t-392 163q-138 164 -138 412zM211 557q0 -217 114 -347t301 -130t301 130t113 347q0 217 -113 347q-114 130 -301 130t-301 -130t-114 -347z" />
    <glyph glyph-name="Ograve.sc" unicode="&#xe026;" horiz-adv-x="1251" 
d="M721 1180l-354 305l69 63l357 -313zM96 557q0 248 138 412t392 164t391 -164q138 -164 138 -412t-138 -412q-138 -163 -391 -163t-392 163q-138 164 -138 412zM211 557q0 -217 114 -347t301 -130t301 130t113 347q0 217 -113 347q-114 130 -301 130t-301 -130t-114 -347z
" />
    <glyph glyph-name="Oslash.sc" unicode="&#xe027;" horiz-adv-x="1251" 
d="M625 80q188 0 302 130q113 130 113 358t-137 362l-479 -799q86 -51 201 -51zM96 557q0 250 155 413t376 163q143 0 254 -58l127 211l79 -49l-129 -213q197 -160 197 -467q0 -250 -155 -413t-375 -162q-145 0 -254 59l-127 -213l-80 49l129 213q-197 160 -197 467z
M627 1034q-188 0 -302 -130t-114 -358t137 -362l479 801q-88 49 -200 49z" />
    <glyph glyph-name="Otilde.sc" unicode="&#xe028;" horiz-adv-x="1251" 
d="M482 1364q-48 0 -101 -78l-14 -20l-80 53l16 27q78 117 186 116q68 0 158 -51q7 -4 25 -15q18 -12 25 -16q38 -24 80 -24t102 69l16 23l72 -53l-19 -31q-78 -106 -188 -107q-58 -1 -144 53t-134 54zM96 557q0 248 138 412t392 164t391 -164q138 -164 138 -412t-138 -412
q-138 -163 -391 -163t-392 163q-138 164 -138 412zM211 557q0 -217 114 -347t301 -130t301 130t113 347q0 217 -113 347q-114 130 -301 130t-301 -130t-114 -347z" />
    <glyph glyph-name="P.sc" unicode="&#xe029;" horiz-adv-x="985" 
d="M102 0v90h164l6 934h-170v90h441q362 0 362 -315q0 -152 -101 -248t-276 -96h-153l-2 -365h170v-90h-441zM514 545q276 0 277 254q-1 105 -59 165t-175 60h-178l-4 -479h139z" />
    <glyph glyph-name="Q.sc" unicode="&#xe02a;" horiz-adv-x="1251" 
d="M1254 -276q-82 0 -190 38t-186 84q-207 126 -346 138q-166 12 -302 159t-135 405t156 422q155 163 391 163t375 -164q138 -164 138 -412q0 -201 -102 -359t-281 -200v-4q68 -10 148 -54t169 -81t197 -37l80 4v-90q-30 -12 -112 -12zM211 557q0 -217 114 -347t301 -130
t301 130t113 347q0 217 -113 347q-114 130 -301 130t-301 -130t-114 -347z" />
    <glyph glyph-name="R.sc" unicode="&#xe02b;" horiz-adv-x="1099" 
d="M102 0v90h164l6 934h-170v90h473q147 0 229 -78t83 -205q0 -127 -75 -203t-183 -89v-4q41 -18 67 -43t60 -82l127 -220q39 -68 63 -84t65 -16q42 0 58 6v-90q-33 -6 -85 -6t-92 22t-79 89l-156 258q-47 79 -82 103t-92 24h-108l-2 -406h170v-90h-441zM506 586
q141 0 208 68t66 171q0 199 -207 199h-194l-4 -438h131z" />
    <glyph glyph-name="S.sc" unicode="&#xe02c;" horiz-adv-x="1024" 
d="M147 295h93l-4 -170q96 -53 255 -53t222 68t63 166q0 99 -81 145q-53 30 -142 55l-145 37q-193 49 -243 160q-24 52 -24 122q0 123 92 215t277 92t313 -61v-231h-88l-4 164q-74 39 -211 38q-272 0 -272 -196q0 -94 57 -139t162 -74l129 -35q78 -23 119 -38t86 -48
q80 -59 81 -202q2 -144 -98 -236t-299 -92t-338 69v244z" />
    <glyph glyph-name="Scaron.sc" unicode="&#xe02d;" horiz-adv-x="1024" 
d="M459 1184l-250 282l72 62l227 -262l240 262l67 -62l-258 -282h-98zM147 295h93l-4 -170q96 -53 255 -53t222 68t63 166q0 99 -81 145q-53 30 -142 55l-145 37q-193 49 -243 160q-24 52 -24 122q0 123 92 215t277 92t313 -61v-231h-88l-4 164q-74 39 -211 38
q-272 0 -272 -196q0 -94 57 -139t162 -74l129 -35q78 -23 119 -38t86 -48q80 -59 81 -202q2 -144 -98 -236t-299 -92t-338 69v244z" />
    <glyph glyph-name="T.sc" unicode="&#xe02e;" 
d="M786 90v-90h-440v90h164l6 934h-338l-10 -180h-90l10 270h963l10 -270h-90l-10 180h-338l-7 -934h170z" />
    <glyph glyph-name="Thorn.sc" unicode="&#xe02f;" horiz-adv-x="985" 
d="M514 356q276 0 277 254q-1 106 -59 166t-175 60h-180l-2 -480h139zM102 0v90h164l6 934h-170v90h441v-90h-164l-2 -98h166q362 0 362 -316q0 -152 -101 -248t-276 -96h-153l-2 -176h170v-90h-441z" />
    <glyph glyph-name="U.sc" unicode="&#xe030;" horiz-adv-x="1327" 
d="M827 1024v90h414v-90h-145l-6 -582q-4 -244 -98 -352t-315 -108q-220 0 -324 89q-103 89 -103 289l6 664h-170v90h422v-90h-146l-6 -625q0 -182 76 -255q76 -72 248 -72t241 90t70 268l6 594h-170z" />
    <glyph glyph-name="Uacute.sc" unicode="&#xe031;" horiz-adv-x="1327" 
d="M569 1180l-71 55l356 313l70 -63zM827 1024v90h414v-90h-145l-6 -582q-4 -244 -98 -352t-315 -108q-220 0 -324 89q-103 89 -103 289l6 664h-170v90h422v-90h-146l-6 -625q0 -182 76 -255q76 -72 248 -72t241 90t70 268l6 594h-170z" />
    <glyph glyph-name="Ucircumflex.sc" unicode="&#xe032;" horiz-adv-x="1327" 
d="M895 1184l-227 262l-240 -262l-68 61l258 283h99l250 -283zM827 1024v90h414v-90h-145l-6 -582q-4 -244 -98 -352t-315 -108q-220 0 -324 89q-103 89 -103 289l6 664h-170v90h422v-90h-146l-6 -625q0 -182 76 -255q76 -72 248 -72t241 90t70 268l6 594h-170z" />
    <glyph glyph-name="Udieresis.sc" unicode="&#xe033;" horiz-adv-x="1327" 
d="M356 1348q0 42 26 70t64 28t65 -29q26 -29 26 -69t-26 -70q-26 -29 -65 -29q-38 0 -64 29t-26 70zM791 1348q-1 42 25 70t65 28t65 -29t25 -69q0 -40 -26 -70q-27 -29 -65 -29t-64 29q-25 29 -25 70zM827 1024v90h414v-90h-145l-6 -582q-4 -244 -98 -352t-315 -108
q-220 0 -324 89q-103 89 -103 289l6 664h-170v90h422v-90h-146l-6 -625q0 -182 76 -255q76 -72 248 -72t241 90t70 268l6 594h-170z" />
    <glyph glyph-name="Ugrave.sc" unicode="&#xe034;" horiz-adv-x="1327" 
d="M758 1180l-355 305l70 63l356 -313zM827 1024v90h414v-90h-145l-6 -582q-4 -244 -98 -352t-315 -108q-220 0 -324 89q-103 89 -103 289l6 664h-170v90h422v-90h-146l-6 -625q0 -182 76 -255q76 -72 248 -72t241 90t70 268l6 594h-170z" />
    <glyph glyph-name="V.sc" unicode="&#xe035;" horiz-adv-x="1214" 
d="M18 1024v90h416v-90h-153l299 -807q18 -51 36 -119h5q8 45 32 113l303 813h-176v90h416v-90h-125l-403 -1024h-115l-395 1024h-140z" />
    <glyph glyph-name="W.sc" unicode="&#xe036;" horiz-adv-x="1781" 
d="M39 1024v90h416v-90h-162l266 -803q25 -70 35 -123h4q10 53 39 121l227 592l-69 213h-129v90h415v-90h-172l258 -813q20 -74 29 -113h4q14 68 31 113l278 813h-182v90h416v-90h-127l-361 -1024h-122l-222 680h-4l-258 -680h-114l-357 1024h-139z" />
    <glyph glyph-name="X.sc" unicode="&#xe037;" horiz-adv-x="1214" 
d="M59 0v90h138l352 475l-328 459h-145v90h416v-90h-164q43 -47 96 -117l186 -258l207 275q14 20 84 100h-182v90h416v-90h-127l-336 -459l338 -475h145v-90h-416v90h156q-50 50 -80 90l-213 301l-207 -288q-33 -43 -92 -103h172v-90h-416z" />
    <glyph glyph-name="Y.sc" unicode="&#xe038;" horiz-adv-x="1251" 
d="M406 0v90h163l2 404l-381 530h-139v90h416v-90h-162q70 -82 88 -109l232 -325l252 338q47 59 81 96h-161v90h403v-90h-139l-383 -522l-2 -412h170v-90h-440z" />
    <glyph glyph-name="Yacute.sc" unicode="&#xe039;" horiz-adv-x="1251" 
d="M532 1180l-71 55l356 313l70 -63zM406 0v90h163l2 404l-381 530h-139v90h416v-90h-162q70 -82 88 -109l232 -325l252 338q47 59 81 96h-161v90h403v-90h-139l-383 -522l-2 -412h170v-90h-440z" />
    <glyph glyph-name="Ydieresis.sc" unicode="&#xe03a;" horiz-adv-x="1251" 
d="M319 1348q0 42 26 70t65 28q38 0 64 -29t26 -69t-26 -70q-26 -29 -64 -29t-65 29q-26 29 -26 70zM754 1348q0 42 26 70t64 28t64 -29t26 -69t-26 -70q-26 -29 -64 -29t-65 29q-25 29 -25 70zM406 0v90h163l2 404l-381 530h-139v90h416v-90h-162q70 -82 88 -109l232 -325
l252 338q47 59 81 96h-161v90h403v-90h-139l-383 -522l-2 -412h170v-90h-440z" />
    <glyph glyph-name="Z.sc" unicode="&#xe03b;" horiz-adv-x="1062" 
d="M102 0v90l650 840q45 61 82 94h-603l-12 -170h-92l16 260h805v-90l-641 -836q-20 -29 -90 -98h637l16 178h91l-17 -268h-842z" />
    <glyph glyph-name="Zcaron.sc" unicode="&#xe03c;" horiz-adv-x="1062" 
d="M479 1184l-250 282l72 62l227 -262l240 262l68 -62l-258 -282h-99zM102 0v90l650 840q45 61 82 94h-603l-12 -170h-92l16 260h805v-90l-641 -836q-20 -29 -90 -98h637l16 178h91l-17 -268h-842z" />
    <glyph glyph-name="germandbls.sc" unicode="&#xe03f;" horiz-adv-x="2048" 
d="M147 295h93l-4 -170q96 -53 255 -53t222 68t63 166q0 99 -81 145q-53 30 -142 55l-145 37q-193 49 -243 160q-24 52 -24 122q0 123 92 215t277 92t313 -61v-231h-88l-4 164q-74 39 -211 38q-272 0 -272 -196q0 -94 57 -139t162 -74l129 -35q78 -23 119 -38t86 -48
q80 -59 81 -202q2 -144 -98 -236t-299 -92t-338 69v244zM1171 295h93l-4 -170q96 -53 255 -53t222 68t63 166q0 99 -81 145q-53 30 -142 55l-145 37q-193 49 -243 160q-24 52 -24 122q0 123 92 215t277 92t313 -61v-231h-88l-4 164q-74 39 -211 38q-272 0 -272 -196
q0 -94 57 -139t162 -74l129 -35q78 -23 119 -38t86 -48q80 -59 81 -202q2 -144 -98 -236t-299 -92t-338 69v244z" />
    <glyph glyph-name="zero.taboldstyle" unicode="&#xf643;" 
d="M1063 534q0 -248 -136 -404t-365 -155q-230 1 -358 147t-128 393t136 403t364 155q228 0 358 -146q129 -145 129 -393zM569 983q-137 0 -228 -72t-125 -170t-34 -217t34 -217t125 -170q91 -71 228 -71t229 71q91 72 125 170t33 217q0 119 -33 217q-34 98 -125 170
q-92 72 -229 72z" />
    <glyph glyph-name="one.taboldstyle" unicode="&#xf644;" 
d="M301 0v90h211l6 868h-217v91h535v-91h-211l-7 -868h218v-90h-535z" />
    <glyph glyph-name="two.taboldstyle" unicode="&#xf645;" 
d="M150 0v84q498 334 601 505q48 81 48 172t-66 152q-67 61 -181 61t-188 -62q-74 -64 -90 -189h-106q14 160 118 255t275 95q172 0 262 -91t90 -226q-1 -172 -151 -324t-461 -338v-4h688v-90h-839z" />
    <glyph glyph-name="three.taboldstyle" unicode="&#xf646;" 
d="M338 293v98h61q190 0 315 92q124 92 124 248q0 109 -68 177t-195 67q-258 0 -296 -246h-107q53 344 412 344q188 0 278 -97q90 -96 90 -240t-98 -253t-248 -125v-4q193 -23 286 -124t93 -240q0 -174 -130 -287t-339 -113t-362 68l8 109q148 -78 334 -78t280 81t94 216
q0 307 -508 307h-24z" />
    <glyph glyph-name="four.taboldstyle" unicode="&#xf647;" 
d="M49 121v72l653 856h99l-17 -838h330v-90h-330v-500h-106v500h-629zM285 211h393l16 690l-4 4q-27 -61 -80 -131l-352 -463q-23 -31 -96 -104q61 4 123 4z" />
    <glyph glyph-name="five.taboldstyle" unicode="&#xf648;" 
d="M956 1049v-99h-600l-16 -444q649 -29 649 -447q0 -188 -134 -328t-388 -141q-135 0 -283 41l6 99q114 -41 246 -41q252 0 349 111q98 111 98 251q0 187 -162 273t-492 92l25 633h702z" />
    <glyph glyph-name="six.taboldstyle" unicode="&#xf649;" 
d="M901 434q0 150 -83 235t-228 85q-225 0 -344 -240q8 -181 76 -298q78 -142 264 -142q152 0 234 106q82 104 81 254zM618 852q182 0 286 -123t104 -307t-115 -314q-115 -132 -313 -132t-324 149q-125 150 -125 467q0 382 197 618t526 236q28 0 86 -4t68 -4l-11 -103
q-72 12 -159 13q-256 0 -418 -184t-182 -521l4 -4q59 97 161 155t215 58z" />
    <glyph glyph-name="seven.taboldstyle" unicode="&#xf64a;" 
d="M135 950v99h844v-76q-66 -127 -166 -355t-174 -391q-74 -162 -197 -347t-260 -302l-57 66q125 112 245 306t198 368q233 522 304 632h-737z" />
    <glyph glyph-name="eight.taboldstyle" unicode="&#xf64b;" 
d="M170 1090q0 140 98 248t305 108t301 -92t94 -216t-67 -212q-68 -90 -235 -178q202 -96 276 -184t74 -226q0 -137 -113 -250t-334 -113q-332 0 -424 235q-23 58 -22 118q0 117 80 213t264 194q-297 144 -297 355zM569 74q158 0 249 72t91 180t-71 189q-72 81 -269 175
q-197 -94 -269 -175t-71 -189q0 -108 91 -180t249 -72zM569 1356q-137 0 -215 -68t-78 -167t60 -169t233 -155q174 86 234 155q59 70 59 170t-78 166q-78 68 -215 68z" />
    <glyph glyph-name="nine.taboldstyle" unicode="&#xf64c;" 
d="M279 -295q147 0 264 55q117 56 189 154q144 196 169 492l-4 4q-59 -98 -161 -156t-216 -57q-182 0 -286 122q-103 123 -103 307t115 315q116 132 314 132q198 1 323 -149t125 -467q0 -375 -195 -613t-537 -237q-55 0 -116 4l6 104q47 -10 113 -10zM238 614
q0 -150 83 -234q83 -85 228 -85q225 0 344 240q-8 175 -76 298q-78 142 -264 142q-151 1 -233 -105t-82 -256z" />
    <glyph glyph-name="dollar.taboldstyle" unicode="&#xf653;" 
d="M938 377q0 205 -240 262l-88 20l-4 -581q135 4 234 82q98 78 98 217zM201 1068q0 -106 63 -165t180 -92l76 -20l4 565q-163 0 -264 -116q-59 -66 -59 -172zM86 1059q0 106 46 188t117 124q140 83 275 83l4 260h90l-4 -260q188 0 361 -57l-4 -262h-99l5 180
q-23 12 -107 26t-156 15l-4 -582l99 -24q344 -86 344 -363q0 -187 -129 -293t-318 -114l-4 -275h-90l4 275q-106 0 -240 18t-188 35l4 286h98l-4 -200q141 -41 330 -41l4 598l-78 18q-356 84 -356 365z" />
    <glyph glyph-name="cent.taboldstyle" unicode="&#xf654;" 
d="M987 766h-98v180q-88 31 -201 31l-4 -901q176 0 299 59v-104q-121 -53 -299 -54l-2 -251h-90l2 256q-215 20 -329 172q-113 152 -113 372t114 374q115 153 332 171l2 227h90l-2 -223q162 -2 299 -53v-256zM266 528q0 -188 83 -308t245 -140l4 893q-164 -18 -248 -138
q-84 -119 -84 -307z" />
    <glyph glyph-name="breve.sc" unicode="&#xf6f4;" horiz-adv-x="569" 
d="M286 1380q146 0 195 176l13 41l94 -32l-13 -47q-67 -228 -291 -228t-288 228l-14 47l94 32l12 -41q52 -176 198 -176z" />
    <glyph glyph-name="caron.sc" unicode="&#xf6f5;" horiz-adv-x="569" 
d="M231 1245l-249 283l71 61l228 -262l239 262l68 -61l-258 -283h-99z" />
    <glyph glyph-name="circumflex.sc" unicode="&#xf6f6;" horiz-adv-x="569" 
d="M516 1245l-227 262l-240 -262l-67 62l258 282h98l250 -282z" />
    <glyph glyph-name="dotaccent.sc" unicode="&#xf6f7;" horiz-adv-x="569" 
d="M195 1409q0 41 25 70q26 29 65 29t65 -30q26 -28 25 -69q0 -41 -26 -70q-27 -29 -65 -29t-64 29q-25 29 -25 70z" />
    <glyph glyph-name="hungarumlaut.sc" unicode="&#xf6f8;" horiz-adv-x="569" 
d="M395 1241l-71 55l356 314l70 -64zM-14 1241l-72 55l356 314l70 -64z" />
    <glyph glyph-name="lslash.sc" unicode="&#xf6f9;" horiz-adv-x="985" 
d="M102 0v90h164l4 356l-168 -120v106l168 121l2 471h-170v90h441v-90h-164l-2 -395l260 186v-106l-260 -187l-4 -432h442l6 178h90l-6 -268h-803z" />
    <glyph glyph-name="oe.sc" unicode="&#xf6fa;" horiz-adv-x="1705" 
d="M687 1034q-99 0 -194 -36t-147 -87t-93 -139q-42 -88 -42 -215q0 -225 123 -351t356 -126q17 0 205 10l6 930q-115 14 -214 14zM688 1133q61 1 136 -9t96 -10h600v-260h-90v170h-422l-4 -418h397v-90h-397l-3 -426h443l16 180h90l-16 -270h-592l-254 -18q-295 0 -443 162
q-149 162 -149 414q0 253 164 414t428 161z" />
    <glyph glyph-name="ogonek.sc" unicode="&#xf6fb;" horiz-adv-x="569" 
d="M313 -254q0 -143 201 -98l21 -70q-63 -14 -145 -14t-132 45q-51 45 -51 120t55 151t121 120h82q-152 -117 -152 -254z" />
    <glyph glyph-name="ring.sc" unicode="&#xf6fc;" horiz-adv-x="569" 
d="M180 1425q0 -47 29 -79t76 -33q47 0 75 33q28 34 29 80q0 46 -29 79q-30 33 -76 33t-75 -33t-29 -80zM98 1425q0 79 56 133t131 54q76 0 131 -54t55 -132t-55 -133q-55 -54 -131 -54q-75 0 -131 54t-56 132z" />
    <glyph glyph-name="scaron.sc" unicode="&#xf6fd;" horiz-adv-x="1024" 
d="M459 1184l-250 282l72 62l227 -262l240 262l67 -62l-258 -282h-98zM147 295h93l-4 -170q96 -53 255 -53t222 68t63 166q0 99 -81 145q-53 30 -142 55l-145 37q-193 49 -243 160q-24 52 -24 122q0 123 92 215t277 92t313 -61v-231h-88l-4 164q-74 39 -211 38
q-272 0 -272 -196q0 -94 57 -139t162 -74l129 -35q78 -23 119 -38t86 -48q80 -59 81 -202q2 -144 -98 -236t-299 -92t-338 69v244z" />
    <glyph glyph-name="tilde.sc" unicode="&#xf6fe;" horiz-adv-x="569" 
d="M418 1319q-58 0 -144 53t-134 53t-101 -77l-14 -21l-80 53l16 27q78 117 186 117q68 0 158 -51q84 -56 128 -56t104 70l16 22l72 -53l-19 -31q-78 -106 -188 -106z" />
    <glyph glyph-name="zcaron.sc" unicode="&#xf6ff;" horiz-adv-x="1062" 
d="M479 1184l-250 282l72 62l227 -262l240 262l68 -62l-258 -282h-99zM102 0v90l650 840q45 61 82 94h-603l-12 -170h-92l16 260h805v-90l-641 -836q-20 -29 -90 -98h637l16 178h91l-17 -268h-842z" />
    <glyph glyph-name="exclam.sc" unicode="&#xf721;" horiz-adv-x="647" 
d="M229 74q0 42 28 70t67 28q38 0 66 -29t28 -69t-28 -70q-28 -29 -66 -29t-67 29q-28 29 -28 70zM385 1575l-16 -1083h-90l-17 1083h123z" />
    <glyph glyph-name="ampersand.sc" unicode="&#xf726;" horiz-adv-x="1290" 
d="M225 305q0 -109 84 -171t211 -62q160 0 285 121l-389 372q-113 -76 -152 -133t-39 -127zM311 903q0 -55 27 -101t100 -118q111 72 149 126t38 106t-40 90q-40 36 -113 36t-117 -42t-44 -97zM1171 655v-90h-129q0 -203 -110 -358l31 -31q86 -86 144 -86q27 0 64 4v-90
q-45 -4 -73 -4q-84 0 -150 57l-78 70q-147 -145 -366 -145q-180 0 -283 92q-102 92 -102 202t54 188q54 79 181 161q-80 82 -110 138q-31 56 -31 120q0 119 76 185q77 66 193 65q116 1 178 -57t62 -143t-42 -150q-43 -65 -180 -158l364 -357q80 117 80 297h-149v90h376z" />
    <glyph glyph-name="question.sc" unicode="&#xf73f;" horiz-adv-x="1024" 
d="M307 74q0 42 27 70q28 28 68 28t67 -29t27 -69t-27 -70q-27 -29 -68 -29t-67 29t-27 70zM291 645q1 61 27 103t92 94l196 155q131 106 131 240q0 96 -69 176q-70 80 -197 80t-219 -39l-14 100q94 37 223 37q178 0 284 -97t107 -239q0 -182 -152 -305l-184 -149
q-41 -33 -58 -48q-16 -15 -34 -44t-18 -53q0 -63 49 -112l14 -14l-78 -69q-100 80 -100 184z" />
    <glyph glyph-name="grave.sc" unicode="&#xf760;" horiz-adv-x="569" 
d="M379 1241l-354 305l69 64l357 -314z" />
    <glyph glyph-name="a.sc" unicode="&#xf761;" horiz-adv-x="1214" 
d="M23 0v90h127l407 1024h123l371 -1024h141v-90h-416v90h160l-127 365h-416l-137 -365h160v-90h-393zM428 545h348l-135 389q-23 66 -29 106h-4q-6 -33 -33 -106z" />
    <glyph glyph-name="b.sc" unicode="&#xf762;" horiz-adv-x="1024" 
d="M555 90q151 0 219 60t68 158q0 96 -75 158t-230 62h-162l-2 -438h182zM496 618q112 0 190 56t78 164q0 186 -205 186h-180l-4 -406h121zM102 0v90h164l6 934h-170v90h443q157 0 241 -72t84 -196q0 -88 -50 -159t-154 -97v-4q134 -8 208 -80t74 -206t-95 -217t-300 -83
h-451z" />
    <glyph glyph-name="c.sc" unicode="&#xf763;" 
d="M96 557q0 262 169 419t437 157q203 0 318 -62v-250h-90v187q-113 35 -228 34q-242 0 -366 -132t-125 -353q0 -221 125 -353t366 -132q115 -6 222 20l6 213h90l-6 -285q-141 -39 -312 -38q-268 0 -437 156t-169 419z" />
    <glyph glyph-name="d.sc" unicode="&#xf764;" horiz-adv-x="1290" 
d="M602 90q223 0 354 124t131 344t-114 343q-115 123 -330 123h-264l-6 -934h229zM102 0v90h164l6 934h-170v90h523q291 0 430 -150t139 -394q0 -246 -148 -408t-450 -162h-494z" />
    <glyph glyph-name="e.sc" unicode="&#xf765;" horiz-adv-x="1062" 
d="M102 0v90h164l6 934h-170v90h789v-260h-90v170h-422l-4 -418h397v-90h-397l-2 -426h442l16 180h91l-17 -270h-803z" />
    <glyph glyph-name="f.sc" unicode="&#xf766;" horiz-adv-x="985" 
d="M102 0v90h164l6 934h-170v90h781v-268h-99v178h-405l-6 -438h430v-90h-430v-406h170v-90h-441z" />
    <glyph glyph-name="g.sc" unicode="&#xf767;" horiz-adv-x="1251" 
d="M1016 379v-359q-145 -39 -314 -38q-268 0 -437 156t-169 419q0 262 169 419t437 157q201 0 340 -60v-252h-90v187q-90 35 -250 34q-242 0 -366 -132t-125 -353q0 -221 125 -353t366 -132q121 -6 216 20v287h-175v90h420v-90h-147z" />
    <glyph glyph-name="h.sc" unicode="&#xf768;" horiz-adv-x="1366" 
d="M96 0v90h164l6 934h-170v90h441v-90h-164l-4 -418h626l4 418h-170v90h441v-90h-164l-6 -934h170v-90h-441v90h164l2 426h-626l-2 -426h170v-90h-441z" />
    <glyph glyph-name="i.sc" unicode="&#xf769;" horiz-adv-x="645" 
d="M102 0v90h164l6 934h-170v90h441v-90h-164l-6 -934h170v-90h-441z" />
    <glyph glyph-name="j.sc" unicode="&#xf76a;" horiz-adv-x="606" 
d="M102 1024v90h441v-90h-164l-6 -559q-2 -131 -8 -210q-16 -204 -106 -324q-91 -119 -302 -207l-31 75q206 88 268 212q47 93 57 188q11 94 15 268l6 557h-170z" />
    <glyph glyph-name="k.sc" unicode="&#xf76b;" horiz-adv-x="1214" 
d="M102 0v90h164l6 934h-170v90h441v-90h-164l-4 -434l508 434h-164v90h403v-90h-108l-527 -459l543 -475h123v-90h-426v90h154l-506 451l-2 -451h170v-90h-441z" />
    <glyph glyph-name="l.sc" unicode="&#xf76c;" horiz-adv-x="985" 
d="M102 0v90h164l6 934h-170v90h441v-90h-164l-6 -934h442l6 178h90l-6 -268h-803z" />
    <glyph glyph-name="m.sc" unicode="&#xf76d;" horiz-adv-x="1593" 
d="M102 0v90h164l6 934h-170v90h308l356 -887q25 -61 35 -112h4q10 51 35 112l344 887h307v-90h-170l6 -934h164v-90h-432v90h170l-6 860h-4q-10 -35 -43 -119l-328 -831h-98l-332 831q-33 84 -43 119h-4l-6 -860h170v-90h-433z" />
    <glyph glyph-name="n.sc" unicode="&#xf76e;" horiz-adv-x="1402" 
d="M96 0v90h164l6 934h-170v90h269l626 -846q41 -57 64 -104h4l6 860h-170v90h412v-90h-144l-6 -1024h-98l-608 827q-57 78 -76 123h-4l-4 -860h170v-90h-441z" />
    <glyph glyph-name="o.sc" unicode="&#xf76f;" horiz-adv-x="1251" 
d="M96 557q0 248 138 412t392 164t391 -164q138 -164 138 -412t-138 -412q-138 -163 -391 -163t-392 163q-138 164 -138 412zM211 557q0 -217 114 -347t301 -130t301 130t113 347q0 217 -113 347q-114 130 -301 130t-301 -130t-114 -347z" />
    <glyph glyph-name="p.sc" unicode="&#xf770;" horiz-adv-x="985" 
d="M102 0v90h164l6 934h-170v90h441q362 0 362 -315q0 -152 -101 -248t-276 -96h-153l-2 -365h170v-90h-441zM514 545q276 0 277 254q-1 105 -59 165t-175 60h-178l-4 -479h139z" />
    <glyph glyph-name="q.sc" unicode="&#xf771;" horiz-adv-x="1251" 
d="M1254 -276q-82 0 -190 38t-186 84q-207 126 -346 138q-166 12 -302 159t-135 405t156 422q155 163 391 163t375 -164q138 -164 138 -412q0 -201 -102 -359t-281 -200v-4q68 -10 148 -54t169 -81t197 -37l80 4v-90q-30 -12 -112 -12zM211 557q0 -217 114 -347t301 -130
t301 130t113 347q0 217 -113 347q-114 130 -301 130t-301 -130t-114 -347z" />
    <glyph glyph-name="r.sc" unicode="&#xf772;" horiz-adv-x="1099" 
d="M102 0v90h164l6 934h-170v90h473q147 0 229 -78t83 -205q0 -127 -75 -203t-183 -89v-4q41 -18 67 -43t60 -82l127 -220q39 -68 63 -84t65 -16q42 0 58 6v-90q-33 -6 -85 -6t-92 22t-79 89l-156 258q-47 79 -82 103t-92 24h-108l-2 -406h170v-90h-441zM506 586
q141 0 208 68t66 171q0 199 -207 199h-194l-4 -438h131z" />
    <glyph glyph-name="s.sc" unicode="&#xf773;" horiz-adv-x="1024" 
d="M147 295h93l-4 -170q96 -53 255 -53t222 68t63 166q0 99 -81 145q-53 30 -142 55l-145 37q-193 49 -243 160q-24 52 -24 122q0 123 92 215t277 92t313 -61v-231h-88l-4 164q-74 39 -211 38q-272 0 -272 -196q0 -94 57 -139t162 -74l129 -35q78 -23 119 -38t86 -48
q80 -59 81 -202q2 -144 -98 -236t-299 -92t-338 69v244z" />
    <glyph glyph-name="t.sc" unicode="&#xf774;" 
d="M786 90v-90h-440v90h164l6 934h-338l-10 -180h-90l10 270h963l10 -270h-90l-10 180h-338l-7 -934h170z" />
    <glyph glyph-name="u.sc" unicode="&#xf775;" horiz-adv-x="1327" 
d="M827 1024v90h414v-90h-145l-6 -582q-4 -244 -98 -352t-315 -108q-220 0 -324 89q-103 89 -103 289l6 664h-170v90h422v-90h-146l-6 -625q0 -182 76 -255q76 -72 248 -72t241 90t70 268l6 594h-170z" />
    <glyph glyph-name="v.sc" unicode="&#xf776;" horiz-adv-x="1214" 
d="M18 1024v90h416v-90h-153l299 -807q18 -51 36 -119h5q8 45 32 113l303 813h-176v90h416v-90h-125l-403 -1024h-115l-395 1024h-140z" />
    <glyph glyph-name="w.sc" unicode="&#xf777;" horiz-adv-x="1781" 
d="M39 1024v90h416v-90h-162l266 -803q25 -70 35 -123h4q10 53 39 121l227 592l-69 213h-129v90h415v-90h-172l258 -813q20 -74 29 -113h4q14 68 31 113l278 813h-182v90h416v-90h-127l-361 -1024h-122l-222 680h-4l-258 -680h-114l-357 1024h-139z" />
    <glyph glyph-name="x.sc" unicode="&#xf778;" horiz-adv-x="1214" 
d="M59 0v90h138l352 475l-328 459h-145v90h416v-90h-164q43 -47 96 -117l186 -258l207 275q14 20 84 100h-182v90h416v-90h-127l-336 -459l338 -475h145v-90h-416v90h156q-50 50 -80 90l-213 301l-207 -288q-33 -43 -92 -103h172v-90h-416z" />
    <glyph glyph-name="y.sc" unicode="&#xf779;" horiz-adv-x="1251" 
d="M406 0v90h163l2 404l-381 530h-139v90h416v-90h-162q70 -82 88 -109l232 -325l252 338q47 59 81 96h-161v90h403v-90h-139l-383 -522l-2 -412h170v-90h-440z" />
    <glyph glyph-name="z.sc" unicode="&#xf77a;" horiz-adv-x="1062" 
d="M102 0v90l650 840q45 61 82 94h-603l-12 -170h-92l16 260h805v-90l-641 -836q-20 -29 -90 -98h637l16 178h91l-17 -268h-842z" />
    <glyph glyph-name="exclamdown.sc" unicode="&#xf7a1;" horiz-adv-x="647" 
d="M418 1004q0 -41 -28 -70t-66 -29t-67 29q-28 29 -28 70q0 42 28 70t67 28q38 0 66 -28t28 -70zM262 -498l17 1084h90l16 -1084h-123z" />
    <glyph glyph-name="dieresis.sc" unicode="&#xf7a8;" horiz-adv-x="569" 
d="M-23 1409q0 41 26 70t65 29q38 0 64 -30q26 -28 26 -69t-26 -70t-64 -29t-65 30q-26 28 -26 69zM412 1409q0 41 25 70q26 29 65 29q38 0 64 -30q26 -28 26 -69t-26 -70t-64 -29t-65 29q-25 29 -25 70z" />
    <glyph glyph-name="macron.sc" unicode="&#xf7af;" horiz-adv-x="569" 
d="M16 1382v91h537v-91h-537z" />
    <glyph glyph-name="acute.sc" unicode="&#xf7b4;" horiz-adv-x="569" 
d="M190 1241l-71 55l356 314l70 -64z" />
    <glyph glyph-name="cedilla.sc" unicode="&#xf7b8;" horiz-adv-x="569" 
d="M260 16h82v-147h27q59 0 104 -39q45 -40 45 -108t-51 -113t-155 -45t-195 37l14 73q88 -37 162 -36q119 0 119 81q0 76 -111 76h-41v221z" />
    <glyph glyph-name="questiondown.sc" unicode="&#xf7bf;" horiz-adv-x="1024" 
d="M717 1004q0 -41 -27 -70q-28 -29 -68 -29t-67 29t-27 70q0 42 27 70t68 28t67 -28t27 -70zM733 432q-1 -61 -27 -102t-92 -94l-196 -156q-131 -106 -131 -240q-1 -96 69 -176t197 -80t219 39l14 -100q-94 -37 -223 -37q-178 0 -284 97t-107 239q0 182 152 305l184 149
q41 32 58 48q52 47 52 95q0 65 -47 112l-16 16l78 69q100 -80 100 -184z" />
    <glyph glyph-name="agrave.sc" unicode="&#xf7e0;" horiz-adv-x="1214" 
d="M702 1180l-354 305l70 63l356 -313zM23 0v90h127l407 1024h123l371 -1024h141v-90h-416v90h160l-127 365h-416l-137 -365h160v-90h-393zM428 545h348l-135 389q-23 66 -29 106h-4q-6 -33 -33 -106z" />
    <glyph glyph-name="aacute.sc" unicode="&#xf7e1;" horiz-adv-x="1214" 
d="M514 1180l-72 55l357 313l69 -63zM23 0v90h127l407 1024h123l371 -1024h141v-90h-416v90h160l-127 365h-416l-137 -365h160v-90h-393zM428 545h348l-135 389q-23 66 -29 106h-4q-6 -33 -33 -106z" />
    <glyph glyph-name="acircumflex.sc" unicode="&#xf7e2;" horiz-adv-x="1214" 
d="M840 1184l-228 262l-239 -262l-68 61l258 283h99l249 -283zM23 0v90h127l407 1024h123l371 -1024h141v-90h-416v90h160l-127 365h-416l-137 -365h160v-90h-393zM428 545h348l-135 389q-23 66 -29 106h-4q-6 -33 -33 -106z" />
    <glyph glyph-name="atilde.sc" unicode="&#xf7e3;" horiz-adv-x="1214" 
d="M464 1364q-48 0 -102 -78l-14 -20l-80 53l17 27q78 117 186 116q68 0 158 -51q82 -55 127 -55t104 69l17 23l71 -53l-18 -31q-78 -106 -189 -107q-59 -1 -144 53t-133 54zM23 0v90h127l407 1024h123l371 -1024h141v-90h-416v90h160l-127 365h-416l-137 -365h160v-90h-393
zM428 545h348l-135 389q-23 66 -29 106h-4q-6 -33 -33 -106z" />
    <glyph glyph-name="adieresis.sc" unicode="&#xf7e4;" horiz-adv-x="1214" 
d="M301 1348q0 42 26 70q27 28 65 28t64 -29t26 -69t-26 -70q-26 -29 -65 -29t-65 29t-25 70zM735 1348q0 42 26 70q27 28 65 28t64 -29t26 -69t-26 -70q-26 -29 -65 -29t-65 29t-25 70zM23 0v90h127l407 1024h123l371 -1024h141v-90h-416v90h160l-127 365h-416l-137 -365
h160v-90h-393zM428 545h348l-135 389q-23 66 -29 106h-4q-6 -33 -33 -106z" />
    <glyph glyph-name="aring.sc" unicode="&#xf7e5;" horiz-adv-x="1214" 
d="M504 1354q0 -47 28 -80t76 -33q47 0 76 33t29 80t-29 80q-29 32 -76 32t-76 -32q-28 -33 -28 -80zM422 1354q0 76 55 131t131 55t131 -55t55 -131t-54 -131q-56 -55 -132 -55t-131 54q-55 56 -55 132zM23 0v90h127l407 1024h123l371 -1024h141v-90h-416v90h160l-127 365
h-416l-137 -365h160v-90h-393zM428 545h348l-135 389q-23 66 -29 106h-4q-6 -33 -33 -106z" />
    <glyph glyph-name="ae.sc" unicode="&#xf7e6;" horiz-adv-x="1669" 
d="M872 586l7 438h-117l-238 -438h348zM1380 586v-90h-401v-406h442l17 180h90l-17 -270h-802v90h163v406h-399l-221 -406h160v-90h-404v90h137l568 1024h755l7 -258h-91l-6 168h-393l-6 -438h401z" />
    <glyph glyph-name="ccedilla.sc" unicode="&#xf7e7;" 
d="M719 -131h26q59 0 105 -39q46 -40 45 -108q0 -68 -51 -113t-155 -45t-195 37l14 73q88 -37 162 -36q119 0 118 81q0 76 -110 76h-41v187q-241 22 -391 176t-150 408t169 410q169 157 437 157q203 0 318 -62v-250h-90v187q-113 35 -228 34q-242 0 -366 -132t-125 -353
q0 -221 125 -353t366 -132q115 -6 222 20l6 213h90l-6 -285q-137 -37 -295 -38v-113z" />
    <glyph glyph-name="egrave.sc" unicode="&#xf7e8;" horiz-adv-x="1062" 
d="M651 1180l-354 305l70 63l356 -313zM102 0v90h164l6 934h-170v90h789v-260h-90v170h-422l-4 -418h397v-90h-397l-2 -426h442l16 180h91l-17 -270h-803z" />
    <glyph glyph-name="eacute.sc" unicode="&#xf7e9;" horiz-adv-x="1062" 
d="M479 1180l-71 55l356 313l70 -63zM102 0v90h164l6 934h-170v90h789v-260h-90v170h-422l-4 -418h397v-90h-397l-2 -426h442l16 180h91l-17 -270h-803z" />
    <glyph glyph-name="ecircumflex.sc" unicode="&#xf7ea;" horiz-adv-x="1062" 
d="M764 1184l-227 262l-240 -262l-68 61l258 283h99l250 -283zM102 0v90h164l6 934h-170v90h789v-260h-90v170h-422l-4 -418h397v-90h-397l-2 -426h442l16 180h91l-17 -270h-803z" />
    <glyph glyph-name="edieresis.sc" unicode="&#xf7eb;" horiz-adv-x="1062" 
d="M225 1348q0 42 26 70q27 28 65 28t64 -29t26 -69t-26 -70q-26 -29 -65 -29t-65 29t-25 70zM659 1348q0 42 26 70t65 28q38 0 64 -29t26 -69t-26 -70q-26 -29 -64 -29t-65 29q-26 29 -26 70zM102 0v90h164l6 934h-170v90h789v-260h-90v170h-422l-4 -418h397v-90h-397
l-2 -426h442l16 180h91l-17 -270h-803z" />
    <glyph glyph-name="igrave.sc" unicode="&#xf7ec;" horiz-adv-x="645" 
d="M418 1180l-355 305l70 63l356 -313zM102 0v90h164l6 934h-170v90h441v-90h-164l-6 -934h170v-90h-441z" />
    <glyph glyph-name="iacute.sc" unicode="&#xf7ed;" horiz-adv-x="645" 
d="M229 1180l-71 55l356 313l70 -63zM102 0v90h164l6 934h-170v90h441v-90h-164l-6 -934h170v-90h-441z" />
    <glyph glyph-name="icircumflex.sc" unicode="&#xf7ee;" horiz-adv-x="645" 
d="M555 1184l-227 262l-240 -262l-68 61l259 283h98l250 -283zM102 0v90h164l6 934h-170v90h441v-90h-164l-6 -934h170v-90h-441z" />
    <glyph glyph-name="idieresis.sc" unicode="&#xf7ef;" horiz-adv-x="645" 
d="M6 1348q0 42 26 70t64 28t65 -29q25 -29 25 -69t-26 -70q-26 -29 -64 -29t-64 29t-26 70zM440 1348q0 42 26 70t64 28t65 -29q26 -29 26 -69t-26 -70q-26 -29 -65 -29q-38 0 -64 29t-26 70zM102 0v90h164l6 934h-170v90h441v-90h-164l-6 -934h170v-90h-441z" />
    <glyph glyph-name="eth.sc" unicode="&#xf7f0;" horiz-adv-x="1290" 
d="M705 618v-90h-330l-2 -438h229q223 0 354 124t131 344t-114 343q-115 123 -330 123h-264l-4 -406h330zM102 528v90h166l4 406h-170v90h523q291 0 430 -150t139 -394q0 -246 -148 -408t-450 -162h-494v90h164l2 438h-166z" />
    <glyph glyph-name="ntilde.sc" unicode="&#xf7f1;" horiz-adv-x="1402" 
d="M558 1364q-48 0 -101 -78l-15 -20l-80 53l17 27q78 117 186 116q68 0 158 -51q7 -4 25 -15q18 -12 25 -16q38 -25 80 -24q42 0 101 69l17 23l71 -53l-18 -31q-78 -106 -188 -107q-58 -1 -144 53t-134 54zM96 0v90h164l6 934h-170v90h269l626 -846q41 -57 64 -104h4l6 860
h-170v90h412v-90h-144l-6 -1024h-98l-608 827q-57 78 -76 123h-4l-4 -860h170v-90h-441z" />
    <glyph glyph-name="ograve.sc" unicode="&#xf7f2;" horiz-adv-x="1251" 
d="M721 1180l-354 305l69 63l357 -313zM96 557q0 248 138 412t392 164t391 -164q138 -164 138 -412t-138 -412q-138 -163 -391 -163t-392 163q-138 164 -138 412zM211 557q0 -217 114 -347t301 -130t301 130t113 347q0 217 -113 347q-114 130 -301 130t-301 -130t-114 -347z
" />
    <glyph glyph-name="oacute.sc" unicode="&#xf7f3;" horiz-adv-x="1251" 
d="M532 1180l-71 55l356 313l70 -63zM96 557q0 248 138 412t392 164t391 -164q138 -164 138 -412t-138 -412q-138 -163 -391 -163t-392 163q-138 164 -138 412zM211 557q0 -217 114 -347t301 -130t301 130t113 347q0 217 -113 347q-114 130 -301 130t-301 -130t-114 -347z
" />
    <glyph glyph-name="ocircumflex.sc" unicode="&#xf7f4;" horiz-adv-x="1251" 
d="M858 1184l-227 262l-240 -262l-67 61l258 283h98l250 -283zM96 557q0 248 138 412t392 164t391 -164q138 -164 138 -412t-138 -412q-138 -163 -391 -163t-392 163q-138 164 -138 412zM211 557q0 -217 114 -347t301 -130t301 130t113 347q0 217 -113 347
q-114 130 -301 130t-301 -130t-114 -347z" />
    <glyph glyph-name="otilde.sc" unicode="&#xf7f5;" horiz-adv-x="1251" 
d="M482 1364q-48 0 -101 -78l-14 -20l-80 53l16 27q78 117 186 116q68 0 158 -51q7 -4 25 -15q18 -12 25 -16q38 -24 80 -24t102 69l16 23l72 -53l-19 -31q-78 -106 -188 -107q-58 -1 -144 53t-134 54zM96 557q0 248 138 412t392 164t391 -164q138 -164 138 -412t-138 -412
q-138 -163 -391 -163t-392 163q-138 164 -138 412zM211 557q0 -217 114 -347t301 -130t301 130t113 347q0 217 -113 347q-114 130 -301 130t-301 -130t-114 -347z" />
    <glyph glyph-name="odieresis.sc" unicode="&#xf7f6;" horiz-adv-x="1251" 
d="M319 1348q0 42 26 70t65 28q38 0 64 -29t26 -69t-26 -70q-26 -29 -64 -29t-65 29q-26 29 -26 70zM754 1348q0 42 26 70t64 28t64 -29t26 -69t-26 -70q-26 -29 -64 -29t-65 29q-25 29 -25 70zM96 557q0 248 138 412t392 164t391 -164q138 -164 138 -412t-138 -412
q-138 -163 -391 -163t-392 163q-138 164 -138 412zM211 557q0 -217 114 -347t301 -130t301 130t113 347q0 217 -113 347q-114 130 -301 130t-301 -130t-114 -347z" />
    <glyph glyph-name="oslash.sc" unicode="&#xf7f8;" horiz-adv-x="1251" 
d="M625 80q188 0 302 130q113 130 113 358t-137 362l-479 -799q86 -51 201 -51zM96 557q0 250 155 413t376 163q143 0 254 -58l127 211l79 -49l-129 -213q197 -160 197 -467q0 -250 -155 -413t-375 -162q-145 0 -254 59l-127 -213l-80 49l129 213q-197 160 -197 467z
M627 1034q-188 0 -302 -130t-114 -358t137 -362l479 801q-88 49 -200 49z" />
    <glyph glyph-name="ugrave.sc" unicode="&#xf7f9;" horiz-adv-x="1327" 
d="M758 1180l-355 305l70 63l356 -313zM827 1024v90h414v-90h-145l-6 -582q-4 -244 -98 -352t-315 -108q-220 0 -324 89q-103 89 -103 289l6 664h-170v90h422v-90h-146l-6 -625q0 -182 76 -255q76 -72 248 -72t241 90t70 268l6 594h-170z" />
    <glyph glyph-name="uacute.sc" unicode="&#xf7fa;" horiz-adv-x="1327" 
d="M569 1180l-71 55l356 313l70 -63zM827 1024v90h414v-90h-145l-6 -582q-4 -244 -98 -352t-315 -108q-220 0 -324 89q-103 89 -103 289l6 664h-170v90h422v-90h-146l-6 -625q0 -182 76 -255q76 -72 248 -72t241 90t70 268l6 594h-170z" />
    <glyph glyph-name="ucircumflex.sc" unicode="&#xf7fb;" horiz-adv-x="1327" 
d="M895 1184l-227 262l-240 -262l-68 61l258 283h99l250 -283zM827 1024v90h414v-90h-145l-6 -582q-4 -244 -98 -352t-315 -108q-220 0 -324 89q-103 89 -103 289l6 664h-170v90h422v-90h-146l-6 -625q0 -182 76 -255q76 -72 248 -72t241 90t70 268l6 594h-170z" />
    <glyph glyph-name="udieresis.sc" unicode="&#xf7fc;" horiz-adv-x="1327" 
d="M356 1348q0 42 26 70t64 28t65 -29q26 -29 26 -69t-26 -70q-26 -29 -65 -29q-38 0 -64 29t-26 70zM791 1348q-1 42 25 70t65 28t65 -29t25 -69q0 -40 -26 -70q-27 -29 -65 -29t-64 29q-25 29 -25 70zM827 1024v90h414v-90h-145l-6 -582q-4 -244 -98 -352t-315 -108
q-220 0 -324 89q-103 89 -103 289l6 664h-170v90h422v-90h-146l-6 -625q0 -182 76 -255q76 -72 248 -72t241 90t70 268l6 594h-170z" />
    <glyph glyph-name="yacute.sc" unicode="&#xf7fd;" horiz-adv-x="1251" 
d="M532 1180l-71 55l356 313l70 -63zM406 0v90h163l2 404l-381 530h-139v90h416v-90h-162q70 -82 88 -109l232 -325l252 338q47 59 81 96h-161v90h403v-90h-139l-383 -522l-2 -412h170v-90h-440z" />
    <glyph glyph-name="thorn.sc" unicode="&#xf7fe;" horiz-adv-x="985" 
d="M514 356q276 0 277 254q-1 106 -59 166t-175 60h-180l-2 -480h139zM102 0v90h164l6 934h-170v90h441v-90h-164l-2 -98h166q362 0 362 -316q0 -152 -101 -248t-276 -96h-153l-2 -176h170v-90h-441z" />
    <glyph glyph-name="ydieresis.sc" unicode="&#xf7ff;" horiz-adv-x="1251" 
d="M319 1348q0 42 26 70t65 28q38 0 64 -29t26 -69t-26 -70q-26 -29 -64 -29t-65 29q-26 29 -26 70zM754 1348q0 42 26 70t64 28t64 -29t26 -69t-26 -70q-26 -29 -64 -29t-65 29q-25 29 -25 70zM406 0v90h163l2 404l-381 530h-139v90h416v-90h-162q70 -82 88 -109l232 -325
l252 338q47 59 81 96h-161v90h403v-90h-139l-383 -522l-2 -412h170v-90h-440z" />
    <glyph glyph-name="fi" unicode="&#xfb01;" horiz-adv-x="1251" 
d="M715 0v90h186l8 873h-520l-4 -873h186v-90h-471v90h179l4 873h-226v90h226l2 176q4 172 114 267q111 95 301 95q131 0 258 -30v-97q-92 37 -248 37t-236 -78q-79 -78 -83 -206l-2 -164h627l-8 -963h186v-90h-479z" />
    <glyph glyph-name="fl" unicode="&#xfb02;" horiz-adv-x="1290" 
d="M762 0v90h176l8 1378q-88 33 -240 33t-232 -78q-79 -78 -83 -206l-2 -164h318v-90h-318l-4 -873h186v-90h-471v90h179l4 873h-226v90h226l2 176q4 172 114 267q111 95 301 95q139 0 258 -28l95 12l-9 -1485h177v-90h-459z" />
    <glyph glyph-name="one.superior" horiz-adv-x="681" 
d="M180 582v73h182l5 709l-240 -145l-37 63l291 172h76l-4 -799h184v-73h-457z" />
    <glyph glyph-name="two.superior" horiz-adv-x="681" 
d="M649 655v-73h-567v77l244 222q215 193 215 338q0 73 -49 117t-114 44q-110 0 -156 -58t-46 -108h-98q0 54 45 131q65 109 269 109q112 0 180 -66t67 -165q0 -166 -246 -389l-205 -187v-4l88 12h373z" />
    <glyph glyph-name="three.superior" horiz-adv-x="681" 
d="M316 639q100 0 168 48t67 136q0 88 -69 124t-226 36h-18v74h18q139 0 213 77q45 46 45 112t-45 100t-130 34t-124 -46t-39 -97h-98q0 81 70 149t200 68q131 0 198 -56q66 -56 66 -144t-59 -144q-59 -57 -139 -78v-4q86 -4 160 -54t75 -161q0 -111 -89 -179
q-90 -68 -234 -69q-144 0 -234 43v82q124 -51 224 -51z" />
    <glyph glyph-name="dotlessi.sc" horiz-adv-x="645" 
d="M102 0v90h164l6 934h-170v90h441v-90h-164l-6 -934h170v-90h-441z" />
    <glyph glyph-name="a.superior" horiz-adv-x="704" 
d="M164 977q0 -49 40 -81t118 -32t138 58t60 139v49l-170 -8q-186 -10 -186 -125zM709 872v-57h-191q0 49 14 143h-6q-57 -160 -225 -159q-102 0 -165 45q-62 45 -62 131t66 131q67 45 179 51l201 12l4 60q2 78 -35 119t-130 41t-173 -25l-4 -100h-65l4 145q31 13 103 29
t132 16q252 0 248 -223l-4 -359h109z" />
    <glyph glyph-name="o.superior" horiz-adv-x="704" 
d="M352 799q-156 0 -240 93t-83 234q0 140 85 234q84 94 238 94t239 -93t85 -235t-84 -234q-84 -93 -240 -93zM119 1126q0 -118 61 -190t172 -72t172 73q62 73 62 189t-62 190q-62 73 -172 73q-109 0 -171 -73t-62 -190z" />
    <glyph glyph-name="fi.sc" horiz-adv-x="1630" 
d="M1087 0v90h164l6 934h-170v90h441v-90h-164l-6 -934h170v-90h-441zM102 0v90h164l6 934h-170v90h781v-268h-99v178h-405l-6 -438h430v-90h-430v-406h170v-90h-441z" />
    <glyph glyph-name="fl.sc" horiz-adv-x="1970" 
d="M1087 0v90h164l6 934h-170v90h441v-90h-164l-6 -934h442l6 178h90l-6 -268h-803zM102 0v90h164l6 934h-170v90h781v-268h-99v178h-405l-6 -438h430v-90h-430v-406h170v-90h-441z" />
    </font>
</defs>
</svg>
