<?xml version="1.0" standalone="no"?>
<!DOCTYPE svg PUBLIC "-//W3C//DTD SVG 1.1//EN" "http://www.w3.org/Graphics/SVG/1.1/DTD/svg11.dtd" >
<svg xmlns="http://www.w3.org/2000/svg">
<metadata>
Created by FontPrep 20130207 at Wed Jul 16 09:05:41 2014
 By Michael Elliott
(c) 1987, 1991, 1993, 2002 Adobe Systems Incorporated. All rights reserved.
</metadata>
<defs>
<font id="0e0218ed55d61ccc56c68dcd7ce57449" horiz-adv-x='1024' >
  <font-face 
    font-family="FuturaStd-BoldOblique"
    font-weight="700"
    font-style="oblique"
    font-stretch="normal"
    units-per-em="2048"
    panose-1="2 11 8 2 2 2 4 2 2 4"
    ascent="1690"
    descent="-358"
    x-height="1051"
    cap-height="1544"
    bbox="-350 -625 3014.62 2130"
    underline-thickness="102"
    underline-position="-102"
    slope="-9"
    unicode-range="U+0020-FB02"
  />
<missing-glyph horiz-adv-x="1251" 
d="M330 1239v-1044l348 522zM391 102h696l-348 523zM801 717l348 -522v1044zM739 809l348 522h-696zM227 0v1434h1024v-1434h-1024z" />
    <glyph glyph-name="f_i" unicode="fi" horiz-adv-x="1390" 
d="M1346 1663q86 0 137 -61q51 -62 38 -148t-85 -147t-158 -61t-137 60q-51 62 -39 148q14 86 86 148t158 61zM1434 1051l-166 -1051h-373l166 1051h373zM893 1720q88 0 154 -37l-52 -321q-75 35 -135 35t-96 -42t-51 -134l-27 -170h260l-49 -308h-260l-117 -743h-373
l117 743h-131l49 308h131l23 133q20 131 51 210t113 158q168 168 393 168z" />
    <glyph glyph-name="f_l" unicode="fl" horiz-adv-x="1413" 
d="M893 1720q88 0 154 -37l-52 -321q-75 35 -135 35t-96 -42t-51 -134l-27 -170h260l-49 -308h-260l-117 -743h-373l117 743h-131l49 308h131l23 133q20 131 51 210t113 158q168 168 393 168zM1559 1700l-269 -1700h-372l268 1700h373z" />
    <glyph glyph-name=".notdef" horiz-adv-x="1251" 
d="M330 1239v-1044l348 522zM391 102h696l-348 523zM801 717l348 -522v1044zM739 809l348 522h-696zM227 0v1434h1024v-1434h-1024z" />
    <glyph glyph-name=".null" horiz-adv-x="0" 
 />
    <glyph glyph-name="nonmarkingreturn" horiz-adv-x="681" 
 />
    <glyph glyph-name="space" unicode=" " horiz-adv-x="702" 
 />
    <glyph glyph-name="exclam" unicode="!" horiz-adv-x="786" 
d="M285 524l159 1020h387l-159 -1020h-387zM463 438q100 0 159 -69q58 -70 42 -169t-96 -170t-181 -71q-100 0 -160 71q-59 71 -43 170q16 98 98 168t181 70z" />
    <glyph glyph-name="quotedbl" unicode="&#x22;" horiz-adv-x="1024" 
d="M823 1544h348l-161 -678h-238zM340 1544h348l-162 -678h-237z" />
    <glyph glyph-name="numbersign" unicode="#" 
d="M770 840l-90 -254h209l94 254h-213zM778 1487h217l-145 -416h207l145 416h215l-145 -416h164l-37 -231h-201l-90 -254h192l-36 -232h-242l-123 -354h-217l123 354h-207l-123 -354h-217l123 354h-186l36 232h232l90 254h-197l37 231h240z" />
    <glyph glyph-name="dollar" unicode="$" 
d="M168 178l217 309q66 -71 158 -121q180 -97 322 -11q67 40 79 108t-48 101t-174 71q-115 38 -170 73q-54 34 -97 80q-88 93 -59 276q30 182 169 324t324 154l39 248h190l-39 -248q221 -20 355 -119l-199 -297q-106 100 -246 101q-74 0 -129 -29t-61 -74q-6 -46 8 -72
t64 -54t126 -54q163 -57 259 -137q122 -100 90 -303q-61 -393 -510 -500l-39 -256h-191l37 244q-127 0 -268 57t-207 129z" />
    <glyph glyph-name="percent" unicode="%" horiz-adv-x="1996" 
d="M1589 1544h201l-1141 -1544h-200zM1620 530q-72 0 -131 -51t-71 -123t32 -122q43 -50 115 -50t131 50t71 122q10 72 -32 123q-43 51 -115 51zM1653 735q180 0 285 -99q104 -100 76 -278t-163 -278t-319 -100t-287 100q-101 100 -73 278t164 278q137 99 317 99zM676 1360
q-72 0 -131 -51t-71 -123t32 -122q43 -50 115 -50t131 50t71 122q10 72 -32 123q-43 51 -115 51zM709 1565q180 1 285 -99q104 -100 76 -278t-162 -278t-318 -101q-184 0 -288 100q-102 101 -74 279t164 278t317 99z" />
    <glyph glyph-name="ampersand" unicode="&#x26;" horiz-adv-x="1736" 
d="M567 -41q-209 0 -334 119t-92 323q27 163 127 261t273 169l41 17l-27 45q-61 105 -69 161t1 107q21 129 105 227t200 148q116 49 242 49q195 0 321 -115t95 -305q-20 -133 -108 -218t-238 -152l164 -205q147 115 237 219l193 -217l-228 -209l-22 -18l289 -365h-502
l-111 143q-299 -184 -557 -184zM1024 1313q-57 0 -100 -36q-82 -69 -40 -169q16 -42 30 -62t47 -65q156 80 172 188q10 59 -21 101t-88 43zM944 383l-203 262q-162 -92 -174 -184q-10 -66 37 -104q47 -37 133 -37t207 63z" />
    <glyph glyph-name="quotesingle" unicode="'" horiz-adv-x="512" 
d="M326 1544h348l-162 -678h-238z" />
    <glyph glyph-name="parenleft" unicode="(" horiz-adv-x="720" 
d="M653 1618l203 -127q-293 -375 -383 -930q-39 -209 -19 -480t109 -446l-244 -127q-80 133 -118 327q-71 351 -8 751q43 268 165 550t295 482z" />
    <glyph glyph-name="parenright" unicode=")" horiz-adv-x="720" 
d="M336 1491l244 127q114 -197 146 -493t-13 -539q-45 -289 -165 -585t-302 -493l-203 127q143 177 243 433t138 493q88 547 -88 930z" />
    <glyph glyph-name="asterisk" unicode="*" horiz-adv-x="989" 
d="M645 1544h184l-45 -219l201 115l68 -156l-211 -102l176 -107l-117 -153l-162 116l-24 -207h-185l45 205l-190 -110l-68 155l201 103l-174 104l119 156l160 -113z" />
    <glyph glyph-name="plus" unicode="+" 
d="M657 680l58 371h307l-57 -371h370l-49 -307h-371l-59 -373h-307l59 373h-370l49 307h370z" />
    <glyph glyph-name="comma" unicode="," horiz-adv-x="702" 
d="M373 391h350l-483 -680h-240z" />
    <glyph glyph-name="hyphen" unicode="-" horiz-adv-x="802" 
d="M238 811h585l-49 -307h-586z" />
    <glyph glyph-name="period" unicode="." horiz-adv-x="702" 
d="M422 438q100 0 159 -69q58 -70 42 -169q-17 -99 -97 -170t-180 -71t-160 71q-59 71 -43 170q15 98 97 168t182 70z" />
    <glyph glyph-name="slash" unicode="/" horiz-adv-x="1185" 
d="M1106 1700h293l-1082 -1890h-292z" />
    <glyph glyph-name="zero" unicode="0" 
d="M900 1251q-73 0 -134 -52t-100 -132q-107 -219 -107 -430q0 -344 191 -344q72 0 134 52t101 134q78 164 98 303q20 140 1 252q-19 113 -65 165t-119 52zM940 1606q286 0 419 -182t135 -411q1 -118 -13 -241q-52 -325 -244 -566q-95 -122 -237 -195t-292 -73
q-288 1 -420 184t-132 409q0 118 14 241q52 325 244 566q96 122 236 195t290 73z" />
    <glyph glyph-name="one" unicode="1" 
d="M741 1204h-221l53 340h623l-244 -1544h-401z" />
    <glyph glyph-name="two" unicode="2" 
d="M696 1012h-442q54 268 240 431t446 163t410 -152t110 -397q-24 -157 -102 -267t-225 -227l-277 -223h506l-53 -340h-1241l739 686q205 190 235 379q12 78 -27 139q-40 62 -118 62t-131 -54q-54 -54 -62 -114q-8 -62 -8 -86z" />
    <glyph glyph-name="three" unicode="3" 
d="M962 1606q230 0 351 -119t86 -330q-15 -98 -69 -185t-142 -132q113 -31 162 -146t28 -243q-38 -240 -236 -376t-446 -136q-414 0 -530 358q-35 109 -16 205h409q-16 -92 35 -156t145 -63q94 0 164 57t84 146q14 90 -40 150t-140 60q-27 0 -72 -12l43 268h41q78 0 134 46
q55 46 67 120t-26 117t-110 43t-124 -50q-54 -50 -64 -128h-372q61 234 235 370q173 136 403 136z" />
    <glyph glyph-name="four" unicode="4" 
d="M881 627l94 594h-4l-455 -594h365zM1253 627h187l-47 -308h-187l-51 -319h-373l52 319h-750l41 256l747 969h527z" />
    <glyph glyph-name="five" unicode="5" 
d="M608 -61q-289 0 -483 139l119 379q172 -178 403 -178q98 1 182 65t99 162q20 128 -70 196t-238 68t-292 -63l266 837h803l-54 -340h-534l-53 -176l127 10q237 18 367 -146t91 -412q-39 -249 -264 -412q-180 -129 -469 -129z" />
    <glyph glyph-name="six" unicode="6" 
d="M733 254q104 0 188 75q83 75 99 180t-43 179t-163 74t-192 -74t-104 -179t48 -180t167 -75zM1030 1065q219 0 332 -161t78 -382q-43 -272 -260 -428q-216 -156 -492 -156t-422 134q-82 78 -121 192t-20 232q49 295 346 614l399 434h455l-520 -522l4 -4q113 47 221 47z
" />
    <glyph glyph-name="seven" unicode="7" 
d="M981 1204h-645l53 340h1268l-1131 -1544h-440z" />
    <glyph glyph-name="eight" unicode="8" 
d="M956 1606q214 0 352 -116t105 -325q-20 -123 -103 -219t-196 -131v-4q135 -47 201 -153t41 -252q-35 -220 -237 -344t-427 -123q-141 0 -264 48q-123 47 -199 157t-52 260t123 254q99 105 249 153v4q-102 37 -156 133q-53 96 -33 217q33 209 207 325t389 116zM806 649
q-77 0 -139 -56q-61 -56 -75 -135t31 -134q45 -56 121 -56t140 56q62 56 75 134q13 79 -31 135q-45 56 -122 56zM914 1327q-71 0 -129 -51t-69 -123q-12 -72 30 -123t113 -51t128 51t68 123q12 72 -29 123t-112 51z" />
    <glyph glyph-name="nine" unicode="9" 
d="M919 1288q-105 0 -189 -74t-101 -180q-16 -106 43 -180q58 -74 164 -74t193 74t104 180q15 106 -47 180t-167 74zM618 477q-220 0 -332 161t-77 384q43 272 260 428t493 156q434 0 542 -324q38 -115 20 -235q-45 -287 -346 -615l-398 -432h-456l522 520l-2 4
q-117 -47 -226 -47z" />
    <glyph glyph-name="colon" unicode=":" horiz-adv-x="702" 
d="M530 1128q100 0 160 -69q59 -70 43 -169t-97 -170t-181 -71t-159 71q-58 71 -42 170q16 98 96 168t180 70zM422 438q100 0 159 -69q58 -70 42 -169q-17 -99 -97 -170t-180 -71t-160 71q-59 71 -43 170q15 98 97 168t182 70z" />
    <glyph glyph-name="semicolon" unicode=";" horiz-adv-x="702" 
d="M625 1128q100 0 159 -70t43 -168q-16 -99 -97 -170t-181 -71t-159 71q-58 71 -42 170t96 169q81 69 181 69zM344 391h350l-483 -680h-240z" />
    <glyph glyph-name="less" unicode="&#x3c;" 
d="M266 403l39 246l1061 373l-49 -307l-590 -187v-4l530 -186l-49 -307z" />
    <glyph glyph-name="equal" unicode="=" 
d="M248 434h1048l-49 -307h-1048zM326 926h1048l-49 -308h-1049z" />
    <glyph glyph-name="greater" unicode="&#x3e;" 
d="M1307 649l-39 -246l-1061 -372l49 307l592 186v4l-533 187l50 307z" />
    <glyph glyph-name="question" unicode="?" horiz-adv-x="1218" 
d="M645 438q100 0 159 -69q58 -70 42 -169t-96 -170t-180 -71t-160 71q-59 71 -43 170q16 98 97 168t181 70zM610 903q98 0 190 54q91 54 107 149q10 63 -26 108q-37 46 -103 46t-110 -43t-56 -113h-407q39 225 225 353t404 128t348 -127q68 -68 102 -162t16 -192
q-28 -166 -146 -278t-294 -164l-22 -146h-375l63 397q45 -10 84 -10z" />
    <glyph glyph-name="at" unicode="@" horiz-adv-x="1515" 
d="M830 152q252 0 395 81l147 -135q-295 -139 -573 -139q-334 0 -528 232q-195 231 -139 579t320 582t592 233q283 0 453 -178q197 -205 155 -474t-205 -449t-337 -173q-43 2 -74 36t-35 83q-119 -119 -268 -119t-235 113t-60 268q31 197 171 345q141 149 315 149t241 -127
l37 108h195l-187 -532q-36 -105 -26 -121t30 -14q59 6 144 117q84 112 112 239q53 250 -81 393q-135 143 -387 143t-444 -174q-192 -175 -234 -450q-43 -276 105 -446q149 -170 401 -170zM820 537q78 -1 138 67q59 68 84 157t-8 144q-32 55 -112 55t-150 -73
q-70 -74 -83 -158t20 -138t111 -54z" />
    <glyph glyph-name="A" unicode="A" horiz-adv-x="1599" 
d="M1061 575l-86 492h-4l-244 -492h334zM1120 268h-553l-149 -268h-426l837 1544h439l338 -1544h-428z" />
    <glyph glyph-name="B" unicode="B" horiz-adv-x="1386" 
d="M727 938q217 0 240 149q16 112 -83 138q-51 12 -126 12h-29l-47 -299h45zM750 0h-619l244 1544h573q459 0 395 -401q-33 -227 -219 -316v-4q156 -21 217 -123t35 -263t-124 -261t-224 -138t-278 -38zM582 307h138q79 1 113 15q33 14 67 31q62 31 76 117q14 85 -28 121
t-92 41q-103 10 -137 8q-35 -1 -45 -1h-41z" />
    <glyph glyph-name="C" unicode="C" horiz-adv-x="1351" 
d="M1071 1196q-182 0 -316 -123t-163 -306t68 -301t284 -118q98 0 198 44t175 120l-78 -481q-244 -72 -365 -72q-330 0 -542 225t-156 586q51 330 316 565q133 117 300 184q342 137 683 -12l-78 -481q-47 82 -134 126t-192 44z" />
    <glyph glyph-name="D" unicode="D" horiz-adv-x="1540" 
d="M676 340q193 0 336 109t176 317q32 208 -70 324q-102 115 -301 114h-94l-137 -864h90zM944 1544q324 0 520 -224t144 -548t-318 -548t-590 -224h-569l244 1544h569z" />
    <glyph glyph-name="E" unicode="E" horiz-adv-x="1126" 
d="M1200 1204h-477l-41 -258h453l-54 -340h-452l-43 -266h477l-53 -340h-879l244 1544h878z" />
    <glyph glyph-name="F" unicode="F" horiz-adv-x="1110" 
d="M1208 1204h-485l-41 -258h440l-53 -340h-440l-97 -606h-401l244 1544h887z" />
    <glyph glyph-name="G" unicode="G" horiz-adv-x="1724" 
d="M868 -51q-364 0 -558 226t-136 595t326 597t643 228q243 -1 403 -109t226 -323l-406 -159q-24 114 -100 180t-195 65q-186 0 -317 -147t-162 -340t56 -338t276 -145q135 -1 234 69t130 199h-327l51 315h796q-37 -201 -89 -340t-167 -270q-264 -303 -684 -303z" />
    <glyph glyph-name="H" unicode="H" horiz-adv-x="1644" 
d="M682 948h580l94 596h401l-244 -1544h-401l100 633h-579l-101 -633h-401l244 1544h401z" />
    <glyph glyph-name="I" unicode="I" horiz-adv-x="663" 
d="M776 1544l-244 -1544h-401l244 1544h401z" />
    <glyph glyph-name="J" unicode="J" horiz-adv-x="1001" 
d="M360 -41q-250 0 -362 227l270 244q78 -131 142 -131q86 0 116 85q23 63 35 142l160 1018h401l-164 -1042q-39 -252 -193 -398q-155 -145 -405 -145z" />
    <glyph glyph-name="K" unicode="K" horiz-adv-x="1552" 
d="M680 907l586 637h497l-729 -731l541 -813h-520l-412 670h-4l-107 -670h-401l244 1544h401l-100 -637h4z" />
    <glyph glyph-name="L" unicode="L" horiz-adv-x="1013" 
d="M776 1544l-190 -1204h481l-53 -340h-883l244 1544h401z" />
    <glyph glyph-name="M" unicode="M" horiz-adv-x="2013" 
d="M39 0l506 1544h395l184 -825l461 825h400l-11 -1544h-401l29 889h-5l-512 -889h-159l-213 889h-4l-271 -889h-399z" />
    <glyph glyph-name="N" unicode="N" horiz-adv-x="1804" 
d="M131 0l244 1544h401l586 -944h4l150 944h401l-244 -1544h-401l-586 946h-4l-150 -946h-401z" />
    <glyph glyph-name="O" unicode="O" horiz-adv-x="1816" 
d="M1098 1206q-178 0 -326 -123t-174 -284q-32 -197 74 -329t288 -132t330 132q147 132 180 329q26 163 -84 285t-288 122zM1130 1595q366 0 588 -221q102 -102 150 -253t20 -320q-59 -375 -338 -614q-280 -239 -652 -239t-574 240t-144 613q35 227 186 411q150 184 360 284
t404 99z" />
    <glyph glyph-name="P" unicode="P" horiz-adv-x="1353" 
d="M733 836q181 0 242 43t76 146q15 102 -31 153q-27 30 -136 41q-32 2 -91 2h-68l-59 -385h67zM989 1544q260 0 391 -126t90 -382q-82 -524 -628 -524h-228l-82 -512h-401l244 1544h614z" />
    <glyph glyph-name="Q" unicode="Q" horiz-adv-x="1816" 
d="M899 -51q-373 -1 -575 239t-144 613q35 227 186 411q150 184 360 284t433 99q367 0 575 -228t148 -599q-45 -297 -285 -543l220 -264l-377 -57l-101 145q-184 -100 -440 -100zM1100 1206q-178 0 -328 -123t-174 -284q-33 -197 75 -329t290 -132q66 0 127 20l-209 246
l385 47l92 -112q86 98 106 227q29 176 -79 308q-107 132 -285 132z" />
    <glyph glyph-name="R" unicode="R" horiz-adv-x="1392" 
d="M707 852q279 0 309 192q21 123 -66 160q-75 33 -182 33h-39l-61 -385h39zM975 1544q242 0 371 -119t92 -356q-27 -166 -135 -287q-109 -120 -273 -149l385 -633h-500l-284 594h-4l-95 -594h-401l244 1544h600z" />
    <glyph glyph-name="S" unicode="S" horiz-adv-x="1261" 
d="M911 1249q-63 0 -123 -35t-69 -98q-8 -63 41 -92q49 -30 112 -51l99 -31q172 -53 257 -150t56 -272q-44 -281 -232 -421t-466 -140t-504 176l223 324q160 -160 332 -160q79 0 143 40t74 107t-30 100q-24 19 -36 29q-19 16 -165 62t-181 66t-70 46t-57 72q-22 45 -26 79
t-4 76t8 91q37 233 209 375t418 143q246 0 450 -127l-209 -311q-109 102 -250 102z" />
    <glyph glyph-name="T" unicode="T" horiz-adv-x="1091" 
d="M936 1204l-191 -1204h-401l191 1204h-332l53 340h1065l-53 -340h-332z" />
    <glyph glyph-name="U" unicode="U" horiz-adv-x="1593" 
d="M790 -41q-336 0 -485 172q-61 70 -83 168t-16 175q5 77 23 202l138 868h401l-127 -813q-39 -241 11 -332q22 -37 71 -63t123 -25q208 0 280 188q34 85 60 232l127 813h401l-137 -868q-29 -188 -78 -316t-170 -229q-203 -172 -539 -172z" />
    <glyph glyph-name="V" unicode="V" horiz-adv-x="1558" 
d="M649 1544l225 -938l523 938h436l-903 -1544h-312l-405 1544h436z" />
    <glyph glyph-name="W" unicode="W" horiz-adv-x="2287" 
d="M631 1544l110 -997h4l482 997h319l146 -997h4l448 997h418l-737 -1544h-410l-129 895h-4l-444 -895h-408l-217 1544h418z" />
    <glyph glyph-name="X" unicode="X" horiz-adv-x="1615" 
d="M719 825l-381 719h493l175 -399l297 399h493l-606 -719l440 -825h-483l-244 504l-434 -504h-485z" />
    <glyph glyph-name="Y" unicode="Y" horiz-adv-x="1462" 
d="M647 741l-442 803h481l223 -420l355 420h481l-696 -803l-117 -741h-402z" />
    <glyph glyph-name="Z" unicode="Z" horiz-adv-x="1447" 
d="M752 340h647l-53 -340h-1323l921 1204h-606l53 340h1278z" />
    <glyph glyph-name="bracketleft" unicode="[" horiz-adv-x="716" 
d="M612 1401l-264 -1675h219l-35 -218h-503l333 2110h504l-35 -217h-219z" />
    <glyph glyph-name="backslash" unicode="\" horiz-adv-x="1185" 
d="M324 1700h294l512 -1700h-290z" />
    <glyph glyph-name="bracketright" unicode="]" horiz-adv-x="716" 
d="M283 -274l264 1675h-219l34 217h504l-334 -2110h-503l34 218h220z" />
    <glyph glyph-name="asciicircum" unicode="^" 
d="M555 696l-213 138l492 772h245l246 -772l-254 -138l-172 551z" />
    <glyph glyph-name="underscore" unicode="_" horiz-adv-x="1024" 
d="M983 -256h-1024l16 102h1024z" />
    <glyph glyph-name="grave" unicode="`" horiz-adv-x="823" 
d="M393 1516l254 163l234 -352l-187 -121z" />
    <glyph glyph-name="a" unicode="a" horiz-adv-x="1396" 
d="M571 -35q-229 0 -353 165t-87 396q37 232 211 396t393 164t314 -138l16 103h373l-166 -1051h-373l19 117h-5q-59 -74 -151 -113t-191 -39zM793 762q-111 0 -186 -69t-91 -170t37 -168t164 -67t187 68q76 66 91 167q17 101 -37 170t-165 69z" />
    <glyph glyph-name="b" unicode="b" horiz-adv-x="1396" 
d="M831 762q-111 0 -185 -69t-91 -170q-16 -101 37 -168t164 -67q110 0 186 68q76 66 92 167t-38 170t-165 69zM991 1085q219 1 342 -163t86 -396t-214 -397q-177 -164 -406 -164q-98 0 -177 38t-116 114h-4l-19 -117h-372l268 1700h373l-119 -752q139 137 358 137z" />
    <glyph glyph-name="c" unicode="c" horiz-adv-x="989" 
d="M734 268q112 0 200 72l-49 -315q-127 -59 -273 -60q-238 0 -379 157q-141 158 -103 400t232 403q195 161 445 160q135 0 235 -61l-49 -315q-89 73 -189 73t-186 -74t-103 -184q-17 -112 45 -184t174 -72z" />
    <glyph glyph-name="d" unicode="d" horiz-adv-x="1396" 
d="M807 762q-111 0 -185 -69t-92 -170q-16 -101 37 -168t164 -67t187 68q76 66 92 167t-38 170t-165 69zM586 -35q-229 0 -354 165q-124 165 -87 396q37 232 211 396t394 164t313 -138l119 752h372l-268 -1700h-373l19 117h-4q-60 -74 -152 -113t-190 -39z" />
    <glyph glyph-name="e" unicode="e" horiz-adv-x="1249" 
d="M647 -35q-271 -1 -415 147t-103 410t225 413t450 151t394 -158q127 -156 84 -426l-6 -39h-784q-37 -233 196 -234q121 0 193 97h358q-68 -174 -233 -268t-359 -93zM775 844q-81 0 -147 -43t-98 -123h433q-3 74 -55 120t-133 46z" />
    <glyph glyph-name="f" unicode="f" horiz-adv-x="794" 
d="M905 1720q88 0 154 -37l-51 -321q-74 35 -134 35t-97 -42q-36 -42 -52 -134l-27 -170h260l-49 -308h-260l-117 -743h-372l116 743h-131l50 308h131l22 133q20 131 51 210t113 158q168 168 393 168z" />
    <glyph glyph-name="g" unicode="g" horiz-adv-x="1386" 
d="M799 770q-111 0 -187 -69t-92 -170t38 -167t165 -67q111 0 185 67q74 68 91 168q16 100 -36 169q-53 69 -164 69zM565 -20q-227 0 -348 154t-84 386t215 399t400 167t301 -146h4l16 111h373l-150 -949q-53 -326 -231 -476t-477 -150q-207 0 -374 105t-161 296h418
q8 -51 55 -78t105 -26q139 -1 202 77t86 224l9 49q-168 -143 -359 -143z" />
    <glyph glyph-name="h" unicode="h" horiz-adv-x="1353" 
d="M391 1700h373l-123 -782h4q154 168 356 168q203 0 283 -118t49 -325l-102 -643h-373l86 539q6 63 7 118t-32 94q-34 38 -104 37q-102 0 -160 -72q-57 -73 -73 -177l-86 -539h-373z" />
    <glyph glyph-name="i" unicode="i" horiz-adv-x="618" 
d="M573 1663q85 0 137 -61q52 -62 39 -148t-85 -147t-158 -61t-137 60q-51 62 -39 148q14 86 86 148t157 61zM662 1051l-166 -1051h-373l166 1051h373z" />
    <glyph glyph-name="j" unicode="j" horiz-adv-x="618" 
d="M573 1663q85 0 137 -61q52 -62 39 -148t-85 -147t-158 -61t-137 60q-51 62 -39 148q14 86 86 148t157 61zM662 1051l-250 -1575h-373l250 1575h373z" />
    <glyph glyph-name="k" unicode="k" horiz-adv-x="1409" 
d="M764 1700l-162 -1028l447 379h510l-603 -486l469 -565h-522l-340 428l-67 -428h-373l268 1700h373z" />
    <glyph glyph-name="l" unicode="l" horiz-adv-x="618" 
d="M764 1700l-268 -1700h-373l268 1700h373z" />
    <glyph glyph-name="m" unicode="m" horiz-adv-x="2025" 
d="M1718 1085q356 0 293 -415l-106 -670h-373l80 502q25 168 -2 227q-28 59 -98 59q-132 0 -179 -99q-39 -80 -53 -187l-80 -502h-373l80 502q22 152 12 185t-22 59q-22 49 -107 50t-143 -68q-40 -52 -58 -149q-5 -28 -14 -77l-79 -502h-373l166 1051h373l-21 -131h4
q152 166 359 165q250 0 325 -200q70 96 174 148t215 52z" />
    <glyph glyph-name="n" unicode="n" horiz-adv-x="1353" 
d="M815 788q-195 0 -233 -243l-86 -545h-373l166 1051h373l-21 -136h4q78 91 164 131t199 39q202 1 280 -115t45 -321l-102 -649h-373l82 512q0 6 5 35t6 41q10 122 -17 150l-32 32q-20 18 -87 18z" />
    <glyph glyph-name="o" unicode="o" horiz-adv-x="1355" 
d="M799 762q-111 0 -186 -69t-91 -170t37 -168t164 -67t187 68q76 66 91 167q16 101 -37 170q-54 69 -165 69zM850 1085q266 1 426 -151t119 -410q-29 -172 -138 -301t-261 -193t-324 -65q-264 0 -424 151q-160 150 -120 408t248 410t474 151z" />
    <glyph glyph-name="p" unicode="p" horiz-adv-x="1396" 
d="M831 762q-111 0 -185 -69t-91 -170q-16 -101 37 -168t164 -67q110 0 186 68q76 66 92 167t-38 170t-165 69zM814 -35q-218 0 -314 135l-101 -624h-372l249 1575h373l-18 -119h4q61 76 153 115t189 38q229 1 353 -165t87 -398t-211 -394q-174 -163 -392 -163z" />
    <glyph glyph-name="q" unicode="q" horiz-adv-x="1396" 
d="M807 762q-111 0 -185 -69t-92 -170q-16 -101 37 -168t164 -67t187 68q76 66 92 167t-38 170t-165 69zM574 -35q-221 0 -345 162q-123 162 -86 393q37 230 215 398t406 167q98 -1 178 -39t115 -114h4l18 119h373l-250 -1575h-373l101 624q-135 -135 -356 -135z" />
    <glyph glyph-name="r" unicode="r" horiz-adv-x="927" 
d="M1008 1065h71l-55 -358q-57 35 -154 34q-145 0 -214 -83t-93 -234l-67 -424h-373l166 1051h373l-27 -172h4q133 186 369 186z" />
    <glyph glyph-name="s" unicode="s" horiz-adv-x="1050" 
d="M748 831q-41 0 -81 -17t-45 -51t11 -47q37 -30 66 -35t49 -8t26 -5q295 -61 256 -312q-32 -194 -194 -292t-376 -98t-392 120l176 260q53 -43 133 -75q80 -31 134 -31t94 20t45 51q9 55 -37 75t-100 32t-77 18q-102 29 -156 89q-54 59 -34 185t103 213q157 164 419 162
q199 1 336 -67l-164 -238q-86 51 -192 51z" />
    <glyph glyph-name="t" unicode="t" horiz-adv-x="737" 
d="M647 743l-117 -743h-372l116 743h-120l49 308h121l51 315h373l-52 -315h211l-49 -308h-211z" />
    <glyph glyph-name="u" unicode="u" horiz-adv-x="1349" 
d="M718 262q108 0 156 58t66 169l88 562h373l-101 -633q-70 -453 -630 -453q-258 1 -391 105t-97 348l101 633h372l-88 -562q-16 -113 14 -170q29 -57 137 -57z" />
    <glyph glyph-name="v" unicode="v" horiz-adv-x="1275" 
d="M553 1051l168 -539l334 539h418l-715 -1051h-238l-385 1051h418z" />
    <glyph glyph-name="w" unicode="w" horiz-adv-x="2039" 
d="M549 1051l172 -570l354 570h221l174 -570l355 570h411l-714 -1051h-242l-168 575l-352 -575h-242l-383 1051h414z" />
    <glyph glyph-name="x" unicode="x" horiz-adv-x="1458" 
d="M584 569l-351 482h474l153 -217l223 217h482l-510 -482l434 -569h-490l-221 311l-319 -311h-490z" />
    <glyph glyph-name="y" unicode="y" horiz-adv-x="1339" 
d="M500 143l-365 908h430l197 -539l358 539h424l-1091 -1575h-418z" />
    <glyph glyph-name="z" unicode="z" horiz-adv-x="1144" 
d="M688 309h442l-49 -309h-1065l611 741h-428l49 310h1048z" />
    <glyph glyph-name="braceleft" unicode="{" horiz-adv-x="720" 
d="M705 1618h198l-39 -246h-51q-69 0 -87 -35t-26 -86l-73 -460q-29 -186 -232 -218v-4q59 -7 71 -15l32 -16q18 -10 24 -22t20 -30t13 -40q0 -22 5 -52t-5 -64l-74 -455q-14 -45 -1 -83t77 -38h51l-39 -246h-198q-72 0 -139 83t-44 227l82 518q6 23 3 39t-3 29q0 12 -9 22
t-12 17q-3 8 -25 15q-21 7 -39 7h-38l33 213q94 0 124 33t38 75l82 519q23 147 116 230t165 83z" />
    <glyph glyph-name="bar" unicode="|" horiz-adv-x="1017" 
d="M496 1874h280v-2499h-280v2499z" />
    <glyph glyph-name="braceright" unicode="}" horiz-adv-x="720" 
d="M721 465h-41q-23 0 -34 -5t-24 -11q-49 -23 -65 -113l-82 -518q-23 -142 -116 -226t-164 -84h-199l39 246h51q69 0 89 39q14 26 24 82l73 455q28 168 134 214q40 17 100 25v4q-190 31 -162 218l74 460q14 43 0 82t-76 39h-51l39 246h198q72 0 139 -83t44 -230l-82 -519
q-12 -80 37 -96q38 -12 62 -12h26z" />
    <glyph glyph-name="asciitilde" unicode="~" 
d="M590 809q109 0 244 -115q115 -102 204 -102q64 0 154 172l203 -199q-177 -234 -282 -286q-174 -86 -363 65q-23 14 -93 66t-121 52q-52 1 -159 -171l-199 196q18 17 80 91t103 114q40 40 105 78q65 39 124 39z" />
    <glyph glyph-name="uni00A0" unicode="&#xa0;" horiz-adv-x="702" 
 />
    <glyph glyph-name="exclamdown" unicode="&#xa1;" horiz-adv-x="786" 
d="M283 522h387l-160 -1020h-387zM565 1090q101 0 159 -70t43 -169t-96 -170t-181 -71t-159 71q-58 71 -43 170t96 169t181 70z" />
    <glyph glyph-name="cent" unicode="&#xa2;" 
d="M1094 1028q-104 0 -190 -71q-85 -71 -102 -177t42 -180t174 -74t194 78l-53 -334q-82 -29 -125 -32l-33 -218h-190l31 203q-213 8 -339 171t-91 385t204 376q170 154 402 176l31 191h190l-33 -203l113 -35l-53 -334q-68 78 -172 78z" />
    <glyph glyph-name="sterling" unicode="&#xa3;" 
d="M1055 262q47 0 80 27t41 73h249q-43 -182 -155 -288t-285 -107q-70 1 -159 25q-88 24 -187 54q-100 30 -178 30q-111 0 -142 -76h-266q49 143 162 252t248 110q72 113 4 252h-330l25 156h221q-55 115 -33 262q34 231 220 386t476 155t400 -138q111 -138 65 -444h-397
l10 72q12 78 -32 136q-45 58 -129 58q-85 0 -147 -62t-77 -155q-20 -147 43 -270h320l-25 -156h-291q10 -53 -3 -138t-42 -136l23 -8q178 -70 291 -70z" />
    <glyph glyph-name="currency" unicode="&#xa4;" 
d="M872 1040q-116 0 -204 -78t-106 -194t46 -186q66 -70 182 -70t202 71t106 185q18 114 -46 194q-65 78 -180 78zM150 311l157 135q-82 135 -49 338t154 328l-113 137l147 129l115 -137q156 107 359 107t313 -107l160 137l106 -127l-147 -129q86 -150 54 -348t-165 -325
l113 -136l-144 -133l-116 135q-144 -111 -354 -111t-326 113l-158 -135z" />
    <glyph glyph-name="yen" unicode="&#xa5;" 
d="M1442 913h-291l-143 -172h405l-24 -155h-406l-92 -586h-377l92 586h-409l24 155h408l-88 172h-291l24 156h189l-242 475h455l205 -420l336 420h454l-391 -475h186z" />
    <glyph glyph-name="brokenbar" unicode="&#xa6;" horiz-adv-x="1017" 
d="M496 436h280v-872h-280v872zM496 1688h280v-875h-280v875z" />
    <glyph glyph-name="section" unicode="&#xa7;" 
d="M901 1329q-51 0 -89 -29q-38 -28 -44 -64t2 -66t38 -53t41 -31t42 -22q31 -15 37 -20l209 -114q73 -39 111 -66q114 -80 131 -172q11 -57 -1 -135q-29 -184 -223 -321q89 -92 65 -250t-119 -261q-181 -196 -498 -196q-318 0 -445 212q-68 112 -37 265h375
q-14 -78 40 -132t126 -54t122 37q71 52 62 138q-5 45 -58 80q-20 13 -26 17t-33 18t-29 15l-299 158q-221 119 -186 338q29 188 229 333q-78 88 -52 256t181 272q156 103 347 103q275 0 380 -161q57 -87 43 -218h-321q-4 55 -37 89t-84 34zM672 553l315 -170q59 41 69 107
t-31 98t-93 59l-309 170q-70 -37 -79 -103t23 -93q49 -40 105 -68z" />
    <glyph glyph-name="dieresis" unicode="&#xa8;" horiz-adv-x="1236" 
d="M1141 1638q84 0 133 -59t35 -142t-81 -141t-151 -59q-84 0 -135 58q-51 59 -37 143t83 142t153 58zM616 1638q84 0 134 -59t34 -142q-14 -83 -81 -141t-151 -59q-84 0 -134 58q-51 59 -37 143q15 84 83 142t152 58z" />
    <glyph glyph-name="copyright" unicode="&#xa9;" horiz-adv-x="1638" 
d="M1020 1090q-117 0 -199 -90t-101 -216q-19 -125 38 -220t170 -95q76 0 140 43t79 115h184q-39 -143 -161 -229t-267 -87q-201 0 -304 134t-71 337t172 334q141 131 347 131q147 0 240 -83t95 -224h-184q-2 72 -51 111t-127 39zM843 152q265 0 470 175t248 444t-107 445
t-415 177q-265 0 -469 -175q-204 -176 -246 -446t106 -445t413 -175zM813 -41q-338 0 -537 237q-200 238 -146 576t328 576t612 238q339 0 538 -238q200 -238 146 -576t-328 -576t-613 -237z" />
    <glyph glyph-name="ordfeminine" unicode="&#xaa;" horiz-adv-x="837" 
d="M609 1585q142 0 204 -82l10 62h242l-100 -631h-242l12 70h-4q-77 -90 -223 -90t-228 98t-59 237t134 238q112 98 254 98zM602 1106q64 0 118 42q52 42 62 101q8 59 -29 102q-38 42 -104 42t-118 -42q-52 -41 -61 -101q-8 -60 30 -102t102 -42z" />
    <glyph glyph-name="guillemotleft" unicode="&#xab;" horiz-adv-x="1234" 
d="M457 655l207 -356l-234 -147l-272 503l432 504l182 -141zM967 655l207 -356l-234 -147l-272 503l432 504l182 -141z" />
    <glyph glyph-name="logicalnot" unicode="&#xac;" 
d="M965 289l53 329h-742l50 308h1048l-102 -637h-307z" />
    <glyph glyph-name="uni00AD" unicode="&#xad;" horiz-adv-x="802" 
d="M238 811h585l-49 -307h-586z" />
    <glyph glyph-name="registered" unicode="&#xae;" horiz-adv-x="1638" 
d="M1042 842q78 0 117 26t49 94q10 69 -49 81t-125 12h-182l-35 -213h225zM1096 1202q166 0 238 -51t48 -207q-18 -115 -84 -168t-182 -61l150 -357h-205l-133 357h-131l-56 -357h-188l133 844h410zM843 152q265 0 470 175t248 444t-107 445t-415 177q-265 0 -469 -175
q-204 -176 -246 -446t106 -445t413 -175zM813 -41q-338 0 -537 237q-200 238 -146 576t328 576t612 238q339 0 538 -238q200 -238 146 -576t-328 -576t-613 -237z" />
    <glyph glyph-name="macron" unicode="&#xaf;" horiz-adv-x="1234" 
d="M397 1540h926l-35 -219h-926z" />
    <glyph glyph-name="degree" unicode="&#xb0;" horiz-adv-x="819" 
d="M632 1411q-54 0 -100 -40t-54 -94q-7 -54 26 -93t88 -39t99 39t54 94q8 55 -25 94q-34 39 -88 39zM560 971q-128 0 -202 89t-53 216q17 127 121 218t232 91t205 -91t57 -217t-126 -216t-234 -90z" />
    <glyph glyph-name="plusminus" unicode="&#xb1;" 
d="M227 307h1049l-49 -307h-1049zM715 1049l47 290h307l-47 -290h371l-50 -308h-370l-45 -290h-307l45 290h-371l49 308h371z" />
    <glyph glyph-name="twosuperior" unicode="&#xb2;" horiz-adv-x="843" 
d="M638 1401q-50 0 -89 -37t-39 -115h-287q31 162 151 259q120 98 290 98t267 -92t75 -238q-16 -94 -66 -160t-143 -135l-179 -135h328l-31 -203h-806l477 412q131 115 149 227q8 45 -19 82q-28 37 -78 37z" />
    <glyph glyph-name="threesuperior" unicode="&#xb3;" horiz-adv-x="843" 
d="M542 815q62 0 107 34t53 87t-27 89q-36 36 -91 36q-14 0 -27 -3q-14 -3 -20 -3l24 159h27q51 0 87 28t43 72t-18 70q-26 26 -72 25q-46 0 -80 -31t-40 -75h-242q39 143 151 223t260 80t228 -72t61 -201t-137 -186q72 -16 106 -86t21 -148q-22 -143 -150 -224t-303 -81
t-267 105q-42 43 -66 109t-12 122h266q-10 -55 24 -92q32 -37 94 -37z" />
    <glyph glyph-name="acute" unicode="&#xb4;" horiz-adv-x="823" 
d="M909 1516l-399 -310l-145 121l344 352z" />
    <glyph glyph-name="mu" unicode="&#xb5;" horiz-adv-x="1349" 
d="M718 262q108 0 156 58t66 169l88 562h373l-101 -633q-54 -344 -388 -431q-81 -22 -160 -22q-160 0 -252 101l-94 -590h-373l250 1575h372l-88 -562q-16 -113 14 -170q29 -57 137 -57z" />
    <glyph glyph-name="paragraph" unicode="&#xb6;" 
d="M782 1544h772l-28 -186h-135l-271 -1706h-207l271 1704h-191l-270 -1704h-207l150 942q-182 16 -299 113q-117 98 -105 327q10 186 175 348t345 162z" />
    <glyph glyph-name="periodcentered" unicode="&#xb7;" horiz-adv-x="702" 
d="M473 764q99 0 159 -70t44 -169t-98 -170t-182 -71t-157 72q-58 70 -42 169t96 169t180 70z" />
    <glyph glyph-name="cedilla" unicode="&#xb8;" horiz-adv-x="778" 
d="M592 -193l-356 -292l-144 100l318 324z" />
    <glyph glyph-name="onesuperior" unicode="&#xb9;" horiz-adv-x="843" 
d="M551 1366h-143l30 203h404l-146 -926h-260z" />
    <glyph glyph-name="ordmasculine" unicode="&#xba;" horiz-adv-x="839" 
d="M641 1391q-63 0 -115 -41q-52 -40 -61 -100q-10 -60 28 -101q37 -41 103 -41t117 41t61 100t-30 101t-103 41zM672 1585q172 0 277 -90t81 -246q-24 -155 -159 -245q-134 -90 -306 -90t-276 90q-103 90 -79 246t157 245q133 90 305 90z" />
    <glyph glyph-name="guillemotright" unicode="&#xbb;" horiz-adv-x="1234" 
d="M666 299l321 356l-201 363l228 141l272 -504l-432 -503zM156 299l321 356l-201 363l228 141l272 -504l-432 -503z" />
    <glyph glyph-name="onequarter" unicode="&#xbc;" horiz-adv-x="2107" 
d="M1841 377h121l-29 -184h-121l-30 -193h-242l31 193h-488l25 153l479 580h342zM561 1341h-143l31 203h403l-145 -926h-261zM1565 1544h200l-1140 -1544h-201zM1599 375l58 356h-4l-291 -356h237z" />
    <glyph glyph-name="onehalf" unicode="&#xbd;" horiz-adv-x="2107" 
d="M1507 1544h201l-1141 -1544h-200zM1627 758q-50 0 -90 -37t-40 -115h-287q31 164 152 258q117 98 288 98t269 -90q98 -92 74 -239q-13 -93 -63 -159t-146 -136l-176 -135h327l-32 -203h-807l477 412q133 117 149 227q8 45 -18 82q-27 37 -77 37zM561 1341h-143l31 203
h403l-145 -926h-261z" />
    <glyph glyph-name="threequarters" unicode="&#xbe;" horiz-adv-x="2107" 
d="M672 1153q51 0 87 28q36 27 43 71t-18 70q-24 26 -70 26t-80 -31t-42 -76h-242q37 143 150 223t261 80t228 -72q79 -72 59 -201q-20 -130 -135 -186q72 -16 106 -86t21 -147q-22 -143 -150 -224t-301 -81q-256 0 -335 214q-25 65 -12 122h266q-8 -55 24 -92t94 -37
t107 34t53 86q8 54 -27 90q-36 36 -91 35q-14 0 -28 -3q-13 -3 -19 -3l24 160h27zM1944 377h120l-28 -184h-121l-31 -193h-242l31 193h-487l24 153l480 580h342zM1741 1544h201l-1141 -1544h-201zM1702 375l57 356h-4l-291 -356h238z" />
    <glyph glyph-name="questiondown" unicode="&#xbf;" horiz-adv-x="1218" 
d="M815 1090q99 0 159 -70t44 -169t-97 -170t-181 -71t-159 71q-58 71 -43 170t96 169t181 70zM774 141q-98 0 -189 -54t-108 -148q-10 -63 26 -109q37 -46 103 -45q66 0 110 44t54 112h408q-36 -223 -222 -353t-406 -129q-220 0 -347 127q-68 68 -102 162t-19 193
q26 165 146 277t296 165l23 145h375l-64 -397q-45 10 -84 10z" />
    <glyph glyph-name="Agrave" unicode="&#xc0;" horiz-adv-x="1599" 
d="M811 1948l252 163l233 -352l-184 -121zM1061 575l-86 492h-4l-244 -492h334zM1120 268h-553l-149 -268h-426l837 1544h439l338 -1544h-428z" />
    <glyph glyph-name="Aacute" unicode="&#xc1;" horiz-adv-x="1599" 
d="M1409 1948l-399 -310l-148 121l344 352zM1061 575l-86 492h-4l-244 -492h334zM1120 268h-553l-149 -268h-426l837 1544h439l338 -1544h-428z" />
    <glyph glyph-name="Acircumflex" unicode="&#xc2;" horiz-adv-x="1599" 
d="M635 1794l500 336l399 -336l-186 -172l-258 227l-332 -227zM1061 575l-86 492h-4l-244 -492h334zM1120 268h-553l-149 -268h-426l837 1544h439l338 -1544h-428z" />
    <glyph glyph-name="Atilde" unicode="&#xc3;" horiz-adv-x="1599" 
d="M938 2013q55 0 169 -35q114 -34 151 -34t56 17t40 56h174q-31 -127 -114 -225t-204 -98q-53 0 -152 38t-145 37t-64 -36q-6 -10 -20 -39h-167l2 22q16 104 73 182q86 115 201 115zM1061 575l-86 492h-4l-244 -492h334zM1120 268h-553l-149 -268h-426l837 1544h439
l338 -1544h-428z" />
    <glyph glyph-name="Adieresis" unicode="&#xc4;" horiz-adv-x="1599" 
d="M1390 2071q83 -1 133 -59t37 -142t-81 -142t-152 -59q-84 0 -134 58q-50 59 -37 143t82 142t152 59zM865 2071q83 -1 133 -59t37 -142t-81 -142t-152 -59q-84 0 -133 58q-50 59 -37 143q14 84 82 142t151 59zM1061 575l-86 492h-4l-244 -492h334zM1120 268h-553
l-149 -268h-426l837 1544h439l338 -1544h-428z" />
    <glyph glyph-name="Aring" unicode="&#xc5;" horiz-adv-x="1599" 
d="M1106 1923q-121 0 -135 -88q-7 -45 25 -67t81 -22t88 22t45 67t-25 67q-32 21 -79 21zM1125 2071q132 -1 216 -57t64 -178q-19 -122 -119 -179t-206 -57t-172 20t-106 74t-26 139q18 123 118 181t231 57zM1061 575l-86 492h-4l-244 -492h334zM1120 268h-553l-149 -268
h-426l837 1544h439l338 -1544h-428z" />
    <glyph glyph-name="AE" unicode="&#xc6;" horiz-adv-x="2101" 
d="M1171 0l-57 268h-559l-139 -268h-424l839 1544h947l71 -340h-508l54 -258h506l75 -340h-510l58 -266h508l69 -340h-930zM1055 575l-94 459l-246 -459h340z" />
    <glyph glyph-name="Ccedilla" unicode="&#xc7;" horiz-adv-x="1351" 
d="M930 -193l-357 -292l-143 100l318 324zM1071 1196q-182 0 -316 -123t-163 -306t68 -301t284 -118q98 0 198 44t175 120l-78 -481q-244 -72 -365 -72q-330 0 -542 225t-156 586q51 330 316 565q133 117 300 184q342 137 683 -12l-78 -481q-47 82 -134 126t-192 44z" />
    <glyph glyph-name="Egrave" unicode="&#xc8;" horiz-adv-x="1126" 
d="M614 1948l252 163l234 -352l-185 -121zM1200 1204h-477l-41 -258h453l-54 -340h-452l-43 -266h477l-53 -340h-879l244 1544h878z" />
    <glyph glyph-name="Eacute" unicode="&#xc9;" horiz-adv-x="1126" 
d="M1130 1948l-399 -310l-147 121l344 352zM1200 1204h-477l-41 -258h453l-54 -340h-452l-43 -266h477l-53 -340h-879l244 1544h878z" />
    <glyph glyph-name="Ecircumflex" unicode="&#xca;" horiz-adv-x="1126" 
d="M397 1794l500 336l399 -336l-186 -172l-258 227l-332 -227zM1200 1204h-477l-41 -258h453l-54 -340h-452l-43 -266h477l-53 -340h-879l244 1544h878z" />
    <glyph glyph-name="Edieresis" unicode="&#xcb;" horiz-adv-x="1126" 
d="M1152 2071q83 -1 133 -59t37 -142t-81 -142q-67 -58 -151 -59q-84 0 -135 58q-51 59 -37 143t82 142t152 59zM628 2071q83 -1 133 -59t37 -142t-81 -142t-152 -59q-84 0 -134 58q-50 59 -37 143t82 142t152 59zM1200 1204h-477l-41 -258h453l-54 -340h-452l-43 -266h477
l-53 -340h-879l244 1544h878z" />
    <glyph glyph-name="Igrave" unicode="&#xcc;" horiz-adv-x="663" 
d="M352 1948l252 163l234 -352l-185 -121zM776 1544l-244 -1544h-401l244 1544h401z" />
    <glyph glyph-name="Iacute" unicode="&#xcd;" horiz-adv-x="663" 
d="M930 1948l-400 -310l-147 121l344 352zM776 1544l-244 -1544h-401l244 1544h401z" />
    <glyph glyph-name="Icircumflex" unicode="&#xce;" horiz-adv-x="663" 
d="M197 1794l499 336l400 -336l-187 -172l-258 227l-332 -227zM776 1544l-244 -1544h-401l244 1544h401z" />
    <glyph glyph-name="Idieresis" unicode="&#xcf;" horiz-adv-x="663" 
d="M921 2071q83 -1 133 -59t37 -142t-81 -142t-152 -59q-84 0 -134 58q-50 59 -37 143t82 142t152 59zM396 2071q83 -1 133 -59t37 -142t-81 -142q-67 -58 -151 -59q-84 0 -134 58q-50 59 -37 143t81 142t152 59zM776 1544l-244 -1544h-401l244 1544h401z" />
    <glyph glyph-name="Eth" unicode="&#xd0;" horiz-adv-x="1540" 
d="M895 1544q365 0 565 -217t148 -554q-54 -337 -326 -555t-627 -218h-524l100 633h-172l50 315h172l94 596h520zM676 340q193 0 336 109t176 317q32 208 -70 324q-102 115 -301 114h-94l-41 -256h225l-49 -315h-225l-47 -293h90z" />
    <glyph glyph-name="Ntilde" unicode="&#xd1;" horiz-adv-x="1804" 
d="M1040 2013q55 0 169 -35q114 -34 151 -34t56 17t40 56h174q-32 -127 -114 -225t-203 -98q-53 0 -153 38t-143 37q-44 -1 -66 -36q-5 -10 -19 -39h-168l2 22q16 104 74 182q86 115 200 115zM131 0l244 1544h401l586 -944h4l150 944h401l-244 -1544h-401l-586 946h-4
l-150 -946h-401z" />
    <glyph glyph-name="Ograve" unicode="&#xd2;" horiz-adv-x="1816" 
d="M920 1948l251 163l234 -352l-184 -121zM1098 1206q-178 0 -326 -123t-174 -284q-32 -197 74 -329t288 -132t330 132q147 132 180 329q26 163 -84 285t-288 122zM1130 1595q366 0 588 -221q102 -102 150 -253t20 -320q-59 -375 -338 -614q-280 -239 -652 -239t-574 240
t-144 613q35 227 186 411q150 184 360 284t404 99z" />
    <glyph glyph-name="Oacute" unicode="&#xd3;" horiz-adv-x="1816" 
d="M1518 1948l-400 -310l-147 121l344 352zM1098 1206q-178 0 -326 -123t-174 -284q-32 -197 74 -329t288 -132t330 132q147 132 180 329q26 163 -84 285t-288 122zM1130 1595q366 0 588 -221q102 -102 150 -253t20 -320q-59 -375 -338 -614q-280 -239 -652 -239t-574 240
t-144 613q35 227 186 411q150 184 360 284t404 99z" />
    <glyph glyph-name="Ocircumflex" unicode="&#xd4;" horiz-adv-x="1816" 
d="M743 1794l500 336l399 -336l-186 -172l-258 227l-332 -227zM1098 1206q-178 0 -326 -123t-174 -284q-32 -197 74 -329t288 -132t330 132q147 132 180 329q26 163 -84 285t-288 122zM1130 1595q366 0 588 -221q102 -102 150 -253t20 -320q-59 -375 -338 -614
q-280 -239 -652 -239t-574 240t-144 613q35 227 186 411q150 184 360 284t404 99z" />
    <glyph glyph-name="Otilde" unicode="&#xd5;" horiz-adv-x="1816" 
d="M1047 2013q55 0 169 -35q114 -34 150 -34q37 0 56 17t40 56h174q-32 -127 -114 -225t-203 -98q-53 0 -153 38t-143 37q-44 -1 -66 -36q-5 -10 -19 -39h-168l2 22q16 104 74 182q86 115 201 115zM1098 1206q-178 0 -326 -123t-174 -284q-32 -197 74 -329t288 -132t330 132
q147 132 180 329q26 163 -84 285t-288 122zM1130 1595q366 0 588 -221q102 -102 150 -253t20 -320q-59 -375 -338 -614q-280 -239 -652 -239t-574 240t-144 613q35 227 186 411q150 184 360 284t404 99z" />
    <glyph glyph-name="Odieresis" unicode="&#xd6;" horiz-adv-x="1816" 
d="M1498 2071q83 -1 133 -59t37 -142t-81 -142q-67 -58 -151 -59q-84 0 -134 58q-50 59 -37 143t81 142t152 59zM974 2071q83 -1 133 -59t37 -142t-81 -142t-152 -59q-84 0 -134 58q-50 59 -37 143t82 142t152 59zM1098 1206q-178 0 -326 -123t-174 -284q-32 -197 74 -329
t288 -132t330 132q147 132 180 329q26 163 -84 285t-288 122zM1130 1595q366 0 588 -221q102 -102 150 -253t20 -320q-59 -375 -338 -614q-280 -239 -652 -239t-574 240t-144 613q35 227 186 411q150 184 360 284t404 99z" />
    <glyph glyph-name="multiply" unicode="&#xd7;" 
d="M571 524l-262 310l252 217l258 -312l355 312l182 -217l-352 -310l258 -307l-252 -217l-258 307l-357 -307l-182 217z" />
    <glyph glyph-name="Oslash" unicode="&#xd8;" horiz-adv-x="1816" 
d="M1159 1595q283 0 488 -159l225 190l133 -164l-213 -182q139 -205 96 -479q-59 -375 -338 -614t-651 -238q-297 0 -489 157l-220 -188l-135 164l213 182q-135 227 -88 537q35 227 186 411q150 184 360 284t433 99zM961 338q182 0 329 132t180 329q17 102 -24 186
l-692 -588q88 -59 207 -59zM1098 1206q-178 0 -326 -123t-174 -284q-22 -134 25 -236l686 584q-92 59 -211 59z" />
    <glyph glyph-name="Ugrave" unicode="&#xd9;" horiz-adv-x="1593" 
d="M807 1948l252 163l233 -352l-184 -121zM790 -41q-336 0 -485 172q-61 70 -83 168t-16 175q5 77 23 202l138 868h401l-127 -813q-39 -241 11 -332q22 -37 71 -63t123 -25q208 0 280 188q34 85 60 232l127 813h401l-137 -868q-29 -188 -78 -316t-170 -229
q-203 -172 -539 -172z" />
    <glyph glyph-name="Uacute" unicode="&#xda;" horiz-adv-x="1593" 
d="M1405 1948l-399 -310l-148 121l344 352zM790 -41q-336 0 -485 172q-61 70 -83 168t-16 175q5 77 23 202l138 868h401l-127 -813q-39 -241 11 -332q22 -37 71 -63t123 -25q208 0 280 188q34 85 60 232l127 813h401l-137 -868q-29 -188 -78 -316t-170 -229
q-203 -172 -539 -172z" />
    <glyph glyph-name="Ucircumflex" unicode="&#xdb;" horiz-adv-x="1593" 
d="M631 1794l499 336l400 -336l-187 -172l-258 227l-331 -227zM790 -41q-336 0 -485 172q-61 70 -83 168t-16 175q5 77 23 202l138 868h401l-127 -813q-39 -241 11 -332q22 -37 71 -63t123 -25q208 0 280 188q34 85 60 232l127 813h401l-137 -868q-29 -188 -78 -316
t-170 -229q-203 -172 -539 -172z" />
    <glyph glyph-name="Udieresis" unicode="&#xdc;" horiz-adv-x="1593" 
d="M1385 2071q83 -1 133 -59t38 -142q-14 -84 -81 -143q-68 -58 -152 -58t-134 58q-50 59 -37 143q14 84 82 142t151 59zM861 2071q83 -1 133 -59t37 -142t-81 -142t-152 -59q-84 0 -133 58q-50 59 -37 143q14 84 82 142t151 59zM790 -41q-336 0 -485 172q-61 70 -83 168
t-16 175q5 77 23 202l138 868h401l-127 -813q-39 -241 11 -332q22 -37 71 -63t123 -25q208 0 280 188q34 85 60 232l127 813h401l-137 -868q-29 -188 -78 -316t-170 -229q-203 -172 -539 -172z" />
    <glyph glyph-name="Yacute" unicode="&#xdd;" horiz-adv-x="1462" 
d="M1380 1948l-399 -310l-147 121l344 352zM647 741l-442 803h481l223 -420l355 420h481l-696 -803l-117 -741h-402z" />
    <glyph glyph-name="Thorn" unicode="&#xde;" horiz-adv-x="1353" 
d="M694 590q181 0 242 43t76 146q15 102 -28 149q-42 47 -230 47h-68l-59 -385h67zM950 1298q260 0 391 -126t91 -381q-82 -524 -629 -525h-228l-43 -266h-401l244 1544h401l-39 -246h213z" />
    <glyph glyph-name="germandbls" unicode="&#xdf;" horiz-adv-x="1333" 
d="M908 1720q240 0 366 -118q127 -118 92 -334q-16 -104 -72 -178t-161 -144q147 -64 205 -162t30 -274q-18 -114 -78 -228q-166 -317 -612 -317h-80l51 318q119 -5 208 63t107 184t-52 187q-71 72 -185 63l47 297q92 -4 155 37t75 121t-24 122t-98 42q-62 -1 -100 -19
q-76 -38 -102 -215l-184 -1165h-373l96 608h-106l47 297h106l47 301q43 266 189 379q166 135 406 135z" />
    <glyph glyph-name="agrave" unicode="&#xe0;" horiz-adv-x="1396" 
d="M680 1516l254 163l233 -352l-186 -121zM571 -35q-229 0 -353 165t-87 396q37 232 211 396t393 164t314 -138l16 103h373l-166 -1051h-373l19 117h-5q-59 -74 -151 -113t-191 -39zM793 762q-111 0 -186 -69t-91 -170t37 -168t164 -67t187 68q76 66 91 167q17 101 -37 170
t-165 69z" />
    <glyph glyph-name="aacute" unicode="&#xe1;" horiz-adv-x="1396" 
d="M1237 1516l-399 -310l-146 121l344 352zM571 -35q-229 0 -353 165t-87 396q37 232 211 396t393 164t314 -138l16 103h373l-166 -1051h-373l19 117h-5q-59 -74 -151 -113t-191 -39zM793 762q-111 0 -186 -69t-91 -170t37 -168t164 -67t187 68q76 66 91 167q17 101 -37 170
t-165 69z" />
    <glyph glyph-name="acircumflex" unicode="&#xe2;" horiz-adv-x="1396" 
d="M463 1362l500 336l399 -336l-184 -172l-258 227l-332 -227zM571 -35q-229 0 -353 165t-87 396q37 232 211 396t393 164t314 -138l16 103h373l-166 -1051h-373l19 117h-5q-59 -74 -151 -113t-191 -39zM793 762q-111 0 -186 -69t-91 -170t37 -168t164 -67t187 68
q76 66 91 167q17 101 -37 170t-165 69z" />
    <glyph glyph-name="atilde" unicode="&#xe3;" horiz-adv-x="1396" 
d="M662 1262h-168v22q16 104 73 182q86 115 201 115q55 0 170 -35t152 -35q37 -1 55 17t41 57h174q-33 -129 -115 -226t-203 -97q-53 0 -153 38t-128 37t-46 -5q-19 -4 -29 -22t-11 -20l-7 -14t-6 -14zM571 -35q-229 0 -353 165t-87 396q37 232 211 396t393 164t314 -138
l16 103h373l-166 -1051h-373l19 117h-5q-59 -74 -151 -113t-191 -39zM793 762q-111 0 -186 -69t-91 -170t37 -168t164 -67t187 68q76 66 91 167q17 101 -37 170t-165 69z" />
    <glyph glyph-name="adieresis" unicode="&#xe4;" horiz-adv-x="1396" 
d="M1221 1638q84 0 133 -59t35 -142t-81 -141t-151 -59q-84 0 -135 58q-51 59 -37 143t83 142t153 58zM696 1638q84 0 133 -59t35 -142t-81 -141t-151 -59q-84 0 -134 58q-51 59 -37 143q15 84 83 142t152 58zM571 -35q-229 0 -353 165t-87 396q37 232 211 396t393 164
t314 -138l16 103h373l-166 -1051h-373l19 117h-5q-59 -74 -151 -113t-191 -39zM793 762q-111 0 -186 -69t-91 -170t37 -168t164 -67t187 68q76 66 91 167q17 101 -37 170t-165 69z" />
    <glyph glyph-name="aring" unicode="&#xe5;" horiz-adv-x="1396" 
d="M942 1522q-121 0 -135 -88q-6 -45 26 -67q33 -21 81 -21t87 22t46 66q6 44 -26 66t-79 22zM962 1669q132 0 216 -56t64 -178q-20 -121 -120 -179t-206 -58t-172 20t-106 75q-40 54 -26 139q18 123 118 180t232 57zM571 -35q-229 0 -353 165t-87 396q37 232 211 396
t393 164t314 -138l16 103h373l-166 -1051h-373l19 117h-5q-59 -74 -151 -113t-191 -39zM793 762q-111 0 -186 -69t-91 -170t37 -168t164 -67t187 68q76 66 91 167q17 101 -37 170t-165 69z" />
    <glyph glyph-name="ae" unicode="&#xe6;" horiz-adv-x="1925" 
d="M1325 -35q-139 0 -249 49t-140 158q-90 -96 -213 -152t-237 -55q-246 0 -355 150q-57 80 -41 188q29 176 168 263t303 87t285 -53l6 31q16 100 -48 142t-176 42t-298 -57l43 278q188 49 313 49q299 0 367 -186q73 90 189 138t235 48q272 -1 399 -157t84 -426l-6 -39h-785
q-37 -233 197 -234q121 0 193 97h358q-68 -174 -233 -268t-359 -93zM607 221q62 0 129 28t75 77t-25 76q-52 44 -161 44q-51 0 -105 -28q-53 -29 -62 -85t39 -84t110 -28zM1459 844q-81 0 -147 -43t-98 -123h433q-3 74 -55 120t-133 46z" />
    <glyph glyph-name="ccedilla" unicode="&#xe7;" horiz-adv-x="989" 
d="M698 -193l-356 -292l-143 100l317 324zM734 268q112 0 200 72l-49 -315q-127 -59 -273 -60q-238 0 -379 157q-141 158 -103 400t232 403q195 161 445 160q135 0 235 -61l-49 -315q-89 73 -189 73t-186 -74t-103 -184q-17 -112 45 -184t174 -72z" />
    <glyph glyph-name="egrave" unicode="&#xe8;" horiz-adv-x="1249" 
d="M555 1516l254 163l233 -352l-186 -121zM647 -35q-271 -1 -415 147t-103 410t225 413t450 151t394 -158q127 -156 84 -426l-6 -39h-784q-37 -233 196 -234q121 0 193 97h358q-68 -174 -233 -268t-359 -93zM775 844q-81 0 -147 -43t-98 -123h433q-3 74 -55 120t-133 46z
" />
    <glyph glyph-name="eacute" unicode="&#xe9;" horiz-adv-x="1249" 
d="M1174 1516l-400 -310l-145 121l344 352zM647 -35q-271 -1 -415 147t-103 410t225 413t450 151t394 -158q127 -156 84 -426l-6 -39h-784q-37 -233 196 -234q121 0 193 97h358q-68 -174 -233 -268t-359 -93zM775 844q-81 0 -147 -43t-98 -123h433q-3 74 -55 120t-133 46z
" />
    <glyph glyph-name="ecircumflex" unicode="&#xea;" horiz-adv-x="1249" 
d="M389 1362l500 336l399 -336l-184 -172l-258 227l-332 -227zM647 -35q-271 -1 -415 147t-103 410t225 413t450 151t394 -158q127 -156 84 -426l-6 -39h-784q-37 -233 196 -234q121 0 193 97h358q-68 -174 -233 -268t-359 -93zM775 844q-81 0 -147 -43t-98 -123h433
q-3 74 -55 120t-133 46z" />
    <glyph glyph-name="edieresis" unicode="&#xeb;" horiz-adv-x="1249" 
d="M1147 1638q84 0 133 -59t35 -142t-81 -141t-151 -59q-84 0 -135 58q-51 59 -37 143t83 142t153 58zM623 1638q84 0 133 -59t35 -142t-81 -141t-151 -59q-84 0 -135 58q-51 59 -37 143t83 142t153 58zM647 -35q-271 -1 -415 147t-103 410t225 413t450 151t394 -158
q127 -156 84 -426l-6 -39h-784q-37 -233 196 -234q121 0 193 97h358q-68 -174 -233 -268t-359 -93zM775 844q-81 0 -147 -43t-98 -123h433q-3 74 -55 120t-133 46z" />
    <glyph glyph-name="igrave" unicode="&#xec;" horiz-adv-x="618" 
d="M260 1516l254 163l234 -352l-187 -121zM662 1051l-166 -1051h-373l166 1051h373z" />
    <glyph glyph-name="iacute" unicode="&#xed;" horiz-adv-x="618" 
d="M838 1516l-400 -310l-145 121l344 352zM662 1051l-166 -1051h-373l166 1051h373z" />
    <glyph glyph-name="icircumflex" unicode="&#xee;" horiz-adv-x="618" 
d="M74 1362l499 336l400 -336l-185 -172l-258 227l-331 -227zM662 1051l-166 -1051h-373l166 1051h373z" />
    <glyph glyph-name="idieresis" unicode="&#xef;" horiz-adv-x="618" 
d="M831 1638q83 0 133 -59t36 -142t-81 -142q-67 -58 -151 -58t-135 58q-51 59 -37 143t82 142t153 58zM307 1638q84 0 133 -59t35 -142t-81 -141q-66 -58 -150 -59q-84 0 -135 58q-51 59 -37 143t82 142t153 58zM662 1051l-166 -1051h-373l166 1051h373z" />
    <glyph glyph-name="eth" unicode="&#xf0;" horiz-adv-x="1355" 
d="M799 762q-111 0 -186 -69t-91 -170t37 -168t164 -67t187 68q76 66 91 167q16 101 -37 170q-54 69 -165 69zM1417 766q0 -94 -10 -158q-51 -317 -265 -480t-483 -163q-211 0 -386 130q-85 65 -127 177t-19 250q39 242 232 390q194 148 413 149q53 0 119 -12
q-86 133 -195 229l-288 -141l-113 145l242 119q-100 72 -211 123l249 213q207 -102 297 -170l283 137l109 -150l-230 -112l74 -74q94 -94 129 -142q35 -47 74 -105t73 -160q33 -101 33 -195z" />
    <glyph glyph-name="ntilde" unicode="&#xf1;" horiz-adv-x="1353" 
d="M639 1262h-168v22q16 104 74 182q86 115 200 115q55 0 170 -35t152 -35q37 -1 55 17t41 57h174q-33 -129 -115 -226t-202 -97q-54 0 -154 38t-128 37q-28 0 -36 -2q-19 -4 -32 -18q-14 -14 -16 -21q-3 -8 -9 -20t-6 -14zM815 788q-195 0 -233 -243l-86 -545h-373
l166 1051h373l-21 -136h4q78 91 164 131t199 39q202 1 280 -115t45 -321l-102 -649h-373l82 512q0 6 5 35t6 41q10 122 -17 150l-32 32q-20 18 -87 18z" />
    <glyph glyph-name="ograve" unicode="&#xf2;" horiz-adv-x="1355" 
d="M608 1516l254 163l234 -352l-187 -121zM799 762q-111 0 -186 -69t-91 -170t37 -168t164 -67t187 68q76 66 91 167q16 101 -37 170q-54 69 -165 69zM850 1085q266 1 426 -151t119 -410q-29 -172 -138 -301t-261 -193t-324 -65q-264 0 -424 151q-160 150 -120 408t248 410
t474 151z" />
    <glyph glyph-name="oacute" unicode="&#xf3;" horiz-adv-x="1355" 
d="M1227 1516l-400 -310l-145 121l344 352zM799 762q-111 0 -186 -69t-91 -170t37 -168t164 -67t187 68q76 66 91 167q16 101 -37 170q-54 69 -165 69zM850 1085q266 1 426 -151t119 -410q-29 -172 -138 -301t-261 -193t-324 -65q-264 0 -424 151q-160 150 -120 408t248 410
t474 151z" />
    <glyph glyph-name="ocircumflex" unicode="&#xf4;" horiz-adv-x="1355" 
d="M442 1362l500 336l399 -336l-184 -172l-258 227l-332 -227zM799 762q-111 0 -186 -69t-91 -170t37 -168t164 -67t187 68q76 66 91 167q16 101 -37 170q-54 69 -165 69zM850 1085q266 1 426 -151t119 -410q-29 -172 -138 -301t-261 -193t-324 -65q-264 0 -424 151
q-160 150 -120 408t248 410t474 151z" />
    <glyph glyph-name="otilde" unicode="&#xf5;" horiz-adv-x="1355" 
d="M641 1262h-168v22q16 104 74 182q86 115 201 115q55 0 170 -35q116 -35 152 -35q36 -1 54 17t41 57h174q-33 -129 -115 -226t-202 -97q-54 0 -154 38t-138 37q-38 0 -50 -12q-12 -13 -26 -35t-13 -28zM799 762q-111 0 -186 -69t-91 -170t37 -168t164 -67t187 68
q76 66 91 167q16 101 -37 170q-54 69 -165 69zM850 1085q266 1 426 -151t119 -410q-29 -172 -138 -301t-261 -193t-324 -65q-264 0 -424 151q-160 150 -120 408t248 410t474 151z" />
    <glyph glyph-name="odieresis" unicode="&#xf6;" horiz-adv-x="1355" 
d="M1200 1638q84 0 133 -59t35 -142t-81 -141t-151 -59q-84 0 -135 58q-51 59 -37 143t84 142q68 58 152 58zM676 1638q84 0 133 -59t35 -142t-81 -141t-151 -59q-84 0 -135 58q-51 59 -37 143t83 142t153 58zM799 762q-111 0 -186 -69t-91 -170t37 -168t164 -67t187 68
q76 66 91 167q16 101 -37 170q-54 69 -165 69zM850 1085q266 1 426 -151t119 -410q-29 -172 -138 -301t-261 -193t-324 -65q-264 0 -424 151q-160 150 -120 408t248 410t474 151z" />
    <glyph glyph-name="divide" unicode="&#xf7;" 
d="M874 1087q60 0 98 -43t28 -104t-61 -104q-49 -43 -111 -43t-98 43t-25 104q8 61 58 104t111 43zM743 260q61 0 99 -43t26 -104q-10 -61 -60 -105t-112 -43q-62 0 -97 43q-36 42 -27 104q10 62 60 105t111 43zM287 680h1048l-49 -307h-1048z" />
    <glyph glyph-name="oslash" unicode="&#xf8;" horiz-adv-x="1355" 
d="M660 -35q-183 0 -320 82l-168 -143l-123 129l156 133q-111 147 -76 358q39 258 247 410t474 151q193 0 334 -81l168 143l123 -127l-158 -135q111 -150 78 -361q-29 -172 -138 -301t-261 -193t-336 -65zM723 289q111 1 187 67t91 168q6 49 -2 88l-362 -309q37 -14 86 -14z
M799 762q-111 0 -186 -69t-91 -169q-10 -47 0 -86l363 310q-43 14 -86 14z" />
    <glyph glyph-name="ugrave" unicode="&#xf9;" horiz-adv-x="1349" 
d="M596 1516l254 163l233 -352l-186 -121zM718 262q108 0 156 58t66 169l88 562h373l-101 -633q-70 -453 -630 -453q-258 1 -391 105t-97 348l101 633h372l-88 -562q-16 -113 14 -170q29 -57 137 -57z" />
    <glyph glyph-name="uacute" unicode="&#xfa;" horiz-adv-x="1349" 
d="M1235 1516l-399 -310l-146 121l344 352zM718 262q108 0 156 58t66 169l88 562h373l-101 -633q-70 -453 -630 -453q-258 1 -391 105t-97 348l101 633h372l-88 -562q-16 -113 14 -170q29 -57 137 -57z" />
    <glyph glyph-name="ucircumflex" unicode="&#xfb;" horiz-adv-x="1349" 
d="M440 1362l500 336l399 -336l-184 -172l-258 227l-332 -227zM718 262q108 0 156 58t66 169l88 562h373l-101 -633q-70 -453 -630 -453q-258 1 -391 105t-97 348l101 633h372l-88 -562q-16 -113 14 -170q29 -57 137 -57z" />
    <glyph glyph-name="udieresis" unicode="&#xfc;" horiz-adv-x="1349" 
d="M1198 1638q84 0 133 -59t35 -142t-81 -141t-151 -59q-84 0 -135 58q-51 59 -37 143t84 142q68 58 152 58zM674 1638q84 0 133 -59t35 -142t-81 -141t-151 -59q-84 0 -135 58q-51 59 -37 143t83 142t153 58zM718 262q108 0 156 58t66 169l88 562h373l-101 -633
q-70 -453 -630 -453q-258 1 -391 105t-97 348l101 633h372l-88 -562q-16 -113 14 -170q29 -57 137 -57z" />
    <glyph glyph-name="yacute" unicode="&#xfd;" horiz-adv-x="1339" 
d="M1249 1516l-399 -310l-145 121l344 352zM500 143l-365 908h430l197 -539l358 539h424l-1091 -1575h-418z" />
    <glyph glyph-name="thorn" unicode="&#xfe;" horiz-adv-x="1396" 
d="M831 762q-111 0 -185 -69t-91 -170q-16 -101 37 -168t164 -67q110 0 186 68q76 66 92 167t-38 170t-165 69zM814 -35q-218 0 -314 135l-101 -624h-372l352 2224h373l-121 -768h4q61 76 153 115t189 38q229 1 353 -165t87 -398t-211 -394q-174 -163 -392 -163z" />
    <glyph glyph-name="ydieresis" unicode="&#xff;" horiz-adv-x="1339" 
d="M1223 1638q84 0 133 -59t35 -142t-81 -141t-151 -59q-84 0 -135 58q-51 59 -37 143t83 142t153 58zM698 1638q84 0 133 -59t35 -142t-81 -141t-151 -59q-84 0 -134 58q-51 59 -37 143q15 84 83 142t152 58zM500 143l-365 908h430l197 -539l358 539h424l-1091 -1575h-418z
" />
    <glyph glyph-name="dotlessi" unicode="&#x131;" horiz-adv-x="618" 
d="M662 1051l-166 -1051h-373l166 1051h373z" />
    <glyph glyph-name="Lslash" unicode="&#x141;" horiz-adv-x="1091" 
d="M115 477l45 291l188 109l105 667h401l-63 -409l253 147l-47 -299l-254 -145l-79 -498h481l-53 -340h-883l92 584z" />
    <glyph glyph-name="lslash" unicode="&#x142;" horiz-adv-x="749" 
d="M188 0l107 678l-189 -105l41 254l189 107l121 766h372l-86 -545l189 105l-39 -256l-188 -105l-144 -899h-373z" />
    <glyph glyph-name="OE" unicode="&#x152;" horiz-adv-x="2334" 
d="M1095 1206q-179 0 -327 -127t-175 -306t79 -307t284 -128t325 128q146 128 175 307q30 179 -76 306t-285 127zM852 -51q-217 -1 -385 113t-247 304t-44 406q54 332 330 578t590 246t477 -193l22 141h869l-54 -340h-468l-41 -258h436l-53 -340h-437l-43 -266h469l-53 -340
h-868l26 170q-240 -221 -526 -221z" />
    <glyph glyph-name="oe" unicode="&#x153;" horiz-adv-x="2093" 
d="M1495 -35q-295 0 -397 182q-104 -100 -210 -141t-245 -41q-265 1 -411 149t-105 408t234 412q194 152 456 151q137 -1 233 -35t173 -122q143 158 419 158t404 -158q127 -156 84 -426l-6 -39h-785q-37 -233 197 -234q121 0 193 97h358q-68 -174 -233 -268t-359 -93z
M797 762q-97 0 -179 -71t-98 -168t43 -166t157 -69t181 70q82 68 98 165t-44 168t-158 71zM1617 844q-81 0 -147 -43t-98 -123h432q-2 74 -54 120t-133 46z" />
    <glyph glyph-name="Scaron" unicode="&#x160;" horiz-adv-x="1261" 
d="M489 1956l181 174l258 -229l332 229l129 -174l-506 -334zM911 1249q-63 0 -123 -35t-69 -98q-8 -63 41 -92q49 -30 112 -51l99 -31q172 -53 257 -150t56 -272q-44 -281 -232 -421t-466 -140t-504 176l223 324q160 -160 332 -160q79 0 143 40t74 107t-30 100
q-24 19 -36 29q-19 16 -165 62t-181 66t-70 46t-57 72q-22 45 -26 79t-4 76t8 91q37 233 209 375t418 143q246 0 450 -127l-209 -311q-109 102 -250 102z" />
    <glyph glyph-name="scaron" unicode="&#x161;" horiz-adv-x="1050" 
d="M317 1524l179 174l260 -230l329 230l132 -174l-506 -334zM748 831q-41 0 -81 -17t-45 -51t11 -47q37 -30 66 -35t49 -8t26 -5q295 -61 256 -312q-32 -194 -194 -292t-376 -98t-392 120l176 260q53 -43 133 -75q80 -31 134 -31t94 20t45 51q9 55 -37 75t-100 32t-77 18
q-102 29 -156 89q-54 59 -34 185t103 213q157 164 419 162q199 1 336 -67l-164 -238q-86 51 -192 51z" />
    <glyph glyph-name="Ydieresis" unicode="&#x178;" horiz-adv-x="1462" 
d="M1340 2071q84 -1 134 -59t36 -142t-80 -143q-68 -58 -152 -58t-134 58q-50 59 -37 143t81 142t152 59zM816 2071q83 -1 133 -59t37 -142t-81 -142q-67 -58 -151 -59q-84 0 -134 58q-50 59 -37 143t81 142t152 59zM647 741l-442 803h481l223 -420l355 420h481l-696 -803
l-117 -741h-402z" />
    <glyph glyph-name="Zcaron" unicode="&#x17d;" horiz-adv-x="1447" 
d="M604 1956l180 174l258 -229l332 229l129 -174l-506 -334zM752 340h647l-53 -340h-1323l921 1204h-606l53 340h1278z" />
    <glyph glyph-name="zcaron" unicode="&#x17e;" horiz-adv-x="1144" 
d="M365 1524l178 174l260 -230l330 230l131 -174l-506 -334zM688 309h442l-49 -309h-1065l611 741h-428l49 310h1048z" />
    <glyph glyph-name="florin" unicode="&#x192;" 
d="M1358 1700q166 0 256 -70l-111 -321q-74 61 -137 61t-103 -39q-39 -39 -53 -69t-27 -70q-13 -39 -16 -45l-39 -113h226l-51 -155h-226l-194 -572q-37 -111 -63 -177q-71 -180 -187 -304q-209 -221 -488 -197l-213 19l115 338q99 -18 161 -18q130 -1 214 138
q39 70 117 295l161 478h-176l49 155h181l75 221q72 207 177 304q147 141 352 141z" />
    <glyph glyph-name="circumflex" unicode="&#x2c6;" horiz-adv-x="1208" 
d="M369 1362l499 336l400 -336l-185 -172l-258 227l-331 -227z" />
    <glyph glyph-name="caron" unicode="&#x2c7;" horiz-adv-x="1208" 
d="M395 1524l178 174l261 -230l329 230l131 -174l-506 -334z" />
    <glyph glyph-name="uni02C9" unicode="&#x2c9;" horiz-adv-x="1234" 
d="M397 1540h926l-35 -219h-926z" />
    <glyph glyph-name="breve" unicode="&#x2d8;" horiz-adv-x="1103" 
d="M637 1606q0 -66 40 -102t107 -36q145 0 191 138h227q-35 -164 -159 -255q-123 -91 -293 -91t-265 91q-93 91 -77 255h229z" />
    <glyph glyph-name="dotaccent" unicode="&#x2d9;" horiz-adv-x="823" 
d="M674 1638q84 0 133 -59t35 -142t-81 -141t-151 -59q-84 0 -135 58q-51 59 -37 143t83 142t153 58z" />
    <glyph glyph-name="ring" unicode="&#x2da;" horiz-adv-x="935" 
d="M711 1522q-121 0 -136 -88q-6 -45 26 -67q32 -21 81 -21t88 22t45 66q7 44 -25 66t-79 22zM730 1669q132 0 216 -56t64 -178q-20 -121 -120 -179t-206 -58t-171 20t-105 75q-40 54 -27 139q17 123 117 180t232 57z" />
    <glyph glyph-name="ogonek" unicode="&#x2db;" horiz-adv-x="716" 
d="M479 0v-4q-135 -68 -147 -152q-6 -38 18 -66t64 -28q41 0 114 39l-75 -188q-70 -39 -158 -39t-141 51t-41 128q11 77 71 145t142 114h153z" />
    <glyph glyph-name="tilde" unicode="&#x2dc;" horiz-adv-x="1124" 
d="M524 1262h-168v22q16 104 74 182q86 115 201 115q55 0 170 -35t151 -35q36 -1 56 17q18 18 41 57h174q-33 -129 -115 -226t-203 -97q-53 0 -153 38t-138 37q-38 0 -55 -16q-16 -17 -19 -25l-10 -20t-6 -14z" />
    <glyph glyph-name="hungarumlaut" unicode="&#x2dd;" horiz-adv-x="1103" 
d="M1141 1667l-172 -438h-191l99 438h264zM784 1667l-172 -438h-190l98 438h264z" />
    <glyph glyph-name="uni03A9" unicode="&#x3a9;" horiz-adv-x="1779" 
d="M463 281v8q-109 102 -170 259t-31 353q47 301 297 516t594 215q178 0 315 -64q254 -119 322 -400q31 -126 10 -255q-63 -381 -403 -624v-8h338l-45 -281h-695l33 211q322 176 393 629q35 215 -48 360q-83 146 -264 146t-317 -144t-172 -372t20 -390q58 -162 175 -229
l-33 -211h-696l45 281h332z" />
    <glyph glyph-name="uni03BC" unicode="&#x3bc;" horiz-adv-x="1349" 
d="M718 262q108 0 156 58t66 169l88 562h373l-101 -633q-54 -344 -388 -431q-81 -22 -160 -22q-160 0 -252 101l-94 -590h-373l250 1575h372l-88 -562q-16 -113 14 -170q29 -57 137 -57z" />
    <glyph glyph-name="pi" unicode="&#x3c0;" horiz-adv-x="1521" 
d="M623 1210h1063l-76 -292h-164l-88 -558q-37 -229 -27 -360h-354q-31 68 12 342l92 576h-303q-39 -207 -124 -485t-167 -433h-354q88 197 174 468t115 450q-164 0 -240 -21v229q115 84 441 84z" />
    <glyph glyph-name="uni2010" unicode="&#x2010;" horiz-adv-x="802" 
d="M238 811h585l-49 -307h-586z" />
    <glyph glyph-name="endash" unicode="&#x2013;" horiz-adv-x="1024" 
d="M129 811h1024l-49 -307h-1024z" />
    <glyph glyph-name="emdash" unicode="&#x2014;" horiz-adv-x="2048" 
d="M395 811h1516l-49 -307h-1516z" />
    <glyph glyph-name="quoteleft" unicode="&#x2018;" horiz-adv-x="761" 
d="M524 866h-348l483 678h238z" />
    <glyph glyph-name="quoteright" unicode="&#x2019;" horiz-adv-x="761" 
d="M618 1544h349l-484 -678h-237z" />
    <glyph glyph-name="quotesinglbase" unicode="&#x201a;" horiz-adv-x="692" 
d="M367 391h348l-484 -678h-237z" />
    <glyph glyph-name="quotedblleft" unicode="&#x201c;" horiz-adv-x="1286" 
d="M524 866h-348l483 678h238zM1049 866h-349l484 678h237z" />
    <glyph glyph-name="quotedblright" unicode="&#x201d;" horiz-adv-x="1286" 
d="M1143 1544h348l-483 -678h-238zM618 1544h349l-484 -678h-237z" />
    <glyph glyph-name="quotedblbase" unicode="&#x201e;" horiz-adv-x="1216" 
d="M891 391h348l-483 -678h-238zM367 391h348l-484 -678h-237z" />
    <glyph glyph-name="dagger" unicode="&#x2020;" 
d="M776 1544h340l-65 -420h362l-47 -295h-362l-191 -1198h-340l191 1198h-361l47 295h361z" />
    <glyph glyph-name="daggerdbl" unicode="&#x2021;" 
d="M778 1544h340l-59 -379h360l-47 -295h-360l-45 -290h360l-47 -295h-360l-103 -652h-340l103 652h-363l47 295h363l45 290h-363l47 295h363z" />
    <glyph glyph-name="bullet" unicode="&#x2022;" 
d="M889 1159q164 -1 256 -113t66 -273q-25 -161 -153 -273t-292 -113q-164 0 -258 113q-94 114 -68 274t155 272q130 112 294 113z" />
    <glyph glyph-name="ellipsis" unicode="&#x2026;" horiz-adv-x="2048" 
d="M412 438q100 0 158 -70t42 -168q-16 -99 -96 -170t-180 -71t-160 71q-59 71 -43 170t97 169q82 69 182 69zM1776 438q100 0 158 -70t42 -168q-16 -99 -96 -170t-180 -71t-160 71q-59 71 -43 170t97 169q82 69 182 69zM1094 438q100 0 158 -70t42 -168q-16 -99 -96 -170
t-180 -71t-160 71q-59 71 -43 170t97 169q82 69 182 69z" />
    <glyph glyph-name="perthousand" unicode="&#x2030;" horiz-adv-x="2990" 
d="M1589 1544h201l-1141 -1544h-200zM2613 530q-72 0 -131 -51t-70 -123q-10 -72 32 -122t114 -50t131 50t72 122q10 72 -33 123t-115 51zM2646 735q180 0 286 -99q106 -100 76 -278q-28 -178 -163 -278t-319 -100t-288 100q-102 100 -73 278t165 278t316 99zM1620 530
q-72 0 -131 -51t-71 -123t32 -122q43 -50 115 -50t131 50t71 122q10 72 -32 123q-43 51 -115 51zM1653 735q180 0 285 -99q104 -100 76 -278t-163 -278t-319 -100t-287 100q-101 100 -73 278t164 278q137 99 317 99zM676 1360q-72 0 -131 -51t-71 -123t32 -122
q43 -50 115 -50t131 50t71 122q10 72 -32 123q-43 51 -115 51zM709 1565q180 1 285 -99q104 -100 76 -278t-162 -278t-318 -101q-184 0 -288 100q-102 101 -74 279t164 278t317 99z" />
    <glyph glyph-name="guilsinglleft" unicode="&#x2039;" horiz-adv-x="724" 
d="M457 655l207 -356l-234 -147l-272 503l432 504l182 -141z" />
    <glyph glyph-name="guilsinglright" unicode="&#x203a;" horiz-adv-x="724" 
d="M156 299l321 356l-201 363l228 141l272 -504l-432 -503z" />
    <glyph glyph-name="fraction" unicode="&#x2044;" horiz-adv-x="397" 
d="M791 1544h200l-1141 -1544h-200z" />
    <glyph glyph-name="Euro" unicode="&#x20ac;" 
d="M1167 1298q-293 0 -387 -264h586l-111 -209h-534q-17 -69 -19 -127h484l-111 -209h-375q10 -248 301 -247q215 0 338 100l-49 -322q-139 -80 -397 -79q-573 0 -582 548h-194l110 209h97q0 14 8 66t12 61h-174l111 209h114q199 569 762 570q129 0 227 -28t142 -60
l-51 -322q-88 104 -308 104z" />
    <glyph glyph-name="afii61289" unicode="&#x2113;" horiz-adv-x="1316" 
d="M981 1489q-59 0 -110 -79t-80 -263l-52 -316q297 274 332 486q27 172 -90 172zM715 -55q-201 0 -297 96t-103 260q0 12 2 21q-25 -14 -69 -44t-66 -42l-61 184q12 8 100 66t131 89l84 539q49 307 201 463t349 156t272 -120q76 -121 46 -311t-184 -379t-430 -405l-10 -84
q-10 -94 36 -149t132 -56q170 0 346 209l121 -149q-240 -344 -600 -344z" />
    <glyph glyph-name="trademark" unicode="&#x2122;" horiz-adv-x="1925" 
d="M1030 1544l-24 -160h-252l-107 -667h-198l106 667h-252l25 160h702zM2085 1544l-131 -827h-180l106 667h-4l-346 -667h-107l-133 667h-4l-106 -667h-181l131 827h291l111 -489l262 489h291z" />
    <glyph glyph-name="Omega" unicode="&#x2126;" horiz-adv-x="1779" 
d="M463 281v8q-109 102 -170 259t-31 353q47 301 297 516t594 215q178 0 315 -64q254 -119 322 -400q31 -126 10 -255q-63 -381 -403 -624v-8h338l-45 -281h-695l33 211q322 176 393 629q35 215 -48 360q-83 146 -264 146t-317 -144t-172 -372t20 -390q58 -162 175 -229
l-33 -211h-696l45 281h332z" />
    <glyph glyph-name="estimated" unicode="&#x212e;" horiz-adv-x="2265" 
d="M1845 809v455q0 33 -22 55q-239 235 -563 235t-564 -243q-23 -20 -22 -56v-446q0 -16 12 -16h1149q10 0 10 16zM2185 750h-1499q-12 0 -12 -11v-454q0 -31 18 -52q238 -244 568 -243q176 0 330 72t268 200h133q-127 -150 -320 -236t-414 -85q-383 -1 -654 243t-271 588
q0 226 124 418t337 304t464 112q385 0 657 -244t271 -590v-22z" />
    <glyph glyph-name="partialdiff" unicode="&#x2202;" horiz-adv-x="1447" 
d="M690 233h2q115 0 215 129t146 285q-7 61 -67 123t-165 61q-105 0 -193 -100t-108 -224t28 -199t142 -75zM608 -53q-131 0 -228 53q-172 94 -214 315q-18 94 -4 187q43 268 222 437t413 169q133 0 217 -61t112 -125h2q6 16 13 65q33 205 -55 358t-268 153
q-181 0 -349 -109l-59 253q218 140 510 140t458 -237t100 -657t-304 -681q-236 -260 -566 -260z" />
    <glyph glyph-name="uni2206" unicode="&#x2206;" horiz-adv-x="1642" 
d="M483 281h746l-146 622q-5 49 -31 193t-32 198h-8q-18 -41 -83 -173t-91 -187zM57 0l31 193l782 1447h435l307 -1443l-31 -197h-1524z" />
    <glyph glyph-name="product" unicode="&#x220f;" horiz-adv-x="2050" 
d="M1997 1290h-248v-1511h-358v1511h-478v-1511h-356v1511h-250v316h1690v-316z" />
    <glyph glyph-name="summation" unicode="&#x2211;" horiz-adv-x="1642" 
d="M1606 -221h-1299v215l572 696l-547 674v242h1231v-301h-742v-9l465 -553l-518 -637v-8h838v-319z" />
    <glyph glyph-name="minus" unicode="&#x2212;" 
d="M287 680h1048l-49 -307h-1048z" />
    <glyph glyph-name="uni2215" unicode="&#x2215;" horiz-adv-x="397" 
d="M791 1544h200l-1141 -1544h-200z" />
    <glyph glyph-name="uni2219" unicode="&#x2219;" horiz-adv-x="702" 
d="M473 764q99 0 159 -70t44 -169t-98 -170t-182 -71t-157 72q-58 70 -42 169t96 169t180 70z" />
    <glyph glyph-name="radical" unicode="&#x221a;" horiz-adv-x="1734" 
d="M1776 1927l-566 -2251h-282l-365 988l-180 -72l-57 186l448 185l244 -705q10 -38 28 -108t25 -97l4 -2q4 16 15 82t26 141l408 1653h252z" />
    <glyph glyph-name="infinity" unicode="&#x221e;" horiz-adv-x="2021" 
d="M1516 885h-3q-61 -1 -99 -25t-56 -36q-35 -22 -88 -87q-52 -66 -66 -80q104 -135 172 -184t153 -49t139 71t54 163t-57 159q-57 68 -149 68zM686 424h4q58 0 118 37t97 75t92 105q-45 61 -56 77t-51 62t-64 60q-72 44 -156 44q-84 1 -142 -65t-57 -165q1 -98 63 -164
t152 -66zM1913 664v-2q0 -193 -117 -309t-274 -115q-109 0 -211 57t-213 207q-102 -129 -202 -197q-100 -67 -244 -67t-259 116t-115 297q0 182 116 299t292 117q127 0 227 -65t197 -189q109 123 164 166q118 90 270 89q152 0 260 -112t109 -292z" />
    <glyph glyph-name="integral" unicode="&#x222b;" horiz-adv-x="1226" 
d="M1063 1753q-80 0 -123 -63q-59 -78 -59 -373q0 -184 19 -523q20 -339 20 -600t-84 -413q-98 -190 -338 -191q-123 0 -201 39l41 244q58 -25 118 -25t95 46q63 82 63 322t-19 588q-19 349 -19 550q0 202 35 324q36 122 116 206q104 111 303 111q95 0 156 -27l-33 -233
q-45 18 -90 18z" />
    <glyph glyph-name="approxequal" unicode="&#x2248;" horiz-adv-x="1507" 
d="M1077 248q-68 0 -125 22t-143 70q-127 80 -189 80t-109 -29q-46 -29 -70 -57t-66 -84l-123 121q56 106 156 176t217 69t293 -109q91 -58 157 -58q66 1 113 39t108 126l125 -118q-145 -248 -344 -248zM1296 1073l125 -119q-144 -248 -351 -248q-108 0 -246 85
q-138 84 -202 85q-102 2 -181 -83q-24 -27 -66 -84l-123 120q56 107 156 177t210 69q113 -1 233 -73q29 -18 55 -32q26 -16 33 -20t27 -14t28 -13q9 -3 28 -11q19 -7 69 -7q95 0 205 168z" />
    <glyph glyph-name="notequal" unicode="&#x2260;" horiz-adv-x="1538" 
d="M1425 1006v-201h-393l-135 -307h528v-199h-608l-119 -270l-157 67l90 203h-316v199h396l133 307h-529v201h607l116 262l160 -66l-88 -196h315z" />
    <glyph glyph-name="lessequal" unicode="&#x2264;" horiz-adv-x="1574" 
d="M1464 -43h-1110v205h1110v-205zM1458 244l-1096 522v215l1094 520v-227l-893 -397v-5l895 -399v-229z" />
    <glyph glyph-name="greaterequal" unicode="&#x2265;" horiz-adv-x="1572" 
d="M1458 -43h-1102v205h1102v-205zM367 1501l1093 -520v-217l-1093 -520v229l890 399v5l-890 397v227z" />
    <glyph glyph-name="lozenge" unicode="&#x25ca;" horiz-adv-x="1730" 
d="M1307 793l-265 522q-33 82 -43 131h-8q-12 -49 -45 -131l-264 -508l266 -528q33 -88 41 -123h10q20 80 41 118zM1620 801l-490 -918h-282l-479 918l489 919h283z" />
    <glyph glyph-name="fi" unicode="&#xfb01;" horiz-adv-x="1390" 
d="M1346 1663q86 0 137 -61q51 -62 38 -148t-85 -147t-158 -61t-137 60q-51 62 -39 148q14 86 86 148t158 61zM1434 1051l-166 -1051h-373l166 1051h373zM893 1720q88 0 154 -37l-52 -321q-75 35 -135 35t-96 -42t-51 -134l-27 -170h260l-49 -308h-260l-117 -743h-373
l117 743h-131l49 308h131l23 133q20 131 51 210t113 158q168 168 393 168z" />
    <glyph glyph-name="fl" unicode="&#xfb02;" horiz-adv-x="1413" 
d="M893 1720q88 0 154 -37l-52 -321q-75 35 -135 35t-96 -42t-51 -134l-27 -170h260l-49 -308h-260l-117 -743h-373l117 743h-131l49 308h131l23 133q20 131 51 210t113 158q168 168 393 168zM1559 1700l-269 -1700h-372l268 1700h373z" />
    <glyph glyph-name="a.superior" horiz-adv-x="837" 
d="M609 1585q142 0 204 -82l10 62h242l-100 -631h-242l12 70h-4q-77 -90 -223 -90t-228 98t-59 237t134 238q112 98 254 98zM602 1106q64 0 118 42q52 42 62 101q8 59 -29 102q-38 42 -104 42t-118 -42q-52 -41 -61 -101q-8 -60 30 -102t102 -42z" />
    <glyph glyph-name="o.superior" horiz-adv-x="839" 
d="M641 1391q-63 0 -115 -41q-52 -40 -61 -100q-10 -60 28 -101q37 -41 103 -41t117 41t61 100t-30 101t-103 41zM672 1585q172 0 277 -90t81 -246q-24 -155 -159 -245q-134 -90 -306 -90t-276 90q-103 90 -79 246t157 245q133 90 305 90z" />
    <glyph glyph-name="one.superior" horiz-adv-x="843" 
d="M551 1366h-143l30 203h404l-146 -926h-260z" />
    <glyph glyph-name="two.superior" horiz-adv-x="843" 
d="M638 1401q-50 0 -89 -37t-39 -115h-287q31 162 151 259q120 98 290 98t267 -92t75 -238q-16 -94 -66 -160t-143 -135l-179 -135h328l-31 -203h-806l477 412q131 115 149 227q8 45 -19 82q-28 37 -78 37z" />
    <glyph glyph-name="three.superior" horiz-adv-x="843" 
d="M542 815q62 0 107 34t53 87t-27 89q-36 36 -91 36q-14 0 -27 -3q-14 -3 -20 -3l24 159h27q51 0 87 28t43 72t-18 70q-26 26 -72 25q-46 0 -80 -31t-40 -75h-242q39 143 151 223t260 80t228 -72t61 -201t-137 -186q72 -16 106 -86t21 -148q-22 -143 -150 -224t-303 -81
t-267 105q-42 43 -66 109t-12 122h266q-10 -55 24 -92q32 -37 94 -37z" />
    </font>
</defs>
</svg>
