<?xml version="1.0" standalone="no"?>
<!DOCTYPE svg PUBLIC "-//W3C//DTD SVG 1.1//EN" "http://www.w3.org/Graphics/SVG/1.1/DTD/svg11.dtd" >
<svg xmlns="http://www.w3.org/2000/svg">
<metadata>
Created by FontPrep 20130207 at Wed Jul 16 09:05:55 2014
 By Michael Elliott
(c) 1986, 1987, 1992, 2001, 2002 Adobe Systems Incorporated. All rights reserved.
</metadata>
<defs>
<font id="e249695cdbecd14877b7295154a59237" horiz-adv-x='1024' >
  <font-face 
    font-family="GalliardStd-Italic"
    font-weight="400"
    font-style="italic"
    font-stretch="normal"
    units-per-em="2048"
    panose-1="2 2 5 2 6 5 11 9 10 4"
    ascent="1470"
    descent="-578"
    x-height="926"
    cap-height="1393"
    bbox="-332 -530.92 2251 1974"
    underline-thickness="102"
    underline-position="-102"
    slope="-14"
    unicode-range="U+0020-FB02"
  />
<missing-glyph horiz-adv-x="1378" 
d="M457 1239v-1044l348 522zM518 102h696l-348 523zM928 717l348 -522v1044zM866 809l348 522h-696zM354 0v1434h1024v-1434h-1024z" />
    <glyph glyph-name="f_i" unicode="fi" horiz-adv-x="1105" 
d="M872 695q0 43 -60 40q-60 -2 -64 -2h-228l-137 -612q-74 -324 -154 -438q-47 -63 -145 -125t-169 -62t-111 40t-31 90q8 50 59 81q31 -24 87 -60q78 -50 116 -50q100 0 170 356l160 780h-170l10 45l182 51q56 218 183 392q67 90 162 144q96 54 194 54t164 -43
q66 -44 66 -116t-39 -112q-38 -40 -97 -30q-16 240 -160 240q-165 0 -277 -379q-24 -78 -42 -164h125q206 0 273 44t85 44t32 -10q14 -9 15 -25q0 -16 -76 -269t-137 -476l14 -6q154 92 306 262l26 -17q-238 -389 -426 -389q-33 0 -52 23q-19 22 -20 62t82 331
q84 291 84 306z" />
    <glyph glyph-name="f_l" unicode="fl" horiz-adv-x="1187" 
d="M35 -403q100 0 170 356l160 780h-170l10 45l182 51q56 218 183 392q147 198 375 198q118 0 210 -49l121 57l39 -26l-420 -1260l16 -14q123 63 299 231l25 -20q-57 -100 -207 -232t-237 -133q-27 0 -43 22q-16 23 -16 53t32 132l352 1082q-82 116 -204 116t-196 -96
q-75 -96 -103 -186q-50 -160 -72 -281h272l-20 -82h-273l-137 -612q-74 -324 -154 -438q-47 -63 -145 -125t-169 -62t-111 40t-31 90q8 50 59 81q31 -24 87 -60q78 -50 116 -50z" />
    <glyph glyph-name=".notdef" horiz-adv-x="1378" 
d="M457 1239v-1044l348 522zM518 102h696l-348 523zM928 717l348 -522v1044zM866 809l348 522h-696zM354 0v1434h1024v-1434h-1024z" />
    <glyph glyph-name=".null" horiz-adv-x="0" 
 />
    <glyph glyph-name="nonmarkingreturn" horiz-adv-x="681" 
 />
    <glyph glyph-name="space" unicode=" " horiz-adv-x="532" 
 />
    <glyph glyph-name="exclam" unicode="!" horiz-adv-x="655" 
d="M364 -27q-48 0 -80 32t-32 78t33 80t79 34t79 -30q32 -30 32 -77t-31 -82t-80 -35zM608 1419q98 0 99 -112q0 -70 -70 -293l-182 -592h-43l57 668q16 176 39 243q27 86 100 86z" />
    <glyph glyph-name="quotedbl" unicode="&#x22;" horiz-adv-x="942" 
d="M446 768q-20 0 -12 43l107 471q31 137 102 137q51 0 51 -53q0 -33 -37 -125l-161 -393q-30 -80 -50 -80zM765 768q-19 0 -11 43l106 471q31 137 103 137q51 0 51 -53q0 -33 -37 -125l-162 -393q-31 -80 -50 -80z" />
    <glyph glyph-name="numbersign" unicode="#" 
d="M864 852h-268l-43 -285h268zM1141 567v-114h-221l-68 -453h-115l68 453h-268l-70 -453h-115l70 453h-213v114h229l43 285h-223v115h242l63 426h115l-64 -426h269l63 426h115l-64 -426h193v-115h-211l-43 -285h205z" />
    <glyph glyph-name="dollar" unicode="$" 
d="M889 313q0 82 -49 160t-123 131l-117 -579q129 -1 209 79t80 209zM567 1122q0 -96 73 -191q24 -30 73 -83l110 520l-26 -2q-92 0 -161 -74t-69 -170zM1057 371q0 -131 -79 -225q-139 -164 -388 -173l-39 -194l-70 16l41 178q-180 25 -338 115l92 375l33 -8l-4 -144
q0 -223 227 -286l136 620q-8 8 -52 46t-55 50q-12 12 -45 47t-45 57q-11 22 -37 67t-26 132q0 178 123 275q124 96 300 100l33 142l60 -17l-29 -125q156 -12 279 -96l-105 -301l-33 12l11 123q0 193 -168 211l-119 -553q31 -23 117 -107t104 -116t38 -66q38 -66 38 -155z
" />
    <glyph glyph-name="percent" unicode="%" horiz-adv-x="1351" 
d="M1278 1442l82 -49q-397 -553 -991 -1469l-72 47q707 1043 981 1471zM637 1378q-55 0 -109 -89t-86 -202q-30 -113 -30 -167t4 -86t20 -64q16 -33 45 -33q86 -1 155 187t69 321t-68 133zM652 1419q92 0 128 -59q36 -60 35 -156q0 -96 -42 -213t-127 -206t-178 -89t-130 62
t-37 164q0 100 43 215q44 115 130 199t178 83zM1196 655q-56 0 -110 -89q-54 -90 -85 -202t-31 -166t5 -86q4 -32 20 -65t45 -33q86 0 155 188t69 320q0 133 -68 133zM1211 696q163 0 163 -204q0 -106 -42 -224t-127 -206q-85 -89 -178 -89q-93 1 -130 63t-37 162t43 216
q43 114 129 198t179 84z" />
    <glyph glyph-name="ampersand" unicode="&#x26;" horiz-adv-x="1925" 
d="M1204 1419q42 1 64 -21q51 -51 -26 -128q-25 -28 -44 -43l-807 -756q66 -156 209 -248t315 -92q125 0 231 49t176 129q205 231 247 629q-90 51 -173 51t-113 -38q-17 -22 -27 -37t-15 -51q-4 -36 -5 -51t0 -58t1 -52q0 -111 -74 -129q-55 -12 -86 33q-12 18 -12 39
q0 71 63 179q62 108 176 196t212 88t184 -49t140 -109t102 -108q48 -49 69 -49q53 0 31 116q-8 43 6 80t51 37q68 0 70 -59q0 -82 -77 -159t-149 -77t-171 69q-31 22 -84 64t-60 47q-32 -151 -68 -269t-103 -249t-149 -218t-210 -144q-127 -57 -283 -58q-248 0 -416 173
q-168 174 -168 414q1 240 149 412t376 173q102 -1 225 -60l168 172q-37 78 -12 120t67 42zM608 1049q-74 1 -141 -55t-95 -138t-29 -174t30 -166l397 389l2 23q0 53 -45 87t-119 34z" />
    <glyph glyph-name="quotesingle" unicode="'" horiz-adv-x="573" 
d="M404 768q-20 0 -11 43l107 471q31 137 102 137q51 0 51 -53q0 -33 -37 -125l-161 -393q-31 -80 -51 -80z" />
    <glyph glyph-name="parenleft" unicode="(" horiz-adv-x="860" 
d="M379 324q0 338 192 641q193 303 494 514l31 -37q-272 -205 -429 -517q-157 -311 -157 -645t160 -653l-45 -24q-246 342 -246 721z" />
    <glyph glyph-name="parenright" unicode=")" horiz-adv-x="860" 
d="M760 758q0 -338 -193 -641t-493 -514l-31 37q272 205 429 517t157 645t-160 652l45 25q246 -342 246 -721z" />
    <glyph glyph-name="asterisk" unicode="*" horiz-adv-x="1105" 
d="M922 1380l-66 -262l264 56l21 -150l-269 -20l134 -234l-134 -65l-102 249l-182 -198l-103 106l205 174l-246 111l72 133l227 -141l31 266z" />
    <glyph glyph-name="plus" unicode="+" 
d="M209 508h399v399h109v-399h399v-109h-399v-399h-109v399h-399v109z" />
    <glyph glyph-name="comma" unicode="," horiz-adv-x="532" 
d="M311 -43q0 45 -24 74q-25 29 -56 38t-55 33t-24 62t30 66t70 28q80 0 131 -63t51 -148q0 -163 -126 -291t-292 -157l-12 41q307 98 307 317z" />
    <glyph glyph-name="hyphen" unicode="-" horiz-adv-x="696" 
d="M297 670h467l-51 -127h-467z" />
    <glyph glyph-name="period" unicode="." horiz-adv-x="532" 
d="M313 -27q-49 0 -81 32t-32 78t33 80t80 34t79 -30t32 -77t-31 -82t-80 -35z" />
    <glyph glyph-name="slash" unicode="/" horiz-adv-x="942" 
d="M1130 1479l82 -64q-717 -1020 -1142 -1696l-88 66z" />
    <glyph glyph-name="zero" unicode="0" 
d="M856 1368q-92 0 -194 -150t-172 -388q-70 -237 -68 -461q0 -224 63 -306q31 -39 76 -38q88 1 173 123q142 205 229 628q33 166 33 238q-2 354 -140 354zM907 1419q78 0 135 -37t85 -100q100 -224 10 -588q-104 -421 -337 -611q-134 -110 -296 -110q-74 0 -128 40
q-92 68 -125 237q-13 68 -13 135q0 237 83 473t241 398t345 163z" />
    <glyph glyph-name="one" unicode="1" 
d="M993 1393l-282 -1055q-9 -41 -17 -68q-8 -28 -10 -54t-5 -41t6 -33t12 -27q3 -8 45 -30t93 -32t107 -22l-8 -31h-739l8 31q180 16 246 102q35 47 51 88t35 117l159 584q70 252 61 313t-83 88q-31 10 -148 37l8 33h461z" />
    <glyph glyph-name="two" unicode="2" 
d="M727 164q158 0 197 20t108 135q10 14 15 23l26 -16l-125 -326h-854l-10 37q212 142 375 293q164 152 258 262t157 232q64 124 64 230t-57 164q-57 60 -157 60t-194 -54q-92 -54 -153 -137l-29 17q59 129 181 222t258 93q135 0 229 -89t94 -228t-103 -306t-208 -251
l-469 -381h397z" />
    <glyph glyph-name="three" unicode="3" 
d="M642 668q-106 0 -236 -54l-19 41q6 4 92 44t130 63t125 73t125 90t80 95q36 54 36 120q-1 66 -59 105t-147 39t-163 -41t-160 -123l-26 27q76 119 188 195t239 77q126 -1 213 -69t87 -186t-95 -193q-95 -76 -187 -122q-91 -46 -111 -56q131 -15 217 -99t86 -215
q1 -207 -183 -357t-393 -149q-111 -1 -223 59t-111 163q0 39 24 65q25 26 65 27q40 0 70 -41t45 -90t55 -90t104 -41q139 0 251 126q111 126 111 257q0 132 -62 196t-168 64z" />
    <glyph glyph-name="four" unicode="4" 
d="M338 565h444l152 598zM862 146q0 -12 16 -33q16 -20 30 -30q23 -16 175 -52l-8 -31h-682l8 31q177 16 239 102q34 47 50 88t35 117l25 102h-586l-12 33l972 963l47 -27q-135 -428 -231 -844h248l-31 -125h-248l-24 -102q-11 -55 -17 -89q-6 -33 -6 -103z" />
    <glyph glyph-name="five" unicode="5" 
d="M1063 489q0 -217 -177 -367t-399 -149q-156 0 -261 87q-58 48 -58 102t26 86q26 31 68 31t67 -40q26 -40 38 -87t51 -87t102 -40q162 0 266 130t105 296q0 127 -84 199q-85 72 -227 73q-142 0 -209 -76h-29l250 746h434q14 0 46 8t50 26t47 54l15 -15l-90 -237h-486
l-121 -383q76 29 156 28q176 0 298 -104t122 -281z" />
    <glyph glyph-name="six" unicode="6" 
d="M723 885q-87 0 -151 -44t-96 -120q-60 -142 -60 -322q0 -83 14 -159t64 -146t129 -70q78 0 140 61q107 103 152 327q18 88 19 155q0 318 -211 318zM838 971q141 -1 211 -99t69 -249q0 -250 -168 -450t-409 -200q-158 0 -234 118q-76 117 -76 299t79 359q140 315 509 545
q160 101 340 164l17 -41q-428 -211 -586 -520q140 74 248 74z" />
    <glyph glyph-name="seven" unicode="7" 
d="M688 1229q-123 -1 -158 -21t-98 -123q-10 -14 -14 -22l-27 12l109 318h827l8 -25l-1011 -1423l-68 55l905 1229h-473z" />
    <glyph glyph-name="eight" unicode="8" 
d="M1020 1106q0 106 -62 184t-162 78t-154 -76t-54 -172q0 -151 139 -284l94 -93q87 63 143 159t56 204zM1038 375q0 -174 -156 -288t-314 -114q-160 0 -267 77q-106 77 -106 212q0 180 123 282t282 175q-7 10 -38 44q-138 155 -138 271q0 168 136 277t308 108
q132 0 224 -78t92 -221t-112 -244q-58 -52 -104 -82t-130 -75q6 -6 34 -36t36 -39q130 -130 130 -269zM670 641l-47 47q-115 -62 -180 -164t-65 -222t70 -199q68 -79 176 -79t180 78t70 194q0 116 -100 230q-27 31 -48 56q-21 24 -56 59z" />
    <glyph glyph-name="nine" unicode="9" 
d="M664 524q87 0 174 66q29 23 75 65q92 201 93 404q0 121 -43 215t-147 94t-188 -111q-83 -111 -119 -239t-36 -225q1 -269 191 -269zM870 1419q156 -1 238 -109t82 -281t-80 -353t-211 -324q-148 -167 -305 -248t-363 -159l-14 37q180 82 353 232t270 316
q-108 -59 -166 -73q-57 -14 -109 -15q-137 0 -207 89t-69 231q0 248 170 452t411 205z" />
    <glyph glyph-name="colon" unicode=":" horiz-adv-x="532" 
d="M448 676q-48 0 -80 32t-32 78t33 79q33 34 79 34t79 -30q32 -31 32 -77t-31 -81t-80 -35zM272 -27q-49 0 -81 32q-31 32 -31 78t33 80t79 34t79 -30q32 -30 32 -77t-31 -82t-80 -35z" />
    <glyph glyph-name="semicolon" unicode=";" horiz-adv-x="532" 
d="M438 676q-49 0 -81 32q-31 32 -31 78t32 79q33 34 80 34t79 -30q32 -31 32 -77t-31 -81t-80 -35zM287 -43q0 45 -25 74q-26 29 -56 38t-54 33t-25 62q0 38 30 66t70 28q80 0 131 -63t52 -148q0 -163 -126 -291t-292 -157l-12 41q307 98 307 317z" />
    <glyph glyph-name="less" unicode="&#x3c;" 
d="M154 397v101l737 342v-111l-612 -285l612 -276v-102z" />
    <glyph glyph-name="equal" unicode="=" 
d="M250 373h907v-109h-907v109zM250 641h907v-109h-907v109z" />
    <glyph glyph-name="greater" unicode="&#x3e;" 
d="M946 498v-101l-737 -342v111l612 285l-612 276v102z" />
    <glyph glyph-name="question" unicode="?" horiz-adv-x="819" 
d="M498 -27q-49 0 -81 32t-32 78t33 80t80 34t79 -30q31 -30 31 -77t-30 -82t-80 -35zM383 601q0 77 48 135t116 104q67 46 135 91t116 111t48 138t-41 106t-109 35q-141 0 -227 -184h-16q-45 41 -45 111t64 120q65 51 151 51q135 0 218 -94t83 -231q0 -76 -32 -140
t-78 -103q-91 -79 -201 -153q-111 -74 -111 -166q0 -50 36 -94t85 -71l-15 -27q-84 28 -154 106t-71 155z" />
    <glyph glyph-name="at" unicode="@" horiz-adv-x="1474" 
d="M1083 334q129 0 262 158q132 158 132 366t-150 339q-150 132 -352 132q-281 0 -467 -202t-186 -494q0 -248 150 -409t388 -161q168 1 323 87t244 231h82q-84 -182 -270 -295t-387 -113q-274 -1 -458 187t-185 469q0 207 102 389q103 182 279 292t379 109q248 -1 423 -151
t175 -398t-166 -425t-346 -177q-55 0 -102 31q-46 31 -48 82q-119 -113 -248 -113q-92 0 -145 72t-53 184t63 254q63 140 180 242t248 102q63 0 118 -30t67 -86l34 88h164l-229 -535q-80 -186 -55 -213q10 -12 34 -12zM980 1067q-83 0 -178 -126q-94 -125 -150 -275
t-56 -216t28 -94q28 -29 70 -28q145 0 256 252l117 280q33 68 15 138t-102 69z" />
    <glyph glyph-name="A" unicode="A" horiz-adv-x="1556" 
d="M1153 674l-20 567l-379 -567h399zM1165 336l-4 242h-473l-33 -54q-205 -317 -204 -391q0 -29 21 -43q60 -38 109 -48q50 -9 54 -11l-8 -31h-633l8 31q101 13 149 40q49 27 73 39t59 49q35 36 49 48t49 60q35 47 44 59t48 70t45 69l508 749q78 121 88 166q57 4 152 54
l24 -15v-151l6 -185l39 -712q0 -12 2 -35q8 -164 35 -211q43 -78 213 -92l19 -2l-9 -31h-688l8 31q166 25 208 80t42 225z" />
    <glyph glyph-name="B" unicode="B" horiz-adv-x="1269" 
d="M1288 397q0 -397 -616 -397h-596l8 31q175 16 239 102q34 47 50 88t35 117l174 717q26 110 26 142t1 52t-41 55q-21 16 -185 58l8 31h451q227 0 317 -38q45 -19 92 -51q97 -66 97 -212q0 -265 -383 -355l-4 -4q139 -31 233 -117t94 -219zM737 45q149 0 244 101
q94 101 94 251q0 191 -118 257q-105 61 -281 69l-107 -436q-20 -117 -8 -156q27 -86 176 -86zM1147 1112q0 116 -92 174q-93 59 -228 55l-139 -571q179 -12 307 49q152 72 152 293z" />
    <glyph glyph-name="C" unicode="C" horiz-adv-x="1515" 
d="M1223 1370q-197 0 -372 -108t-277 -287q-102 -178 -103 -377q0 -240 151 -408t386 -167q191 0 316 141q65 72 102 129q38 57 94 156l28 -13l-151 -387q-195 -76 -447 -76q-296 0 -500 168t-204 455q0 154 60 288t162 230q215 201 511 270q145 35 331 35t355 -49
l-111 -403l-32 4q39 399 -299 399z" />
    <glyph glyph-name="D" unicode="D" horiz-adv-x="1638" 
d="M973 1393q745 0 745 -582q0 -184 -84 -349t-232 -276q-148 -110 -324 -148t-400 -38h-604l8 31q149 20 192 57q23 18 38 30t31 41q15 30 24 44q8 14 20 58t19 66q6 22 19 80t21 89l138 559q31 131 27 170q-3 39 -12 53q-25 40 -216 84l8 31h582zM778 49q320 1 524 229
t203 549q0 526 -678 514l-209 -845q-32 -121 -37 -146q-5 -26 -15 -68t-7 -64q2 -22 6 -54q5 -32 21 -49q49 -48 95 -57t97 -9z" />
    <glyph glyph-name="E" unicode="E" horiz-adv-x="1269" 
d="M608 1197q0 32 1 52t-41 55q-21 16 -185 58l8 31h1012l-107 -320h-28l2 31q0 152 -43 190t-201 37h-203l-135 -559h346q43 0 73 40q11 15 37 52t44 62h26l-118 -445h-31l4 121q-2 54 -12 64t-74 10h-317l-82 -338q-47 -158 -5 -217t232 -60q100 1 169 19q120 32 215 172
q38 55 91 160l29 -9l-125 -403h-1114l8 31q175 16 239 102q34 47 50 88q17 41 35 117l174 717q26 110 26 142z" />
    <glyph glyph-name="F" unicode="F" horiz-adv-x="1146" 
d="M686 739h217q84 0 154 14q10 1 33 20q22 19 26 27t32 44q28 37 42 57h29l-129 -461h-31v144q0 45 -6 52t-47 7h-344l-76 -305q-12 -51 -20 -82q-8 -32 -7 -62q0 -30 -1 -51t38 -48q40 -26 217 -64l-8 -31h-727l8 31q175 16 239 102q34 47 50 88t35 117l178 717
q43 174 9 224t-214 83l8 31h1008l-111 -355h-37q0 25 2 72q2 46 1 66t-6 53t-18 45t-44 34q-31 23 -150 23h-202z" />
    <glyph glyph-name="G" unicode="G" horiz-adv-x="1515" 
d="M1172 1370q-196 0 -367 -124q-170 -124 -260 -311t-90 -401t134 -362t357 -149q66 0 105 10q63 16 96 105q10 28 29 98l28 120q25 100 13 125q-16 39 -146 72q-39 10 -125 29l8 30h658l-8 -30q-121 -37 -156 -69t-64 -140l-41 -150q-31 -115 -30 -166q-209 -84 -463 -84
t-431 157t-177 415t136 459q136 200 351 308q410 205 922 23l-146 -383l-26 9q53 185 -29 297t-278 112z" />
    <glyph glyph-name="H" unicode="H" horiz-adv-x="1761" 
d="M690 776h778l68 279q26 110 26 142q1 32 2 51t-41 56q-19 15 -73 29t-113 29l9 31h698l-8 -31q-175 -16 -239 -102q-34 -46 -50 -88t-35 -117l-176 -717q-26 -110 -27 -142q-2 -32 -3 -50t43 -57q26 -20 186 -58l-9 -31h-698l8 31q177 16 239 102q34 47 50 88t35 117
l86 342h-778l-84 -342q-12 -51 -20 -82q-8 -32 -8 -62q-1 -30 -2 -50t43 -55q26 -20 185 -58l-8 -31h-698l8 31q175 16 239 102q34 47 50 88t35 117l176 717q26 110 27 142t2 52t-43 55q-21 16 -185 58l8 31h699l-9 -31q-174 -16 -238 -102q-34 -46 -50 -88t-35 -117z" />
    <glyph glyph-name="I" unicode="I" horiz-adv-x="860" 
d="M434 338l180 717q12 51 20 82q7 31 8 61t2 51q1 20 -43 55q-21 16 -185 58l8 31h698l-8 -31q-174 -16 -238 -102q-34 -46 -50 -88t-35 -117l-181 -717q-26 -110 -27 -142t-2 -52t43 -55q26 -20 185 -58l-8 -31h-699l9 31q176 16 238 102q34 47 50 88q17 41 35 117z" />
    <glyph glyph-name="J" unicode="J" horiz-adv-x="819" 
d="M651 1248q0 19 -55 56q-29 17 -238 58l9 31h766l-9 -31q-174 -16 -238 -102q-34 -46 -50 -88t-35 -117l-223 -883q-2 -7 -32 -135q-30 -129 -78 -206t-100 -133q-97 -105 -266 -151q-90 -25 -194 -24h-96l8 31q162 -20 314 94t179 223l312 1184q12 51 20 82t7 61t-1 50z
" />
    <glyph glyph-name="K" unicode="K" horiz-adv-x="1597" 
d="M934 799l123 -258q45 -94 87 -183t69 -120q26 -31 60 -69q33 -38 61 -50t74 -34t95 -32t119 -22l-8 -31l-281 -14q-147 0 -215 70q-40 40 -64 80t-61 114l-241 498l487 389q154 126 97 174q-27 23 -72 35q-44 12 -50 14l9 33h608l-8 -31q-102 -22 -172 -46t-152 -76
t-124 -85t-167 -133zM408 338l180 717q26 110 27 142t2 52t-43 55q-21 16 -185 58l8 31h699l-9 -31q-174 -16 -238 -102q-34 -46 -50 -88t-35 -117l-180 -717q-12 -51 -20 -82q-8 -32 -8 -62q-1 -30 -2 -50t43 -55q26 -20 185 -58l-8 -31h-698l8 31q175 16 239 102
q34 47 50 88q17 41 35 117z" />
    <glyph glyph-name="L" unicode="L" horiz-adv-x="1228" 
d="M608 1197q0 32 1 52t-41 55q-21 16 -185 58l8 31h715l-8 -31q-205 -17 -275 -135q-34 -59 -61 -172l-178 -721q-25 -100 -30 -154q-6 -54 18 -82q24 -29 60 -35t116 -6q240 0 348 77t221 321l29 -11l-142 -444h-1128l8 31q175 16 239 102q34 47 50 88q17 41 35 117
l174 717q26 110 26 142z" />
    <glyph glyph-name="M" unicode="M" horiz-adv-x="1843" 
d="M1581 194q0 -30 -1 -50t30 -46q32 -25 85 -39q54 -14 113 -28l-8 -31h-698l8 31q175 16 239 102q34 47 50 88q17 41 35 117l192 754h-4l-731 -1059q-2 -3 -9 -15q-23 -41 -44 -43q-19 0 -19 35l-82 1100h-4l-293 -772q-40 -109 -44 -138q-5 -30 -8 -44q-12 -54 108 -87
q81 -22 145 -38l-8 -31h-574l9 31q161 44 187 79q47 57 65 106q18 50 47 122l249 661q79 222 52 270q-10 17 -42 39t-77 32t-125 22l8 31h451l98 -1102l500 713q160 229 225 389h405l-8 -31q-110 -19 -144 -38t-56 -32t-47 -57q-25 -43 -38 -86q-12 -43 -20 -69t-22 -87
t-25 -100l-141 -555q-12 -51 -20 -82q-8 -32 -9 -62z" />
    <glyph glyph-name="N" unicode="N" horiz-adv-x="1720" 
d="M801 1393l614 -1117l193 779q35 136 26 179q-8 42 -21 57t-57 30t-138 27q-95 12 -107 14l8 31h690l-8 -31q-123 -17 -201 -67q-52 -32 -88 -147q-12 -38 -33 -120l-172 -688q-18 -70 -24 -104t5 -77q11 -45 21 -63t54 -96h-203l-580 1057l-176 -721q-45 -188 -1 -232
t265 -69q20 -2 31 -4l-8 -31h-717l8 31q115 5 153 21t58 26t42 41t37 52t50 156q35 134 45 169l88 358q45 164 38 264t-78 152t-244 92l8 31h422z" />
    <glyph glyph-name="O" unicode="O" horiz-adv-x="1556" 
d="M1094 1370q-236 0 -432 -260t-195 -625q0 -188 88 -325t262 -137q137 0 260 90t202 224t125 284q46 149 46 273q0 269 -150 402q-83 74 -206 74zM1075 1419q268 0 428 -170t160 -442q0 -346 -247 -590t-593 -244q-253 0 -411 165q-158 164 -158 404t107 438
q109 198 299 318t415 121z" />
    <glyph glyph-name="P" unicode="P" horiz-adv-x="1228" 
d="M608 1197q0 32 1 52t-41 55q-21 16 -185 58l8 31h457q208 -1 281 -19q154 -39 217 -98q81 -81 79 -203q0 -182 -169 -313t-359 -113l-143 15l8 30q184 -6 317 87t133 284q0 154 -110 219q-111 65 -275 59l-243 -1001q-10 -41 -16 -67q-6 -27 -9 -55q-2 -28 -5 -43t7 -33
t11 -26q1 -7 39 -28t90 -33t108 -24l-8 -31h-725l8 31q173 16 239 104q34 47 50 88t35 117l174 715q26 110 26 142z" />
    <glyph glyph-name="Q" unicode="Q" horiz-adv-x="1556" 
d="M1432 -514q-168 0 -476 111q-306 111 -490 111t-372 -87l-18 35q123 84 383 175t368 155q-268 14 -424 164t-155 411q0 348 244 603t585 255q264 0 423 -169q159 -168 159 -442q-1 -274 -189 -492t-469 -330l-344 -144v-4q152 -14 469 -110q316 -96 442 -96t194 42
q68 43 155 154l41 -27q-78 -155 -218 -235t-308 -80zM798 35q156 0 280 87t202 219t122 282t44 280q0 191 -88 329t-268 138q-136 0 -260 -93t-202 -230t-122 -288q-45 -151 -45 -274q0 -178 90 -314q91 -136 247 -136z" />
    <glyph glyph-name="R" unicode="R" horiz-adv-x="1597" 
d="M608 1197q0 32 1 52t-41 55q-21 16 -185 58l8 31h522q242 0 318 -35q39 -18 81 -48q79 -56 81 -200q0 -231 -293 -371q16 -172 123 -401q68 -139 135 -200q68 -60 205 -89l69 -16l-8 -31h-154q-174 0 -258 41q-163 80 -294 639q-166 -12 -250 0l-84 -342q-12 -51 -20 -82
q-8 -30 -8 -62q1 -32 0 -50t46 -56q19 -14 207 -59l-8 -31h-725l8 31q173 16 239 104q34 47 50 88t35 117l174 715q26 110 26 142zM829 1341l-149 -612q205 -8 342 66q158 83 158 297q-1 259 -351 249z" />
    <glyph glyph-name="S" unicode="S" horiz-adv-x="983" 
d="M790 1370q-112 0 -178 -75t-66 -163q1 -148 166 -301q70 -63 138 -129q164 -158 164 -307q0 -188 -136 -305t-327 -117q-100 0 -213 32t-186 85l100 359l31 -7q-35 -158 37 -288t243 -131q113 -1 196 83t83 180t-48 172q-48 75 -117 133q-69 57 -137 119
q-164 148 -165 319q0 171 122 281t301 110t318 -97l-90 -291l-35 12l6 120q0 89 -47 148q-48 58 -160 58z" />
    <glyph glyph-name="T" unicode="T" horiz-adv-x="1310" 
d="M1311 1331h-240l-246 -993q-26 -110 -26 -142t-1 -52t46 -55q29 -20 207 -58l-9 -31h-714l8 31q169 16 229 102q33 47 49 88t35 117l246 993h-205q-82 0 -141 -17q-59 -16 -107 -62t-78 -87q-28 -41 -77 -123l-29 7l88 344h1294l-104 -351l-27 7q0 104 -5 155t-29 83
q-25 32 -58 38t-106 6z" />
    <glyph glyph-name="U" unicode="U" horiz-adv-x="1679" 
d="M612 1197q0 32 1 52t-41 55q-21 16 -185 58l8 31h699l-9 -31q-174 -16 -238 -102q-34 -46 -50 -88t-35 -117l-107 -420q-55 -227 -55 -268q0 -152 106 -227t263 -74q371 0 493 493l121 496q37 184 11 222t-197 81q-8 2 -13 4l9 31h594l-9 -31q-124 -20 -166 -49
q-43 -29 -67 -53t-43 -91q-18 -67 -37 -139l-123 -489q-63 -262 -223 -415t-420 -153q-183 1 -327 95t-144 272q0 74 33 201l125 514q26 110 26 142z" />
    <glyph glyph-name="V" unicode="V" horiz-adv-x="1392" 
d="M621 -82q-33 0 -33 67v17l-43 983q-2 61 -3 100t-7 77q-5 38 -7 56q-5 57 -65 91q-27 14 -47 20t-101 33l9 31h645l-8 -31q-139 -29 -175 -49q-68 -43 -67 -170l31 -914l407 645q188 297 189 379q0 82 -179 107q-16 2 -18 2l8 31h586l-8 -31q-16 -4 -77 -16
q-103 -21 -157 -97q-293 -415 -512 -771t-285 -458t-83 -102z" />
    <glyph glyph-name="W" unicode="W" horiz-adv-x="1925" 
d="M657 -57q-41 0 -41 65l-77 961q-21 248 -49 294t-72 63t-96 36l8 31h585l-8 -31q-57 -12 -97 -28t-74 -54q-34 -39 -34 -94l68 -957l455 893q-23 129 -58 169t-166 71l9 31h630l-8 -31q-14 -4 -60 -15q-133 -32 -157 -92q-12 -28 -12 -67l4 -121l57 -829l379 725
q6 12 19 36q84 170 82 238q-6 109 -179 125l9 31h477l-8 -31q-53 -13 -75 -27q-20 -14 -32 -20q-12 -7 -26 -25t-21 -24t-21 -33t-18 -34t-20 -42t-21 -45l-600 -1128q-20 -41 -57 -41q-43 0 -43 63l-72 977l-516 -979q-31 -61 -64 -61z" />
    <glyph glyph-name="X" unicode="X" horiz-adv-x="1556" 
d="M872 698l-159 383q-68 164 -133 218q-66 54 -230 63l15 31h677l-14 -31q-18 -4 -54 -9t-51 -11t-39 -15t-29 -29t-8 -60t56 -177l105 -240l286 299q117 113 97 173t-189 69l15 31h585l-14 -31q-80 -6 -155 -45t-119 -80t-113 -117l-363 -370l179 -414q67 -156 114 -205
t97 -67t128 -33l-14 -31h-651l14 31q61 8 95 15q34 8 58 26t30 36q15 50 -80 283l-97 236l-315 -340q-63 -74 -87 -119q-23 -45 -5 -73t63 -41t135 -23l-14 -31h-651l14 31q161 16 311 146q82 71 120 109t122 128z" />
    <glyph glyph-name="Y" unicode="Y" horiz-adv-x="1433" 
d="M1503 1419q123 -1 193 -75t80 -199l-27 -8q-43 141 -203 141q-113 0 -208 -55t-156 -134t-130 -228t-122 -372l-37 -151q-10 -57 -16 -83q-5 -25 -5 -61t-1 -48t17 -33q18 -20 34 -30q24 -15 196 -52l-8 -31h-725l8 31q177 16 239 102q34 47 50 88t35 117l69 274
q53 200 13 420q-20 112 -93 184t-190 72q-158 0 -291 -168l-20 13q65 127 173 207t240 79q178 0 265 -125t71 -303l-16 -186l4 -4l78 184q190 434 483 434z" />
    <glyph glyph-name="Z" unicode="Z" horiz-adv-x="1228" 
d="M1456 1393q45 0 45 -33q0 -10 -131 -150l-1104 -1149h430q250 1 383 105t209 346l33 -16l-137 -496h-1116q-49 0 -50 20q0 29 105 134l1128 1177h-401q-213 0 -323 -80t-205 -280l-27 10l111 412h1050z" />
    <glyph glyph-name="bracketleft" unicode="[" horiz-adv-x="901" 
d="M713 1479h438l-8 -31l-312 -31l-462 -1698l278 -28l-8 -33h-424z" />
    <glyph glyph-name="backslash" unicode="\" horiz-adv-x="532" 
d="M635 -244l-98 -37l-639 1725l92 35z" />
    <glyph glyph-name="bracketright" unicode="]" horiz-adv-x="860" 
d="M477 -342h-438l8 31l311 30l463 1698l-278 29l8 33h424z" />
    <glyph glyph-name="asciicircum" unicode="^" 
d="M395 633h-112l327 760h101l333 -760h-112l-275 631z" />
    <glyph glyph-name="underscore" unicode="_" horiz-adv-x="1024" 
d="M0 -154h1024v-102h-1024v102z" />
    <glyph glyph-name="grave" unicode="`" horiz-adv-x="737" 
d="M549 1507l250 -460l-29 -23l-321 387z" />
    <glyph glyph-name="a" unicode="a" horiz-adv-x="1105" 
d="M582 838q-64 0 -154 -260t-131 -451l20 -12q159 107 276 260q117 154 228 323q-12 8 -67 48q-126 92 -172 92zM716 -27q-42 -1 -70 13t-21 34l196 574l-4 4q-352 -471 -485 -576q-61 -48 -93 -48t-68 20t-36 53q0 63 62 266q61 203 100 293q66 154 149 221q47 37 114 68
t108 31t90 -21t66 -35t46 -32t31 -21l17 34q47 101 86 101q75 0 26 -125l-233 -696q76 22 150 83q74 62 127 117l56 56l27 -18q-79 -111 -169 -210q-91 -98 -161 -142t-111 -44z" />
    <glyph glyph-name="b" unicode="b" horiz-adv-x="942" 
d="M836 799q-52 0 -142 -71q-90 -70 -156 -142t-140 -194q-75 -122 -74 -195q0 -45 59 -97t106 -51q61 0 153 151q91 150 156 322t64 246q1 31 -26 31zM918 926q32 0 70 -32t38 -75q0 -137 -116 -394t-224 -341q-40 -31 -152 -71t-166 -40q-54 1 -124 61t-70 118t41 184
l268 856q14 47 5 59t-101 62l10 43l283 123l37 -21l-350 -1005l10 -7l235 285q56 67 148 131t158 64z" />
    <glyph glyph-name="c" unicode="c" horiz-adv-x="778" 
d="M184 92q0 117 41 294q41 176 90 268t179 182t215 90q33 0 89 -35t56 -70t-75 -100q-15 -14 -17 -16q-8 4 -85 55t-114 51q-75 0 -149 -259t-74 -388q0 -63 41 -64q72 0 199 82t182 148l31 -29q-82 -115 -233 -221t-267 -107q-31 0 -70 37t-39 82z" />
    <glyph glyph-name="d" unicode="d" horiz-adv-x="1105" 
d="M592 825q-72 0 -244 -571q-27 -84 -39 -127l21 -12q127 81 231 213q59 76 104 135t156 237q-37 35 -113 80t-116 45zM707 -27q-92 0 -39 150l143 430l-8 8l-297 -379q-37 -49 -132 -129t-129 -80q-34 1 -69 21t-35 45q0 98 87 363q86 265 146 339t148 129q88 56 158 56
t197 -74l92 340q14 47 5 59t-102 62l11 43l282 123l37 -21l-393 -1331l18 -12q123 67 303 250l25 -17q-270 -375 -448 -375z" />
    <glyph glyph-name="e" unicode="e" horiz-adv-x="778" 
d="M692 729q0 37 -44 73t-81 36q-108 -1 -190 -355l227 148q63 31 83 76q5 10 5 22zM272 -27q-32 0 -70 37t-38 82q0 117 41 294q41 176 90 268t178 182t215 90q42 0 104 -48t62 -94t-102 -114l-396 -262q0 -4 -26 -94t-19 -142q6 -52 19 -61q14 -10 30 -11q74 0 203 86
t187 162l32 -20q-88 -131 -238 -243t-272 -112z" />
    <glyph glyph-name="f" unicode="f" horiz-adv-x="655" 
d="M35 -403q100 0 170 356l160 780h-170l10 45l182 51q56 218 183 392q67 90 162 144q94 54 190 54t155 -37t60 -112q0 -102 -125 -152l-17 12v48q0 74 -32 127q-33 53 -99 53q-169 0 -281 -379q-24 -78 -42 -164h272l-20 -82h-273l-137 -612q-74 -324 -154 -438
q-47 -63 -145 -125t-169 -62t-111 40t-31 90q8 50 59 81q31 -24 87 -60q78 -50 116 -50z" />
    <glyph glyph-name="g" unicode="g" horiz-adv-x="983" 
d="M492 682l-181 -565l8 -6q125 73 275 255q32 40 59 70q27 31 38 44q52 61 83 108q31 46 66 123q-29 27 -119 77q-89 50 -111 50t-41 -12t-31 -37t-18 -36t-15 -37t-13 -34zM698 926q51 0 90 -20t75 -43q36 -22 48 -29q102 92 197 92q30 0 32 -15q1 -6 3 -10
q-195 -121 -254 -522l-35 -252q-18 -119 -42 -187t-83 -143q-119 -141 -298 -221t-365 -80q-115 0 -218 51q-102 51 -102 156q0 69 64 111t101 59q36 16 40 18l190 91q78 414 181 647q57 129 152 213t224 84zM-98 -261q0 -52 64 -90q96 -56 251 -59q229 0 335 112
q105 112 140 345l74 438l-4 4q-86 -109 -130 -163q-118 -144 -258 -257q-140 -114 -324 -184q-148 -57 -148 -146z" />
    <glyph glyph-name="h" unicode="h" horiz-adv-x="983" 
d="M893 768q0 47 -27 47q-70 0 -258 -229t-311 -459q-4 -6 -16 -32q-42 -91 -78 -111q-16 -10 -35 -11q-49 0 -56 38t9 79l18 68l314 1034q14 47 5 59t-102 62l11 43l282 123l37 -21l-367 -1157l13 -6q154 258 342 444t287 187q88 0 88 -115q1 -115 -57 -300t-106 -283
t-63 -117q-14 -20 -55 -54q-115 -84 -169 -84t-85 34q-32 34 -22 73t55 53l121 -63q68 110 146 362t79 336z" />
    <glyph glyph-name="i" unicode="i" horiz-adv-x="655" 
d="M629 1434q45 0 71 -28t25 -72q0 -44 -29 -76q-28 -32 -70 -32t-70 28t-28 72t28 76t73 32zM270 -27q-33 0 -52 23t-19 71t85 270t179 437l-14 14q-63 -35 -137 -99q-73 -65 -117 -124l-25 15q51 118 169 232t212 114q65 0 65 -75t-116 -353q-116 -279 -150 -375l15 -6
q153 92 305 262l26 -17q-238 -389 -426 -389z" />
    <glyph glyph-name="j" unicode="j" horiz-adv-x="614" 
d="M713 1434q45 0 71 -28t25 -72q0 -44 -29 -76q-28 -32 -70 -32t-70 28t-28 72t28 76t73 32zM645 846q0 -144 -140 -622t-229 -582q-40 -50 -120 -98t-136 -48t-111 29q-54 29 -54 87t57 103q168 -123 202 -123t55 40q53 101 85 226q32 124 58 222t50 192q25 94 62 232
t72 268l-15 8q-94 -55 -260 -276l-20 16q39 121 158 263q120 142 223 143q63 0 63 -80z" />
    <glyph glyph-name="k" unicode="k" horiz-adv-x="942" 
d="M811 723q0 35 -18 57q-17 22 -51 23q-61 0 -145 -101q-83 -101 -159 -237q-75 -137 -99 -186q-24 -50 -38 -78l-14 -31l10 -8q121 150 358 327q156 113 156 234zM766 82q53 0 170 117l22 -25q-172 -201 -278 -201q-53 0 -96 47t-61 202q-5 52 -3 102q-118 -100 -271 -305
q-36 -46 -61 -46q-78 0 -26 177l287 1042q14 47 5 59t-102 62l10 43l283 123l37 -21l-317 -1001l12 -11q159 310 324 427q73 53 133 53t96 -46q35 -46 35 -106q0 -123 -104 -206q-78 -61 -199 -122q-14 -124 6 -244t98 -120z" />
    <glyph glyph-name="l" unicode="l" horiz-adv-x="573" 
d="M207 -27q-27 0 -43 22q-16 23 -16 53t32 132l318 1012q14 47 5 59t-102 62l11 43l282 123l37 -21l-420 -1317l17 -14q123 63 299 231l24 -20q-57 -100 -207 -232t-237 -133z" />
    <glyph glyph-name="m" unicode="m" horiz-adv-x="1679" 
d="M365 49q-45 -76 -85 -76q-40 -1 -47 17q-18 49 -2 97q15 48 18 58q3 11 10 27t7 18l221 619q-47 -8 -93 -44t-109 -108t-70 -77l-20 12q47 129 131 231q84 103 186 103t129 -74l-223 -606l4 -4l364 512q127 172 242 172q145 0 43 -281l-156 -432l5 -4q33 43 114 178
q82 135 152 245t165 202t161 92q124 0 111 -120q-10 -101 -42 -175l-197 -496l13 -8q184 106 301 250l28 -21q-88 -135 -222 -259t-232 -124t-25 191l193 500q47 116 40 145t-28 29q-78 0 -318 -395q-114 -185 -136 -217t-54 -87q-33 -55 -52 -85t-48 -56t-58 -25
q-96 4 -12 240l187 522q5 10 10 50t-27 40q-49 0 -231 -266z" />
    <glyph glyph-name="n" unicode="n" horiz-adv-x="1187" 
d="M969 797q0 39 -47 40q-46 1 -150 -135t-200 -296q-255 -431 -324 -433q-90 0 4 240l223 590q-119 -16 -221 -158q-18 -25 -57 -80l-23 15q33 122 126 234q92 112 198 112t133 -74l-230 -602l5 -4l96 151q60 100 141 214q80 114 115 152t79 80q85 81 160 83q195 0 62 -348
l-166 -441l6 -10q145 88 299 250l23 -23q-76 -117 -214 -249q-137 -132 -235 -132t-16 201l155 418q0 2 12 28q11 26 16 42t17 54t13 81z" />
    <glyph glyph-name="o" unicode="o" horiz-adv-x="860" 
d="M641 885q-69 0 -143 -126t-119 -288t-45 -276q0 -180 86 -181q68 0 142 118t122 281q47 163 47 289q0 183 -90 183zM680 926q207 0 207 -289q-1 -139 -59 -290t-176 -263t-263 -111q-211 0 -211 269q0 141 59 296q58 156 178 272t265 116z" />
    <glyph glyph-name="p" unicode="p" horiz-adv-x="983" 
d="M537 76q75 0 153 108t126 255t48 277t-102 130q-58 0 -160 -37l-190 -631q20 -38 55 -70t70 -32zM622 1118q44 0 50 -31t-10 -69l-44 -148q197 56 268 56q70 0 102 -60t32 -133q0 -235 -122 -447t-304 -255q-23 -4 -93 -23t-83 -20q-14 -1 -45 26l-70 -252q-2 -6 -4 -16
q-29 -116 -15 -144t126 -46q18 -4 61 -13l100 -16l-8 -31h-643l8 31q129 33 151 55t60 148l305 1009l-249 -137l-25 33q113 94 293 182l63 201q25 80 37 90q14 10 59 10z" />
    <glyph glyph-name="q" unicode="q" horiz-adv-x="983" 
d="M336 125l24 -10q238 182 490 581q-170 141 -234 142q-59 0 -113 -157t-99 -322q-45 -164 -68 -234zM1036 956q63 0 13 -145l-308 -981q-9 -27 -37 -117t-17 -120t153 -66l-9 -31h-593l8 31q31 4 120 17t121 38t78 189l260 776l-4 4l-237 -307q-41 -51 -161 -161
t-155 -110q-35 1 -65 27q-29 26 -27 59q8 158 95 413t190 345q47 43 118 76t135 33t214 -95q62 125 108 125z" />
    <glyph glyph-name="r" unicode="r" horiz-adv-x="860" 
d="M260 -27q-56 0 -52 71q3 48 23 95q21 46 21 47l205 623q-117 -21 -218 -151q-17 -22 -55 -70l-26 16q32 78 72 142t110 122q70 57 145 58q37 0 67 -20t38 -54l-219 -666l4 -4l248 445q131 213 205 268q42 31 82 31t62 -28t21 -69q0 -74 -48 -130t-118 -72l-12 18
q37 74 23 108q-6 15 -25 15q-68 0 -346 -510q-49 -90 -78 -143l-12 -21q-26 -60 -53 -86q-36 -35 -64 -35z" />
    <glyph glyph-name="s" unicode="s" horiz-adv-x="573" 
d="M397 748q0 -78 81 -246t81 -228q0 -100 -117 -200t-219 -101q-59 0 -112 33t-53 80t32 76q33 29 72 28q6 -6 25 -30t31 -34t39 -34q26 -24 71 -24q88 0 88 125q0 61 -81 223t-81 229q0 113 116 197t234 84q41 0 84 -31t43 -70q0 -57 -108 -94q-117 109 -154 109t-55 -28
t-17 -64z" />
    <glyph glyph-name="t" unicode="t" horiz-adv-x="696" 
d="M252 -27q-24 0 -50 25t-26 38t19 79l217 682h-213l24 61l217 35q4 10 30 82q26 73 48 107t47 34q51 0 61 -17t-10 -63l-41 -143l302 -14l-31 -82h-295l-203 -664l14 -16q145 66 336 264l27 -23q-80 -123 -223 -254t-250 -131z" />
    <glyph glyph-name="u" unicode="u" horiz-adv-x="1187" 
d="M1099 926q78 0 33 -149q-2 -9 -8 -23t-6 -17l-207 -600q131 57 299 242l25 -17q-57 -108 -205 -248t-244 -141q-53 0 -69 31l235 668l-4 4l-317 -445q-223 -258 -334 -258q-60 0 -75 36t-2 71q31 82 34 88l231 620l-16 9q-162 -109 -266 -238l-27 21q49 102 171 224
t212 122q62 0 72 -50q4 -26 4 -59t-28 -113t-32 -83l-190 -508l21 -15q139 84 274 279l299 434q66 115 120 115z" />
    <glyph glyph-name="v" unicode="v" horiz-adv-x="942" 
d="M387 662q0 139 -72 139q-39 0 -98 -38t-63 -40l-21 29q61 59 151 116t146 58q100 0 100 -218t-75 -571l-4 -24q159 96 277 260t118 329q0 49 -23 86t-61 37q-38 -1 -91 -31t-59 -32l-18 29q184 135 254 135t106 -52q35 -52 35 -114q0 -140 -85 -259q-46 -67 -80 -112
t-106 -114t-100 -91q-26 -22 -102 -88l-194 -166l-46 43q111 414 111 689z" />
    <glyph glyph-name="w" unicode="w" horiz-adv-x="1392" 
d="M393 676q0 125 -74 125q-42 0 -80 -26q-37 -26 -83 -56l-21 24q51 53 147 118t146 65q109 0 109 -201q0 -270 -76 -598q141 145 366 457v83q0 62 -6 77q-6 14 -12 30q-12 30 -45 31q-33 -1 -64 -19l-55 -33t-31 -20l-16 25q53 55 133 111q80 57 125 57q84 1 101 -83
q14 -62 14 -136q0 -73 -27 -265t-57 -327q135 61 266 246t131 331q0 47 -20 85t-62 38q-42 -1 -94 -31t-57 -34l-17 30q56 43 142 94t122 52q66 0 98 -54q74 -126 -19 -311q-50 -98 -143 -196q-169 -179 -314 -297t-168 -138l-41 21q63 205 104 528l-481 -549l-45 31
q10 55 35 183q69 353 69 532z" />
    <glyph glyph-name="x" unicode="x" horiz-adv-x="983" 
d="M1102 817q0 -98 -86 -180l-29 10q18 37 5 80t-65 43t-165 -162l-107 -147l72 -217q0 -2 4 -14q5 -12 7 -24t9 -22t11 -19t18 -23t33 -13q78 0 197 238l30 -17q-30 -115 -110 -246t-172 -131q-66 0 -99 68t-55 129l-61 180l-103 -139q-182 -238 -303 -238q-43 0 -71 26
t-27 67q0 72 54 120t118 9q0 -1 -7 -13q-55 -91 -34 -120q6 -7 20 -7q76 0 252 240l80 108l-72 218q-6 12 -14 42q-8 29 -15 51t-22 21q-44 0 -99 -184q-9 -31 -11 -35h-33q-6 60 13 154t69 175t112 81q26 0 36 -12q11 -12 22 -21q11 -10 19 -29q7 -18 21 -50t13 -46
l76 -252l260 350q45 60 101 60t82 -31t26 -78z" />
    <glyph glyph-name="y" unicode="y" horiz-adv-x="778" 
d="M361 926q63 0 109 -93t66 -231q41 -274 37 -465l5 -4q137 276 165 606q-1 97 11 121t24 45t46 21t52 -22t19 -52q0 -113 -116 -375q-115 -261 -183 -377t-122 -196t-131 -178t-159 -164t-134 -66t-80 31t-28 74t32 73q30 30 74 29q44 0 95 -84q154 84 291 303
q20 274 -19 558q-40 284 -98 284q-29 0 -66 -88t-53 -134t-18 -50l-28 6q-2 59 20 156q23 96 75 184t114 88z" />
    <glyph glyph-name="z" unicode="z" horiz-adv-x="901" 
d="M866 182q0 38 -46 63q-46 24 -46 38q-2 45 25 82t69 37t71 -38q28 -38 28 -85q0 -101 -110 -203t-198 -102q-89 0 -209 42q-120 43 -191 43t-97 -43q-4 -6 -13 -24t-23 -18q-15 -1 -26 23q-10 25 -10 59t34 74t83 58l561 560q-115 -16 -131 -17q-120 0 -223 63
q-41 23 -62 23q-53 0 -22 -86q20 -55 65 -110q-27 -14 -72 -44t-69 -30q-25 0 -39 36t-14 64q0 91 84 185t174 94q57 0 153 -41t133 -41t115 41t92 41q27 0 27 -27t-53 -80l-641 -624q83 -2 241 -48q158 -47 212 -47t90 22q38 22 38 60z" />
    <glyph glyph-name="braceleft" unicode="{" horiz-adv-x="901" 
d="M399 -215l95 434q25 86 12 139q-12 53 -35 77t-72 44l4 4q96 27 137 82q40 55 66 178l82 381q45 205 118 284t230 71l-4 -4q-150 -35 -198 -267l-89 -401q-31 -143 -77 -221t-152 -103l-4 -4q80 -19 104 -79t-4 -224l-94 -432q-28 -112 -10 -176t100 -94l-4 -4
q-156 2 -200 70t-5 245z" />
    <glyph glyph-name="bar" unicode="|" horiz-adv-x="532" 
d="M362 -512v2048h109v-2048h-109z" />
    <glyph glyph-name="braceright" unicode="}" horiz-adv-x="901" 
d="M844 1163l-94 -434q-25 -86 -13 -139t35 -77t72 -44l-4 -4q-96 -27 -136 -82t-67 -178l-82 -381q-45 -205 -118 -284t-230 -70l4 4q150 35 199 266l88 401q31 143 77 221q47 78 152 103l4 4q-81 19 -105 79t5 224l94 432q29 112 11 176t-101 95l4 4q156 -2 200 -71
t5 -245z" />
    <glyph glyph-name="asciitilde" unicode="~" 
d="M486 573q82 0 240 -62t201 -62q42 -1 78 21t55 44t48 66l82 -54q-43 -59 -71 -91q-28 -31 -78 -61q-51 -30 -113 -30t-218 62t-220 63q-62 0 -103 -37t-86 -106l-82 53q59 94 122 144t145 50z" />
    <glyph glyph-name="uni00A0" unicode="&#xa0;" horiz-adv-x="532" 
 />
    <glyph glyph-name="exclamdown" unicode="&#xa1;" horiz-adv-x="655" 
d="M545 702q-49 0 -81 32t-32 78t33 80t80 34t79 -30t32 -77t-32 -82q-30 -35 -79 -35zM291 -520q-98 0 -98 112q0 70 69 293l182 592h43l-57 -667q-16 -176 -39 -244q-27 -86 -100 -86z" />
    <glyph glyph-name="cent" unicode="&#xa2;" 
d="M645 283l205 839q-178 -28 -288 -184t-109 -346q0 -104 50 -195t142 -114zM1108 883q0 168 -39 208t-131 42l-31 -3l-207 -862q118 -4 162 18q43 23 72 40t67 79q39 62 82 132l27 -13l-98 -272q-166 -39 -324 -39l-43 -180l-57 12l45 176q-158 39 -251 139t-93 261
q0 223 173 379t400 174l41 163l51 -12l-39 -147q125 4 289 -35l-63 -260h-33z" />
    <glyph glyph-name="sterling" unicode="&#xa3;" 
d="M1130 352q76 0 76 -100q0 -150 -119 -249t-272 -99q-98 0 -307 79t-281 91q-100 -68 -141 -68t-68 26t-26 56q0 84 145 84l113 -4q100 168 160 444h-217l20 72h213q66 270 137 415q85 165 170 228q123 94 271 92q92 0 158 -47t67 -125q0 -77 -55 -115t-117 -8
q33 48 37 104t-30 98t-85 42q-93 0 -157 -73q-110 -126 -175 -357t-69 -254h303l-21 -72h-297q-59 -250 -244 -456q31 -6 290 -74t335 -68q180 0 182 142q-63 84 -63 145q0 51 67 51z" />
    <glyph glyph-name="currency" unicode="&#xa4;" 
d="M767 283q138 0 240 104q101 105 101 247t-99 246t-239 105q-140 0 -240 -103q-102 -104 -102 -244t100 -248q101 -107 239 -107zM334 256l102 102q-98 117 -99 277t99 276l-102 101l55 55l100 -100q119 98 279 100t279 -100l100 100l55 -55l-100 -101q98 -119 99 -277
t-99 -276l100 -102l-55 -53l-100 100q-127 -104 -279 -102t-279 102l-100 -100z" />
    <glyph glyph-name="yen" unicode="&#xa5;" 
d="M840 834h278l-20 -72h-310l-49 -184h301l-20 -72h-299l-45 -168q-47 -147 -6 -218t204 -89l-8 -31h-694l8 31q187 16 253 102q36 47 52 88t35 117l41 168h-295l21 72h293l32 129l-12 55h-285l21 72h252l-43 196q-37 172 -72 225q-55 90 -176 107l8 31h537l-8 -31
q-115 -18 -144 -72t2 -164l64 -301l225 295q128 163 47 214q-33 22 -98 28l8 31h520l-8 -31q-127 -12 -222 -77t-184 -181z" />
    <glyph glyph-name="brokenbar" unicode="&#xa6;" horiz-adv-x="532" 
d="M362 666v716h109v-716h-109zM362 -358v716h109v-716h-109z" />
    <glyph glyph-name="section" unicode="&#xa7;" horiz-adv-x="1105" 
d="M291 764q0 146 90 302t241 254q151 99 312 99q92 0 166 -55t74 -145q0 -49 -35 -85t-86 -36q-76 0 -103 61t35 139q-43 60 -116 60t-124 -64t-51 -136q0 -128 147 -335q59 -86 121 -177q148 -218 148 -413q0 -157 -88 -317t-238 -266t-307 -107q-104 0 -187 51t-83 148
q0 55 36 96t89 41q84 0 102 -81t-45 -138q49 -55 124 -55t125 61q50 60 50 150t-62 209t-137 216q-74 97 -136 237t-62 286zM963 124q0 116 -63 254q-62 138 -137 239t-137 223t-62 196t24 181q-78 -59 -118 -153t-40 -203q0 -108 40 -214t97 -193t115 -174
q138 -208 137 -409q0 -54 -16 -115q160 118 160 368z" />
    <glyph glyph-name="dieresis" unicode="&#xa8;" horiz-adv-x="819" 
d="M809 1194q1 42 29 72t68 30t67 -26t27 -65t-28 -69q-26 -30 -67 -30t-69 24t-27 64zM436 1194q0 42 29 72t69 30t66 -26t27 -65q0 -39 -27 -69t-68 -30q-40 0 -68 24t-28 64z" />
    <glyph glyph-name="copyright" unicode="&#xa9;" horiz-adv-x="1474" 
d="M1165 852h-63q-6 102 -64 162t-157 61q-141 0 -214 -104t-73 -256q0 -153 80 -267t228 -114t239 151l49 -18q-37 -99 -138 -153t-212 -54q-186 0 -300 122t-114 316t121 317q121 124 317 124q145 -1 301 -58v-229zM854 1329q-264 0 -431 -176t-167 -459q0 -282 168 -456
t433 -174t431 178t166 460t-168 454q-168 173 -432 173zM851 -27q-314 0 -511 206t-197 513t197 517t511 210t515 -207t201 -518t-201 -516t-515 -205z" />
    <glyph glyph-name="ordfeminine" unicode="&#xaa;" horiz-adv-x="1105" 
d="M682 1331q-66 0 -156 -212t-116 -316l18 -10q94 51 184 127t136 124q45 49 102 121l57 72q-166 94 -225 94zM797 686q-68 0 -76 37l190 432l-4 4q-74 -82 -161 -173t-215 -195t-187 -105q-30 0 -60 17t-30 40q0 55 69 225t113 244q44 72 139 134q96 62 195 61
q48 1 90 -19q120 -57 127 -63q2 2 10 16q49 86 90 86q24 0 29 -7q6 -7 9 -12t2 -14q-1 -8 -1 -14q0 -13 -16 -53l-225 -522q91 21 201 102q18 14 66 51t54 41l23 -12q-266 -301 -432 -301z" />
    <glyph glyph-name="guillemotleft" unicode="&#xab;" horiz-adv-x="901" 
d="M968 969q14 0 15 -23q0 -23 -317 -344q4 -10 78 -157t73 -175q0 -28 -16 -26q-12 0 -27 18q-14 18 -38 57q-23 39 -46 66l-172 213v18q138 102 388 313q48 40 62 40zM659 969q15 0 15 -23t-318 -344q4 -10 78 -158t74 -174t-16 -26q-12 0 -27 18q-14 18 -38 57
q-23 39 -46 66l-172 213v18q119 88 229 180t159 133q48 40 62 40z" />
    <glyph glyph-name="logicalnot" unicode="&#xac;" 
d="M983 111v421h-799v109h908v-530h-109z" />
    <glyph glyph-name="uni00AD" unicode="&#xad;" horiz-adv-x="696" 
d="M297 670h467l-51 -127h-467z" />
    <glyph glyph-name="registered" unicode="&#xae;" horiz-adv-x="1474" 
d="M748 741h28q121 -1 171 23t71 63q20 39 20 99q0 176 -192 176q-68 0 -83 -12t-15 -76v-273zM1274 346v-37h-55q-6 0 -59 -2t-83 25q-29 20 -49 69t-38 99t-43 98q-26 47 -76 74t-123 18v-282q0 -38 15 -50t81 -12v-37h-334v37q66 0 82 12t16 50v643q0 37 -16 49t-82 12
v39h338q162 0 246 -44t84 -165q0 -90 -68 -152t-160 -67v-4q39 -4 75 -41q53 -55 102 -167t63 -125q14 -12 30 -26t54 -14zM854 1329q-264 0 -431 -176t-167 -459q0 -282 168 -456t433 -174t431 178t166 460t-168 454q-168 173 -432 173zM851 -27q-314 0 -511 206t-197 513
t197 517t511 210t515 -207t201 -518t-201 -516t-515 -205z" />
    <glyph glyph-name="macron" unicode="&#xaf;" horiz-adv-x="1228" 
d="M578 1300h571l-21 -81h-571z" />
    <glyph glyph-name="degree" unicode="&#xb0;" horiz-adv-x="819" 
d="M860 1111q0 93 -66 160q-67 67 -160 67t-160 -68q-68 -66 -66 -159t68 -159t158 -66q93 0 160 66q66 66 66 159zM942 1111q0 -126 -90 -216t-217 -90t-217 90t-91 216t90 217t218 91t217 -91t90 -217z" />
    <glyph glyph-name="plusminus" unicode="&#xb1;" 
d="M1116 0h-907v109h907v-109zM209 600h399v307h109v-307h399v-108h-399v-308h-109v308h-399v108z" />
    <glyph glyph-name="twosuperior" unicode="&#xb2;" horiz-adv-x="638" 
d="M625 664q104 0 129 13t77 95l19 -8l-82 -197h-555l-6 23q159 97 342 263q94 85 153 177q60 92 60 162t-38 108q-38 37 -102 37q-64 1 -125 -33q-60 -34 -100 -83l-18 10q39 78 118 133t167 55t148 -53t60 -137t-66 -183t-134 -151l-305 -231h258z" />
    <glyph glyph-name="threesuperior" unicode="&#xb3;" horiz-adv-x="638" 
d="M705 1419q82 0 138 -41t56 -113t-64 -118q-47 -34 -112 -67q-65 -32 -80 -38q86 -10 142 -59t57 -127q0 -125 -119 -215t-256 -90q-73 0 -145 36t-72 97q0 25 15 40t42 15q49 0 75 -79q9 -30 36 -54t67 -24q92 0 169 76t77 154q0 77 -45 117q-44 40 -116 40t-152 -33
l-12 25q8 5 61 27t84 36q154 69 214 156q23 32 23 72t-37 63q-38 23 -92 22q-106 0 -215 -98l-16 16q47 72 121 118t156 46z" />
    <glyph glyph-name="acute" unicode="&#xb4;" horiz-adv-x="573" 
d="M809 1391l-340 -365l-29 21l283 452z" />
    <glyph glyph-name="mu" unicode="&#xb5;" horiz-adv-x="1187" 
d="M1099 926q78 0 33 -149q-2 -9 -8 -23t-6 -17l-207 -600q131 57 299 242l25 -17q-57 -108 -205 -248t-244 -141q-53 0 -69 31l235 668l-4 4l-317 -445q-223 -258 -322 -258q-31 0 -55 25l-39 -107q-15 -47 -29 -142t-14 -140t-38 -79t-77 -34t-61 34t-21 69q0 35 77 135
t95 149l338 905l-16 9q-162 -109 -266 -238l-27 21q49 102 171 224t212 122q62 0 72 -50q4 -26 4 -59t-28 -113t-32 -83l-190 -508l21 -15q139 84 274 279l299 434q66 115 120 115z" />
    <glyph glyph-name="paragraph" unicode="&#xb6;" horiz-adv-x="1105" 
d="M242 965q0 100 52 187t133 137t186 82q187 57 395 48l415 -18l-8 -31q-105 -9 -140 -28q-34 -19 -52 -26q-19 -7 -37 -35t-26 -38t-22 -51t-18 -55q-4 -15 -16 -71t-19 -77l-241 -995q-52 -164 -24 -225t196 -91l-8 -30h-361l420 1722h-94l-422 -1722h-387l8 30
q133 20 198 54q64 34 96 92q32 59 64 194l148 596q-177 24 -292 85q-144 75 -144 266z" />
    <glyph glyph-name="periodcentered" unicode="&#xb7;" horiz-adv-x="532" 
d="M264 450q0 46 33 80t80 33q47 1 79 -29t32 -77t-32 -82q-30 -35 -79 -35t-81 32t-32 78z" />
    <glyph glyph-name="cedilla" unicode="&#xb8;" horiz-adv-x="573" 
d="M285 -88q1 -31 35 -105t34 -102q0 -74 -68 -131t-145 -57q-39 1 -69 27t-31 70q0 44 39 44q18 0 67 -43t71 -43t36 20t14 52t-36 96t-35 98q0 86 182 232h31q-2 -2 -27 -25t-35 -34t-36 -40q-26 -28 -27 -59z" />
    <glyph glyph-name="onesuperior" unicode="&#xb9;" horiz-adv-x="638" 
d="M750 1419l-183 -633q-18 -56 -22 -80t16 -43t48 -25t108 -24l-6 -30h-480l5 30q114 10 154 48t63 124l102 351q13 47 23 73t13 54q3 29 6 42t-23 46q-10 14 -130 37l7 30h299z" />
    <glyph glyph-name="ordmasculine" unicode="&#xba;" horiz-adv-x="1105" 
d="M795 1374q-59 0 -116 -65q-96 -113 -155 -328q-23 -84 -22 -129q0 -133 82 -133q63 0 123 64q99 109 154 326q22 83 22 128q0 137 -88 137zM834 1407q197 0 196 -219q0 -161 -127 -327q-59 -77 -150 -126t-196 -49q-203 0 -203 205q0 106 57 223q56 117 170 205t253 88z
" />
    <glyph glyph-name="guillemotright" unicode="&#xbb;" horiz-adv-x="901" 
d="M224 244q-14 0 -15 18q0 27 317 348q-4 10 -78 157t-73 175q0 28 14 27q15 -1 29 -19t38 -57t46 -66l172 -213v-18q-148 -109 -388 -312q-48 -40 -62 -40zM533 244q-15 0 -15 22t318 344q-4 10 -78 158t-74 174t14 27q14 -1 28 -19t38 -57t47 -66l172 -213v-18
q-121 -89 -388 -312q-48 -40 -62 -40z" />
    <glyph glyph-name="onequarter" unicode="&#xbc;" horiz-adv-x="1597" 
d="M741 1393l-182 -633q-18 -55 -22 -80t16 -44q20 -20 48 -26t108 -22l-7 -31h-479l4 31q113 10 154 48t63 124l103 350q14 47 23 73q8 27 12 55t8 44t-24 43q-12 17 -130 37l6 31h299zM1464 1430l82 -50q-541 -758 -991 -1456l-72 47q73 111 437 639t544 820zM1165 340
h289l98 358zM1049 285l632 577l31 -16q-88 -258 -151 -506h161l-20 -82h-162l-14 -55q-22 -102 -6 -124t135 -48l-6 -31h-443l4 31q111 10 150 48t61 124l17 55h-381z" />
    <glyph glyph-name="onehalf" unicode="&#xbd;" horiz-adv-x="1597" 
d="M1464 96q104 0 129 14t78 95l19 -8l-82 -197h-555l-6 23q152 93 342 263q94 85 153 177q60 93 60 163t-38 107t-102 37t-126 -34q-60 -34 -99 -83l-18 11q39 78 117 133q79 55 167 55q89 0 149 -53t60 -137t-66 -184t-135 -150l-305 -232h258zM750 1393l-183 -633
q-18 -55 -22 -80t16 -44q20 -20 48 -26t108 -22l-6 -31h-480l5 31q114 10 154 48t63 124l102 350q14 47 24 73q9 27 12 55t7 44t-24 43q-12 17 -130 37l7 31h299zM1460 1430l82 -50q-541 -758 -991 -1456l-72 47q73 111 437 639t544 820z" />
    <glyph glyph-name="threequarters" unicode="&#xbe;" horiz-adv-x="1597" 
d="M805 1252q0 40 -38 63t-91 22q-106 0 -215 -98l-17 16q47 72 121 118t156 46t138 -41t56 -113t-74 -126t-182 -97q87 -10 143 -59t56 -127q0 -125 -119 -215t-256 -90q-73 0 -145 36t-72 97q0 25 16 40t42 15q27 -1 46 -25t28 -54t36 -54t68 -24q92 0 169 76t77 154
q0 77 -46 117t-116 40q-72 0 -152 -33l-12 25q8 4 87 37q296 126 296 254zM1489 1430l82 -50q-541 -758 -991 -1456l-72 47q74 111 438 639t543 820zM1124 340h289l98 358zM1008 285l632 577l31 -16q-88 -258 -151 -506h161l-20 -82h-162l-14 -55q-23 -102 -7 -124t136 -48
l-6 -31h-443l4 31q111 10 150 48t61 124l17 55h-381z" />
    <glyph glyph-name="questiondown" unicode="&#xbf;" horiz-adv-x="819" 
d="M588 702q-49 0 -81 32t-32 78t33 80t80 34t79 -30q31 -30 31 -77t-30 -82t-80 -35zM379 -420q141 0 227 184h17q45 -40 45 -110t-65 -121t-150 -51q-135 0 -219 94q-83 94 -82 231q0 75 32 139t77 104q91 79 203 153q111 75 109 166q0 49 -35 94q-36 45 -85 72l14 26
q84 -29 155 -107q70 -78 70 -154q-1 -128 -164 -239q-68 -45 -136 -91t-114 -112q-48 -66 -48 -137q0 -73 40 -107q41 -34 109 -34z" />
    <glyph glyph-name="Agrave" unicode="&#xc0;" horiz-adv-x="1556" 
d="M958 1974l250 -461l-28 -22l-322 387zM1153 674l-20 567l-379 -567h399zM1165 336l-4 242h-473l-33 -54q-205 -317 -204 -391q0 -29 21 -43q60 -38 109 -48q50 -9 54 -11l-8 -31h-633l8 31q101 13 149 40q49 27 73 39t59 49q35 36 49 48t49 60q35 47 44 59t48 70t45 69
l508 749q78 121 88 166q57 4 152 54l24 -15v-151l6 -185l39 -712q0 -12 2 -35q8 -164 35 -211q43 -78 213 -92l19 -2l-9 -31h-688l8 31q166 25 208 80t42 225z" />
    <glyph glyph-name="Aacute" unicode="&#xc1;" horiz-adv-x="1556" 
d="M1444 1817l-340 -365l-29 21l283 452zM1153 674l-20 567l-379 -567h399zM1165 336l-4 242h-473l-33 -54q-205 -317 -204 -391q0 -29 21 -43q60 -38 109 -48q50 -9 54 -11l-8 -31h-633l8 31q101 13 149 40q49 27 73 39t59 49q35 36 49 48t49 60q35 47 44 59t48 70t45 69
l508 749q78 121 88 166q57 4 152 54l24 -15v-151l6 -185l39 -712q0 -12 2 -35q8 -164 35 -211q43 -78 213 -92l19 -2l-9 -31h-688l8 31q166 25 208 80t42 225z" />
    <glyph glyph-name="Acircumflex" unicode="&#xc2;" horiz-adv-x="1556" 
d="M967 1452l368 471l33 -8l27 -457l-29 -6l-90 262l-285 -289zM1153 674l-20 567l-379 -567h399zM1165 336l-4 242h-473l-33 -54q-205 -317 -204 -391q0 -29 21 -43q60 -38 109 -48q50 -9 54 -11l-8 -31h-633l8 31q101 13 149 40q49 27 73 39t59 49q35 36 49 48t49 60
q35 47 44 59t48 70t45 69l508 749q78 121 88 166q57 4 152 54l24 -15v-151l6 -185l39 -712q0 -12 2 -35q8 -164 35 -211q43 -78 213 -92l19 -2l-9 -31h-688l8 31q166 25 208 80t42 225z" />
    <glyph glyph-name="Atilde" unicode="&#xc3;" horiz-adv-x="1556" 
d="M1296 1573q-35 0 -133 33t-135 32q-68 0 -147 -67l-23 28q152 139 227 140q35 0 138 -32q103 -31 143 -31t111 53l41 30l24 -22q-154 -164 -246 -164zM1153 674l-20 567l-379 -567h399zM1165 336l-4 242h-473l-33 -54q-205 -317 -204 -391q0 -29 21 -43q60 -38 109 -48
q50 -9 54 -11l-8 -31h-633l8 31q101 13 149 40q49 27 73 39t59 49q35 36 49 48t49 60q35 47 44 59t48 70t45 69l508 749q78 121 88 166q57 4 152 54l24 -15v-151l6 -185l39 -712q0 -12 2 -35q8 -164 35 -211q43 -78 213 -92l19 -2l-9 -31h-688l8 31q166 25 208 80t42 225z
" />
    <glyph glyph-name="Adieresis" unicode="&#xc4;" horiz-adv-x="1556" 
d="M1341 1620q0 42 29 72t69 30q41 0 67 -26t26 -65t-27 -69t-67 -30t-69 24q-28 24 -28 64zM1066 1722q40 0 67 -26t27 -65t-28 -69q-26 -30 -67 -30t-69 24t-27 64q0 41 28 72q29 30 69 30zM1153 674l-20 567l-379 -567h399zM1165 336l-4 242h-473l-33 -54
q-205 -317 -204 -391q0 -29 21 -43q60 -38 109 -48q50 -9 54 -11l-8 -31h-633l8 31q101 13 149 40q49 27 73 39t59 49q35 36 49 48t49 60q35 47 44 59t48 70t45 69l508 749q78 121 88 166q57 4 152 54l24 -15v-151l6 -185l39 -712q0 -12 2 -35q8 -164 35 -211
q43 -78 213 -92l19 -2l-9 -31h-688l8 31q166 25 208 80t42 225z" />
    <glyph glyph-name="Aring" unicode="&#xc5;" horiz-adv-x="1556" 
d="M1218 1804q-56 0 -88 -43t-30 -98q0 -55 30 -93t85 -38q54 0 89 42q34 42 34 99t-32 94t-88 37zM1219 1843q78 0 128 -48t50 -126q1 -78 -53 -127t-131 -49t-125 47t-48 124t50 128t129 51zM1153 674l-20 567l-379 -567h399zM1165 336l-4 242h-473l-33 -54
q-205 -317 -204 -391q0 -29 21 -43q60 -38 109 -48q50 -9 54 -11l-8 -31h-633l8 31q101 13 149 40q49 27 73 39t59 49q35 36 49 48t49 60q35 47 44 59t48 70t45 69l508 749q78 121 88 166q57 4 152 54l24 -15v-151l6 -185l39 -712q0 -12 2 -35q8 -164 35 -211
q43 -78 213 -92l19 -2l-9 -31h-688l8 31q166 25 208 80t42 225z" />
    <glyph glyph-name="AE" unicode="&#xc6;" horiz-adv-x="1884" 
d="M1198 748l154 600h-4l-488 -600h338zM1892 1071v103q0 84 -42 121q-42 36 -199 36h-127l-150 -583h209q82 0 111 20t88 113l35 51h28l-123 -496h-26v119q0 72 -4 84t-33 12h-309l-80 -313q-27 -128 -26 -170q2 -44 20 -62q44 -44 157 -45q186 0 278 75q91 75 197 274
l27 -9l-127 -401h-1018l8 31q182 17 247 136q35 61 61 171l80 313h-394l-213 -276q-139 -180 -127 -246t203 -98l-8 -31h-655l8 31q137 31 222 91t189 183l662 803q21 29 60 75q39 45 43 68q6 44 -36 68q-43 22 -165 41l8 33h1054l-102 -322h-31z" />
    <glyph glyph-name="Ccedilla" unicode="&#xc7;" horiz-adv-x="1515" 
d="M1223 1370q-197 0 -372 -108t-277 -287q-102 -178 -103 -377q0 -240 151 -408t386 -167q191 0 316 141q65 72 102 129q38 57 94 156l28 -13l-151 -387q-195 -76 -447 -76q-23 0 -32 2q-29 -29 -29 -61t35 -107q35 -74 34 -102q0 -74 -68 -131t-145 -57q-39 1 -69 27
t-31 70q0 44 39 44q16 0 66 -43t71 -43q22 0 37 20q14 20 14 52t-36 96t-35 98q0 63 82 142q-272 18 -455 183q-182 165 -182 433q0 154 60 288t162 230q215 201 511 270q145 35 331 35t355 -49l-111 -403l-32 4q39 399 -299 399z" />
    <glyph glyph-name="Egrave" unicode="&#xc8;" horiz-adv-x="1269" 
d="M815 1933l250 -460l-29 -23l-321 387zM608 1197q0 32 1 52t-41 55q-21 16 -185 58l8 31h1012l-107 -320h-28l2 31q0 152 -43 190t-201 37h-203l-135 -559h346q43 0 73 40q11 15 37 52t44 62h26l-118 -445h-31l4 121q-2 54 -12 64t-74 10h-317l-82 -338q-47 -158 -5 -217
t232 -60q100 1 169 19q120 32 215 172q38 55 91 160l29 -9l-125 -403h-1114l8 31q175 16 239 102q34 47 50 88q17 41 35 117l174 717q26 110 26 142z" />
    <glyph glyph-name="Eacute" unicode="&#xc9;" horiz-adv-x="1269" 
d="M1239 1817l-340 -365l-29 21l283 452zM608 1197q0 32 1 52t-41 55q-21 16 -185 58l8 31h1012l-107 -320h-28l2 31q0 152 -43 190t-201 37h-203l-135 -559h346q43 0 73 40q11 15 37 52t44 62h26l-118 -445h-31l4 121q-2 54 -12 64t-74 10h-317l-82 -338q-47 -158 -5 -217
t232 -60q100 1 169 19q120 32 215 172q38 55 91 160l29 -9l-125 -403h-1114l8 31q175 16 239 102q34 47 50 88q17 41 35 117l174 717q26 110 26 142z" />
    <glyph glyph-name="Ecircumflex" unicode="&#xca;" horiz-adv-x="1269" 
d="M762 1452l368 471l33 -8l27 -457l-29 -6l-90 262l-285 -289zM608 1197q0 32 1 52t-41 55q-21 16 -185 58l8 31h1012l-107 -320h-28l2 31q0 152 -43 190t-201 37h-203l-135 -559h346q43 0 73 40q11 15 37 52t44 62h26l-118 -445h-31l4 121q-2 54 -12 64t-74 10h-317
l-82 -338q-47 -158 -5 -217t232 -60q100 1 169 19q120 32 215 172q38 55 91 160l29 -9l-125 -403h-1114l8 31q175 16 239 102q34 47 50 88q17 41 35 117l174 717q26 110 26 142z" />
    <glyph glyph-name="Edieresis" unicode="&#xcb;" horiz-adv-x="1269" 
d="M1075 1620q0 42 29 72t69 30q41 0 67 -26t26 -65t-27 -69t-68 -30t-69 24t-27 64zM702 1620q0 42 29 72t69 30t66 -26t27 -65q0 -39 -27 -69q-28 -30 -68 -30t-68 24t-28 64zM608 1197q0 32 1 52t-41 55q-21 16 -185 58l8 31h1012l-107 -320h-28l2 31q0 152 -43 190
t-201 37h-203l-135 -559h346q43 0 73 40q11 15 37 52t44 62h26l-118 -445h-31l4 121q-2 54 -12 64t-74 10h-317l-82 -338q-47 -158 -5 -217t232 -60q100 1 169 19q120 32 215 172q38 55 91 160l29 -9l-125 -403h-1114l8 31q175 16 239 102q34 47 50 88q17 41 35 117l174 717
q26 110 26 142z" />
    <glyph glyph-name="Igrave" unicode="&#xcc;" horiz-adv-x="860" 
d="M610 1933l250 -460l-29 -23l-321 387zM434 338l180 717q12 51 20 82q7 31 8 61t2 51q1 20 -43 55q-21 16 -185 58l8 31h698l-8 -31q-174 -16 -238 -102q-34 -46 -50 -88t-35 -117l-181 -717q-26 -110 -27 -142t-2 -52t43 -55q26 -20 185 -58l-8 -31h-699l9 31
q176 16 238 102q34 47 50 88q17 41 35 117z" />
    <glyph glyph-name="Iacute" unicode="&#xcd;" horiz-adv-x="860" 
d="M1014 1817l-340 -365l-29 21l283 452zM434 338l180 717q12 51 20 82q7 31 8 61t2 51q1 20 -43 55q-21 16 -185 58l8 31h698l-8 -31q-174 -16 -238 -102q-34 -46 -50 -88t-35 -117l-181 -717q-26 -110 -27 -142t-2 -52t43 -55q26 -20 185 -58l-8 -31h-699l9 31
q176 16 238 102q34 47 50 88q17 41 35 117z" />
    <glyph glyph-name="Icircumflex" unicode="&#xce;" horiz-adv-x="860" 
d="M578 1473l368 471l33 -9l27 -456l-29 -6l-90 262l-285 -289zM434 338l180 717q12 51 20 82q7 31 8 61t2 51q1 20 -43 55q-21 16 -185 58l8 31h698l-8 -31q-174 -16 -238 -102q-34 -46 -50 -88t-35 -117l-181 -717q-26 -110 -27 -142t-2 -52t43 -55q26 -20 185 -58l-8 -31
h-699l9 31q176 16 238 102q34 47 50 88q17 41 35 117z" />
    <glyph glyph-name="Idieresis" unicode="&#xcf;" horiz-adv-x="860" 
d="M911 1620q0 42 29 72t69 30q41 0 67 -26t26 -65t-27 -69t-67 -30t-69 24q-28 24 -28 64zM636 1722q40 0 66 -26t27 -65q0 -39 -27 -69q-28 -30 -68 -30t-68 24t-27 64q0 41 28 72q29 30 69 30zM434 338l180 717q12 51 20 82q7 31 8 61t2 51q1 20 -43 55q-21 16 -185 58
l8 31h698l-8 -31q-174 -16 -238 -102q-34 -46 -50 -88t-35 -117l-181 -717q-26 -110 -27 -142t-2 -52t43 -55q26 -20 185 -58l-8 -31h-699l9 31q176 16 238 102q34 47 50 88q17 41 35 117z" />
    <glyph glyph-name="Eth" unicode="&#xd0;" horiz-adv-x="1638" 
d="M973 1393q745 0 745 -582q0 -184 -84 -349t-232 -276q-148 -110 -324 -148t-400 -38h-604l8 31q149 20 192 57q23 18 38 30t31 41q15 30 24 44q8 14 20 58t19 66q6 22 19 80t21 89l54 213h-213l24 96h211l62 250q31 131 27 170q-3 39 -12 53q-28 43 -216 84l8 31h582z
M778 49q320 1 524 229t203 549q0 526 -678 514l-133 -536h260l-24 -96h-258l-54 -213q-32 -121 -37 -146q-5 -26 -15 -68t-7 -64q2 -22 6 -54q5 -32 21 -49q49 -48 95 -57t97 -9z" />
    <glyph glyph-name="Ntilde" unicode="&#xd1;" horiz-adv-x="1720" 
d="M1317 1573q-35 0 -133 33t-135 32q-68 0 -148 -67l-22 28q152 139 227 140q36 0 138 -32q102 -31 142 -31t111 53l41 30l25 -22q-154 -164 -246 -164zM801 1393l614 -1117l193 779q35 136 26 179q-8 42 -21 57t-57 30t-138 27q-95 12 -107 14l8 31h690l-8 -31
q-123 -17 -201 -67q-52 -32 -88 -147q-12 -38 -33 -120l-172 -688q-18 -70 -24 -104t5 -77q11 -45 21 -63t54 -96h-203l-580 1057l-176 -721q-45 -188 -1 -232t265 -69q20 -2 31 -4l-8 -31h-717l8 31q115 5 153 21t58 26t42 41t37 52t50 156q35 134 45 169l88 358
q45 164 38 264t-78 152t-244 92l8 31h422z" />
    <glyph glyph-name="Ograve" unicode="&#xd2;" horiz-adv-x="1556" 
d="M958 1933l250 -460l-28 -23l-322 387zM1094 1370q-236 0 -432 -260t-195 -625q0 -188 88 -325t262 -137q137 0 260 90t202 224t125 284q46 149 46 273q0 269 -150 402q-83 74 -206 74zM1075 1419q268 0 428 -170t160 -442q0 -346 -247 -590t-593 -244q-253 0 -411 165
q-158 164 -158 404t107 438q109 198 299 318t415 121z" />
    <glyph glyph-name="Oacute" unicode="&#xd3;" horiz-adv-x="1556" 
d="M1382 1817l-340 -365l-28 21l282 452zM1094 1370q-236 0 -432 -260t-195 -625q0 -188 88 -325t262 -137q137 0 260 90t202 224t125 284q46 149 46 273q0 269 -150 402q-83 74 -206 74zM1075 1419q268 0 428 -170t160 -442q0 -346 -247 -590t-593 -244q-253 0 -411 165
q-158 164 -158 404t107 438q109 198 299 318t415 121z" />
    <glyph glyph-name="Ocircumflex" unicode="&#xd4;" horiz-adv-x="1556" 
d="M885 1473l368 471l33 -9l27 -456l-29 -6l-90 262l-285 -289zM1094 1370q-236 0 -432 -260t-195 -625q0 -188 88 -325t262 -137q137 0 260 90t202 224t125 284q46 149 46 273q0 269 -150 402q-83 74 -206 74zM1075 1419q268 0 428 -170t160 -442q0 -346 -247 -590
t-593 -244q-253 0 -411 165q-158 164 -158 404t107 438q109 198 299 318t415 121z" />
    <glyph glyph-name="Otilde" unicode="&#xd5;" horiz-adv-x="1556" 
d="M1235 1573q-35 0 -133 33t-135 32q-68 0 -148 -67l-22 28q152 139 227 140q36 0 138 -32q102 -31 142 -31t111 53l41 30l25 -22q-154 -164 -246 -164zM1094 1370q-236 0 -432 -260t-195 -625q0 -188 88 -325t262 -137q137 0 260 90t202 224t125 284q46 149 46 273
q0 269 -150 402q-83 74 -206 74zM1075 1419q268 0 428 -170t160 -442q0 -346 -247 -590t-593 -244q-253 0 -411 165q-158 164 -158 404t107 438q109 198 299 318t415 121z" />
    <glyph glyph-name="Odieresis" unicode="&#xd6;" horiz-adv-x="1556" 
d="M1316 1722q40 0 66 -26t27 -65q0 -39 -27 -69q-28 -30 -68 -30t-68 24t-27 64q0 41 28 72q29 30 69 30zM943 1722q40 0 67 -26q26 -26 26 -65t-26 -69t-68 -30q-41 0 -69 24t-27 64q0 41 28 72q29 30 69 30zM1094 1370q-236 0 -432 -260t-195 -625q0 -188 88 -325
t262 -137q137 0 260 90t202 224t125 284q46 149 46 273q0 269 -150 402q-83 74 -206 74zM1075 1419q268 0 428 -170t160 -442q0 -346 -247 -590t-593 -244q-253 0 -411 165q-158 164 -158 404t107 438q109 198 299 318t415 121z" />
    <glyph glyph-name="multiply" unicode="&#xd7;" 
d="M209 76l377 377l-377 376l76 78l379 -379l376 379l76 -78l-377 -376l377 -377l-78 -76l-374 377l-377 -377z" />
    <glyph glyph-name="Oslash" unicode="&#xd8;" horiz-adv-x="1556" 
d="M1384 1184l-815 -1051q37 -49 107 -81t145 -29q137 0 259 90q219 162 320 498q101 337 -16 573zM1094 1370q-236 0 -432 -260t-195 -625q0 -176 68 -301l817 1055q-70 131 -258 131zM1661 807q0 -346 -249 -590t-595 -244q-66 0 -157 25t-144 51l-160 -211l-61 49
l164 205q-104 78 -155 205q-50 127 -50 270q0 342 242 597t579 255q207 0 336 -96l154 207l59 -51l-158 -199q96 -62 146 -202t49 -271z" />
    <glyph glyph-name="Ugrave" unicode="&#xd9;" horiz-adv-x="1679" 
d="M1020 1933l250 -460l-29 -23l-321 387zM612 1197q0 32 1 52t-41 55q-21 16 -185 58l8 31h699l-9 -31q-174 -16 -238 -102q-34 -46 -50 -88t-35 -117l-107 -420q-55 -227 -55 -268q0 -152 106 -227t263 -74q371 0 493 493l121 496q37 184 11 222t-197 81q-8 2 -13 4l9 31
h594l-9 -31q-124 -20 -166 -49q-43 -29 -67 -53t-43 -91q-18 -67 -37 -139l-123 -489q-63 -262 -223 -415t-420 -153q-183 1 -327 95t-144 272q0 74 33 201l125 514q26 110 26 142z" />
    <glyph glyph-name="Uacute" unicode="&#xda;" horiz-adv-x="1679" 
d="M1464 1817l-340 -365l-28 21l282 452zM612 1197q0 32 1 52t-41 55q-21 16 -185 58l8 31h699l-9 -31q-174 -16 -238 -102q-34 -46 -50 -88t-35 -117l-107 -420q-55 -227 -55 -268q0 -152 106 -227t263 -74q371 0 493 493l121 496q37 184 11 222t-197 81q-8 2 -13 4l9 31
h594l-9 -31q-124 -20 -166 -49q-43 -29 -67 -53t-43 -91q-18 -67 -37 -139l-123 -489q-63 -262 -223 -415t-420 -153q-183 1 -327 95t-144 272q0 74 33 201l125 514q26 110 26 142z" />
    <glyph glyph-name="Ucircumflex" unicode="&#xdb;" horiz-adv-x="1679" 
d="M987 1452l369 471l33 -8l26 -457l-29 -6l-90 262l-284 -289zM612 1197q0 32 1 52t-41 55q-21 16 -185 58l8 31h699l-9 -31q-174 -16 -238 -102q-34 -46 -50 -88t-35 -117l-107 -420q-55 -227 -55 -268q0 -152 106 -227t263 -74q371 0 493 493l121 496q37 184 11 222
t-197 81q-8 2 -13 4l9 31h594l-9 -31q-124 -20 -166 -49q-43 -29 -67 -53t-43 -91q-18 -67 -37 -139l-123 -489q-63 -262 -223 -415t-420 -153q-183 1 -327 95t-144 272q0 74 33 201l125 514q26 110 26 142z" />
    <glyph glyph-name="Udieresis" unicode="&#xdc;" horiz-adv-x="1679" 
d="M1321 1620q1 42 29 72t68 30t67 -26t27 -65t-28 -69q-26 -30 -67 -30t-69 24t-27 64zM948 1620q0 42 29 72t69 30t66 -26t27 -65q0 -39 -27 -69t-68 -30q-40 0 -68 24t-28 64zM612 1197q0 32 1 52t-41 55q-21 16 -185 58l8 31h699l-9 -31q-174 -16 -238 -102
q-34 -46 -50 -88t-35 -117l-107 -420q-55 -227 -55 -268q0 -152 106 -227t263 -74q371 0 493 493l121 496q37 184 11 222t-197 81q-8 2 -13 4l9 31h594l-9 -31q-124 -20 -166 -49q-43 -29 -67 -53t-43 -91q-18 -67 -37 -139l-123 -489q-63 -262 -223 -415t-420 -153
q-183 1 -327 95t-144 272q0 74 33 201l125 514q26 110 26 142z" />
    <glyph glyph-name="Yacute" unicode="&#xdd;" horiz-adv-x="1433" 
d="M1300 1817l-339 -365l-29 21l282 452zM1503 1419q123 -1 193 -75t80 -199l-27 -8q-43 141 -203 141q-113 0 -208 -55t-156 -134t-130 -228t-122 -372l-37 -151q-10 -57 -16 -83q-5 -25 -5 -61t-1 -48t17 -33q18 -20 34 -30q24 -15 196 -52l-8 -31h-725l8 31
q177 16 239 102q34 47 50 88t35 117l69 274q53 200 13 420q-20 112 -93 184t-190 72q-158 0 -291 -168l-20 13q65 127 173 207t240 79q178 0 265 -125t71 -303l-16 -186l4 -4l78 184q190 434 483 434z" />
    <glyph glyph-name="Thorn" unicode="&#xde;" horiz-adv-x="1228" 
d="M608 1197q0 32 1 52t-41 55q-21 16 -185 58l8 31h699l-9 -31q-184 -47 -232 -90t-87 -203q281 0 375 -35q144 -51 187 -128q28 -50 28 -118q0 -142 -171 -252t-358 -92l-143 15l8 30q176 -6 313 74t137 212q0 133 -112 191q-114 58 -276 52l-166 -678q-10 -41 -16 -67
q-6 -27 -9 -55q-2 -28 -5 -43t7 -33t11 -26q1 -7 39 -28t90 -33t108 -24l-8 -31h-725l8 31q173 16 239 104q34 47 50 88t35 117l174 715q26 110 26 142z" />
    <glyph glyph-name="germandbls" unicode="&#xdf;" horiz-adv-x="983" 
d="M1020 1460q94 0 156 -52t61 -151q0 -99 -104 -182q-45 -35 -97 -75t-96 -76q-45 -36 -75 -91q-29 -54 -29 -120t81 -215t80 -222q-1 -98 -115 -196t-223 -98q-57 0 -110 45t-53 93t28 73q29 25 74 26q44 -89 84 -121q40 -33 84 -34q43 -1 74 36q30 36 30 98t-91 228
t-91 226q0 107 141 231q59 51 119 101q142 120 142 228q0 72 -52 119t-128 47t-144 -47q-108 -74 -205 -289t-158 -542l-96 -492q-35 -193 -84 -274q-47 -84 -160 -161t-193 -77t-140 32q-62 32 -62 82t23 76t59 27q96 -86 140 -103q44 -18 86 -18t79 36q71 69 115 352
l74 448q68 420 223 657q92 141 251 258t302 117z" />
    <glyph glyph-name="agrave" unicode="&#xe0;" horiz-adv-x="1105" 
d="M692 1507l250 -460l-29 -23l-321 387zM582 838q-64 0 -154 -260t-131 -451l20 -12q159 107 276 260q117 154 228 323q-12 8 -67 48q-126 92 -172 92zM716 -27q-42 -1 -70 13t-21 34l196 574l-4 4q-352 -471 -485 -576q-61 -48 -93 -48t-68 20t-36 53q0 63 62 266
q61 203 100 293q66 154 149 221q47 37 114 68t108 31t90 -21t66 -35t46 -32t31 -21l17 34q47 101 86 101q75 0 26 -125l-233 -696q76 22 150 83q74 62 127 117l56 56l27 -18q-79 -111 -169 -210q-91 -98 -161 -142t-111 -44z" />
    <glyph glyph-name="aacute" unicode="&#xe1;" horiz-adv-x="1105" 
d="M1075 1391l-340 -365l-28 21l282 452zM582 838q-64 0 -154 -260t-131 -451l20 -12q159 107 276 260q117 154 228 323q-12 8 -67 48q-126 92 -172 92zM716 -27q-42 -1 -70 13t-21 34l196 574l-4 4q-352 -471 -485 -576q-61 -48 -93 -48t-68 20t-36 53q0 63 62 266
q61 203 100 293q66 154 149 221q47 37 114 68t108 31t90 -21t66 -35t46 -32t31 -21l17 34q47 101 86 101q75 0 26 -125l-233 -696q76 22 150 83q74 62 127 117l56 56l27 -18q-79 -111 -169 -210q-91 -98 -161 -142t-111 -44z" />
    <glyph glyph-name="acircumflex" unicode="&#xe2;" horiz-adv-x="1105" 
d="M598 1026l369 471l32 -8l27 -457l-29 -6l-90 262l-284 -289zM582 838q-64 0 -154 -260t-131 -451l20 -12q159 107 276 260q117 154 228 323q-12 8 -67 48q-126 92 -172 92zM716 -27q-42 -1 -70 13t-21 34l196 574l-4 4q-352 -471 -485 -576q-61 -48 -93 -48t-68 20
t-36 53q0 63 62 266q61 203 100 293q66 154 149 221q47 37 114 68t108 31t90 -21t66 -35t46 -32t31 -21l17 34q47 101 86 101q75 0 26 -125l-233 -696q76 22 150 83q74 62 127 117l56 56l27 -18q-79 -111 -169 -210q-91 -98 -161 -142t-111 -44z" />
    <glyph glyph-name="atilde" unicode="&#xe3;" horiz-adv-x="1105" 
d="M887 1147q-35 0 -133 33t-136 32q-68 0 -147 -67l-22 29q152 139 227 139q36 0 138 -32q102 -31 142 -31t111 53l41 30l25 -22q-154 -164 -246 -164zM582 838q-64 0 -154 -260t-131 -451l20 -12q159 107 276 260q117 154 228 323q-12 8 -67 48q-126 92 -172 92zM716 -27
q-42 -1 -70 13t-21 34l196 574l-4 4q-352 -471 -485 -576q-61 -48 -93 -48t-68 20t-36 53q0 63 62 266q61 203 100 293q66 154 149 221q47 37 114 68t108 31t90 -21t66 -35t46 -32t31 -21l17 34q47 101 86 101q75 0 26 -125l-233 -696q76 22 150 83q74 62 127 117l56 56
l27 -18q-79 -111 -169 -210q-91 -98 -161 -142t-111 -44z" />
    <glyph glyph-name="adieresis" unicode="&#xe4;" horiz-adv-x="1105" 
d="M952 1194q0 42 29 72t69 30t66 -26t27 -65q0 -39 -27 -69q-28 -30 -68 -30t-68 24t-28 64zM677 1296q41 0 67 -26t26 -65t-27 -69t-67 -30t-69 24q-28 24 -27 64q0 41 28 72q29 30 69 30zM582 838q-64 0 -154 -260t-131 -451l20 -12q159 107 276 260q117 154 228 323
q-12 8 -67 48q-126 92 -172 92zM716 -27q-42 -1 -70 13t-21 34l196 574l-4 4q-352 -471 -485 -576q-61 -48 -93 -48t-68 20t-36 53q0 63 62 266q61 203 100 293q66 154 149 221q47 37 114 68t108 31t90 -21t66 -35t46 -32t31 -21l17 34q47 101 86 101q75 0 26 -125
l-233 -696q76 22 150 83q74 62 127 117l56 56l27 -18q-79 -111 -169 -210q-91 -98 -161 -142t-111 -44z" />
    <glyph glyph-name="aring" unicode="&#xe5;" horiz-adv-x="1105" 
d="M828 1358q-56 0 -87 -43t-31 -99t32 -93q30 -38 84 -38t88 42q34 41 34 99t-32 95t-88 37zM829 1397q78 0 128 -48q51 -48 51 -126t-54 -127t-130 -49q-77 0 -125 47t-48 124t50 128t128 51zM582 838q-64 0 -154 -260t-131 -451l20 -12q159 107 276 260q117 154 228 323
q-12 8 -67 48q-126 92 -172 92zM716 -27q-42 -1 -70 13t-21 34l196 574l-4 4q-352 -471 -485 -576q-61 -48 -93 -48t-68 20t-36 53q0 63 62 266q61 203 100 293q66 154 149 221q47 37 114 68t108 31t90 -21t66 -35t46 -32t31 -21l17 34q47 101 86 101q75 0 26 -125
l-233 -696q76 22 150 83q74 62 127 117l56 56l27 -18q-79 -111 -169 -210q-91 -98 -161 -142t-111 -44z" />
    <glyph glyph-name="ae" unicode="&#xe6;" horiz-adv-x="942" 
d="M628 -27q-72 -1 -113 61q-40 62 -54 144q-55 -61 -137 -133t-122 -72t-76 29t-36 64q0 118 142 328t314 371t255 161q53 0 109 -41t56 -91t-156 -242q-157 -192 -226 -261q4 -59 34 -122q31 -62 80 -63q90 0 191 174q13 24 35 62t26 43l31 -10q-71 -200 -201 -325
q-80 -77 -152 -77zM573 387v-47q250 276 250 358q0 33 -47 80t-80 47q-59 0 -91 -169t-32 -269zM485 625l-12 8q-84 -95 -158 -233t-73 -236q0 -20 14 -38t36 -20q22 0 83 48t78 71q-13 113 -7 203t39 197z" />
    <glyph glyph-name="ccedilla" unicode="&#xe7;" horiz-adv-x="778" 
d="M184 92q0 117 41 294q41 176 90 268t179 182t215 90q33 0 89 -35t56 -70t-75 -100q-15 -14 -17 -16q-8 4 -85 55t-114 51q-75 0 -149 -259t-74 -388q0 -63 41 -64q72 0 199 82t182 148l31 -29q-51 -74 -143 -153t-185 -123q-78 -74 -78 -109t35 -109t35 -102
q0 -74 -69 -131t-144 -57q-39 1 -70 27t-31 70t39 44q18 0 68 -43t70 -43q22 0 36 20q35 49 -11 131q-46 81 -46 115q0 63 98 158q-62 -21 -98 -22q-37 -1 -76 36t-39 82z" />
    <glyph glyph-name="egrave" unicode="&#xe8;" horiz-adv-x="778" 
d="M528 1507l250 -460l-28 -23l-322 387zM692 729q0 37 -44 73t-81 36q-108 -1 -190 -355l227 148q63 31 83 76q5 10 5 22zM272 -27q-32 0 -70 37t-38 82q0 117 41 294q41 176 90 268t178 182t215 90q42 0 104 -48t62 -94t-102 -114l-396 -262q0 -4 -26 -94t-19 -142
q6 -52 19 -61q14 -10 30 -11q74 0 203 86t187 162l32 -20q-88 -131 -238 -243t-272 -112z" />
    <glyph glyph-name="eacute" unicode="&#xe9;" horiz-adv-x="778" 
d="M911 1391l-340 -365l-28 21l282 452zM692 729q0 37 -44 73t-81 36q-108 -1 -190 -355l227 148q63 31 83 76q5 10 5 22zM272 -27q-32 0 -70 37t-38 82q0 117 41 294q41 176 90 268t178 182t215 90q42 0 104 -48t62 -94t-102 -114l-396 -262q0 -4 -26 -94t-19 -142
q6 -52 19 -61q14 -10 30 -11q74 0 203 86t187 162l32 -20q-88 -131 -238 -243t-272 -112z" />
    <glyph glyph-name="ecircumflex" unicode="&#xea;" horiz-adv-x="778" 
d="M434 1026l369 471l33 -8l26 -457l-28 -6l-91 262l-284 -289zM692 729q0 37 -44 73t-81 36q-108 -1 -190 -355l227 148q63 31 83 76q5 10 5 22zM272 -27q-32 0 -70 37t-38 82q0 117 41 294q41 176 90 268t178 182t215 90q42 0 104 -48t62 -94t-102 -114l-396 -262
q0 -4 -26 -94t-19 -142q6 -52 19 -61q14 -10 30 -11q74 0 203 86t187 162l32 -20q-88 -131 -238 -243t-272 -112z" />
    <glyph glyph-name="edieresis" unicode="&#xeb;" horiz-adv-x="778" 
d="M788 1194q0 42 29 72t69 30t66 -26t27 -65q0 -39 -27 -69q-28 -30 -68 -30t-68 24t-28 64zM513 1296q40 0 67 -26q26 -26 26 -65t-26 -69t-68 -30q-41 0 -69 24t-27 64q0 41 28 72q29 30 69 30zM692 729q0 37 -44 73t-81 36q-108 -1 -190 -355l227 148q63 31 83 76
q5 10 5 22zM272 -27q-32 0 -70 37t-38 82q0 117 41 294q41 176 90 268t178 182t215 90q42 0 104 -48t62 -94t-102 -114l-396 -262q0 -4 -26 -94t-19 -142q6 -52 19 -61q14 -10 30 -11q74 0 203 86t187 162l32 -20q-88 -131 -238 -243t-272 -112z" />
    <glyph glyph-name="igrave" unicode="&#xec;" horiz-adv-x="655" 
d="M467 1507l250 -460l-29 -23l-321 387zM270 -27q-33 0 -52 23t-19 71t85 270t179 437l-14 14q-63 -35 -137 -99q-73 -65 -117 -124l-25 15q51 118 169 232t212 114q65 0 65 -75t-116 -353q-116 -279 -150 -375l15 -6q153 92 305 262l26 -17q-238 -389 -426 -389z" />
    <glyph glyph-name="iacute" unicode="&#xed;" horiz-adv-x="655" 
d="M850 1391l-340 -365l-29 21l283 452zM270 -27q-33 0 -52 23t-19 71t85 270t179 437l-14 14q-63 -35 -137 -99q-73 -65 -117 -124l-25 15q51 118 169 232t212 114q65 0 65 -75t-116 -353q-116 -279 -150 -375l15 -6q153 92 305 262l26 -17q-238 -389 -426 -389z" />
    <glyph glyph-name="icircumflex" unicode="&#xee;" horiz-adv-x="655" 
d="M332 1026l368 471l33 -8l27 -457l-29 -6l-90 262l-285 -289zM270 -27q-33 0 -52 23t-19 71t85 270t179 437l-14 14q-63 -35 -137 -99q-73 -65 -117 -124l-25 15q51 118 169 232t212 114q65 0 65 -75t-116 -353q-116 -279 -150 -375l15 -6q153 92 305 262l26 -17
q-238 -389 -426 -389z" />
    <glyph glyph-name="idieresis" unicode="&#xef;" horiz-adv-x="655" 
d="M727 1194q1 42 29 72t68 30t67 -26t27 -65t-27 -69t-68 -30t-69 24t-27 64zM354 1194q0 42 29 72t69 30t66 -26t27 -65q0 -39 -27 -69q-28 -30 -68 -30t-68 24t-28 64zM270 -27q-33 0 -52 23t-19 71t85 270t179 437l-14 14q-63 -35 -137 -99q-73 -65 -117 -124l-25 15
q51 118 169 232t212 114q65 0 65 -75t-116 -353q-116 -279 -150 -375l15 -6q153 92 305 262l26 -17q-238 -389 -426 -389z" />
    <glyph glyph-name="eth" unicode="&#xf0;" horiz-adv-x="860" 
d="M899 743q0 -315 -143 -542t-367 -228q-211 0 -211 269q0 139 60 296q59 156 169 272t232 116q66 0 104 -25q0 160 -26 268l-209 -63l-23 55l217 66q-28 112 -102 235l43 17q90 -90 150 -226l208 64l23 -55l-209 -64q84 -223 84 -455zM420 14q68 0 142 118t122 281
q47 163 47 289q0 182 -90 183q-69 0 -143 -126t-119 -288t-45 -276q0 -181 86 -181z" />
    <glyph glyph-name="ntilde" unicode="&#xf1;" horiz-adv-x="1187" 
d="M928 1147q-35 0 -133 33t-136 32q-68 0 -147 -67l-23 29q152 139 228 139q35 0 137 -32q102 -31 142 -31t112 53l41 30l25 -22q-154 -164 -246 -164zM969 797q0 39 -47 40q-46 1 -150 -135t-200 -296q-255 -431 -324 -433q-90 0 4 240l223 590q-119 -16 -221 -158
q-18 -25 -57 -80l-23 15q33 122 126 234q92 112 198 112t133 -74l-230 -602l5 -4l96 151q60 100 141 214q80 114 115 152t79 80q85 81 160 83q195 0 62 -348l-166 -441l6 -10q145 88 299 250l23 -23q-76 -117 -214 -249q-137 -132 -235 -132t-16 201l155 418q0 2 12 28
q11 26 16 42t17 54t13 81z" />
    <glyph glyph-name="ograve" unicode="&#xf2;" horiz-adv-x="860" 
d="M569 1507l250 -460l-28 -23l-322 387zM641 885q-69 0 -143 -126t-119 -288t-45 -276q0 -180 86 -181q68 0 142 118t122 281q47 163 47 289q0 183 -90 183zM680 926q207 0 207 -289q-1 -139 -59 -290t-176 -263t-263 -111q-211 0 -211 269q0 141 59 296q58 156 178 272
t265 116z" />
    <glyph glyph-name="oacute" unicode="&#xf3;" horiz-adv-x="860" 
d="M952 1391l-340 -365l-28 21l282 452zM641 885q-69 0 -143 -126t-119 -288t-45 -276q0 -180 86 -181q68 0 142 118t122 281q47 163 47 289q0 183 -90 183zM680 926q207 0 207 -289q-1 -139 -59 -290t-176 -263t-263 -111q-211 0 -211 269q0 141 59 296q58 156 178 272
t265 116z" />
    <glyph glyph-name="ocircumflex" unicode="&#xf4;" horiz-adv-x="860" 
d="M475 1026l369 471l33 -8l26 -457l-29 -6l-90 262l-284 -289zM641 885q-69 0 -143 -126t-119 -288t-45 -276q0 -180 86 -181q68 0 142 118t122 281q47 163 47 289q0 183 -90 183zM680 926q207 0 207 -289q-1 -139 -59 -290t-176 -263t-263 -111q-211 0 -211 269
q0 141 59 296q58 156 178 272t265 116z" />
    <glyph glyph-name="otilde" unicode="&#xf5;" horiz-adv-x="860" 
d="M764 1147q-35 0 -133 33t-135 32q-68 0 -148 -67l-22 29q152 139 227 139q35 0 137 -32q102 -31 142 -31t112 53l41 30l25 -22q-154 -164 -246 -164zM641 885q-69 0 -143 -126t-119 -288t-45 -276q0 -180 86 -181q68 0 142 118t122 281q47 163 47 289q0 183 -90 183z
M680 926q207 0 207 -289q-1 -139 -59 -290t-176 -263t-263 -111q-211 0 -211 269q0 141 59 296q58 156 178 272t265 116z" />
    <glyph glyph-name="odieresis" unicode="&#xf6;" horiz-adv-x="860" 
d="M829 1194q0 42 29 72t69 30q41 0 67 -26t26 -65t-27 -69t-67 -30t-69 24q-28 24 -28 64zM554 1296q40 0 67 -26t27 -65t-28 -69q-26 -30 -67 -30t-69 24t-27 64q0 41 28 72q29 30 69 30zM641 885q-69 0 -143 -126t-119 -288t-45 -276q0 -180 86 -181q68 0 142 118
t122 281q47 163 47 289q0 183 -90 183zM680 926q207 0 207 -289q-1 -139 -59 -290t-176 -263t-263 -111q-211 0 -211 269q0 141 59 296q58 156 178 272t265 116z" />
    <glyph glyph-name="divide" unicode="&#xf7;" 
d="M774 117q0 -47 -30 -82t-80 -35q-49 0 -81 32t-32 78t33 80t80 33q46 1 78 -29t32 -77zM774 801q0 -47 -30 -82t-80 -35q-49 0 -81 32t-32 78t33 80t80 33q46 1 78 -29t32 -77zM209 508h907v-109h-907v109z" />
    <glyph glyph-name="oslash" unicode="&#xf8;" horiz-adv-x="860" 
d="M336 123q10 -109 88 -109q72 0 146 129t119 282q44 153 42 245zM641 885q-73 0 -147 -131t-118 -293t-42 -266l395 548q0 51 -21 97q-22 45 -67 45zM887 626q-1 -118 -57 -270t-175 -268t-268 -115q-98 0 -139 43l-119 -170l-47 33l137 178q-41 94 -41 216t62 274
q61 151 180 265t260 114q88 0 145 -58l123 168l43 -32l-139 -177q35 -83 35 -201z" />
    <glyph glyph-name="ugrave" unicode="&#xf9;" horiz-adv-x="1187" 
d="M733 1507l250 -460l-29 -23l-321 387zM1099 926q78 0 33 -149q-2 -9 -8 -23t-6 -17l-207 -600q131 57 299 242l25 -17q-57 -108 -205 -248t-244 -141q-53 0 -69 31l235 668l-4 4l-317 -445q-223 -258 -334 -258q-60 0 -75 36t-2 71q31 82 34 88l231 620l-16 9
q-162 -109 -266 -238l-27 21q49 102 171 224t212 122q62 0 72 -50q4 -26 4 -59t-28 -113t-32 -83l-190 -508l21 -15q139 84 274 279l299 434q66 115 120 115z" />
    <glyph glyph-name="uacute" unicode="&#xfa;" horiz-adv-x="1187" 
d="M1116 1391l-340 -365l-28 21l282 452zM1099 926q78 0 33 -149q-2 -9 -8 -23t-6 -17l-207 -600q131 57 299 242l25 -17q-57 -108 -205 -248t-244 -141q-53 0 -69 31l235 668l-4 4l-317 -445q-223 -258 -334 -258q-60 0 -75 36t-2 71q31 82 34 88l231 620l-16 9
q-162 -109 -266 -238l-27 21q49 102 171 224t212 122q62 0 72 -50q4 -26 4 -59t-28 -113t-32 -83l-190 -508l21 -15q139 84 274 279l299 434q66 115 120 115z" />
    <glyph glyph-name="ucircumflex" unicode="&#xfb;" horiz-adv-x="1187" 
d="M639 1026l369 471l32 -8l27 -457l-29 -6l-90 262l-284 -289zM1099 926q78 0 33 -149q-2 -9 -8 -23t-6 -17l-207 -600q131 57 299 242l25 -17q-57 -108 -205 -248t-244 -141q-53 0 -69 31l235 668l-4 4l-317 -445q-223 -258 -334 -258q-60 0 -75 36t-2 71q31 82 34 88
l231 620l-16 9q-162 -109 -266 -238l-27 21q49 102 171 224t212 122q62 0 72 -50q4 -26 4 -59t-28 -113t-32 -83l-190 -508l21 -15q139 84 274 279l299 434q66 115 120 115z" />
    <glyph glyph-name="udieresis" unicode="&#xfc;" horiz-adv-x="1187" 
d="M1066 1296q40 0 67 -26t27 -65t-28 -69q-26 -30 -67 -30t-69 24t-27 64q0 41 28 72q29 30 69 30zM596 1194q0 42 28 72t69 30q40 0 67 -26q26 -26 26 -65t-26 -69t-68 -30q-40 0 -68 24t-28 64zM1099 926q78 0 33 -149q-2 -9 -8 -23t-6 -17l-207 -600q131 57 299 242
l25 -17q-57 -108 -205 -248t-244 -141q-53 0 -69 31l235 668l-4 4l-317 -445q-223 -258 -334 -258q-60 0 -75 36t-2 71q31 82 34 88l231 620l-16 9q-162 -109 -266 -238l-27 21q49 102 171 224t212 122q62 0 72 -50q4 -26 4 -59t-28 -113t-32 -83l-190 -508l21 -15
q139 84 274 279l299 434q66 115 120 115z" />
    <glyph glyph-name="yacute" unicode="&#xfd;" horiz-adv-x="778" 
d="M911 1391l-340 -365l-28 21l282 452zM361 926q63 0 109 -93t66 -231q41 -274 37 -465l5 -4q137 276 165 606q-1 97 11 121t24 45t46 21t52 -22t19 -52q0 -113 -116 -375q-115 -261 -183 -377t-122 -196t-131 -178t-159 -164t-134 -66t-80 31t-28 74t32 73q30 30 74 29
q44 0 95 -84q154 84 291 303q20 274 -19 558q-40 284 -98 284q-29 0 -66 -88t-53 -134t-18 -50l-28 6q-2 59 20 156q23 96 75 184t114 88z" />
    <glyph glyph-name="thorn" unicode="&#xfe;" horiz-adv-x="983" 
d="M537 76q75 0 153 108t126 255t48 277t-102 130q-58 0 -160 -37l-190 -631q20 -38 55 -70t70 -32zM1020 733q0 -235 -122 -447t-304 -255q-23 -4 -93 -23t-83 -20q-14 -1 -45 26l-70 -252q-2 -6 -4 -16q-29 -116 -15 -144t126 -46q18 -4 61 -13l100 -16l-8 -31h-643l8 31
q129 33 151 55t60 148l305 1009l-249 -137l-25 33q113 94 293 182l117 375q14 47 5 59t-102 62l11 43l282 123l37 -21l-195 -588q197 56 268 56q70 0 102 -60t32 -133z" />
    <glyph glyph-name="ydieresis" unicode="&#xff;" horiz-adv-x="778" 
d="M764 1194q0 42 28 72t69 30q40 0 67 -26q26 -26 26 -65t-26 -69t-68 -30q-40 0 -68 24t-28 64zM391 1194q1 42 29 72t68 30t67 -26t27 -65t-27 -69t-68 -30t-69 24t-27 64zM361 926q63 0 109 -93t66 -231q41 -274 37 -465l5 -4q137 276 165 606q-1 97 11 121t24 45t46 21
t52 -22t19 -52q0 -113 -116 -375q-115 -261 -183 -377t-122 -196t-131 -178t-159 -164t-134 -66t-80 31t-28 74t32 73q30 30 74 29q44 0 95 -84q154 84 291 303q20 274 -19 558q-40 284 -98 284q-29 0 -66 -88t-53 -134t-18 -50l-28 6q-2 59 20 156q23 96 75 184t114 88z
" />
    <glyph glyph-name="dotlessi" unicode="&#x131;" horiz-adv-x="655" 
d="M270 -27q-33 0 -52 23t-19 71t85 270t179 437l-14 14q-63 -35 -137 -99q-73 -65 -117 -124l-25 15q51 118 169 232t212 114q65 0 65 -75t-116 -353q-116 -279 -150 -375l15 -6q153 92 305 262l26 -17q-238 -389 -426 -389z" />
    <glyph glyph-name="Lslash" unicode="&#x141;" horiz-adv-x="1228" 
d="M608 1198q0 33 1 47q1 13 -15 33t-24 26q-24 18 -187 58l8 31h715l-8 -31q-205 -17 -275 -135q-34 -59 -61 -172l-64 -250l371 225l37 -65l-428 -246l-94 -385q-25 -100 -30 -154q-6 -54 18 -82q24 -29 60 -35t116 -6q240 0 348 77t221 321l29 -11l-142 -444h-1128l8 31
q175 16 239 102q34 47 50 88t35 117l69 285l-250 -150l-32 64l305 172l82 346q26 110 26 143z" />
    <glyph glyph-name="lslash" unicode="&#x142;" horiz-adv-x="614" 
d="M729 1458l-192 -598l229 148l29 -45l-277 -179l-207 -643l17 -14q68 30 123 75q55 44 110 96t66 60l28 -22q-53 -94 -208 -228t-238 -135q-60 0 -62 64q0 49 35 143l162 520l-188 -120l-29 49l235 147l134 416q14 47 5 59t-102 62l11 43l282 123z" />
    <glyph glyph-name="OE" unicode="&#x152;" horiz-adv-x="1925" 
d="M1167 1341q-313 0 -512 -234t-198 -554q1 -190 119 -353t305 -163q81 0 120 41q23 23 45 50t46 123q24 97 28 111l238 959q-102 20 -191 20zM1925 1069v31q0 103 -10 142q-9 38 -29 52q-52 37 -151 37h-203l-139 -565h206q47 0 75 4t47 6q36 4 99 98q26 39 42 64h30
l-135 -487h-26l-2 -7q0 4 2 13q23 213 -25 213h-338l-80 -324q-47 -150 -12 -218q34 -68 206 -67q172 0 269 83q96 83 188 276l29 -10l-119 -410l-944 -14q-299 0 -480 143t-181 434q0 182 82 347t225 280q252 203 731 203h780l-104 -324h-33z" />
    <glyph glyph-name="oe" unicode="&#x153;" horiz-adv-x="1187" 
d="M659 885q-73 0 -151 -122t-127 -285t-49 -285q0 -178 67 -179q74 0 154 128t131 300t51 301q0 49 -17 96q-18 46 -59 46zM377 -27q-201 0 -201 267q0 158 68 316t183 264q116 105 241 106q152 0 190 -148q45 41 139 94q93 54 141 54t111 -49t63 -90t-50 -82l-449 -297
q-27 -136 -11 -240q11 -70 64 -72q40 0 73 22q35 22 57 40q22 16 50 40q42 36 93 87l39 39q12 12 32 34t23 23l20 -16q-70 -123 -213 -257t-254 -135q-63 1 -97 51t-34 115q-145 -166 -278 -166zM1151 727q0 41 -41 76t-77 35t-68 -29t-60 -110t-47 -143t-27 -87l152 96
q6 4 42 26t81 59q45 36 45 77z" />
    <glyph glyph-name="Scaron" unicode="&#x160;" horiz-adv-x="983" 
d="M1188 1944l-365 -467l-41 12l-26 448l26 7q27 -59 56 -152q28 -92 39 -121l286 297zM790 1370q-112 0 -178 -75t-66 -163q1 -148 166 -301q70 -63 138 -129q164 -158 164 -307q0 -188 -136 -305t-327 -117q-100 0 -213 32t-186 85l100 359l31 -7q-35 -158 37 -288
t243 -131q113 -1 196 83t83 180t-48 172q-48 75 -117 133q-69 57 -137 119q-164 148 -165 319q0 171 122 281t301 110t318 -97l-90 -291l-35 12l6 120q0 89 -47 148q-48 58 -160 58z" />
    <glyph glyph-name="scaron" unicode="&#x161;" horiz-adv-x="573" 
d="M881 1497l-365 -467l-41 12l-26 449l26 6q26 -57 55 -150t39 -122l287 297zM397 748q0 -78 81 -246t81 -228q0 -100 -117 -200t-219 -101q-59 0 -112 33t-53 80t32 76q33 29 72 28q6 -6 25 -30t31 -34t39 -34q26 -24 71 -24q88 0 88 125q0 61 -81 223t-81 229
q0 113 116 197t234 84q41 0 84 -31t43 -70q0 -57 -108 -94q-117 109 -154 109t-55 -28t-17 -64z" />
    <glyph glyph-name="Ydieresis" unicode="&#x178;" horiz-adv-x="1433" 
d="M1157 1620q1 42 29 72t68 30t67 -26t27 -65t-27 -69t-68 -30t-69 24t-27 64zM784 1620q0 42 29 72t69 30t66 -26t27 -65q0 -39 -27 -69q-28 -30 -68 -30t-68 24t-28 64zM1503 1419q123 -1 193 -75t80 -199l-27 -8q-43 141 -203 141q-113 0 -208 -55t-156 -134t-130 -228
t-122 -372l-37 -151q-10 -57 -16 -83q-5 -25 -5 -61t-1 -48t17 -33q18 -20 34 -30q24 -15 196 -52l-8 -31h-725l8 31q177 16 239 102q34 47 50 88t35 117l69 274q53 200 13 420q-20 112 -93 184t-190 72q-158 0 -291 -168l-20 13q65 127 173 207t240 79q178 0 265 -125
t71 -303l-16 -186l4 -4l78 184q190 434 483 434z" />
    <glyph glyph-name="Zcaron" unicode="&#x17d;" horiz-adv-x="1228" 
d="M1249 1944l-364 -467l-41 12l-27 448l27 7q31 -66 57 -155t37 -118l287 297zM1456 1393q45 0 45 -33q0 -10 -131 -150l-1104 -1149h430q250 1 383 105t209 346l33 -16l-137 -496h-1116q-49 0 -50 20q0 29 105 134l1128 1177h-401q-213 0 -323 -80t-205 -280l-27 10
l111 412h1050z" />
    <glyph glyph-name="zcaron" unicode="&#x17e;" horiz-adv-x="901" 
d="M1044 1497l-364 -467l-41 12l-27 449l27 6q26 -57 55 -150t39 -122l287 297zM866 182q0 38 -46 63q-46 24 -46 38q-2 45 25 82t69 37t71 -38q28 -38 28 -85q0 -101 -110 -203t-198 -102q-89 0 -209 42q-120 43 -191 43t-97 -43q-4 -6 -13 -24t-23 -18q-15 -1 -26 23
q-10 25 -10 59t34 74t83 58l561 560q-115 -16 -131 -17q-120 0 -223 63q-41 23 -62 23q-53 0 -22 -86q20 -55 65 -110q-27 -14 -72 -44t-69 -30q-25 0 -39 36t-14 64q0 91 84 185t174 94q57 0 153 -41t133 -41t115 41t92 41q27 0 27 -27t-53 -80l-641 -624q83 -2 241 -48
q158 -47 212 -47t90 22q38 22 38 60z" />
    <glyph glyph-name="florin" unicode="&#x192;" 
d="M147 -258q-55 0 -96 38t-41 83t20 77t54 42q13 -25 54 -72q74 -82 124 -82t96 87q45 87 72 174q26 87 38 128q11 41 13 47l123 432h-207l21 72h209q71 360 291 556q119 105 256 106q61 0 106 -38t45 -111t-76 -107q-19 55 -79 114q-104 103 -169 26q-64 -77 -166 -403
q-33 -98 -49 -143h287l-20 -72h-289l-137 -438q-70 -220 -192 -368t-288 -148z" />
    <glyph glyph-name="circumflex" unicode="&#x2c6;" horiz-adv-x="696" 
d="M393 1026l369 471l33 -8l26 -457l-28 -6l-91 262l-284 -289z" />
    <glyph glyph-name="caron" unicode="&#x2c7;" horiz-adv-x="696" 
d="M942 1497l-364 -467l-41 12l-27 449l27 6q23 -50 53 -146q30 -97 41 -126l287 297z" />
    <glyph glyph-name="uni02C9" unicode="&#x2c9;" horiz-adv-x="1228" 
d="M578 1300h571l-21 -81h-571z" />
    <glyph glyph-name="breve" unicode="&#x2d8;" horiz-adv-x="737" 
d="M672 1196q156 0 248 231l32 -10q-24 -125 -112 -229t-207 -105q-78 -1 -126 51t-48 137t47 146l29 -8q-8 -49 -9 -72q0 -65 40 -103t106 -38z" />
    <glyph glyph-name="dotaccent" unicode="&#x2d9;" horiz-adv-x="491" 
d="M395 1191q0 43 28 75t73 32q44 0 70 -28t26 -71q0 -44 -29 -76q-29 -31 -71 -31t-69 28q-28 28 -28 71z" />
    <glyph glyph-name="ring" unicode="&#x2da;" horiz-adv-x="614" 
d="M583 1358q-56 0 -87 -43t-31 -99t31 -93q31 -38 85 -38t88 42q33 41 33 99t-31 95q-32 37 -88 37zM584 1397q78 0 128 -48t50 -126t-53 -127t-130 -49t-125 47t-48 124t50 128t128 51z" />
    <glyph glyph-name="ogonek" unicode="&#x2db;" horiz-adv-x="655" 
d="M369 55v-4q-72 -57 -130 -136q-59 -79 -59 -133t23 -76t65 -22t131 60l54 39l22 -25q-61 -68 -150 -118t-167 -52q-43 0 -77 39t-34 84q0 125 268 344h54z" />
    <glyph glyph-name="tilde" unicode="&#x2dc;" horiz-adv-x="860" 
d="M764 1147q-35 0 -133 33t-135 32q-68 0 -148 -67l-22 29q152 139 227 139q35 0 137 -32q102 -31 142 -31t112 53l41 30l25 -22q-154 -164 -246 -164z" />
    <glyph glyph-name="hungarumlaut" unicode="&#x2dd;" horiz-adv-x="901" 
d="M1159 1391l-338 -365l-30 21l284 452zM809 1391l-340 -365l-29 21l283 452z" />
    <glyph glyph-name="uni03A9" unicode="&#x3a9;" horiz-adv-x="1392" 
d="M295 135h201q-198 239 -189 467q4 97 23 174q72 287 276 462q205 175 448 175q242 0 356 -168t42 -454q-55 -212 -197 -369t-299 -287h209q63 0 96 26q32 26 87 124l51 -2l-117 -283h-453l-4 37q16 23 84 111q99 128 202 290t144 332q74 299 3 441q-70 143 -230 143
t-296 -142t-212 -450q-64 -253 19 -561q12 -49 45 -164l-27 -37h-448l26 283l49 2q6 -94 29 -122t82 -28z" />
    <glyph glyph-name="uni03BC" unicode="&#x3bc;" horiz-adv-x="1187" 
d="M1099 926q78 0 33 -149q-2 -9 -8 -23t-6 -17l-207 -600q131 57 299 242l25 -17q-57 -108 -205 -248t-244 -141q-53 0 -69 31l235 668l-4 4l-317 -445q-223 -258 -322 -258q-31 0 -55 25l-39 -107q-15 -47 -29 -142t-14 -140t-38 -79t-77 -34t-61 34t-21 69q0 35 77 135
t95 149l338 905l-16 9q-162 -109 -266 -238l-27 21q49 102 171 224t212 122q62 0 72 -50q4 -26 4 -59t-28 -113t-32 -83l-190 -508l21 -15q139 84 274 279l299 434q66 115 120 115z" />
    <glyph glyph-name="pi" unicode="&#x3c0;" horiz-adv-x="1093" 
d="M1076 885q68 0 92 12q26 12 61 53l43 -18q-49 -106 -113 -174q-41 -10 -135 -10q-37 -106 -127 -474q-43 -184 39 -184q47 0 113 62l16 -41q-104 -135 -234 -136q-83 1 -111 53t3 205q55 219 149 521l-299 4l-10 -39q-51 -211 -141 -427t-164 -282q-72 -29 -127 -35
l-2 35q129 125 224 338t145 412q-108 0 -190 -41q-28 -14 -83 -49l-16 43q100 94 156 125q98 55 219 53q424 -6 492 -6z" />
    <glyph glyph-name="uni2010" unicode="&#x2010;" horiz-adv-x="696" 
d="M297 670h467l-51 -127h-467z" />
    <glyph glyph-name="endash" unicode="&#x2013;" horiz-adv-x="1024" 
d="M182 670h1024l-51 -127h-1024z" />
    <glyph glyph-name="emdash" unicode="&#x2014;" horiz-adv-x="2048" 
d="M182 670h2048l-51 -127h-2048z" />
    <glyph glyph-name="quoteleft" unicode="&#x2018;" horiz-adv-x="573" 
d="M489 1081q1 -61 51 -107t115 -56q1 -66 -31 -104t-83 -38q-80 0 -127 65t-47 148q0 184 149 320q150 135 340 155l8 -41q-156 -39 -266 -121t-109 -221z" />
    <glyph glyph-name="quoteright" unicode="&#x2019;" horiz-adv-x="573" 
d="M633 1159q0 61 -50 107t-116 57q0 65 32 103t83 38q80 0 127 -64t47 -149q0 -183 -150 -319t-340 -156l-8 41q156 39 266 121t109 221z" />
    <glyph glyph-name="quotesinglbase" unicode="&#x201a;" horiz-adv-x="491" 
d="M336 287q80 0 127 -65t47 -148q0 -184 -150 -320t-340 -155l-8 41q156 38 266 120t109 222q0 61 -50 107t-116 56q0 66 32 104t83 38z" />
    <glyph glyph-name="quotedblleft" unicode="&#x201c;" horiz-adv-x="942" 
d="M901 776q-80 0 -127 65t-47 148q0 183 150 319t340 156l8 -41q-156 -39 -266 -121t-109 -221q0 -61 50 -107t116 -56q0 -66 -32 -104t-83 -38zM489 1081q1 -61 51 -107t115 -56q1 -66 -31 -104t-83 -38q-80 0 -127 65t-47 148q0 184 149 320q150 135 340 155l8 -41
q-156 -39 -266 -121t-109 -221z" />
    <glyph glyph-name="quotedblright" unicode="&#x201d;" horiz-adv-x="942" 
d="M942 1464q80 0 127 -64t47 -149q0 -183 -150 -319t-339 -156l-9 41q156 39 266 121t109 221q0 61 -50 107t-116 57q0 65 32 103t83 38zM633 1159q0 61 -50 107t-116 57q0 65 32 103t83 38q80 0 127 -64t47 -149q0 -183 -150 -319t-340 -156l-8 41q156 39 266 121t109 221
z" />
    <glyph glyph-name="quotedblbase" unicode="&#x201e;" horiz-adv-x="778" 
d="M725 -18q0 61 -50 107t-116 56q0 66 32 104t83 38q80 0 127 -65t47 -148q0 -184 -150 -320t-340 -155l-8 41q156 38 266 120t109 222zM311 287q80 0 127 -65t47 -148q0 -184 -149 -320q-150 -135 -340 -155l-8 41q156 38 266 120t108 222q0 61 -50 107t-115 56
q0 66 31 104q32 38 83 38z" />
    <glyph glyph-name="dagger" unicode="&#x2020;" horiz-adv-x="1105" 
d="M332 926l360 -29l109 496h147l-151 -496l372 29l-34 -146l-365 27l-278 -1118h-121l303 1118l-377 -27z" />
    <glyph glyph-name="daggerdbl" unicode="&#x2021;" horiz-adv-x="1228" 
d="M412 926l364 -29l96 496h150l-141 -496l364 29l-35 -148l-356 25l-113 -449l369 27l-35 -143l-354 20l-119 -569h-145l157 569l-372 -20l34 143l365 -27l113 449l-377 -25z" />
    <glyph glyph-name="bullet" unicode="&#x2022;" horiz-adv-x="1146" 
d="M328 696q0 148 100 248t248 100t248 -100t100 -248t-100 -248t-248 -100t-248 99q-100 101 -100 249z" />
    <glyph glyph-name="ellipsis" unicode="&#x2026;" horiz-adv-x="2048" 
d="M1747 -27q-49 0 -81 32t-32 78t33 80t80 34t79 -30t32 -77t-31 -82t-80 -35zM1065 -27q-49 0 -81 32t-32 78t33 80t80 34t79 -30t32 -77t-31 -82t-80 -35zM383 -27q-49 0 -81 32t-32 78t33 80t80 34t79 -30t32 -77t-31 -82t-80 -35z" />
    <glyph glyph-name="perthousand" unicode="&#x2030;" horiz-adv-x="2007" 
d="M326 -29q652 952 979 1459l81 -50q-463 -631 -989 -1456zM664 1378q-56 0 -110 -89t-85 -202t-31 -191t20 -118q20 -41 50 -41q86 -1 155 187t69 321t-68 133zM678 1419q164 0 164 -205q0 -106 -42 -223t-127 -206t-179 -89q-166 0 -166 215q0 111 43 226t129 199t178 83
zM1860 655q-56 0 -110 -89q-54 -90 -85 -202t-31 -190t20 -119t50 -41q86 0 155 188t69 320q0 133 -68 133zM1874 696q164 0 164 -204q0 -106 -42 -224t-127 -206q-85 -89 -179 -89q-166 0 -166 215q0 111 43 226q43 114 129 198t178 84zM999 198q0 -184 70 -184
q86 0 155 188t69 320q0 133 -68 133q-55 0 -109 -89q-54 -90 -86 -202q-31 -112 -31 -166zM1239 696q164 0 164 -204q0 -106 -42 -224t-127 -206q-84 -89 -178 -89q-166 0 -167 215q0 111 43 226q43 114 129 198t178 84z" />
    <glyph glyph-name="guilsinglleft" unicode="&#x2039;" horiz-adv-x="614" 
d="M659 969q15 0 15 -23t-318 -344q4 -10 78 -158t74 -174t-16 -26q-12 0 -27 18q-14 18 -38 57q-23 39 -46 66l-172 213v18q119 88 229 180t159 133q48 40 62 40z" />
    <glyph glyph-name="guilsinglright" unicode="&#x203a;" horiz-adv-x="614" 
d="M250 244q-14 0 -14 18q0 27 317 348q-4 10 -78 158t-74 174q1 26 15 27q14 -1 28 -19t38 -57t46 -66l172 -213v-18q-121 -89 -388 -312q-48 -40 -62 -40z" />
    <glyph glyph-name="fraction" unicode="&#x2044;" horiz-adv-x="245" 
d="M784 1430l82 -50q-541 -758 -991 -1456l-72 47q73 111 437 639t544 820z" />
    <glyph glyph-name="Euro" unicode="&#x20ac;" 
d="M485 504q0 -221 76 -350t196 -129t215 121q73 95 158 266l33 -17l-129 -346q-145 -76 -316 -76t-294 132t-123 405q0 43 2 65h-164l15 62h155q12 94 41 188h-151l14 62h158q96 240 289 386q194 146 409 146q158 0 272 -49l-112 -403l-33 6q12 74 12 165q0 90 -44 160
t-138 70q-141 0 -269 -136t-202 -345h434l-14 -62h-440q-29 -98 -41 -188h436l-15 -62h-428q-2 -25 -2 -71z" />
    <glyph glyph-name="afii61289" unicode="&#x2113;" horiz-adv-x="796" 
d="M793 1423q-53 0 -99 -100t-110 -354l-64 -254q109 102 193 237q85 135 113 245t19 168t-52 58zM535 88q116 0 247 141l29 -32q-168 -219 -375 -220q-133 0 -176 78q-45 86 8 293l41 170l-135 -88l-14 47l168 113l63 260q61 250 109 356q47 106 127 180q96 96 186 96
t119 -77q29 -78 -2 -186q-76 -299 -434 -596l-47 -193q-45 -202 -23 -272t109 -70z" />
    <glyph glyph-name="trademark" unicode="&#x2122;" horiz-adv-x="1638" 
d="M961 1327q0 27 -41 27h-29v39h205l217 -519l207 519h223v-39q-78 0 -78 -33v-508q0 -53 15 -67t73 -17v-39h-291v39q57 2 73 16q15 14 15 68v502h-14l-246 -625h-16l-250 625h-14v-531q0 -39 48 -50q17 -3 52 -5v-39h-250v39q64 4 82 18q18 15 19 37v543zM170 1223v170
h598v-170h-45q0 79 -31 101t-110 22h-56v-562q0 -24 16 -36t33 -14q18 -2 52 -5v-39h-316v39q65 4 83 18q17 15 18 37v562h-41q-83 0 -111 -14q-29 -14 -37 -39q-8 -26 -8 -70h-45z" />
    <glyph glyph-name="Omega" unicode="&#x2126;" horiz-adv-x="1392" 
d="M295 135h201q-198 239 -189 467q4 97 23 174q72 287 276 462q205 175 448 175q242 0 356 -168t42 -454q-55 -212 -197 -369t-299 -287h209q63 0 96 26q32 26 87 124l51 -2l-117 -283h-453l-4 37q16 23 84 111q99 128 202 290t144 332q74 299 3 441q-70 143 -230 143
t-296 -142t-212 -450q-64 -253 19 -561q12 -49 45 -164l-27 -37h-448l26 283l49 2q6 -94 29 -122t82 -28z" />
    <glyph glyph-name="estimated" unicode="&#x212e;" horiz-adv-x="2093" 
d="M1731 727v395q0 27 -21 45q-208 207 -488 207t-487 -213q-20 -20 -20 -49v-385q0 -14 12 -14h995q9 0 9 14zM2025 676h-1298q-12 0 -12 -10v-392q0 -23 18 -45q205 -215 502 -215t506 240h114q-111 -129 -277 -204t-355 -75q-332 0 -567 211q-234 211 -234 509t234 509
t566 211t568 -211t235 -510v-18z" />
    <glyph glyph-name="partialdiff" unicode="&#x2202;" horiz-adv-x="1024" 
d="M745 786h-2q-125 0 -237 -118q-123 -139 -182 -377q-27 -109 5 -181t115 -73q133 0 277 215q98 141 192 389q-10 51 -54 98t-114 47zM725 864h2q72 0 133 -35t90 -102q55 162 70 215q49 174 29 318q-13 78 -67 136t-140 58q-133 0 -291 -111q-16 -2 -28 21q-11 22 -11 50
t12 52q143 82 289 82q258 0 328 -286q49 -194 -26 -486t-212 -489q-215 -309 -473 -310q-160 0 -228 108t-23 296q46 188 198 332q70 67 164 109t184 42z" />
    <glyph glyph-name="uni2206" unicode="&#x2206;" horiz-adv-x="1224" 
d="M969 92l-127 1059l-647 -1059h774zM1155 0h-1087l12 49l833 1344l80 20l174 -1364z" />
    <glyph glyph-name="product" unicode="&#x220f;" horiz-adv-x="1669" 
d="M1616 1395v-52q-123 -9 -150 -31t-26 -110v-1165q0 -100 26 -126t146 -34v-53h-498v53q112 8 136 31t24 127v1231q0 41 -12 52t-58 11h-393q-43 0 -54 -9t-12 -48v-1237q-1 -100 19 -125t127 -33v-53h-485v53q116 10 144 35t28 123v1167q0 88 -28 111t-151 30v52h1217z
" />
    <glyph glyph-name="summation" unicode="&#x2211;" horiz-adv-x="1415" 
d="M403 -182v47l437 698l-426 785v47h872q2 -27 25 -318l-54 -10q-41 224 -122 251q-39 13 -144 13h-368l364 -655l-436 -709h493q129 0 171 35t100 201l55 -15l-84 -370h-883z" />
    <glyph glyph-name="minus" unicode="&#x2212;" 
d="M143 498h908v-109h-908v109z" />
    <glyph glyph-name="uni2215" unicode="&#x2215;" horiz-adv-x="245" 
d="M784 1430l82 -50q-541 -758 -991 -1456l-72 47q73 111 437 639t544 820z" />
    <glyph glyph-name="uni2219" unicode="&#x2219;" horiz-adv-x="532" 
d="M264 450q0 46 33 80t80 33q47 1 79 -29t32 -77t-32 -82q-30 -35 -79 -35t-81 32t-32 78z" />
    <glyph glyph-name="radical" unicode="&#x221a;" horiz-adv-x="1421" 
d="M1389 1786l-324 -2087l-39 -21l-420 1106l-170 -79l-20 63l303 139l321 -878h4l269 1775z" />
    <glyph glyph-name="infinity" unicode="&#x221e;" horiz-adv-x="1693" 
d="M1305 778h-2q-43 0 -91 -26t-70 -46q-24 -22 -71 -74t-51 -57q102 -117 160 -161t136 -45q77 0 126 61t49 147q0 85 -52 143t-134 58zM616 369h2q42 0 67 12t39 19t44 30q29 23 50 46q21 22 29 29q7 7 29 32t25 28q-59 74 -87 107q-28 34 -86 70t-131 36t-123 -60
t-50 -148t54 -144q54 -57 138 -57zM1599 580v-2q0 -138 -88 -226t-191 -88t-183 51t-176 170q-91 -109 -173 -165t-194 -56t-196 87q-85 87 -85 220t86 221q87 88 201 89t196 -57t171 -165q109 125 181 173t184 48q110 0 188 -84q78 -83 79 -216z" />
    <glyph glyph-name="integral" unicode="&#x222b;" horiz-adv-x="1085" 
d="M932 1694q43 0 80 -25t37 -65t-25 -64q-24 -22 -60 -22t-60 45t-44 45q-96 0 -82 -334l35 -768q43 -899 -301 -899q-51 -1 -85 27t-34 67q-2 39 28 67t66 28q35 0 59 -50q24 -49 44 -49q45 0 66 89q22 89 14 241l-39 829q-39 838 301 838z" />
    <glyph glyph-name="approxequal" unicode="&#x2248;" horiz-adv-x="1255" 
d="M928 279q-84 0 -213 75q-107 66 -167 66t-100 -37t-83 -104l-74 59q43 88 113 138q71 50 153 50t174 -55q25 -14 32 -17q10 -4 62 -37q52 -32 105 -32q53 1 92 35t82 108l72 -61q-92 -188 -248 -188zM547 754q-59 0 -98 -36t-84 -106l-74 60q45 86 115 137t148 51
t140 -36q56 -28 65 -35t29 -18t26 -15t22 -12t24 -11q8 -2 24 -8t58 -6q82 0 162 141l72 -61q-92 -188 -248 -189q-80 0 -201 72t-180 72z" />
    <glyph glyph-name="notequal" unicode="&#x2260;" horiz-adv-x="1296" 
d="M1202 811v-111h-317l-121 -270h438v-111h-481l-96 -217l-88 37l81 180h-268v111h312l118 270h-430v111h473l97 215l86 -37l-80 -178h276z" />
    <glyph glyph-name="lessequal" unicode="&#x2264;" horiz-adv-x="1335" 
d="M1243 14h-852v115h852v-115zM1237 205l-838 432v117l838 430v-131l-723 -355v-4l723 -358v-131z" />
    <glyph glyph-name="greaterequal" unicode="&#x2265;" horiz-adv-x="1335" 
d="M1241 14h-850v115h850v-115zM401 1184l838 -430v-119l-838 -430v131l723 356v4l-723 357v131z" />
    <glyph glyph-name="lozenge" unicode="&#x25ca;" horiz-adv-x="1433" 
d="M1214 674l-315 694h-6l-318 -692l318 -694h6zM1339 674l-378 -809h-132l-378 809l380 815h130z" />
    <glyph glyph-name="fi" unicode="&#xfb01;" horiz-adv-x="1105" 
d="M872 695q0 43 -60 40q-60 -2 -64 -2h-228l-137 -612q-74 -324 -154 -438q-47 -63 -145 -125t-169 -62t-111 40t-31 90q8 50 59 81q31 -24 87 -60q78 -50 116 -50q100 0 170 356l160 780h-170l10 45l182 51q56 218 183 392q67 90 162 144q96 54 194 54t164 -43
q66 -44 66 -116t-39 -112q-38 -40 -97 -30q-16 240 -160 240q-165 0 -277 -379q-24 -78 -42 -164h125q206 0 273 44t85 44t32 -10q14 -9 15 -25q0 -16 -76 -269t-137 -476l14 -6q154 92 306 262l26 -17q-238 -389 -426 -389q-33 0 -52 23q-19 22 -20 62t82 331
q84 291 84 306z" />
    <glyph glyph-name="fl" unicode="&#xfb02;" horiz-adv-x="1187" 
d="M35 -403q100 0 170 356l160 780h-170l10 45l182 51q56 218 183 392q147 198 375 198q118 0 210 -49l121 57l39 -26l-420 -1260l16 -14q123 63 299 231l25 -20q-57 -100 -207 -232t-237 -133q-27 0 -43 22q-16 23 -16 53t32 132l352 1082q-82 116 -204 116t-196 -96
q-75 -96 -103 -186q-50 -160 -72 -281h272l-20 -82h-273l-137 -612q-74 -324 -154 -438q-47 -63 -145 -125t-169 -62t-111 40t-31 90q8 50 59 81q31 -24 87 -60q78 -50 116 -50z" />
    <glyph glyph-name="a.superior" horiz-adv-x="1105" 
d="M682 1331q-66 0 -156 -212t-116 -316l18 -10q94 51 184 127t136 124q45 49 102 121l57 72q-166 94 -225 94zM797 686q-68 0 -76 37l190 432l-4 4q-74 -82 -161 -173t-215 -195t-187 -105q-30 0 -60 17t-30 40q0 55 69 225t113 244q44 72 139 134q96 62 195 61
q48 1 90 -19q120 -57 127 -63q2 2 10 16q49 86 90 86q24 0 29 -7q6 -7 9 -12t2 -14q-1 -8 -1 -14q0 -13 -16 -53l-225 -522q91 21 201 102q18 14 66 51t54 41l23 -12q-266 -301 -432 -301z" />
    <glyph glyph-name="o.superior" horiz-adv-x="1105" 
d="M795 1374q-59 0 -116 -65q-96 -113 -155 -328q-23 -84 -22 -129q0 -133 82 -133q63 0 123 64q99 109 154 326q22 83 22 128q0 137 -88 137zM834 1407q197 0 196 -219q0 -161 -127 -327q-59 -77 -150 -126t-196 -49q-203 0 -203 205q0 106 57 223q56 117 170 205t253 88z
" />
    <glyph glyph-name="one.superior" horiz-adv-x="638" 
d="M750 1419l-183 -633q-18 -56 -22 -80t16 -43t48 -25t108 -24l-6 -30h-480l5 30q114 10 154 48t63 124l102 351q13 47 23 73t13 54q3 29 6 42t-23 46q-10 14 -130 37l7 30h299z" />
    <glyph glyph-name="two.superior" horiz-adv-x="638" 
d="M625 664q104 0 129 13t77 95l19 -8l-82 -197h-555l-6 23q159 97 342 263q94 85 153 177q60 92 60 162t-38 108q-38 37 -102 37q-64 1 -125 -33q-60 -34 -100 -83l-18 10q39 78 118 133t167 55t148 -53t60 -137t-66 -183t-134 -151l-305 -231h258z" />
    <glyph glyph-name="three.superior" horiz-adv-x="638" 
d="M705 1419q82 0 138 -41t56 -113t-64 -118q-47 -34 -112 -67q-65 -32 -80 -38q86 -10 142 -59t57 -127q0 -125 -119 -215t-256 -90q-73 0 -145 36t-72 97q0 25 15 40t42 15q49 0 75 -79q9 -30 36 -54t67 -24q92 0 169 76t77 154q0 77 -45 117q-44 40 -116 40t-152 -33
l-12 25q8 5 61 27t84 36q154 69 214 156q23 32 23 72t-37 63q-38 23 -92 22q-106 0 -215 -98l-16 16q47 72 121 118t156 46z" />
    </font>
</defs>
</svg>
