<?xml version="1.0" standalone="no"?>
<!DOCTYPE svg PUBLIC "-//W3C//DTD SVG 1.1//EN" "http://www.w3.org/Graphics/SVG/1.1/DTD/svg11.dtd" >
<svg xmlns="http://www.w3.org/2000/svg">
<metadata>
Created by FontPrep 20130207 at Wed Jul 16 09:05:56 2014
 By Michael Elliott
(c) 1986, 1987, 1992, 2001, 2002 Adobe Systems Incorporated. All rights reserved.
</metadata>
<defs>
<font id="852928c37674b29abc8fbf43c4c774a5" horiz-adv-x='1024' >
  <font-face 
    font-family="GalliardStd-Roman"
    font-weight="400"
    font-stretch="normal"
    units-per-em="2048"
    panose-1="2 2 6 2 6 5 11 2 10 4"
    ascent="1470"
    descent="-578"
    x-height="905"
    cap-height="1393"
    bbox="-362 -530 2048 1978"
    underline-thickness="102"
    underline-position="-102"
    unicode-range="U+0020-FB02"
  />
<missing-glyph horiz-adv-x="1024" 
d="M102 1239v-1044l349 522zM164 102h696l-348 523zM573 717l349 -522v1044zM512 809l348 522h-696zM0 0v1434h1024v-1434h-1024z" />
    <glyph glyph-name="f_i" unicode="fi" horiz-adv-x="1105" 
d="M39 799v20l166 96q0 230 90 383q47 80 133 126t189 46t181 -22q148 -42 148 -131q0 -63 -58 -83t-95 -3q-51 88 -103 132t-126 44t-112 -29t-64 -120t-23 -373h360q55 0 109 18t71 23l23 -8v-680q0 -127 24 -159t135 -48v-31h-477v31q110 16 134 50t26 157v391
q0 111 -19 141t-92 29h-297v-561q0 -127 23 -159t129 -48v-31h-473v31q113 16 137 49t27 158v561h-166z" />
    <glyph glyph-name="f_l" unicode="fl" horiz-adv-x="1105" 
d="M39 799v20l166 96q-8 207 78 370q43 83 124 134t187 51q54 0 116 -22t77 -21t55 19t63 24l23 -8v-1224q0 -127 24 -159t135 -48v-31h-477v31q110 16 134 50t26 157v872q2 18 1 34t-2 49q-1 32 -13 76q-37 138 -170 138q-82 0 -143 -53q-34 -28 -55 -107q-26 -98 -26 -298
v-64h267v-86h-267v-561q0 -127 23 -159t129 -48v-31h-473v31q113 16 137 49t27 158v561h-166z" />
    <glyph glyph-name=".notdef" horiz-adv-x="1024" 
d="M102 1239v-1044l349 522zM164 102h696l-348 523zM573 717l349 -522v1044zM512 809l348 522h-696zM0 0v1434h1024v-1434h-1024z" />
    <glyph glyph-name=".null" horiz-adv-x="0" 
 />
    <glyph glyph-name="nonmarkingreturn" horiz-adv-x="681" 
 />
    <glyph glyph-name="space" unicode=" " horiz-adv-x="573" 
 />
    <glyph glyph-name="exclam" unicode="!" horiz-adv-x="655" 
d="M320 -25q-46 0 -78 33t-33 79q0 46 33 79q34 33 78 33t78 -34t34 -79t-33 -78t-79 -33zM316 1417q52 0 77 -43t25 -100l-8 -129l-74 -725h-39l-74 725l-8 129q0 57 25 100q24 43 76 43z" />
    <glyph glyph-name="quotedbl" unicode="&#x22;" horiz-adv-x="1064" 
d="M682 770q-19 0 -23 34l-34 447q-2 33 -3 49q-7 117 66 117q88 0 68 -166l-47 -417q0 -64 -27 -64zM387 770q-22 0 -22 28t-3 36l-32 417q-2 33 -3 49q-7 117 66 117q88 0 68 -166l-47 -417q0 -64 -27 -64z" />
    <glyph glyph-name="numbersign" unicode="#" 
d="M762 852h-273l-45 -281h275zM1042 571v-116h-221l-63 -455h-119l63 455h-274l-68 -455h-116l67 455h-221v116h236l45 281h-224v117h240l64 424h118l-63 -424h272l62 424h116l-61 -424h201v-117h-217l-41 -281h204z" />
    <glyph glyph-name="dollar" unicode="$" 
d="M629 592v-537q88 16 146 89t59 163q0 183 -205 285zM367 1102q0 -98 52 -162t152 -119v516q-94 -16 -149 -77q-55 -60 -55 -158zM1008 385q0 -153 -111 -261t-268 -126v-182h-58v180q-201 -8 -417 98l-52 350l33 7q119 -395 436 -402v565q-281 134 -347 268
q-32 65 -31 142q0 147 112 246q113 98 266 121v133h58v-129q202 0 327 -80l-28 -303h-33q-44 229 -152 295q-47 29 -114 34v-540q234 -117 307 -209q72 -92 72 -207z" />
    <glyph glyph-name="percent" unicode="%" horiz-adv-x="1310" 
d="M1096 1393l-785 -1393h-98l784 1393h99zM324 1376q-41 0 -69 -36t-40 -92t-16 -100t-4 -83t4 -83q21 -235 125 -232q118 0 127 315q-1 83 -17 160q-32 151 -110 151zM63 1064q0 140 65 246t196 107t194 -107q64 -108 64 -246t-65 -247t-195 -109t-194 108
q-65 108 -65 248zM984 647q-40 0 -74 -44t-50 -184q-4 -44 -4 -83q0 -195 60 -279q28 -37 68 -37t68 37t40 95t16 102q4 45 4 82t-4 81t-16 100t-40 93t-68 37zM1243 335q-1 -138 -65 -247q-64 -108 -194 -108t-194 108t-65 247q1 141 65 247t195 106t195 -107
q63 -108 63 -246z" />
    <glyph glyph-name="ampersand" unicode="&#x26;" horiz-adv-x="1761" 
d="M640 1417q134 1 233 -67t100 -189q0 -84 -57 -150q-45 -57 -209 -132l-23 -13l406 -430q4 4 22 33t40 59t70 121q48 92 48 135q0 42 -47 59q-44 13 -78 17q-35 4 -41 6v31h604v-31q-152 -10 -264 -88t-211 -215l-113 -157q66 -86 101 -128t98 -102q119 -114 272 -115
q78 0 164 17l10 -27q-203 -72 -379 -71l-153 14q-45 3 -74 69q-12 29 -52 87t-97 118q-80 -94 -134 -147t-144 -99t-210 -46q-118 0 -248 102q-130 104 -131 289q0 251 334 454l-16 17q-57 51 -85 80q-28 30 -59 84t-30 110q0 137 109 221q110 84 244 84zM496 1304
q-46 -52 -47 -130q0 -78 53 -133q18 -19 57 -56l98 -88q145 115 146 250q0 84 -51 146q-50 63 -130 63t-126 -52zM655 129q178 0 330 166q-291 343 -477 493q-86 -47 -140 -134t-55 -183q-1 -147 97 -245t245 -97z" />
    <glyph glyph-name="quotesingle" unicode="'" horiz-adv-x="614" 
d="M311 770q-22 0 -22 34l-35 447q-2 33 -3 49q-7 117 66 117q88 0 68 -166l-47 -417q0 -64 -27 -64z" />
    <glyph glyph-name="parenleft" unicode="(" horiz-adv-x="778" 
d="M131 488q0 272 118 526t318 456l29 -26q-174 -220 -256 -450t-82 -506t82 -506q82 -228 256 -449l-29 -29q-203 203 -319 457q-117 254 -117 527z" />
    <glyph glyph-name="parenright" unicode=")" horiz-adv-x="778" 
d="M647 486q0 -274 -118 -526q-118 -253 -318 -456l-29 27q174 221 256 451t82 505q0 276 -82 505t-256 450l29 28q203 -202 319 -456t117 -528z" />
    <glyph glyph-name="asterisk" unicode="*" horiz-adv-x="1105" 
d="M637 1393l-19 -267l250 99l52 -158l-261 -66l172 -206l-135 -99l-143 228l-143 -228l-136 99l172 206l-260 66l54 158l247 -99l-16 267h166z" />
    <glyph glyph-name="plus" unicode="+" 
d="M121 508h397v397h111v-397h397v-111h-397v-397h-111v397h-397v111z" />
    <glyph glyph-name="comma" unicode="," horiz-adv-x="573" 
d="M383 -119q0 88 -54 113q-40 18 -81 22q-104 12 -105 86q0 45 35 70t84 25q104 0 170 -79t66 -186q0 -200 -287 -354l-18 33q190 127 190 270z" />
    <glyph glyph-name="hyphen" unicode="-" horiz-adv-x="737" 
d="M139 463v98h447v-98h-447z" />
    <glyph glyph-name="period" unicode="." horiz-adv-x="573" 
d="M304 -25q-46 0 -79 33t-33 79t33 79t78 33t79 -34t34 -79t-33 -78t-79 -33z" />
    <glyph glyph-name="slash" unicode="/" horiz-adv-x="1310" 
d="M96 -444l-90 57l1206 1857l91 -57z" />
    <glyph glyph-name="zero" unicode="0" 
d="M573 29q80 0 137 77q121 169 121 640q0 130 -41 346q-24 122 -80 198t-136 75t-137 -79q-119 -166 -124 -586q0 -176 43 -393q25 -121 81 -199t136 -79zM1044 684q0 -106 -24 -224q-59 -295 -221 -414q-95 -71 -225 -71t-227 70q-97 71 -148 183q-99 218 -99 468
q0 344 150 553q53 74 137 121q83 47 189 47t189 -47t134 -122t85 -173q34 -97 47 -191t13 -200z" />
    <glyph glyph-name="one" unicode="1" 
d="M197 1393h475q-18 -449 -13 -1014q2 -182 25 -232q33 -76 170 -102q39 -8 94 -14v-31h-758v31q106 12 164 29q58 18 85 64q28 46 34 100t6 155v661q0 100 -5 144t-33 88q-28 43 -84 60t-160 30v31z" />
    <glyph glyph-name="two" unicode="2" 
d="M109 1087q179 330 455 330q154 0 257 -118q102 -118 103 -285q0 -215 -217 -452q-166 -179 -289 -283q-123 -103 -131 -111h377q82 0 128 7t85 41t58 65t66 114l29 -12l-145 -383h-838l-12 29q692 551 692 942q0 119 -70 199t-186 79q-154 0 -332 -186z" />
    <glyph glyph-name="three" unicode="3" 
d="M770 1068q0 91 -65 142q-66 51 -158 52q-168 0 -318 -160l-39 24q90 141 192 216t240 75t233 -78t95 -208t-121 -222q-86 -65 -229 -131v-4q180 -18 292 -109t112 -265t-157 -300t-345 -125q-127 -1 -242 59t-115 175q0 76 65 112t142 -8v-41q0 -94 60 -164t166 -69
q104 0 178 90t74 218t-116 207t-261 79q-60 -1 -148 -19l-16 27q25 20 78 67t78 56q26 10 49 16l38 11q94 35 166 111t72 166z" />
    <glyph glyph-name="four" unicode="4" 
d="M612 565v590l-444 -590h444zM1065 565v-133h-289v-84q0 -186 32 -220q50 -57 107 -72q56 -15 121 -25v-31h-684v31q140 21 177 51q37 29 52 46q31 35 31 220v84h-587l-11 51l723 944l54 -24q-14 -236 -15 -838h289z" />
    <glyph glyph-name="five" unicode="5" 
d="M504 860q205 0 337 -117t132 -317q-1 -200 -147 -326q-146 -125 -332 -125t-289 91q-59 52 -59 128t65 116q66 40 139 5q-26 -109 30 -193t174 -85q118 0 181 91q63 92 63 232t-88 235q-90 95 -238 95t-271 -76l-17 7l68 772h391q133 0 166 14t76 92h26l-67 -274h-539
l-37 -404q135 39 236 39z" />
    <glyph glyph-name="six" unicode="6" 
d="M301 463q0 -227 126 -353q71 -71 173 -71q68 0 118 36q87 62 116 211q12 60 12 124q0 170 -91 286t-255 115q-74 0 -146 -27q-53 -139 -53 -321zM1059 448q-1 -198 -145 -335t-356 -137t-341 144t-129 359q0 174 72 330q127 276 462 472q144 85 310 144l18 -30
q-422 -225 -575 -566q158 57 258 58q186 0 306 -121q120 -120 120 -318z" />
    <glyph glyph-name="seven" unicode="7" 
d="M444 1225q-166 1 -206 -39q-22 -22 -40 -44q-17 -21 -77 -122l-31 8l103 365h890l17 -13l-795 -1405h-141l756 1250h-476z" />
    <glyph glyph-name="eight" unicode="8" 
d="M164 1085q0 158 126 245t283 87t273 -77t117 -216q0 -139 -91 -222q-49 -46 -84 -71t-106 -67l18 -14q82 -61 111 -86t84 -83q100 -105 98 -245q0 -166 -135 -263t-308 -97t-307 90t-134 256q1 133 91 223t242 166l-20 14q-103 76 -180 156q-78 81 -78 204zM782 1083
q0 119 -63 200t-163 81t-156 -58t-56 -140t51 -158q31 -50 87 -94q55 -44 107 -82t64 -48q129 117 129 299zM289 340q0 -113 83 -212t212 -99q98 -1 164 71t66 181t-83 196q-45 49 -77 78t-179 133q-82 -55 -134 -145t-52 -203z" />
    <glyph glyph-name="nine" unicode="9" 
d="M535 1364q-133 0 -204 -110t-71 -250q0 -197 101 -294q101 -98 225 -98t196 72q27 90 27 212t-22 216t-87 173t-165 79zM450 530q-160 0 -282 117q-121 117 -121 291q-1 211 147 345t359 134t340 -137t129 -346q0 -360 -244 -617t-616 -368l-15 39q209 96 375 261
t238 369q-150 -88 -310 -88z" />
    <glyph glyph-name="colon" unicode=":" horiz-adv-x="573" 
d="M304 -25q-46 0 -79 33t-33 79t33 79t78 33t79 -34t34 -79t-33 -78t-79 -33zM416 781q0 -47 -33 -79t-79 -32t-79 32t-32 78q0 47 32 80q33 33 78 33t79 -33t34 -79z" />
    <glyph glyph-name="semicolon" unicode=";" horiz-adv-x="573" 
d="M416 781q0 -47 -33 -79t-79 -32t-79 32t-32 78q0 47 32 80q33 33 78 33t79 -33t34 -79zM383 -119q0 88 -54 113q-40 18 -81 22q-104 12 -105 86q0 45 35 70t84 25q104 0 170 -79t66 -186q0 -200 -287 -354l-18 33q190 127 190 270z" />
    <glyph glyph-name="less" unicode="&#x3c;" 
d="M133 410v108l881 391v-129l-721 -317l721 -338v-129z" />
    <glyph glyph-name="equal" unicode="=" 
d="M119 373h907v-111h-907v111zM119 643h907v-111h-907v111z" />
    <glyph glyph-name="greater" unicode="&#x3e;" 
d="M1014 496v-109l-881 -391v129l721 317l-721 338v129z" />
    <glyph glyph-name="question" unicode="?" horiz-adv-x="737" 
d="M260 -25q-47 0 -79 33q-31 33 -31 79t32 79q33 33 79 33t79 -34t33 -79t-33 -78t-80 -33zM516 876q0 46 -46 88t-123 86t-109 72t-40 75q-9 46 -1 94t30 126l35 -8q2 -45 22 -79t33 -43q12 -9 92 -65t103 -85q53 -67 53 -215q0 -257 -75 -302q-61 -36 -146 -46
q-34 -4 -62 -38t-36 -104l-10 -92h-39l-17 225q-4 66 19 108t59 56q36 13 82 25q45 12 84 19q40 7 66 32t26 71z" />
    <glyph glyph-name="at" unicode="@" horiz-adv-x="1433" 
d="M979 336q115 0 235 150t119 350q0 202 -167 350t-384 149q-256 0 -430 -182t-174 -451q0 -268 169 -456t431 -189q164 0 314 89t225 235h82q-70 -182 -246 -294t-377 -112q-296 0 -498 212t-202 509t204 509t481 212t465 -168t189 -434q0 -201 -141 -373t-318 -172
q-57 0 -104 29t-53 82q-104 -109 -222 -109t-180 80q-61 80 -61 199t51 249t157 225t234 95q66 0 122 -28t73 -86l26 88h160l-180 -531q-4 -11 -11 -31q-6 -20 -12 -33q-41 -96 -19 -145q9 -18 42 -18zM815 1067q-86 0 -169 -124t-123 -266t-40 -213t31 -104t80 -32
q145 0 231 254l95 278q31 76 6 142t-111 65z" />
    <glyph glyph-name="A" unicode="A" horiz-adv-x="1392" 
d="M842 678l-213 532l-193 -532h406zM510 0h-561v31q129 35 171 78t93 172l231 604l123 334q3 7 11 29l12 33q17 47 0 79q86 35 149 110l451 -1200q45 -121 91 -169t163 -70v-31h-602v31q46 10 74 20t56 39q28 28 28 60q-1 82 -33 167q-31 84 -40 111q-9 26 -31 82t-28 74
h-467q-2 -8 -63 -171t-62 -243q0 -99 131 -124q15 -3 55 -8t48 -7v-31z" />
    <glyph glyph-name="B" unicode="B" horiz-adv-x="1351" 
d="M1219 365q0 -79 -28 -141t-72 -99q-102 -85 -237 -109q-135 -23 -184 -20q-49 2 -71 0l-564 4v31q130 17 167 42t51 41q30 36 36 222v711q-3 129 -18 179q-14 50 -40 66q-64 40 -183 58v30l416 17q321 8 479 -76q67 -35 111 -103t44 -159q0 -228 -362 -320v-4
q455 -104 455 -370zM498 334q0 -189 45 -240t167 -51q121 0 205 81t84 204t-96 243q-47 59 -132 95t-193 32l-80 -4v-360zM498 1350v-613q158 0 283 57q143 64 143 250q0 100 -66 176q-66 74 -156 102t-204 28z" />
    <glyph glyph-name="C" unicode="C" horiz-adv-x="1515" 
d="M1384 971h-30q-31 182 -136 290t-284 107q-270 0 -428 -191t-158 -475t186 -481t420 -196q193 0 301 128q55 65 91 128q35 63 75 161l29 -12q-35 -180 -113 -367q-182 -88 -409 -88q-228 0 -408 79t-295 243t-114 387q0 286 208 504q99 104 261 166t356 63
q262 1 448 -110v-336z" />
    <glyph glyph-name="D" unicode="D" horiz-adv-x="1679" 
d="M498 1356v-1041q0 -61 8 -101q22 -110 121 -145q59 -22 152 -22q195 0 361 131q85 68 137 193t52 297t-66 309q-122 250 -447 339q-146 40 -318 40zM1567 672q0 -179 -113 -353q-62 -97 -160 -167t-258 -114t-362 -42l-611 4v31q130 17 167 42t51 41q30 36 36 222v711
q-6 187 -34 221q-42 48 -95 62t-112 22v28l495 17q517 17 769 -199q77 -66 119 -130q108 -167 108 -396z" />
    <glyph glyph-name="E" unicode="E" horiz-adv-x="1351" 
d="M63 0v31q130 17 167 42t51 41q30 36 36 222v721q-6 186 -42 228q-36 41 -93 54q-57 14 -119 23v31h1100l-24 -316h-31q-9 137 -69 187q-33 29 -63 46q-57 33 -280 33h-198v-583h213q137 0 207 34t86 154h30v-456h-30q-15 96 -69 141q-50 41 -224 41h-213v-336
q0 -119 12 -154q43 -135 295 -135q195 0 296 82t140 275h31q-2 -205 -70 -406h-1139z" />
    <glyph glyph-name="F" unicode="F" horiz-adv-x="1187" 
d="M1014 942v-500h-31q-13 135 -71 166q-26 14 -40 22q-29 16 -113 15h-294v-309q0 -94 5 -136t36 -81t87 -55t167 -33v-31h-729v31q129 17 166 42t51 41q31 37 37 222v721q-6 185 -42 227q-37 42 -94 55q-57 14 -118 23v31h1083l-33 -324h-30q-7 139 -82 211
q-55 51 -194 60q-46 3 -124 3h-186v-612h223q147 0 215 38t80 173h31z" />
    <glyph glyph-name="G" unicode="G" horiz-adv-x="1597" 
d="M1409 158h100v-31q-188 -80 -323 -116t-295 -36q-330 -1 -555 189t-225 516q0 219 117 390q118 171 304 259t415 88t468 -80l-8 -356h-27q-39 180 -159 284q-121 103 -303 103q-260 0 -415 -174t-155 -438q0 -305 197 -508t499 -203q100 0 126 15t40 28q19 18 19 139v123
q0 164 -52 211t-225 68v30h607v-30q-100 -19 -125 -63t-25 -150v-258z" />
    <glyph glyph-name="H" unicode="H" horiz-adv-x="1802" 
d="M489 674v-338q0 -188 40 -228t102 -54q61 -13 131 -23v-31h-707v31q131 17 167 42t56 49t25 86q4 63 6 128v721q-6 188 -42 228t-93 54t-119 23v31h707v-31q-143 -20 -182 -43q-40 -22 -62 -45t-26 -86q-3 -64 -3 -131v-297h824v297q0 190 -41 230q-41 39 -101 52
q-61 12 -131 23v31h707v-31q-126 -17 -164 -42q-39 -26 -53 -42q-31 -37 -37 -221v-721q6 -188 42 -228t94 -54q57 -15 118 -23v-31h-707v31q146 21 184 43t53 38q32 33 35 125q1 32 1 99v338h-824z" />
    <glyph glyph-name="I" unicode="I" horiz-adv-x="819" 
d="M754 0h-688v31q129 17 166 42t51 41q30 36 36 222v721q-6 186 -42 228q-36 41 -93 54q-57 14 -118 23v31h688v-31q-128 -17 -166 -42q-37 -25 -57 -49t-25 -86q-4 -62 -6 -128v-721q6 -188 42 -228t93 -54q57 -15 119 -23v-31z" />
    <glyph glyph-name="J" unicode="J" horiz-adv-x="819" 
d="M350 414v643q0 190 -41 230q-41 39 -101 52q-61 12 -130 23v31h704v-31q-126 -17 -194 -59q-45 -28 -54 -135q-3 -36 -4 -111v-733q0 -233 -43 -353q-25 -69 -83 -119q-115 -98 -363 -204l-16 35q167 78 244 209q63 108 76 315q5 80 5 207z" />
    <glyph glyph-name="K" unicode="K" horiz-adv-x="1433" 
d="M895 1393h530v-31q-89 -10 -194 -65t-273 -237q-61 -67 -73 -79l-193 -205l416 -459q225 -246 455 -311l-11 -31q-276 23 -371 60t-235 190l-418 455l330 358q198 224 137 288q-27 28 -100 36v31zM772 0h-706v31q129 17 166 42t51 41q30 36 36 222v721q-6 186 -42 228
q-36 41 -93 54q-57 14 -118 23v31h651v-31q-147 -23 -180 -77t-37 -228v-721q6 -190 39 -221q47 -47 106 -62q59 -14 127 -22v-31z" />
    <glyph glyph-name="L" unicode="L" horiz-adv-x="1310" 
d="M63 0v31q130 17 167 42t51 41q30 36 36 222v721q-6 186 -42 228q-36 41 -93 54q-57 14 -119 23v31h689v-31q-92 -12 -144 -30t-76 -58q-26 -41 -30 -83t-4 -134v-672q0 -211 30 -309l250 -19q213 -16 298 46t212 274q2 4 4 6t3 5t3 5l27 -12l-117 -381h-1145z" />
    <glyph glyph-name="M" unicode="M" horiz-adv-x="1966" 
d="M1853 1393v-31q-106 -23 -157 -71t-45 -148l45 -746q6 -71 8 -97t8 -74t12 -61t18 -42t28 -36q15 -7 40 -22t55 -21t72 -13v-31h-673v31q168 23 212 74q39 50 35 149l-55 895h-4l-522 -1149h-23l-485 1102h-4q-42 -416 -54 -656t-8 -265q19 -114 244 -150v-31h-571v31
q129 19 173 94q24 41 34 78t22 112l76 576l26 278q8 94 -56 140q-65 45 -169 53v31h443l2 -23q-44 -45 24 -203l389 -868l371 815q94 205 35 246l4 33h450z" />
    <glyph glyph-name="N" unicode="N" horiz-adv-x="1679" 
d="M1085 1393h560v-31q-99 -12 -135 -64t-50 -165q-29 -233 -8 -1166l-27 -6q-225 267 -574 630t-464 488v-562q0 -277 35 -331q10 -16 26 -45t36 -40q71 -41 108 -52q37 -10 80 -18v-31h-613v31q131 13 209 107q58 72 58 462v420q0 164 -54 232t-239 110v31h338l1011 -1071
l-10 747q-2 147 -58 205t-229 88v31z" />
    <glyph glyph-name="O" unicode="O" horiz-adv-x="1720" 
d="M842 1368q-128 0 -226 -57t-154 -151q-114 -190 -114 -429t129 -463q63 -108 169 -176t253 -68t261 101q212 186 212 537q-4 282 -154 494t-376 212zM858 1417q190 0 338 -60q148 -59 236 -163q178 -209 178 -498q0 -326 -211 -524t-540 -197q-329 0 -539 198
q-210 197 -209 523t211 524t536 197z" />
    <glyph glyph-name="P" unicode="P" horiz-adv-x="1228" 
d="M1167 1018q0 -102 -47 -181t-127 -125q-157 -90 -350 -110l-6 31q322 49 321 330q0 188 -134 287t-328 98v-1012q0 -189 39 -228t101 -53t132 -24v-31h-707v31q130 17 167 42t51 41q30 36 36 222v635q0 244 -29 291q-43 66 -109 76q-40 8 -101 12v30l446 17
q170 6 297 -25t191 -76t102 -105q39 -60 47 -99t8 -74z" />
    <glyph glyph-name="Q" unicode="Q" horiz-adv-x="1720" 
d="M1409 -408q-123 0 -238 62t-258 170q-143 106 -251 160l-101 49q-58 26 -122 66q-183 115 -256 271q-74 156 -72 335q0 319 215 516t535 197t540 -195q219 -195 219 -499t-177 -503t-466 -239l403 -211q139 -72 379 -80v-31q-287 -68 -350 -68zM870 1368
q-268 0 -395 -197t-127 -459t156 -474t385 -213q159 0 275 98q218 185 218 534q0 174 -61 335q-61 160 -185 268t-266 108z" />
    <glyph glyph-name="R" unicode="R" horiz-adv-x="1433" 
d="M315 971q0 186 -14 249q-14 62 -43 80q-66 41 -182 52v28l499 17q147 4 256 -21q109 -26 164 -62t89 -88t41 -88t8 -75q0 -223 -254 -336l112 -190q35 -57 111 -165t137 -166t153 -114t189 -78l-6 -30q-72 0 -170 8q-99 8 -117 13t-55 14q-86 21 -154 92
q-172 180 -284 409q-29 61 -64 91t-59 36t-83 9q-58 3 -93 10v-330q0 -190 41 -229t106 -52q64 -14 137 -24v-31h-719v31q130 17 167 42t57 48t24 86t6 129v635zM496 700q155 0 286 75q63 36 102 99q38 63 38 146q0 168 -124 252t-302 82v-654z" />
    <glyph glyph-name="S" unicode="S" horiz-adv-x="1064" 
d="M561 1358q-100 0 -170 -64q-69 -64 -69 -160q0 -97 66 -173q66 -75 161 -129q94 -54 189 -110t162 -143t67 -207t-77 -214t-188 -138t-233 -45q-199 0 -360 105l-60 348h37q44 -164 150 -278t264 -113q118 1 194 67t76 174q0 189 -221 312q-92 51 -184 103t-157 137
t-65 198q1 172 141 282t305 110t310 -81l-16 -307h-33q-31 154 -91 240t-198 86z" />
    <glyph glyph-name="T" unicode="T" horiz-adv-x="1392" 
d="M909 1331h-123v-946q0 -147 18 -207q18 -61 50 -83q69 -46 219 -64v-31h-754v31q151 18 220 64q52 35 63 157q4 45 4 133v946h-123q-150 0 -215 -16t-95 -45q-74 -71 -110 -203l-28 6l28 383h17l20 -18q36 -33 54 -39t73 -6h938q55 0 73 6t54 39l21 18h16l29 -383l-29 -6
q-34 128 -109 203q-51 49 -182 58q-45 3 -129 3z" />
    <glyph glyph-name="U" unicode="U" horiz-adv-x="1720" 
d="M61 1393h707v-31q-143 -20 -182 -43q-38 -21 -54 -37q-36 -36 -36 -225v-432q-20 -360 213 -492q115 -63 297 -63t271 103q90 103 102 237q20 190 12 270v276q0 111 -9 171q-21 154 -130 199q-62 26 -169 36v31h594v-31q-103 -11 -146 -66q-43 -54 -54 -194
q-4 -51 -7 -146l-12 -448q-12 -532 -573 -533q-268 0 -403 105q-44 34 -72 66q-74 85 -92 246q-5 52 -5 78l2 128v459q-6 186 -42 228q-36 41 -93 54q-57 14 -119 23v31z" />
    <glyph glyph-name="V" unicode="V" horiz-adv-x="1433" 
d="M920 1393h577v-31q-89 -7 -171 -78q-60 -54 -172 -316q-28 -66 -36 -81l-391 -934h-29l-462 1108q-74 186 -130 231q-75 60 -161 70v31h649v-31q-132 -12 -167 -58q-13 -16 -23 -28t-9 -38v-37q1 -11 11 -41l18 -54t29 -66l327 -790l242 579q121 287 132 372t-73 122
q-51 23 -161 39v31z" />
    <glyph glyph-name="W" unicode="W" horiz-adv-x="1925" 
d="M-55 1393h579v-31q-120 -18 -170 -68q-18 -18 -18 -67t16 -99q16 -49 16 -53q1 -4 7 -22l215 -727l321 856q-29 88 -80 125t-151 55v31h598v-31q-180 -22 -183 -118q-1 -49 23 -128l260 -811l162 461q127 373 127 454t-78 108q-59 21 -89 26q-31 6 -38 8v31h535v-31
q-158 -10 -228 -186l-444 -1223h-22l-365 1139l-412 -1139h-20l-334 1145q-4 12 -25 78t-32 76q-10 11 -30 39q-28 39 -140 71v31z" />
    <glyph glyph-name="X" unicode="X" horiz-adv-x="1351" 
d="M618 1362q-140 -30 -114 -121q12 -39 51 -111l174 -309q10 16 55 91t76 126t59 118t27 104q0 75 -129 102v31h514v-31q-173 -16 -272 -133q-63 -76 -135 -195l-164 -262l248 -430q49 -88 69 -120q19 -32 65 -84t99 -75t127 -32v-31h-580v31q71 13 87 31t24 29t-1 52
t-38 97q-30 56 -46 84t-19 32l-148 260q-12 -24 -77 -134q-154 -259 -154 -341q0 -68 123 -106q6 -2 10 -4v-31h-549v31q118 10 215 63q58 30 132 140q73 110 79 122l192 308l-202 360q-34 68 -47 86q-12 18 -32 52q-19 34 -30 45q-10 11 -32 38t-59 56q-67 54 -167 61v31
h569v-31z" />
    <glyph glyph-name="Y" unicode="Y" horiz-adv-x="1228" 
d="M758 1393h526v-31q-125 -10 -203 -74t-149 -186l-242 -479v-232q3 -150 19 -207t45 -79q71 -54 207 -74v-31h-721v31q138 21 206 74q47 35 59 160q3 40 5 126v164l-213 465q-78 174 -123 227q-80 98 -217 115v31h565v-31q-61 -8 -93 -24q-54 -28 -26 -114q10 -32 39 -96
l205 -442l178 338q66 122 79 190t-21 102q-35 34 -125 46v31z" />
    <glyph glyph-name="Z" unicode="Z" horiz-adv-x="1433" 
d="M557 61q379 0 528 62q115 47 175 149q59 102 92 250l30 -6q-27 -295 -118 -516h-1180l-8 14l135 185l780 1132h-192q-348 0 -445 -43q-133 -61 -182 -299h-33l33 404h1088l10 -15l-908 -1317h195z" />
    <glyph glyph-name="bracketleft" unicode="[" horiz-adv-x="819" 
d="M639 1470v-47l-320 -20v-1745l320 -20v-48h-459q12 940 0 1880h459z" />
    <glyph glyph-name="backslash" unicode="\" horiz-adv-x="573" 
d="M676 -410l-98 -34l-680 1880l98 34z" />
    <glyph glyph-name="bracketright" unicode="]" horiz-adv-x="819" 
d="M180 -410v48l320 20v1745l-320 20v47h459q-12 -940 0 -1880h-459z" />
    <glyph glyph-name="asciicircum" unicode="^" 
d="M303 731h-117l336 662h107l329 -662h-114l-271 537z" />
    <glyph glyph-name="underscore" unicode="_" horiz-adv-x="1024" 
d="M0 -154h1024v-102h-1024v102z" />
    <glyph glyph-name="grave" unicode="`" horiz-adv-x="696" 
d="M195 1466l305 -424l-29 -24l-373 348z" />
    <glyph glyph-name="a" unicode="a" horiz-adv-x="901" 
d="M219 713v-70l-102 -6q-47 0 -47 20q0 29 61 93t157 119q96 56 173 57q246 0 246 -308v-321q0 -71 2 -99t19 -60t53 -45t104 -27v-31q-156 -45 -207 -45q-113 0 -129 129q-123 -139 -260 -139q-94 0 -150 68q-55 69 -55 165q0 45 12 90l453 205q12 168 -35 242t-168 73
q-50 0 -68 -8l-27 -12q-9 -5 -15 -19t-12 -20t-5 -51zM258 228q0 -52 38 -99t110 -47t143 76v309l-277 -141q-14 -46 -14 -98z" />
    <glyph glyph-name="b" unicode="b" 
d="M340 416q0 -84 7 -140t32 -115q51 -118 219 -118q98 0 188 80q47 41 77 118t30 177q-1 180 -105 293t-258 112q-84 0 -190 -45v-362zM182 1174q0 72 -14 104t-86 82v20l235 90l23 -8v-651q209 115 342 115q166 0 276 -129t109 -297q0 -130 -55 -234q-56 -104 -142 -164
q-181 -125 -362 -122q-142 -1 -326 81v1113z" />
    <glyph glyph-name="c" unicode="c" horiz-adv-x="901" 
d="M506 -20q-196 0 -317 132q-119 132 -119 330t156 340q157 144 375 144t218 -103q0 -35 -31 -65q-30 -30 -64 -29q-34 0 -114 67t-135 66q-113 0 -177 -104t-65 -226q0 -192 113 -312t270 -120q100 0 211 80l25 -30q-150 -170 -346 -170z" />
    <glyph glyph-name="d" unicode="d" 
d="M793 573q0 85 -29 145t-75 90q-83 54 -173 54q-133 0 -203 -110t-69 -248q0 -205 99 -314t228 -108q59 0 123 43t99 98v350zM453 -20q-158 0 -271 131t-112 295q0 229 160 374q161 145 393 146q90 0 170 -21v269q-1 72 -15 104t-86 82v20l236 90l22 -8v-1200
q0 -147 24 -177t148 -11l8 -35l-337 -76v195q-182 -178 -340 -178z" />
    <glyph glyph-name="e" unicode="e" horiz-adv-x="942" 
d="M252 625l-8 -103q-12 -166 90 -289t258 -123t254 130l31 -23q-61 -104 -161 -171t-216 -66q-186 0 -309 133q-121 133 -121 329t129 339q129 144 331 145q138 0 224 -82t92 -219h-594zM258 664l393 16q-16 82 -62 141t-124 59q-77 0 -133 -64t-74 -152z" />
    <glyph glyph-name="f" unicode="f" horiz-adv-x="614" 
d="M39 799v20l166 96q3 211 73 323t163 172t205 60t188 -56q45 -34 45 -81t-33 -69t-80 -19q-115 162 -225 162q-178 0 -179 -399v-123h267v-86h-267v-561q0 -127 29 -159t168 -48v-31h-518v31q113 16 137 49t27 158v561h-166z" />
    <glyph glyph-name="g" unicode="g" horiz-adv-x="1105" 
d="M1061 -66q1 -158 -187 -294t-450 -136q-166 0 -255 67t-89 139t46 128q46 57 85 82q39 24 82 48t46 25t15 7q-74 10 -142 51t-67 103q0 62 156 182q-168 94 -168 253t116 248t255 89t282 -66h293v-86l-250 6q41 -74 41 -159q0 -150 -114 -239t-267 -89q-82 0 -153 26
q-35 -33 -41 -75t35 -72q41 -31 129 -27l262 11q162 6 251 -56t89 -166zM291 -319q103 -76 286 -76t295 102q66 59 66 135t-42 116t-97 47q-144 18 -178 7l-201 -12q-70 -31 -130 -87t-60 -122t61 -110zM307 612q-1 -118 67 -196t155 -78t127 75t40 185t-53 196
q-53 87 -151 87t-142 -75q-43 -76 -43 -194z" />
    <glyph glyph-name="h" unicode="h" 
d="M346 238q0 -127 24 -159t136 -48v-31h-477v31q111 16 135 50t24 157v936q0 72 -14 104t-86 82v20l236 90l22 -8v-671q170 98 236 116q66 19 126 19t111 -24t77 -54q60 -70 60 -246v-364q0 -127 24 -159t136 -48v-31h-477v31q111 16 135 50t25 157v235q0 67 -1 95t-14 86
q-12 58 -35 87q-65 79 -208 79q-86 0 -195 -70v-512z" />
    <glyph glyph-name="i" unicode="i" horiz-adv-x="532" 
d="M248 1417q43 0 74 -31q30 -32 30 -74t-30 -73t-74 -31q-43 0 -74 31t-31 74t31 73t74 31zM496 0h-478v31q111 16 135 50t25 157v391q0 51 -4 73q-9 50 -121 113v21l260 90l23 -8v-680q0 -127 24 -159t136 -48v-31z" />
    <glyph glyph-name="j" unicode="j" horiz-adv-x="532" 
d="M283 1417q43 0 73 -31q30 -32 31 -74q0 -42 -31 -73q-32 -31 -74 -31t-73 31t-31 74t31 73t74 31zM211 -38v693q0 27 -15 62q-9 17 -67 40t-80 34v20l297 115l23 -8v-869q2 -264 -78 -381t-332 -198l-12 32q108 53 145 93q37 41 55 63t31 69q12 46 22 84t11 151z" />
    <glyph glyph-name="k" unicode="k" horiz-adv-x="1024" 
d="M892 -14q-36 0 -83 18q-63 24 -162 118t-235 301q-43 65 -52 75l96 112t82 100q62 84 24 113q-22 16 -75 33v31l480 31v-31q-156 -29 -249 -99t-231 -225l275 -313q164 -176 278 -227v-23q-112 -14 -148 -14zM336 238q0 -127 24 -159t136 -48v-31h-478v31q111 16 135 50
t25 157v936q0 72 -14 104t-86 82v20l235 90l23 -8v-1224z" />
    <glyph glyph-name="l" unicode="l" horiz-adv-x="532" 
d="M496 0h-478v31q111 16 135 50t25 157v936q0 72 -14 104t-86 82v20l235 90l23 -8v-1224q0 -127 24 -159t136 -48v-31z" />
    <glyph glyph-name="m" unicode="m" horiz-adv-x="1720" 
d="M348 238q0 -127 22 -159t122 -48v-31h-451v31q102 16 125 50t24 157v391q0 71 -14 103t-86 83v21l244 90l22 -8l-16 -158q190 166 340 166q82 0 153 -45t97 -121q195 166 340 166q98 0 169 -48q42 -28 78 -119q23 -67 21 -158t-2 -95v-268q0 -127 22 -159t121 -48v-31
h-450v31q102 16 125 50t24 157v217q0 2 1 37q6 216 -85 282q-63 45 -159 45q-97 0 -193 -100v-481q0 -127 22 -159t121 -48v-31h-450v31q102 16 125 50t24 157v298q0 62 -13 116t-25 71q-13 16 -34 43t-70 40q-50 13 -87 13q-109 0 -207 -102v-479z" />
    <glyph glyph-name="n" unicode="n" 
d="M188 629q0 71 -14 103t-86 83v21l244 90l22 -8l-16 -150q104 78 187 118t163 40q203 0 248 -158q20 -70 20 -166v-364q0 -127 24 -159t136 -48v-31h-477v31q111 16 135 50t25 157v235q0 67 -1 95t-14 86q-12 58 -35 87q-24 29 -73 54t-121 24q-113 0 -209 -88v-493
q0 -127 24 -159t136 -48v-31h-477v31q111 16 134 50t25 157v391z" />
    <glyph glyph-name="o" unicode="o" 
d="M756 92q131 124 131 351q0 228 -136 364q-75 74 -179 74t-179 -67q-133 -120 -133 -351q0 -162 87 -300t241 -138q96 0 168 67zM577 926q213 0 357 -129t143 -337q0 -208 -148 -344q-149 -136 -361 -136t-355 128t-143 339t147 345t360 134z" />
    <glyph glyph-name="p" unicode="p" horiz-adv-x="1105" 
d="M307 344q0 -162 61 -232q61 -69 174 -69t181 62q123 112 123 323q0 108 -38 190q-61 132 -209 186q-54 19 -99 19q-105 0 -193 -59v-420zM307 -258q0 -129 32 -160t191 -47v-31h-530v31q102 16 125 50t25 157v887q0 71 -14 103t-87 83v21l244 98l22 -8l-8 -125
q180 125 338 125q159 0 267 -128t108 -300q0 -205 -167 -367t-409 -151l-137 6v-244z" />
    <glyph glyph-name="q" unicode="q" 
d="M805 535q0 147 -71 237t-207 90t-208 -114t-71 -259q0 -187 108 -297t273 -110q104 0 176 49v404zM963 926v-1184q3 -123 25 -157t124 -50v-31h-514v31q147 16 177 48t30 159v352q-170 -115 -318 -114q-182 0 -298 126t-115 312q0 213 169 360t384 148q152 0 272 -92
l45 92h19z" />
    <glyph glyph-name="r" unicode="r" horiz-adv-x="737" 
d="M336 444v-206q0 -127 30 -159t175 -48v-31h-512v31q102 16 125 50t24 157v391q0 71 -14 103t-86 83v21l244 90l22 -8l-8 -242h4q39 94 120 172t169 78q45 0 75 -26t29 -67q0 -41 -33 -75t-73 -56q-92 72 -131 68q-160 -15 -160 -326z" />
    <glyph glyph-name="s" unicode="s" horiz-adv-x="737" 
d="M380 877q-58 0 -95 -40q-37 -41 -37 -101t44 -106t105 -79t123 -68t108 -90q44 -55 44 -129q0 -129 -104 -207q-104 -77 -241 -77q-138 0 -245 75l-16 228l47 8q25 -111 84 -185t159 -73q70 0 114 46q44 47 44 113t-44 112t-105 77t-123 63t-108 92q-44 58 -44 138
q0 116 89 184t212 68t221 -68l6 -182l-45 -8q-18 59 -36 98q-19 39 -59 75t-98 36z" />
    <glyph glyph-name="t" unicode="t" horiz-adv-x="696" 
d="M344 799v-439q0 -206 54 -250q54 -45 146 -46q91 -1 146 14l8 -33q-172 -65 -321 -65t-178 90q-12 39 -13 172v557h-137l-10 14l287 285h18v-213h324v-86h-324z" />
    <glyph glyph-name="u" unicode="u" 
d="M180 276v444q0 54 -6 62t-12 24t-18 19t-29 13q-18 10 -86 10v31l309 26v-506q0 -1 -1 -31t0 -43t3 -47t19 -76q16 -43 32 -58q46 -43 85 -53q38 -9 77 -9q125 0 225 90v440q0 111 -11 152t-31 53q-53 31 -146 31v31l358 26l-12 -678l-2 -63q0 -72 46 -84q17 -4 38 -4
l94 8l8 -31l-348 -84l6 160q-207 -150 -370 -149q-66 0 -112 24t-69 54q-47 58 -47 218z" />
    <glyph glyph-name="v" unicode="v" horiz-adv-x="942" 
d="M606 905h357v-31q-88 6 -142 -92q-27 -50 -51 -108q-24 -57 -29 -68l-268 -626h-35l-299 720q-4 8 -17 43t-32 66q-20 31 -32 38q-43 24 -87 27v31h424v-31q-80 0 -106 -29q-10 -11 -7 -39t10 -46t23 -60l207 -501l90 217q123 307 123 381q0 29 -13 40t-25 19t-31 10
t-37 5t-23 3v31z" />
    <glyph glyph-name="w" unicode="w" horiz-adv-x="1474" 
d="M-29 905h432v-31q-80 -4 -103 -27t-4 -83q5 -16 19 -55l197 -502l193 455q-55 140 -80 170t-107 42v31h438v-31q-110 -4 -120 -46q-8 -31 12 -89l201 -532q225 502 225 594q0 37 -21 50t-34 15q-14 2 -31 5t-29 3v31h346v-31q-104 -5 -157 -112q-8 -14 -33 -70l-320 -712
h-28l-244 622l-256 -622h-31l-295 731q-43 100 -75 130t-95 33v31z" />
    <glyph glyph-name="x" unicode="x" horiz-adv-x="983" 
d="M958 0h-432v31q72 12 76 48t-37 95l-114 203q-2 -4 -75 -123t-73 -165t62 -58v-31h-340v31q115 23 159 57t119 137l127 183l-160 268q-6 10 -20 35t-20 33t-20 28t-22 28l-22 23q-43 43 -141 51v31h442v-31q-88 -8 -84 -51q3 -29 29 -75l114 -205q2 4 67 112t64 154
q0 57 -65 65v31h342v-31q-61 -6 -93 -15t-81 -51t-211 -296l162 -272q43 -74 65 -105t68 -63q47 -32 114 -41v-31z" />
    <glyph glyph-name="y" unicode="y" horiz-adv-x="942" 
d="M-29 905h424v-31q-80 -4 -105 -45q-22 -34 32 -161l200 -521l127 369q39 115 54 168t15 100q-1 46 -28 64t-84 26v31h359v-31q-63 -8 -95 -34q-31 -27 -63 -90l-86 -199l-315 -793q-58 -143 -104 -198q-46 -56 -97 -56t-81 30t-30 73q0 74 66 96q96 -57 108 -57
q36 0 85 115q9 22 12 26l67 158l-313 800q-29 74 -51 96q-23 22 -97 33v31z" />
    <glyph glyph-name="z" unicode="z" horiz-adv-x="983" 
d="M446 53q271 0 342 69t107 220l35 -6l-80 -336h-768l-10 16q307 418 590 836h-106q-250 0 -284 -21q-71 -42 -90 -102q-10 -33 -20 -90l-37 6l22 260h740l8 -14q-399 -543 -590 -838h141z" />
    <glyph glyph-name="braceleft" unicode="{" horiz-adv-x="819" 
d="M346 -117v408q0 117 -32 165t-109 79q85 25 113 81t28 183v379q0 170 58 233t214 59v-4q-82 -29 -112 -85t-29 -167v-376q0 -135 -30 -207t-123 -94v-5q154 -18 153 -280v-406q0 -111 30 -167t111 -85v-4q-156 -4 -214 60t-58 233z" />
    <glyph glyph-name="bar" unicode="|" horiz-adv-x="573" 
d="M231 -512v2048h111v-2048h-111z" />
    <glyph glyph-name="braceright" unicode="}" horiz-adv-x="819" 
d="M514 1178v-408q0 -115 32 -163t109 -81q-85 -25 -113 -81t-28 -183v-379q0 -170 -58 -233t-214 -60v4q82 29 112 85t29 167v377q0 135 30 207t124 94v4q-154 18 -154 281v405q0 111 -30 167t-111 85v4q156 4 214 -59t58 -233z" />
    <glyph glyph-name="asciitilde" unicode="~" 
d="M797 451q94 0 178 129l84 -52q-41 -59 -70 -92q-29 -32 -80 -62t-119 -30t-200 64q-140 61 -218 61t-118 -37t-86 -106l-82 55q60 94 122 144t146 50t238 -62t205 -62z" />
    <glyph glyph-name="uni00A0" unicode="&#xa0;" horiz-adv-x="573" 
 />
    <glyph glyph-name="exclamdown" unicode="&#xa1;" horiz-adv-x="655" 
d="M320 702q-46 0 -78 32t-33 79q0 47 33 80q34 33 78 33t78 -33t34 -79t-33 -79t-79 -33zM324 -516q-52 0 -76 43q-25 43 -25 100l8 129l74 725h39l74 -725l8 -129q0 -57 -25 -100t-77 -43z" />
    <glyph glyph-name="cent" unicode="&#xa2;" 
d="M614 264v854q-137 -10 -215 -133q-77 -123 -77 -271t76 -282q76 -133 216 -168zM664 1358v-195q180 -8 288 -59l21 -236h-35q-82 242 -274 250v-854q205 -6 294 260l35 -10l-55 -242q-160 -55 -274 -53v-190h-50v190q-206 27 -336 145t-130 316t132 330q134 131 334 153
v195h50z" />
    <glyph glyph-name="sterling" unicode="&#xa3;" 
d="M145 207h48q90 160 143 434h-193v61h209q53 302 176 504q68 112 169 176t208 64t177 -46t71 -122q0 -76 -53 -113t-129 -12q43 82 16 164t-104 82t-138 -75q-62 -75 -90 -148q-27 -72 -41 -111t-31 -107t-25 -98t-20 -90q-13 -61 -16 -68h269v-61h-279
q-61 -266 -233 -451l327 -73q23 -7 66 -17t90 -22t133 -12t129 40t43 73q0 34 -35 72t-35 74q1 35 19 57t47 21q74 1 74 -125t-114 -228t-238 -103q-124 0 -357 78l-240 79q-74 -55 -133 -67q-59 -11 -89 11t-29 65q0 94 208 94z" />
    <glyph glyph-name="currency" unicode="&#xa4;" 
d="M250 637q0 -137 93 -235t229 -99q136 0 230 95q93 96 93 236t-92 238q-93 98 -229 98t-230 -98t-94 -235zM584 1069q164 0 268 -100l100 100l56 -55l-101 -101q97 -123 97 -273t-97 -282l101 -102l-56 -53l-100 100q-121 -100 -282 -98t-277 98l-100 -100l-56 53l103 102
q-98 129 -99 282q0 153 99 273l-103 101l56 55l100 -100q127 100 291 100z" />
    <glyph glyph-name="yen" unicode="&#xa5;" 
d="M946 825v-61h-321v-189h307v-61h-307v-125q0 -102 5 -153q5 -50 32 -100q28 -50 82 -73t153 -32v-31h-715v31q136 21 177 52t56 53q36 52 36 253v125h-297v61h297v134l-25 55h-285v61h258l-98 209q-37 76 -46 96t-45 78t-63 78q-89 67 -178 76v31h559v-31
q-93 -14 -127 -59q-24 -32 41 -175l142 -303l155 303q35 68 41 111t-28 77q-35 34 -125 46v31h524v-31q-125 -12 -205 -76t-141 -184l-146 -277h287z" />
    <glyph glyph-name="brokenbar" unicode="&#xa6;" horiz-adv-x="573" 
d="M231 666v716h111v-716h-111zM231 -358v716h111v-716h-111z" />
    <glyph glyph-name="section" unicode="&#xa7;" horiz-adv-x="1105" 
d="M739 1442q97 0 179 -52t81 -143q-1 -53 -37 -95t-97 -42t-93 58t21 153q-5 2 -17 12l-17 14q-5 3 -15 10q-35 23 -76 23q-78 0 -125 -64t-47 -143t52 -163t127 -168t151 -174t127 -205q52 -115 53 -234q0 -256 -197 -479t-451 -223q-98 0 -173 49t-74 141q0 55 36 95
q37 38 100 38t93 -59t-10 -145q40 -58 112 -58t121 60t49 138q0 77 -51 164t-124 172t-146 176q-176 216 -176 458q0 137 85 300q85 162 232 274t307 112zM762 -131q0 -43 -21 -121q135 127 135 342t-185 435q-77 91 -153 181q-184 219 -184 412l4 76q-121 -115 -120 -311
q0 -117 54 -233t131 -210t154 -185q185 -219 185 -386z" />
    <glyph glyph-name="dieresis" unicode="&#xa8;" horiz-adv-x="860" 
d="M137 1178q0 40 29 68t69 28q41 0 69 -28t28 -69q0 -40 -29 -69t-69 -29t-68 29q-29 29 -29 70zM723 1178q0 -39 -30 -69q-31 -30 -69 -30t-67 29t-29 69q0 41 29 69t69 28t68 -28t29 -68z" />
    <glyph glyph-name="copyright" unicode="&#xa9;" horiz-adv-x="1556" 
d="M1094 852h-62q-6 102 -64 162t-159 61q-141 0 -215 -104t-74 -254q0 -149 81 -265t226 -116t236 149l53 -16q-39 -97 -138 -153t-210 -56q-186 0 -299 123t-113 317t120 318q120 123 317 123q127 -1 301 -60v-229zM174 694q0 -268 176 -452t437 -185q260 -1 433 187
t173 456t-175 452q-176 184 -436 183q-260 0 -434 -186q-174 -187 -174 -455zM779 -25q-295 0 -501 213t-206 508t207 508t503 213t504 -210q209 -210 209 -511t-211 -511t-505 -210z" />
    <glyph glyph-name="ordfeminine" unicode="&#xaa;" horiz-adv-x="1105" 
d="M406 906q0 -32 26 -64q26 -33 73 -33q48 0 99 51v209l-190 -94q-8 -37 -8 -69zM725 1182v-224q0 -86 18 -114t113 -47v-33q-14 -4 -65 -22t-89 -19q-86 0 -96 94q-86 -94 -172 -94t-126 52t-40 128q0 29 11 64l325 147q0 103 -16 145t-46 56t-71 14t-58 -5
q-29 -8 -33 -62q-1 -14 -1 -60l-82 -6q-39 0 -39 21q0 45 102 123t183 77q182 1 182 -235z" />
    <glyph glyph-name="guillemotleft" unicode="&#xab;" horiz-adv-x="1024" 
d="M893 860q0 -36 -87 -152t-157 -198q47 -49 149 -183q102 -135 103 -157q0 -22 -16 -23q-15 1 -26 15q-11 15 -32 35l-344 313l340 317q49 49 59 49t11 -16zM530 860q0 -36 -87 -152t-156 -198q47 -49 149 -183q102 -135 102 -157t-16 -23q-14 1 -25 15t-21 23
q-9 9 -11 12l-344 313l340 317q49 49 59 49t10 -16z" />
    <glyph glyph-name="logicalnot" unicode="&#xac;" 
d="M1026 643v-469h-111v358h-796v111h907z" />
    <glyph glyph-name="uni00AD" unicode="&#xad;" horiz-adv-x="737" 
d="M139 463v98h447v-98h-447z" />
    <glyph glyph-name="registered" unicode="&#xae;" horiz-adv-x="1556" 
d="M676 723h31q160 0 212 44t54 142q0 180 -197 181q-68 0 -84 -12t-16 -79v-276zM1208 281h-55q-109 -1 -139 21t-62 100q-33 78 -44 101q-11 24 -24 52t-21 40q-9 11 -21 27t-22 21q-10 4 -26 15q-16 10 -32 10t-40 5t-46 -3v-291q0 -68 98 -55v-43h-336v43q98 -12 99 55
v655q0 63 -99 56v43h340q164 1 248 -47t84 -152t-68 -168t-161 -70v-4q49 -2 91 -53t88 -153t72 -133q26 -30 76 -31v-41zM174 694q0 -268 176 -452t437 -185q260 -1 433 187t173 456t-175 452q-176 184 -436 183q-260 0 -434 -186q-174 -187 -174 -455zM779 -25
q-295 0 -501 213t-206 508t207 508t503 213t504 -210q209 -210 209 -511t-211 -511t-505 -210z" />
    <glyph glyph-name="macron" unicode="&#xaf;" horiz-adv-x="901" 
d="M764 1163h-627v111h627v-111z" />
    <glyph glyph-name="degree" unicode="&#xb0;" horiz-adv-x="819" 
d="M635 1109q0 93 -67 160q-68 67 -160 67t-159 -68q-67 -66 -66 -159t67 -159t159 -66t159 66t67 159zM717 1110q0 -127 -90 -217t-217 -90t-217 90t-91 217q-2 127 89 217t219 90t217 -90q90 -90 90 -217z" />
    <glyph glyph-name="plusminus" unicode="&#xb1;" 
d="M121 0v111h905v-111h-905zM121 602h397v303h111v-303h397v-110h-397v-304h-111v304h-397v110z" />
    <glyph glyph-name="twosuperior" unicode="&#xb2;" horiz-adv-x="688" 
d="M477 1149q0 70 -48 119t-136 49t-205 -113l-18 15q111 199 286 198q110 -1 176 -71t66 -167t-95 -226q-69 -90 -319 -285h246q98 0 132 24t87 113l19 -8l-95 -230h-544l-9 17q457 336 457 565z" />
    <glyph glyph-name="threesuperior" unicode="&#xb3;" horiz-adv-x="688" 
d="M467 1208q0 55 -41 85t-100 30q-109 0 -207 -94l-25 14q117 174 287 174q82 0 144 -46q63 -46 63 -126t-79 -133q-57 -39 -149 -78v-4q115 -10 189 -64t74 -159q-1 -105 -103 -179t-225 -75q-82 0 -157 35t-75 104q0 45 42 68t94 -4v-25q0 -57 39 -96q40 -39 108 -39
t112 51t44 128t-72 124t-166 47q-41 0 -96 -10l-10 16q16 12 42 32t43 32q17 11 48 18l24 6q61 20 107 66t45 102z" />
    <glyph glyph-name="acute" unicode="&#xb4;" horiz-adv-x="696" 
d="M502 1466l96 -100l-373 -348l-28 24z" />
    <glyph glyph-name="mu" unicode="&#xb5;" 
d="M242 90v-237q0 -25 26 -105t27 -120q0 -40 -24 -82q-25 -42 -61 -42t-60 42t-23 82q0 40 27 120t26 105v867q0 54 -6 62t-12 24t-18 19t-29 13q-18 10 -86 10v31l309 26v-506q0 -1 -1 -31t0 -43t3 -47t19 -76q16 -43 32 -58q46 -43 85 -53q38 -9 77 -9q125 0 225 90v440
q0 111 -11 152t-31 53q-53 31 -146 31v31l358 26l-12 -678l-2 -63q0 -72 46 -84q17 -4 38 -4l94 8l8 -31l-348 -84l6 160q-207 -149 -348 -149t-184 110h-4z" />
    <glyph glyph-name="paragraph" unicode="&#xb6;" horiz-adv-x="1228" 
d="M827 1346h-122v-1797h-392v31q188 27 235 85q46 58 46 249v686q-394 49 -500 264q-33 68 -33 164q-1 96 57 176q97 132 345 175q96 17 196 18h148l371 -19v-30q-150 -12 -197 -68q-32 -36 -36 -83q-10 -100 -9 -155q2 -55 2 -73v-1055q0 -188 42 -248t212 -86v-31h-365
v1797z" />
    <glyph glyph-name="periodcentered" unicode="&#xb7;" horiz-adv-x="573" 
d="M288 340q-46 0 -79 33t-33 79t33 78t78 33q45 0 79 -34q34 -35 34 -79t-34 -77q-32 -33 -78 -33z" />
    <glyph glyph-name="cedilla" unicode="&#xb8;" horiz-adv-x="614" 
d="M385 -332q1 32 -71 108t-72 119t104 105h57q-51 -44 -51 -64t60 -84t59 -118q0 -52 -70 -116t-143 -64q-43 0 -79 22t-36 52q0 58 45 61q29 0 76 -32t76 -32q45 0 45 43z" />
    <glyph glyph-name="onesuperior" unicode="&#xb9;" horiz-adv-x="688" 
d="M102 1417h310q-12 -264 -10 -465q2 -200 4 -226q4 -26 22 -56t55 -40q37 -11 109 -18v-30h-494v30q85 9 107 20t35 15q12 5 21 23t17 29t7 46q0 35 2 76v385q0 100 -29 134t-156 46v31z" />
    <glyph glyph-name="ordmasculine" unicode="&#xba;" horiz-adv-x="1105" 
d="M778 1064q0 110 -57 208t-165 98t-164 -89t-56 -203t62 -211t166 -97t159 91q55 93 55 203zM564 1417q158 0 260 -97q102 -96 102 -248t-111 -250t-263 -99q-152 0 -257 93q-107 93 -107 248t109 254t267 99z" />
    <glyph glyph-name="guillemotright" unicode="&#xbb;" horiz-adv-x="1024" 
d="M131 160q0 36 87 152t157 198q-47 49 -150 183q-102 135 -102 157t16 22q17 0 27 -14t31 -35l344 -313l-340 -317q-49 -49 -59 -49t-11 16zM494 160q0 36 87 152t156 198q-47 49 -149 183q-102 135 -102 157t15 22q17 0 27 -14t20 -23t11 -12l344 -313l-340 -317
q-49 -49 -59 -49t-10 16z" />
    <glyph glyph-name="onequarter" unicode="&#xbc;" horiz-adv-x="1720" 
d="M1339 340v348l-288 -348h288zM88 1393h309q-12 -264 -10 -465t5 -227q4 -25 22 -55t55 -41t109 -17v-31h-494v31q87 9 108 20q21 10 33 14t22 23q9 18 16 29t7 46t2 77v385q0 100 -28 134q-29 34 -156 46v31zM1323 1393l-782 -1393h-99l783 1393h98zM1454 340h180v-80
h-180v-51q0 -51 3 -73t17 -48t49 -37q34 -12 93 -20v-31h-445v31q63 8 99 20t50 39q15 27 17 47t2 72v51h-381l-6 31l469 565l43 -14q-10 -168 -10 -502z" />
    <glyph glyph-name="onehalf" unicode="&#xbd;" horiz-adv-x="1720" 
d="M1300 1393l-782 -1393h-98l782 1393h98zM1307 850q109 0 175 -71t66 -171q0 -148 -201 -332q-73 -66 -104 -90t-108 -86h245q98 0 132 24t87 114l19 -9l-94 -229h-545l-8 16q457 336 456 566q0 70 -48 118t-136 50q-88 0 -205 -113l-18 14q111 199 287 199zM106 1393h310
q-12 -264 -10 -465t5 -227q3 -25 21 -55t55 -41t109 -17v-31h-494v31q88 10 109 20t33 14t21 23q9 18 17 29t7 46q0 35 2 77v385q0 100 -29 134t-156 46v31z" />
    <glyph glyph-name="threequarters" unicode="&#xbe;" horiz-adv-x="1720" 
d="M506 1208q0 55 -41 85t-100 30q-109 0 -207 -94l-25 14q117 174 287 174q82 0 144 -46t62 -126t-78 -133q-57 -39 -149 -78v-4q115 -10 189 -64t74 -159t-102 -179t-226 -75q-82 0 -157 35t-75 104q0 45 42 68t94 -4v-25q0 -57 38 -96t108 -39q69 0 113 51t44 128
t-72 124t-166 47q-41 0 -96 -10l-10 16q16 12 42 32t43 32q17 11 48 18l24 6q60 20 106 66t46 102zM1333 1393l-782 -1393h-98l782 1393h98zM1323 340v348l-289 -348h289zM1438 340h180v-80h-180v-51q0 -51 3 -73t17 -48t48 -37q34 -12 93 -20v-31h-444v31q63 8 98 20
q62 21 68 86q2 20 2 72v51h-381l-6 31l469 565l43 -14q-10 -168 -10 -502z" />
    <glyph glyph-name="questiondown" unicode="&#xbf;" horiz-adv-x="737" 
d="M484 702q-46 0 -78 32t-33 79q0 47 33 80q34 33 78 33t78 -33t34 -79t-33 -79t-79 -33zM227 26q0 -46 46 -88t123 -86t109 -73t41 -75t1 -94t-31 -126l-35 8q-2 45 -22 79q-21 34 -33 43q-12 8 -92 64t-103 86q-53 68 -53 216q0 257 75 302q58 35 146 45q35 3 63 38
t36 104l10 92h39l16 -225q3 -66 -19 -108t-59 -56t-82 -26t-84 -18q-39 -7 -65 -32q-26 -24 -27 -70z" />
    <glyph glyph-name="Agrave" unicode="&#xc0;" horiz-adv-x="1392" 
d="M543 1913l305 -424l-29 -25l-373 348zM842 678l-213 532l-193 -532h406zM510 0h-561v31q129 35 171 78t93 172l231 604l123 334q3 7 11 29l12 33q17 47 0 79q86 35 149 110l451 -1200q45 -121 91 -169t163 -70v-31h-602v31q46 10 74 20t56 39q28 28 28 60q-1 82 -33 167
q-31 84 -40 111q-9 26 -31 82t-28 74h-467q-2 -8 -63 -171t-62 -243q0 -99 131 -124q15 -3 55 -8t48 -7v-31z" />
    <glyph glyph-name="Aacute" unicode="&#xc1;" horiz-adv-x="1392" 
d="M850 1913l96 -101l-373 -348l-28 25zM842 678l-213 532l-193 -532h406zM510 0h-561v31q129 35 171 78t93 172l231 604l123 334q3 7 11 29l12 33q17 47 0 79q86 35 149 110l451 -1200q45 -121 91 -169t163 -70v-31h-602v31q46 10 74 20t56 39q28 28 28 60q-1 82 -33 167
q-31 84 -40 111q-9 26 -31 82t-28 74h-467q-2 -8 -63 -171t-62 -243q0 -99 131 -124q15 -3 55 -8t48 -7v-31z" />
    <glyph glyph-name="Acircumflex" unicode="&#xc2;" horiz-adv-x="1392" 
d="M492 1464l-33 15l229 479h19l227 -479l-29 -15l-211 299zM842 678l-213 532l-193 -532h406zM510 0h-561v31q129 35 171 78t93 172l231 604l123 334q3 7 11 29l12 33q17 47 0 79q86 35 149 110l451 -1200q45 -121 91 -169t163 -70v-31h-602v31q46 10 74 20t56 39
q28 28 28 60q-1 82 -33 167q-31 84 -40 111q-9 26 -31 82t-28 74h-467q-2 -8 -63 -171t-62 -243q0 -99 131 -124q15 -3 55 -8t48 -7v-31z" />
    <glyph glyph-name="Atilde" unicode="&#xc3;" horiz-adv-x="1392" 
d="M797 1538q-49 0 -168 56t-166 57q-47 0 -129 -47l-19 28q163 113 225 113t173 -55q123 -55 164 -56q82 0 176 95l22 -23q-154 -168 -278 -168zM842 678l-213 532l-193 -532h406zM510 0h-561v31q129 35 171 78t93 172l231 604l123 334q3 7 11 29l12 33q17 47 0 79
q86 35 149 110l451 -1200q45 -121 91 -169t163 -70v-31h-602v31q46 10 74 20t56 39q28 28 28 60q-1 82 -33 167q-31 84 -40 111q-9 26 -31 82t-28 74h-467q-2 -8 -63 -171t-62 -243q0 -99 131 -124q15 -3 55 -8t48 -7v-31z" />
    <glyph glyph-name="Adieresis" unicode="&#xc4;" horiz-adv-x="1392" 
d="M598 1623q0 -40 -29 -69q-29 -28 -69 -28t-68 28q-29 28 -29 70q0 41 29 69q29 27 69 27q41 0 69 -28t28 -69zM989 1624q0 -39 -30 -69q-31 -29 -69 -29t-67 28t-29 69q0 40 29 69q29 28 69 28t69 -28q28 -29 28 -68zM842 678l-213 532l-193 -532h406zM510 0h-561v31
q129 35 171 78t93 172l231 604l123 334q3 7 11 29l12 33q17 47 0 79q86 35 149 110l451 -1200q45 -121 91 -169t163 -70v-31h-602v31q46 10 74 20t56 39q28 28 28 60q-1 82 -33 167q-31 84 -40 111q-9 26 -31 82t-28 74h-467q-2 -8 -63 -171t-62 -243q0 -99 131 -124
q15 -3 55 -8t48 -7v-31z" />
    <glyph glyph-name="Aring" unicode="&#xc5;" horiz-adv-x="1392" 
d="M811 1678q0 50 -33 90t-83 40t-83 -40q-32 -40 -32 -90t32 -90t83 -40q50 0 83 40t33 90zM877 1679q1 -76 -53 -129t-129 -53t-128 53t-53 128t53 128q53 54 128 54t129 -52t53 -129zM842 678l-213 532l-193 -532h406zM510 0h-561v31q129 35 171 78t93 172l231 604
l123 334q3 7 11 29l12 33q17 47 0 79q86 35 149 110l451 -1200q45 -121 91 -169t163 -70v-31h-602v31q46 10 74 20t56 39q28 28 28 60q-1 82 -33 167q-31 84 -40 111q-9 26 -31 82t-28 74h-467q-2 -8 -63 -171t-62 -243q0 -99 131 -124q15 -3 55 -8t48 -7v-31z" />
    <glyph glyph-name="AE" unicode="&#xc6;" horiz-adv-x="1966" 
d="M940 659h-399l-62 -110q-4 -7 -36 -65q-162 -291 -162 -357q1 -37 31 -55t95 -28t68 -13v-31h-530v31q73 20 113 44t81 81l203 315l379 600q55 90 78 136t17 82q-5 36 -44 50t-123 23v31h1106l-31 -312h-30q-12 163 -99 212q-62 36 -131 43t-170 7h-174v-598h172
q139 0 209 35t86 156h31v-457h-39q-7 93 -60 143q-36 33 -137 36q-29 1 -90 1h-172v-307q0 -180 35 -219q56 -62 119 -73t133 -11q195 0 292 82t142 270h31q-6 -158 -76 -401h-1094v31q59 12 113 27t87 57q34 42 36 102t2 119v323zM940 745v576h-4l-342 -576h346z" />
    <glyph glyph-name="Ccedilla" unicode="&#xc7;" horiz-adv-x="1515" 
d="M1384 971h-30q-31 182 -136 290t-284 107q-270 0 -428 -191t-158 -475t186 -481t420 -196q193 0 301 128q55 65 91 128q35 63 75 161l29 -12q-35 -180 -113 -367q-182 -88 -417 -88q-47 0 -86 7q-31 -30 -31 -48t59 -82q60 -64 60 -118q0 -52 -70 -116t-143 -64
q-43 0 -79 22t-36 52q0 58 45 61q29 0 76 -32t76 -32q45 0 45 43q0 31 -72 108q-72 76 -72 116t88 98q-293 35 -481 217t-188 472t208 509q99 104 261 166t356 63q262 1 448 -110v-336z" />
    <glyph glyph-name="Egrave" unicode="&#xc8;" horiz-adv-x="1351" 
d="M522 1913l305 -424l-28 -25l-373 348zM63 0v31q130 17 167 42t51 41q30 36 36 222v721q-6 186 -42 228q-36 41 -93 54q-57 14 -119 23v31h1100l-24 -316h-31q-9 137 -69 187q-33 29 -63 46q-57 33 -280 33h-198v-583h213q137 0 207 34t86 154h30v-456h-30q-15 96 -69 141
q-50 41 -224 41h-213v-336q0 -119 12 -154q43 -135 295 -135q195 0 296 82t140 275h31q-2 -205 -70 -406h-1139z" />
    <glyph glyph-name="Eacute" unicode="&#xc9;" horiz-adv-x="1351" 
d="M829 1913l97 -101l-373 -348l-29 25zM63 0v31q130 17 167 42t51 41q30 36 36 222v721q-6 186 -42 228q-36 41 -93 54q-57 14 -119 23v31h1100l-24 -316h-31q-9 137 -69 187q-33 29 -63 46q-57 33 -280 33h-198v-583h213q137 0 207 34t86 154h30v-456h-30q-15 96 -69 141
q-50 41 -224 41h-213v-336q0 -119 12 -154q43 -135 295 -135q195 0 296 82t140 275h31q-2 -205 -70 -406h-1139z" />
    <glyph glyph-name="Ecircumflex" unicode="&#xca;" horiz-adv-x="1351" 
d="M471 1464l-33 15l230 479h18l227 -479l-28 -15l-211 299zM63 0v31q130 17 167 42t51 41q30 36 36 222v721q-6 186 -42 228q-36 41 -93 54q-57 14 -119 23v31h1100l-24 -316h-31q-9 137 -69 187q-33 29 -63 46q-57 33 -280 33h-198v-583h213q137 0 207 34t86 154h30v-456
h-30q-15 96 -69 141q-50 41 -224 41h-213v-336q0 -119 12 -154q43 -135 295 -135q195 0 296 82t140 275h31q-2 -205 -70 -406h-1139z" />
    <glyph glyph-name="Edieresis" unicode="&#xcb;" horiz-adv-x="1351" 
d="M578 1623q0 -40 -29 -69q-29 -28 -69 -28t-68 28t-29 70q0 41 29 69q28 27 68 27t69 -28t29 -69zM969 1624q0 -39 -30 -69q-30 -29 -69 -29q-40 0 -68 28t-28 69q0 40 29 69q29 28 69 28t68 -28q29 -28 29 -68zM63 0v31q130 17 167 42t51 41q30 36 36 222v721
q-6 186 -42 228q-36 41 -93 54q-57 14 -119 23v31h1100l-24 -316h-31q-9 137 -69 187q-33 29 -63 46q-57 33 -280 33h-198v-583h213q137 0 207 34t86 154h30v-456h-30q-15 96 -69 141q-50 41 -224 41h-213v-336q0 -119 12 -154q43 -135 295 -135q195 0 296 82t140 275h31
q-2 -205 -70 -406h-1139z" />
    <glyph glyph-name="Igrave" unicode="&#xcc;" horiz-adv-x="819" 
d="M256 1913l305 -424l-29 -25l-372 348zM754 0h-688v31q129 17 166 42t51 41q30 36 36 222v721q-6 186 -42 228q-36 41 -93 54q-57 14 -118 23v31h688v-31q-128 -17 -166 -42q-37 -25 -57 -49t-25 -86q-4 -62 -6 -128v-721q6 -188 42 -228t93 -54q57 -15 119 -23v-31z" />
    <glyph glyph-name="Iacute" unicode="&#xcd;" horiz-adv-x="819" 
d="M563 1913l96 -101l-372 -348l-29 25zM754 0h-688v31q129 17 166 42t51 41q30 36 36 222v721q-6 186 -42 228q-36 41 -93 54q-57 14 -118 23v31h688v-31q-128 -17 -166 -42q-37 -25 -57 -49t-25 -86q-4 -62 -6 -128v-721q6 -188 42 -228t93 -54q57 -15 119 -23v-31z" />
    <glyph glyph-name="Icircumflex" unicode="&#xce;" horiz-adv-x="819" 
d="M205 1464l-33 15l229 479h19l227 -479l-29 -15l-210 299zM754 0h-688v31q129 17 166 42t51 41q30 36 36 222v721q-6 186 -42 228q-36 41 -93 54q-57 14 -118 23v31h688v-31q-128 -17 -166 -42q-37 -25 -57 -49t-25 -86q-4 -62 -6 -128v-721q6 -188 42 -228t93 -54
q57 -15 119 -23v-31z" />
    <glyph glyph-name="Idieresis" unicode="&#xcf;" horiz-adv-x="819" 
d="M311 1623q-1 -40 -29 -69q-28 -28 -68 -28t-69 28t-28 70q0 41 28 69q29 27 69 27t69 -28q28 -29 28 -69zM702 1624q0 -39 -30 -69q-30 -29 -68 -29q-40 0 -68 28t-28 69q0 40 29 69q29 28 69 28t68 -28q28 -29 28 -68zM754 0h-688v31q129 17 166 42t51 41q30 36 36 222
v721q-6 186 -42 228q-36 41 -93 54q-57 14 -118 23v31h688v-31q-128 -17 -166 -42q-37 -25 -57 -49t-25 -86q-4 -62 -6 -128v-721q6 -188 42 -228t93 -54q57 -15 119 -23v-31z" />
    <glyph glyph-name="Eth" unicode="&#xd0;" horiz-adv-x="1679" 
d="M317 791v256q-6 187 -34 221q-42 48 -95 61q-53 14 -112 23v28l495 17q517 17 769 -199q132 -113 180 -249q47 -135 47 -243t-25 -199t-88 -187q-62 -96 -160 -168q-98 -70 -258 -114t-362 -42l-611 4v31q130 17 167 42t51 41q30 36 36 222v369h-241v86h241zM498 1356
v-565h376v-86h-376v-390q0 -61 8 -101q22 -110 121 -145q59 -22 152 -22q195 0 361 131q85 68 137 193t52 297t-66 309q-122 250 -447 339q-146 40 -318 40z" />
    <glyph glyph-name="Ntilde" unicode="&#xd1;" horiz-adv-x="1679" 
d="M606 1630q-47 0 -129 -47l-18 29q162 113 235 112q51 0 162 -55q123 -55 164 -55q82 0 176 94l23 -22q-154 -168 -279 -168q-49 0 -168 56t-166 56zM1085 1393h560v-31q-99 -12 -135 -64t-50 -165q-29 -233 -8 -1166l-27 -6q-225 267 -574 630t-464 488v-562
q0 -277 35 -331q10 -16 26 -45t36 -40q71 -41 108 -52q37 -10 80 -18v-31h-613v31q131 13 209 107q58 72 58 462v420q0 164 -54 232t-239 110v31h338l1011 -1071l-10 747q-2 147 -58 205t-229 88v31z" />
    <glyph glyph-name="Ograve" unicode="&#xd2;" horiz-adv-x="1720" 
d="M707 1954l305 -424l-29 -25l-373 348zM842 1368q-128 0 -226 -57t-154 -151q-114 -190 -114 -429t129 -463q63 -108 169 -176t253 -68t261 101q212 186 212 537q-4 282 -154 494t-376 212zM858 1417q190 0 338 -60q148 -59 236 -163q178 -209 178 -498q0 -326 -211 -524
t-540 -197q-329 0 -539 198q-210 197 -209 523t211 524t536 197z" />
    <glyph glyph-name="Oacute" unicode="&#xd3;" horiz-adv-x="1720" 
d="M1014 1913l96 -101l-373 -348l-28 25zM842 1368q-128 0 -226 -57t-154 -151q-114 -190 -114 -429t129 -463q63 -108 169 -176t253 -68t261 101q212 186 212 537q-4 282 -154 494t-376 212zM858 1417q190 0 338 -60q148 -59 236 -163q178 -209 178 -498q0 -326 -211 -524
t-540 -197q-329 0 -539 198q-210 197 -209 523t211 524t536 197z" />
    <glyph glyph-name="Ocircumflex" unicode="&#xd4;" horiz-adv-x="1720" 
d="M655 1464l-32 15l229 479h18l228 -479l-29 -15l-211 299zM842 1368q-128 0 -226 -57t-154 -151q-114 -190 -114 -429t129 -463q63 -108 169 -176t253 -68t261 101q212 186 212 537q-4 282 -154 494t-376 212zM858 1417q190 0 338 -60q148 -59 236 -163q178 -209 178 -498
q0 -326 -211 -524t-540 -197q-329 0 -539 198q-210 197 -209 523t211 524t536 197z" />
    <glyph glyph-name="Otilde" unicode="&#xd5;" horiz-adv-x="1720" 
d="M627 1630q-47 0 -129 -47l-19 29q162 113 236 112q51 0 162 -55q123 -55 163 -55q82 0 177 94l22 -22q-154 -168 -278 -168q-49 0 -168 56t-166 56zM842 1368q-128 0 -226 -57t-154 -151q-114 -190 -114 -429t129 -463q63 -108 169 -176t253 -68t261 101q212 186 212 537
q-4 282 -154 494t-376 212zM858 1417q190 0 338 -60q148 -59 236 -163q178 -209 178 -498q0 -326 -211 -524t-540 -197q-329 0 -539 198q-210 197 -209 523t211 524t536 197z" />
    <glyph glyph-name="Odieresis" unicode="&#xd6;" horiz-adv-x="1720" 
d="M762 1623q0 -40 -29 -69q-29 -28 -69 -28t-68 28q-29 28 -29 70q0 41 29 69q29 27 69 27q41 0 69 -28t28 -69zM1153 1624q0 -39 -30 -69q-31 -29 -69 -29t-67 28t-29 69q0 40 29 69q29 28 69 28t68 -28t29 -68zM842 1368q-128 0 -226 -57t-154 -151q-114 -190 -114 -429
t129 -463q63 -108 169 -176t253 -68t261 101q212 186 212 537q-4 282 -154 494t-376 212zM858 1417q190 0 338 -60q148 -59 236 -163q178 -209 178 -498q0 -326 -211 -524t-540 -197q-329 0 -539 198q-210 197 -209 523t211 524t536 197z" />
    <glyph glyph-name="multiply" unicode="&#xd7;" 
d="M121 78l377 375l-377 374l80 78l374 -375l375 375l78 -78l-375 -374l375 -375l-78 -78l-375 375l-374 -375z" />
    <glyph glyph-name="Oslash" unicode="&#xd8;" horiz-adv-x="1720" 
d="M845 1368q-169 0 -284 -94q-215 -176 -215 -507t168 -550l647 997q-147 154 -316 154zM894 25q186 0 332 169q146 168 146 460t-158 505l-653 -997q147 -137 333 -137zM1610 707q0 -330 -208 -531t-540 -201q-217 0 -373 78l-141 -221l-63 45l141 213q-156 94 -237 258
t-80 357q0 315 210 514q211 199 555 198q201 0 367 -80l129 201l66 -39l-129 -199q303 -215 303 -593z" />
    <glyph glyph-name="Ugrave" unicode="&#xd9;" horiz-adv-x="1720" 
d="M666 1913l305 -424l-29 -25l-373 348zM61 1393h707v-31q-143 -20 -182 -43q-38 -21 -54 -37q-36 -36 -36 -225v-432q-20 -360 213 -492q115 -63 297 -63t271 103q90 103 102 237q20 190 12 270v276q0 111 -9 171q-21 154 -130 199q-62 26 -169 36v31h594v-31
q-103 -11 -146 -66q-43 -54 -54 -194q-4 -51 -7 -146l-12 -448q-12 -532 -573 -533q-268 0 -403 105q-44 34 -72 66q-74 85 -92 246q-5 52 -5 78l2 128v459q-6 186 -42 228q-36 41 -93 54q-57 14 -119 23v31z" />
    <glyph glyph-name="Uacute" unicode="&#xda;" horiz-adv-x="1720" 
d="M1055 1913l96 -101l-373 -348l-28 25zM61 1393h707v-31q-143 -20 -182 -43q-38 -21 -54 -37q-36 -36 -36 -225v-432q-20 -360 213 -492q115 -63 297 -63t271 103q90 103 102 237q20 190 12 270v276q0 111 -9 171q-21 154 -130 199q-62 26 -169 36v31h594v-31
q-103 -11 -146 -66q-43 -54 -54 -194q-4 -51 -7 -146l-12 -448q-12 -532 -573 -533q-268 0 -403 105q-44 34 -72 66q-74 85 -92 246q-5 52 -5 78l2 128v459q-6 186 -42 228q-36 41 -93 54q-57 14 -119 23v31z" />
    <glyph glyph-name="Ucircumflex" unicode="&#xdb;" horiz-adv-x="1720" 
d="M696 1464l-32 15l229 479h18l228 -479l-29 -15l-211 299zM61 1393h707v-31q-143 -20 -182 -43q-38 -21 -54 -37q-36 -36 -36 -225v-432q-20 -360 213 -492q115 -63 297 -63t271 103q90 103 102 237q20 190 12 270v276q0 111 -9 171q-21 154 -130 199q-62 26 -169 36v31
h594v-31q-103 -11 -146 -66q-43 -54 -54 -194q-4 -51 -7 -146l-12 -448q-12 -532 -573 -533q-268 0 -403 105q-44 34 -72 66q-74 85 -92 246q-5 52 -5 78l2 128v459q-6 186 -42 228q-36 41 -93 54q-57 14 -119 23v31z" />
    <glyph glyph-name="Udieresis" unicode="&#xdc;" horiz-adv-x="1720" 
d="M803 1623q0 -40 -29 -69q-28 -28 -68 -28t-69 28t-29 70q0 41 29 69q29 27 69 27t68 -28t29 -69zM1194 1624q0 -39 -30 -69q-30 -29 -68 -29t-68 28q-29 28 -29 69q0 40 29 69q29 28 69 28q41 0 69 -28t28 -68zM61 1393h707v-31q-143 -20 -182 -43q-38 -21 -54 -37
q-36 -36 -36 -225v-432q-20 -360 213 -492q115 -63 297 -63t271 103q90 103 102 237q20 190 12 270v276q0 111 -9 171q-21 154 -130 199q-62 26 -169 36v31h594v-31q-103 -11 -146 -66q-43 -54 -54 -194q-4 -51 -7 -146l-12 -448q-12 -532 -573 -533q-268 0 -403 105
q-44 34 -72 66q-74 85 -92 246q-5 52 -5 78l2 128v459q-6 186 -42 228q-36 41 -93 54q-57 14 -119 23v31z" />
    <glyph glyph-name="Yacute" unicode="&#xdd;" horiz-adv-x="1228" 
d="M809 1913l96 -101l-373 -348l-28 25zM758 1393h526v-31q-125 -10 -203 -74t-149 -186l-242 -479v-232q3 -150 19 -207t45 -79q71 -54 207 -74v-31h-721v31q138 21 206 74q47 35 59 160q3 40 5 126v164l-213 465q-78 174 -123 227q-80 98 -217 115v31h565v-31
q-61 -8 -93 -24q-54 -28 -26 -114q10 -32 39 -96l205 -442l178 338q66 122 79 190t-21 102q-35 34 -125 46v31z" />
    <glyph glyph-name="Thorn" unicode="&#xde;" horiz-adv-x="1228" 
d="M61 1393h707v-31q-98 -14 -154 -34t-83 -60q-27 -39 -31 -74t-4 -109q672 12 671 -251q0 -90 -47 -157t-127 -104q-149 -69 -350 -77l-6 30q153 16 237 78t84 192t-134 190t-328 50v-700q0 -189 39 -228t101 -53t132 -24v-31h-707v31q130 17 167 42t57 48t24 86t6 129
v721q-6 186 -42 228q-36 41 -93 54q-57 14 -119 23v31z" />
    <glyph glyph-name="germandbls" unicode="&#xdf;" horiz-adv-x="1105" 
d="M663 1470q125 0 199 -80t74 -194q0 -27 -12 -84q-4 -4 -57 -43t-66 -55q-15 -16 -33 -36q-64 -67 -63 -135q-1 -69 35 -120t86 -92t100 -86q122 -109 123 -245q0 -136 -126 -228t-235 -92q-80 0 -80 65q0 27 18 47t40 20t65 -34q43 -35 61 -35q49 0 89 67q25 40 25 106
t-37 130q-36 64 -87 108t-102 84q-123 96 -123 193q0 66 35 119t76 85q110 86 110 221q0 85 -57 159t-162 74q-209 0 -209 -594v-557q0 -127 27 -159t155 -48v-31h-489v31q102 16 125 50t25 157v557h-166v20l166 100q-6 103 52 231t176 226t242 98z" />
    <glyph glyph-name="agrave" unicode="&#xe0;" horiz-adv-x="901" 
d="M256 1466l305 -424l-29 -24l-372 348zM219 713v-70l-102 -6q-47 0 -47 20q0 29 61 93t157 119q96 56 173 57q246 0 246 -308v-321q0 -71 2 -99t19 -60t53 -45t104 -27v-31q-156 -45 -207 -45q-113 0 -129 129q-123 -139 -260 -139q-94 0 -150 68q-55 69 -55 165
q0 45 12 90l453 205q12 168 -35 242t-168 73q-50 0 -68 -8l-27 -12q-9 -5 -15 -19t-12 -20t-5 -51zM258 228q0 -52 38 -99t110 -47t143 76v309l-277 -141q-14 -46 -14 -98z" />
    <glyph glyph-name="aacute" unicode="&#xe1;" horiz-adv-x="901" 
d="M604 1466l96 -100l-372 -348l-29 24zM219 713v-70l-102 -6q-47 0 -47 20q0 29 61 93t157 119q96 56 173 57q246 0 246 -308v-321q0 -71 2 -99t19 -60t53 -45t104 -27v-31q-156 -45 -207 -45q-113 0 -129 129q-123 -139 -260 -139q-94 0 -150 68q-55 69 -55 165
q0 45 12 90l453 205q12 168 -35 242t-168 73q-50 0 -68 -8l-27 -12q-9 -5 -15 -19t-12 -20t-5 -51zM258 228q0 -52 38 -99t110 -47t143 76v309l-277 -141q-14 -46 -14 -98z" />
    <glyph glyph-name="acircumflex" unicode="&#xe2;" horiz-adv-x="901" 
d="M246 1018l-33 14l229 479h19l227 -479l-29 -14l-210 299zM219 713v-70l-102 -6q-47 0 -47 20q0 29 61 93t157 119q96 56 173 57q246 0 246 -308v-321q0 -71 2 -99t19 -60t53 -45t104 -27v-31q-156 -45 -207 -45q-113 0 -129 129q-123 -139 -260 -139q-94 0 -150 68
q-55 69 -55 165q0 45 12 90l453 205q12 168 -35 242t-168 73q-50 0 -68 -8l-27 -12q-9 -5 -15 -19t-12 -20t-5 -51zM258 228q0 -52 38 -99t110 -47t143 76v309l-277 -141q-14 -46 -14 -98z" />
    <glyph glyph-name="atilde" unicode="&#xe3;" horiz-adv-x="901" 
d="M551 1071q-49 1 -168 57t-166 56t-129 -47l-18 28q162 113 224 113t173 -55q123 -55 164 -56q82 0 176 95l22 -23q-154 -168 -278 -168zM219 713v-70l-102 -6q-47 0 -47 20q0 29 61 93t157 119q96 56 173 57q246 0 246 -308v-321q0 -71 2 -99t19 -60t53 -45t104 -27v-31
q-156 -45 -207 -45q-113 0 -129 129q-123 -139 -260 -139q-94 0 -150 68q-55 69 -55 165q0 45 12 90l453 205q12 168 -35 242t-168 73q-50 0 -68 -8l-27 -12q-9 -5 -15 -19t-12 -20t-5 -51zM258 228q0 -52 38 -99t110 -47t143 76v309l-277 -141q-14 -46 -14 -98z" />
    <glyph glyph-name="adieresis" unicode="&#xe4;" horiz-adv-x="901" 
d="M255 1274q41 0 69 -28t28 -69q0 -40 -28 -69t-69 -29q-40 0 -69 29t-28 70q0 40 28 68t69 28zM743 1178q1 -39 -29 -69t-69 -30t-67 29t-29 69q0 41 29 69q28 28 68 28t68 -28t29 -68zM258 228q0 -52 38 -99t110 -47t143 76v309l-277 -141q-14 -46 -14 -98zM219 713v-70
l-102 -6q-47 0 -47 20q0 29 61 93t157 119q96 56 173 57q246 0 246 -308v-321q0 -71 2 -99t19 -60t53 -45t104 -27v-31q-156 -45 -207 -45q-113 0 -129 129q-123 -139 -260 -139q-94 0 -150 68q-55 69 -55 165q0 45 12 90l453 205q12 168 -35 242t-168 73q-50 0 -68 -8
l-27 -12q-9 -5 -15 -19t-12 -20t-5 -51z" />
    <glyph glyph-name="aring" unicode="&#xe5;" horiz-adv-x="901" 
d="M450 1061q50 0 82 40t33 90q0 50 -33 90q-32 40 -82 40t-83 -40t-33 -90t33 -90t83 -40zM631 1192q0 -76 -53 -129t-128 -53t-128 53q-54 53 -54 128t54 128t128 53q75 0 128 -52t53 -128zM219 713v-70l-102 -6q-47 0 -47 20q0 29 61 93t157 119q96 56 173 57
q246 0 246 -308v-321q0 -71 2 -99t19 -60t53 -45t104 -27v-31q-156 -45 -207 -45q-113 0 -129 129q-123 -139 -260 -139q-94 0 -150 68q-55 69 -55 165q0 45 12 90l453 205q12 168 -35 242t-168 73q-50 0 -68 -8l-27 -12q-9 -5 -15 -19t-12 -20t-5 -51zM258 228
q0 -52 38 -99t110 -47t143 76v309l-277 -141q-14 -46 -14 -98z" />
    <glyph glyph-name="ae" unicode="&#xe6;" horiz-adv-x="1310" 
d="M404 82q74 0 163 82q-18 73 -18 268l-270 -110q-21 -61 -21 -110q0 -50 36 -90t110 -40zM858 -20q-188 0 -278 155q-133 -156 -291 -155q-94 0 -150 68q-55 69 -55 165q0 45 12 90l453 170q22 254 -81 321q-46 30 -126 30t-104 -41q-24 -40 -25 -156h-76q-2 0 -14 -1
q-53 -4 -53 25q0 43 106 140q154 135 277 135q176 0 233 -174q49 76 124 125q76 49 174 49t164 -74t77 -190l-518 -175q-27 -369 233 -368q164 0 289 186l33 -20q-174 -305 -404 -305zM707 524l331 127q-6 80 -44 132t-113 53q-194 -1 -174 -312z" />
    <glyph glyph-name="ccedilla" unicode="&#xe7;" horiz-adv-x="901" 
d="M614 -266q0 -53 -69 -117q-70 -63 -144 -63q-43 0 -79 22t-35 52q0 58 45 61q29 0 76 -32t75 -32q45 0 45 43q0 31 -71 108q-72 76 -72 118t80 90q-174 8 -285 138t-110 306q0 211 156 354q157 144 375 144t218 -103q0 -35 -31 -65q-30 -30 -64 -29q-34 0 -114 67
t-135 66q-113 0 -177 -104t-65 -226q0 -192 113 -312t270 -120q100 0 211 80l25 -30q-135 -156 -326 -168q-30 -30 -30 -48t59 -82t59 -118z" />
    <glyph glyph-name="egrave" unicode="&#xe8;" horiz-adv-x="942" 
d="M317 1466l306 -424l-29 -24l-373 348zM252 625l-8 -103q-12 -166 90 -289t258 -123t254 130l31 -23q-61 -104 -161 -171t-216 -66q-186 0 -309 133q-121 133 -121 329t129 339q129 144 331 145q138 0 224 -82t92 -219h-594zM258 664l393 16q-16 82 -62 141t-124 59
q-77 0 -133 -64t-74 -152z" />
    <glyph glyph-name="eacute" unicode="&#xe9;" horiz-adv-x="942" 
d="M666 1466l96 -100l-373 -348l-29 24zM252 625l-8 -103q-12 -166 90 -289t258 -123t254 130l31 -23q-61 -104 -161 -171t-216 -66q-186 0 -309 133q-121 133 -121 329t129 339q129 144 331 145q138 0 224 -82t92 -219h-594zM258 664l393 16q-16 82 -62 141t-124 59
q-77 0 -133 -64t-74 -152z" />
    <glyph glyph-name="ecircumflex" unicode="&#xea;" horiz-adv-x="942" 
d="M266 1018l-33 14l230 479h18l228 -479l-29 -14l-211 299zM252 625l-8 -103q-12 -166 90 -289t258 -123t254 130l31 -23q-61 -104 -161 -171t-216 -66q-186 0 -309 133q-121 133 -121 329t129 339q129 144 331 145q138 0 224 -82t92 -219h-594zM258 664l393 16
q-16 82 -62 141t-124 59q-77 0 -133 -64t-74 -152z" />
    <glyph glyph-name="edieresis" unicode="&#xeb;" horiz-adv-x="942" 
d="M178 1178q0 40 29 68t69 28t68 -28q29 -28 29 -69q0 -40 -29 -69t-69 -29q-41 0 -69 29t-28 70zM764 1178q0 -39 -30 -69t-68 -30t-68 29q-29 29 -29 69q0 41 29 69t69 28q41 0 69 -28t28 -68zM252 625l-8 -103q-12 -166 90 -289t258 -123t254 130l31 -23
q-61 -104 -161 -171t-216 -66q-186 0 -309 133q-121 133 -121 329t129 339q129 144 331 145q138 0 224 -82t92 -219h-594zM258 664l393 16q-16 82 -62 141t-124 59q-77 0 -133 -64t-74 -152z" />
    <glyph glyph-name="igrave" unicode="&#xec;" horiz-adv-x="532" 
d="M113 1466l305 -424l-29 -24l-373 348zM496 0h-478v31q111 16 135 50t25 157v391q0 51 -4 73q-9 50 -121 113v21l260 90l23 -8v-680q0 -127 24 -159t136 -48v-31z" />
    <glyph glyph-name="iacute" unicode="&#xed;" horiz-adv-x="532" 
d="M420 1466l96 -100l-373 -348l-28 24zM496 0h-478v31q111 16 135 50t25 157v391q0 51 -4 73q-9 50 -121 113v21l260 90l23 -8v-680q0 -127 24 -159t136 -48v-31z" />
    <glyph glyph-name="icircumflex" unicode="&#xee;" horiz-adv-x="532" 
d="M20 1018l-32 14l229 479h19l227 -479l-29 -14l-211 299zM496 0h-478v31q111 16 135 50t25 157v391q0 51 -4 73q-9 50 -121 113v21l260 90l23 -8v-680q0 -127 24 -159t136 -48v-31z" />
    <glyph glyph-name="idieresis" unicode="&#xef;" horiz-adv-x="532" 
d="M-27 1178q0 40 29 68t69 28q41 0 69 -28t28 -69q0 -40 -29 -69t-69 -29t-68 29q-29 29 -29 70zM559 1178q0 -39 -30 -69q-31 -30 -69 -30t-67 29t-29 69q0 41 30 69q28 28 68 28t68 -28t29 -68zM496 0h-478v31q111 16 135 50t25 157v391q0 51 -4 73q-9 50 -121 113v21
l260 90l23 -8v-680q0 -127 24 -159t136 -48v-31z" />
    <glyph glyph-name="eth" unicode="&#xf0;" 
d="M1077 481q0 -221 -147 -361q-146 -140 -360 -140t-357 128t-143 338t146 345t353 135q72 0 120 -12t138 -50q-57 178 -170 312l-268 -107l-49 64l260 104q-129 129 -299 215l61 18q184 -70 334 -196l254 100l56 -61l-244 -96q315 -301 315 -736zM756 92q131 124 131 351
q0 228 -136 364q-75 74 -179 74t-179 -67q-133 -120 -133 -351q0 -162 87 -300t241 -138q96 0 168 67z" />
    <glyph glyph-name="ntilde" unicode="&#xf1;" 
d="M633 1071q-49 1 -168 57t-166 56t-129 -47l-18 28q162 113 224 113t173 -55q123 -55 164 -56q82 0 176 95l22 -23q-154 -168 -278 -168zM188 629q0 71 -14 103t-86 83v21l244 90l22 -8l-16 -150q104 78 187 118t163 40q203 0 248 -158q20 -70 20 -166v-364
q0 -127 24 -159t136 -48v-31h-477v31q111 16 135 50t25 157v235q0 67 -1 95t-14 86q-12 58 -35 87q-24 29 -73 54t-121 24q-113 0 -209 -88v-493q0 -127 24 -159t136 -48v-31h-477v31q111 16 134 50t25 157v391z" />
    <glyph glyph-name="ograve" unicode="&#xf2;" 
d="M420 1466l305 -424l-29 -24l-372 348zM756 92q131 124 131 351q0 228 -136 364q-75 74 -179 74t-179 -67q-133 -120 -133 -351q0 -162 87 -300t241 -138q96 0 168 67zM577 926q213 0 357 -129t143 -337q0 -208 -148 -344q-149 -136 -361 -136t-355 128t-143 339t147 345
t360 134z" />
    <glyph glyph-name="oacute" unicode="&#xf3;" 
d="M727 1466l96 -100l-372 -348l-29 24zM756 92q131 124 131 351q0 228 -136 364q-75 74 -179 74t-179 -67q-133 -120 -133 -351q0 -162 87 -300t241 -138q96 0 168 67zM577 926q213 0 357 -129t143 -337q0 -208 -148 -344q-149 -136 -361 -136t-355 128t-143 339t147 345
t360 134z" />
    <glyph glyph-name="ocircumflex" unicode="&#xf4;" 
d="M369 1018l-33 14l229 479h19l227 -479l-29 -14l-211 299zM756 92q131 124 131 351q0 228 -136 364q-75 74 -179 74t-179 -67q-133 -120 -133 -351q0 -162 87 -300t241 -138q96 0 168 67zM577 926q213 0 357 -129t143 -337q0 -208 -148 -344q-149 -136 -361 -136t-355 128
t-143 339t147 345t360 134z" />
    <glyph glyph-name="otilde" unicode="&#xf5;" 
d="M674 1071q-49 1 -168 57t-166 56t-129 -47l-18 28q162 113 224 113t173 -55q123 -55 164 -56q82 0 176 95l22 -23q-154 -168 -278 -168zM756 92q131 124 131 351q0 228 -136 364q-75 74 -179 74t-179 -67q-133 -120 -133 -351q0 -162 87 -300t241 -138q96 0 168 67z
M577 926q213 0 357 -129t143 -337q0 -208 -148 -344q-149 -136 -361 -136t-355 128t-143 339t147 345t360 134z" />
    <glyph glyph-name="odieresis" unicode="&#xf6;" 
d="M378 1274q40 0 68 -28t29 -69q0 -40 -29 -69q-28 -29 -68 -29t-69 29t-28 70q1 40 29 68t68 28zM866 1178q0 -39 -30 -69t-68 -30q-39 0 -68 29q-28 29 -28 69q0 41 28 69t69 28t69 -28t28 -68zM756 92q131 124 131 351q0 228 -136 364q-75 74 -179 74t-179 -67
q-133 -120 -133 -351q0 -162 87 -300t241 -138q96 0 168 67zM577 926q213 0 357 -129t143 -337q0 -208 -148 -344q-149 -136 -361 -136t-355 128t-143 339t147 345t360 134z" />
    <glyph glyph-name="divide" unicode="&#xf7;" 
d="M686 90q0 -46 -33 -78t-79 -32t-78 32t-33 79q0 46 33 79q34 33 78 33t78 -34t34 -79zM574 702q-46 0 -78 32t-33 79q0 47 33 80q34 33 78 33t78 -33t34 -79t-33 -79t-79 -33zM121 508h905v-111h-905v111z" />
    <glyph glyph-name="oslash" unicode="&#xf8;" 
d="M260 488q0 -182 84 -320l432 610q-82 102 -202 102t-217 -104q-97 -106 -97 -288zM578 25q150 0 230 125q80 124 79 282q0 158 -74 297l-434 -606q88 -98 199 -98zM1077 461q1 -215 -149 -348t-367 -133q-127 0 -242 55l-120 -166l-49 35l116 162q-197 137 -196 366
q0 127 48 225q48 99 126 155q158 114 319 114q160 0 275 -60l106 148l47 -33l-100 -145q88 -66 137 -166t49 -209z" />
    <glyph glyph-name="ugrave" unicode="&#xf9;" 
d="M420 1466l305 -424l-29 -24l-372 348zM180 276v444q0 54 -6 62t-12 24t-18 19t-29 13q-18 10 -86 10v31l309 26v-506q0 -1 -1 -31t0 -43t3 -47t19 -76q16 -43 32 -58q46 -43 85 -53q38 -9 77 -9q125 0 225 90v440q0 111 -11 152t-31 53q-53 31 -146 31v31l358 26
l-12 -678l-2 -63q0 -72 46 -84q17 -4 38 -4l94 8l8 -31l-348 -84l6 160q-207 -150 -370 -149q-66 0 -112 24t-69 54q-47 58 -47 218z" />
    <glyph glyph-name="uacute" unicode="&#xfa;" 
d="M686 1466l96 -100l-372 -348l-29 24zM180 276v444q0 54 -6 62t-12 24t-18 19t-29 13q-18 10 -86 10v31l309 26v-506q0 -1 -1 -31t0 -43t3 -47t19 -76q16 -43 32 -58q46 -43 85 -53q38 -9 77 -9q125 0 225 90v440q0 111 -11 152t-31 53q-53 31 -146 31v31l358 26l-12 -678
l-2 -63q0 -72 46 -84q17 -4 38 -4l94 8l8 -31l-348 -84l6 160q-207 -150 -370 -149q-66 0 -112 24t-69 54q-47 58 -47 218z" />
    <glyph glyph-name="ucircumflex" unicode="&#xfb;" 
d="M369 1018l-33 14l229 479h19l227 -479l-29 -14l-211 299zM180 276v444q0 54 -6 62t-12 24t-18 19t-29 13q-18 10 -86 10v31l309 26v-506q0 -1 -1 -31t0 -43t3 -47t19 -76q16 -43 32 -58q46 -43 85 -53q38 -9 77 -9q125 0 225 90v440q0 111 -11 152t-31 53q-53 31 -146 31
v31l358 26l-12 -678l-2 -63q0 -72 46 -84q17 -4 38 -4l94 8l8 -31l-348 -84l6 160q-207 -150 -370 -149q-66 0 -112 24t-69 54q-47 58 -47 218z" />
    <glyph glyph-name="udieresis" unicode="&#xfc;" 
d="M378 1274q40 0 68 -28t29 -69q0 -40 -29 -69q-28 -29 -68 -29t-69 29t-28 70q1 40 29 68t68 28zM866 1178q0 -39 -30 -69t-68 -30q-39 0 -68 29q-28 29 -28 69q0 41 28 69t69 28t69 -28t28 -68zM180 276v444q0 54 -6 62t-12 24t-18 19t-29 13q-18 10 -86 10v31l309 26
v-506q0 -1 -1 -31t0 -43t3 -47t19 -76q16 -43 32 -58q46 -43 85 -53q38 -9 77 -9q125 0 225 90v440q0 111 -11 152t-31 53q-53 31 -146 31v31l358 26l-12 -678l-2 -63q0 -72 46 -84q17 -4 38 -4l94 8l8 -31l-348 -84l6 160q-207 -150 -370 -149q-66 0 -112 24t-69 54
q-47 58 -47 218z" />
    <glyph glyph-name="yacute" unicode="&#xfd;" horiz-adv-x="942" 
d="M625 1466l96 -100l-373 -348l-29 24zM-29 905h424v-31q-80 -4 -105 -45q-22 -34 32 -161l200 -521l127 369q39 115 54 168t15 100q-1 46 -28 64t-84 26v31h359v-31q-63 -8 -95 -34q-31 -27 -63 -90l-86 -199l-315 -793q-58 -143 -104 -198q-46 -56 -97 -56t-81 30t-30 73
q0 74 66 96q96 -57 108 -57q36 0 85 115q9 22 12 26l67 158l-313 800q-29 74 -51 96q-23 22 -97 33v31z" />
    <glyph glyph-name="thorn" unicode="&#xfe;" horiz-adv-x="1105" 
d="M307 344q0 -162 61 -232q61 -69 174 -69t181 62q123 112 123 323q0 108 -38 190q-61 132 -209 186q-54 19 -99 19q-105 0 -193 -59v-420zM307 -258q0 -129 32 -160t191 -47v-31h-530v31q102 16 125 50t25 157v1345q0 72 -14 104t-87 83v20l244 99l22 -9l-8 -124v-459
q180 125 338 125q159 0 267 -128t108 -300q0 -205 -167 -367t-409 -151l-137 6v-244z" />
    <glyph glyph-name="ydieresis" unicode="&#xff;" horiz-adv-x="942" 
d="M178 1178q0 40 29 68t69 28t68 -28q29 -28 29 -69q0 -40 -29 -69t-69 -29q-41 0 -69 29t-28 70zM764 1178q0 -39 -30 -69t-68 -30t-68 29q-29 29 -29 69q0 41 29 69t69 28q41 0 69 -28t28 -68zM-29 905h424v-31q-80 -4 -105 -45q-22 -34 32 -161l200 -521l127 369
q39 115 54 168t15 100q-1 46 -28 64t-84 26v31h359v-31q-63 -8 -95 -34q-31 -27 -63 -90l-86 -199l-315 -793q-58 -143 -104 -198q-46 -56 -97 -56t-81 30t-30 73q0 74 66 96q96 -57 108 -57q36 0 85 115q9 22 12 26l67 158l-313 800q-29 74 -51 96q-23 22 -97 33v31z" />
    <glyph glyph-name="dotlessi" unicode="&#x131;" horiz-adv-x="532" 
d="M496 0h-478v31q111 16 135 50t25 157v391q0 51 -4 73q-9 50 -121 113v21l260 90l23 -8v-680q0 -127 24 -159t136 -48v-31z" />
    <glyph glyph-name="Lslash" unicode="&#x141;" horiz-adv-x="1310" 
d="M61 0v31q130 17 167 42t51 41q30 36 36 222v276l-229 -151l-41 65l270 166v365q-6 186 -42 228q-36 41 -93 54q-57 14 -119 23v31h689v-31q-92 -12 -144 -30t-76 -58q-26 -41 -30 -83t-4 -134v-264l362 243l47 -69l-409 -256v-326q0 -211 30 -309l250 -19q213 -16 298 46
t212 274q2 4 4 6t3 5t3 5l27 -12l-117 -381h-1145z" />
    <glyph glyph-name="lslash" unicode="&#x142;" horiz-adv-x="573" 
d="M522 0h-477v31q111 16 135 50t25 157v462l-158 -102l-31 47l189 123v406q-1 72 -15 104t-86 82v20l236 90l22 -8v-606l181 125l37 -51l-218 -142v-550q0 -127 24 -159t136 -48v-31z" />
    <glyph glyph-name="OE" unicode="&#x152;" horiz-adv-x="2088" 
d="M344 692q0 -166 50 -296t132 -202q163 -145 361 -145q96 0 145 62q39 49 39 211v1015l-131 6q-292 2 -444 -177t-152 -474zM1251 674v-342q0 -174 47 -228t233 -55q185 0 273 82t144 281h30l-77 -412l-986 -8q-329 -4 -567 190t-237 516q0 225 116 389q117 164 300 240
t405 74l952 -8l-31 -330h-30q0 127 -68 204q-68 78 -199 76h-305v-583h152q123 0 180 22t82 62t33 104h31v-456h-31q-11 95 -61 137q-50 41 -145 44q-30 1 -89 1h-152z" />
    <glyph glyph-name="oe" unicode="&#x153;" horiz-adv-x="1720" 
d="M1270 -20q-108 0 -180 40t-140 132q-72 -82 -177 -127t-218 -45q-203 0 -344 130t-141 334t145 343t373 139t362 -174q139 174 344 174q144 0 234 -79t98 -222h-600l-4 -103q-4 -174 86 -292t246 -118t272 126l25 -27q-158 -231 -381 -231zM574 25q148 -1 218 125t70 258
t-26 228t-100 170q-72 75 -180 75t-178 -67t-94 -155t-24 -194q0 -178 83 -309t231 -131zM1036 664l396 16q-8 78 -58 138t-131 60t-137 -64t-70 -150z" />
    <glyph glyph-name="Scaron" unicode="&#x160;" horiz-adv-x="1064" 
d="M739 1978l31 -16l-229 -477h-19l-227 477l29 16l211 -299zM561 1358q-100 0 -170 -64q-69 -64 -69 -160q0 -97 66 -173q66 -75 161 -129q94 -54 189 -110t162 -143t67 -207t-77 -214t-188 -138t-233 -45q-199 0 -360 105l-60 348h37q44 -164 150 -278t264 -113
q118 1 194 67t76 174q0 189 -221 312q-92 51 -184 103t-157 137t-65 198q1 172 141 282t305 110t310 -81l-16 -307h-33q-31 154 -91 240t-198 86z" />
    <glyph glyph-name="scaron" unicode="&#x161;" horiz-adv-x="737" 
d="M575 1511l31 -16l-229 -477h-19l-227 477l29 16l211 -299zM380 877q-58 0 -95 -40q-37 -41 -37 -101t44 -106t105 -79t123 -68t108 -90q44 -55 44 -129q0 -129 -104 -207q-104 -77 -241 -77q-138 0 -245 75l-16 228l47 8q25 -111 84 -185t159 -73q70 0 114 46
q44 47 44 113t-44 112t-105 77t-123 63t-108 92q-44 58 -44 138q0 116 89 184t212 68t221 -68l6 -182l-45 -8q-18 59 -36 98q-19 39 -59 75t-98 36z" />
    <glyph glyph-name="Ydieresis" unicode="&#x178;" horiz-adv-x="1228" 
d="M557 1623q0 -40 -29 -69q-28 -28 -68 -28t-69 28t-29 70q0 41 29 69q29 27 69 27t68 -28t29 -69zM948 1624q0 -39 -30 -69q-30 -29 -68 -29q-39 0 -68 28q-28 28 -28 69q0 40 28 69q29 28 69 28t69 -28q28 -29 28 -68zM758 1393h526v-31q-125 -10 -203 -74t-149 -186
l-242 -479v-232q3 -150 19 -207t45 -79q71 -54 207 -74v-31h-721v31q138 21 206 74q47 35 59 160q3 40 5 126v164l-213 465q-78 174 -123 227q-80 98 -217 115v31h565v-31q-61 -8 -93 -24q-54 -28 -26 -114q10 -32 39 -96l205 -442l178 338q66 122 79 190t-21 102
q-35 34 -125 46v31z" />
    <glyph glyph-name="Zcaron" unicode="&#x17d;" horiz-adv-x="1433" 
d="M924 1978l30 -16l-229 -477h-18l-228 477l29 16l211 -299zM557 61q379 0 528 62q115 47 175 149q59 102 92 250l30 -6q-27 -295 -118 -516h-1180l-8 14l135 185l780 1132h-192q-348 0 -445 -43q-133 -61 -182 -299h-33l33 404h1088l10 -15l-908 -1317h195z" />
    <glyph glyph-name="zcaron" unicode="&#x17e;" horiz-adv-x="983" 
d="M698 1511l31 -16l-229 -477h-19l-227 477l29 16l211 -299zM446 53q271 0 342 69t107 220l35 -6l-80 -336h-768l-10 16q307 418 590 836h-106q-250 0 -284 -21q-71 -42 -90 -102q-10 -33 -20 -90l-37 6l22 260h740l8 -14q-399 -543 -590 -838h141z" />
    <glyph glyph-name="florin" unicode="&#x192;" 
d="M870 854v-61h-297l-38 -185q-5 -24 -19 -94t-36 -181t-70 -232q-48 -122 -76 -167q-76 -124 -159 -181q-83 -58 -172 -58t-132 42t-34 98t75 93q111 -139 190 -139q104 0 183 379l127 625h-215v61h229q4 14 14 58q53 234 116 361q62 129 184 199t192 70t112 -40
q43 -40 43 -94t-61 -105q-35 55 -96 99t-108 44t-66 -28q-60 -91 -99 -260t-69 -304h282z" />
    <glyph glyph-name="circumflex" unicode="&#x2c6;" horiz-adv-x="737" 
d="M164 1018l-33 14l229 479h19l227 -479l-28 -14l-211 299z" />
    <glyph glyph-name="caron" unicode="&#x2c7;" horiz-adv-x="737" 
d="M575 1511l31 -16l-229 -477h-19l-227 477l29 16l211 -299z" />
    <glyph glyph-name="uni02C9" unicode="&#x2c9;" horiz-adv-x="901" 
d="M764 1163h-627v111h627v-111z" />
    <glyph glyph-name="breve" unicode="&#x2d8;" horiz-adv-x="778" 
d="M388 1053q-116 0 -179 100t-64 223l35 4q16 -88 70 -147t139 -59t139 59t70 147l35 -4q0 -123 -65 -223q-64 -100 -180 -100z" />
    <glyph glyph-name="dotaccent" unicode="&#x2d9;" horiz-adv-x="491" 
d="M246 1274q40 0 68 -28t28 -69q0 -40 -29 -69t-69 -29t-68 29q-29 29 -29 70q0 40 29 68t70 28z" />
    <glyph glyph-name="ring" unicode="&#x2da;" horiz-adv-x="655" 
d="M442 1191q0 50 -32 90q-33 40 -83 40t-83 -40t-33 -90t33 -90t83 -40t83 40q32 40 32 90zM508 1192q0 -76 -53 -129t-128 -53t-128 53t-53 128t52 128q54 53 129 53t128 -52t53 -128z" />
    <glyph glyph-name="ogonek" unicode="&#x2db;" horiz-adv-x="655" 
d="M428 0v-4q-58 -12 -112 -64t-54 -106q0 -53 34 -86t88 -33t116 57l22 -24q-92 -111 -209 -111q-70 0 -126 39t-56 110t58 131q59 60 139 91h100z" />
    <glyph glyph-name="tilde" unicode="&#x2dc;" horiz-adv-x="1024" 
d="M612 1071q-50 1 -168 57t-165 56t-129 -47l-19 28q163 113 225 113t172 -55q123 -55 164 -56q82 0 176 95l23 -23q-154 -168 -279 -168z" />
    <glyph glyph-name="hungarumlaut" unicode="&#x2dd;" horiz-adv-x="1064" 
d="M870 1466l97 -100l-373 -348l-29 24zM498 1466l96 -100l-373 -348l-28 24z" />
    <glyph glyph-name="uni03A9" unicode="&#x3a9;" horiz-adv-x="1501" 
d="M281 145h213q-247 206 -314 411q-33 101 -33 214q0 289 172 464q171 175 435 175t430 -168t166 -455q0 -205 -121 -375q-97 -136 -234 -266h226q65 0 93 27t60 127l56 -2l-52 -297h-489l-15 39q8 16 59 107q154 281 187 452q16 84 17 168q-2 299 -113 439
q-110 141 -280 141t-276 -142t-106 -448q0 -123 44 -261t111 -270q68 -132 104 -184l-17 -41h-487l-47 297l51 2q33 -96 63 -125t97 -29z" />
    <glyph glyph-name="uni03BC" unicode="&#x3bc;" 
d="M242 90v-237q0 -25 26 -105t27 -120q0 -40 -24 -82q-25 -42 -61 -42t-60 42t-23 82q0 40 27 120t26 105v867q0 54 -6 62t-12 24t-18 19t-29 13q-18 10 -86 10v31l309 26v-506q0 -1 -1 -31t0 -43t3 -47t19 -76q16 -43 32 -58q46 -43 85 -53q38 -9 77 -9q125 0 225 90v440
q0 111 -11 152t-31 53q-53 31 -146 31v31l358 26l-12 -678l-2 -63q0 -72 46 -84q17 -4 38 -4l94 8l8 -31l-348 -84l6 160q-207 -149 -348 -149t-184 110h-4z" />
    <glyph glyph-name="pi" unicode="&#x3c0;" horiz-adv-x="1163" 
d="M1100 113q-77 -138 -228 -138q-75 1 -123 59q-49 58 -49 228t21 486q-238 4 -315 4v-35q0 -211 -37 -425t-97 -282q-61 -27 -122 -35l-15 37q102 125 147 337q44 212 44 407q-90 0 -142 -22t-121 -70l-30 47l18 22q47 60 63 72q57 44 71 50q15 7 39 18q57 26 159 26
l549 -8q49 0 74 13q24 14 49 57l51 -19q-27 -127 -74 -188q-41 -10 -139 -11q-8 -100 -8 -462q0 -182 88 -183q47 0 100 58z" />
    <glyph glyph-name="uni2010" unicode="&#x2010;" horiz-adv-x="737" 
d="M139 463v98h447v-98h-447z" />
    <glyph glyph-name="endash" unicode="&#x2013;" horiz-adv-x="1024" 
d="M0 463v98h1024v-98h-1024z" />
    <glyph glyph-name="emdash" unicode="&#x2014;" horiz-adv-x="2048" 
d="M0 463v98h2048v-98h-2048z" />
    <glyph glyph-name="quoteleft" unicode="&#x2018;" horiz-adv-x="614" 
d="M260 1128q0 -64 46 -94t92 -24t57 24q31 -27 37 -77t-28 -94t-119 -44t-145 71q-60 70 -60 178t82 201q83 93 204 148l20 -31q-61 -44 -90 -68q-28 -24 -62 -75t-34 -115z" />
    <glyph glyph-name="quoteright" unicode="&#x2019;" horiz-adv-x="614" 
d="M371 1108q0 64 -46 94q-47 30 -93 25q-46 -6 -56 -25q-31 27 -37 77t28 94q35 44 119 44t145 -70q61 -71 61 -179t-83 -200q-83 -94 -204 -149l-21 31q61 45 90 69q29 25 63 75t34 114z" />
    <glyph glyph-name="quotesinglbase" unicode="&#x201a;" horiz-adv-x="614" 
d="M371 -110q0 64 -46 94q-47 30 -93 24t-56 -24q-31 26 -37 76t28 94q35 44 119 45q84 0 144 -71q60 -70 62 -178q0 -108 -83 -201t-204 -148l-21 30q61 45 90 69t63 75t34 115z" />
    <glyph glyph-name="quotedblleft" unicode="&#x201c;" horiz-adv-x="1064" 
d="M264 1128q0 -64 46 -94t92 -24t57 24q31 -27 37 -77t-28 -94t-119 -44t-145 71q-60 70 -60 178t82 201q83 93 204 148l21 -31q-61 -45 -91 -68q-28 -24 -62 -75t-34 -115zM792 819q-84 0 -146 71q-60 70 -60 178t82 201t204 148l21 -31q-61 -44 -90 -68t-63 -75t-34 -115
t47 -94q46 -30 92 -24t56 24q31 -27 37 -77t-28 -94t-118 -44z" />
    <glyph glyph-name="quotedblright" unicode="&#x201d;" horiz-adv-x="1064" 
d="M817 1108q0 64 -46 94t-92 25q-46 -6 -56 -25q-31 27 -37 77t27 94q34 44 119 44t146 -70q60 -71 60 -179t-83 -200q-83 -94 -204 -149l-20 31q61 45 90 69q29 25 63 75t33 114zM371 1108q0 64 -46 94q-47 30 -93 25q-46 -6 -56 -25q-31 27 -37 77t28 94q35 44 119 44
t145 -70q61 -71 61 -179t-83 -200q-83 -94 -204 -149l-21 31q61 45 90 69q29 25 63 75t34 114z" />
    <glyph glyph-name="quotedblbase" unicode="&#x201e;" horiz-adv-x="1064" 
d="M817 -110q0 64 -46 94t-92 24t-56 -24q-31 26 -37 76t27 95q34 44 119 44q86 0 146 -71q60 -70 60 -178t-83 -201t-204 -148l-20 30q61 45 90 69t62 75q34 51 34 115zM371 -110q0 64 -46 94q-47 30 -93 24t-56 -24q-31 26 -37 76t28 94q35 44 119 45q84 0 144 -71
q60 -70 62 -178q0 -108 -83 -201t-204 -148l-21 30q61 45 90 69t63 75t34 115z" />
    <glyph glyph-name="dagger" unicode="&#x2020;" horiz-adv-x="1105" 
d="M446 1393h211l-34 -400l344 27v-193l-344 29l34 -1307h-211l37 1307l-346 -29v193l346 -27z" />
    <glyph glyph-name="daggerdbl" unicode="&#x2021;" horiz-adv-x="1105" 
d="M483 864l-346 -28v192l346 -27l-37 392h211l-34 -392l344 27v-192l-344 28v-784l344 29v-193l-344 27l34 -394h-208l34 394l-346 -27v193l346 -29v784z" />
    <glyph glyph-name="bullet" unicode="&#x2022;" horiz-adv-x="1228" 
d="M266 698q0 148 100 248t248 100t248 -100t100 -248t-100 -248t-248 -100t-248 100t-100 248z" />
    <glyph glyph-name="ellipsis" unicode="&#x2026;" horiz-adv-x="2048" 
d="M1705 -25q-46 0 -79 33t-33 79t33 79t78 33t79 -34t34 -79t-33 -78t-79 -33zM1022 -25q-47 0 -79 33t-32 79t33 79t79 33t79 -34t33 -79t-33 -78t-80 -33zM341 -25q-46 0 -79 33t-33 79t33 79t78 33t79 -34t34 -79t-33 -78t-79 -33z" />
    <glyph glyph-name="perthousand" unicode="&#x2030;" horiz-adv-x="1966" 
d="M1096 1393l-785 -1393h-98l784 1393h99zM324 1376q-41 0 -69 -36t-40 -92t-16 -100t-4 -83t4 -83q21 -235 125 -232q118 0 127 315q-1 83 -17 160q-32 151 -110 151zM63 1064q0 140 65 246t196 107t194 -107q64 -108 64 -246t-65 -247t-195 -109t-194 108
q-65 108 -65 248zM1631 647q-40 0 -74 -45t-50 -183q-4 -44 -4 -83q0 -196 61 -279q28 -37 68 -37t67 37q28 37 40 95t16 102q4 45 4 82t-4 81t-16 100t-40 93t-68 37zM1890 335q0 -138 -64 -247q-64 -108 -195 -108t-195 108t-64 247q0 141 64 247t196 106q131 0 195 -107
q63 -108 63 -246zM984 647q-40 0 -74 -44t-50 -184q-4 -44 -4 -83q0 -195 60 -279q28 -37 68 -37t68 37t40 95t16 102q4 45 4 82t-4 81t-16 100t-40 93t-68 37zM1243 335q-1 -138 -65 -247q-64 -108 -194 -108t-194 108t-65 247q1 141 65 247t195 106t195 -107
q63 -108 63 -246z" />
    <glyph glyph-name="guilsinglleft" unicode="&#x2039;" horiz-adv-x="655" 
d="M528 860q0 -36 -87 -152t-156 -198q47 -49 149 -183q102 -135 102 -157t-16 -23q-13 1 -25 15t-21 23t-11 12l-344 313l340 317q49 49 59 49t10 -16z" />
    <glyph glyph-name="guilsinglright" unicode="&#x203a;" horiz-adv-x="655" 
d="M127 850q0 22 16 22q17 0 27 -14q11 -14 31 -35l344 -313l-340 -317q-49 -49 -59 -49t-10 25q0 27 86 143q87 116 157 198q-47 49 -150 183q-102 135 -102 157z" />
    <glyph glyph-name="fraction" unicode="&#x2044;" horiz-adv-x="163" 
d="M518 1393l-782 -1393h-98l782 1393h98z" />
    <glyph glyph-name="Euro" unicode="&#x20ac;" 
d="M788 575h-413q23 -247 124 -397t249 -149q118 0 196 89t133 263l31 -12q-31 -143 -74 -306q-137 -88 -313 -88q-221 0 -378 156t-183 444h-148v62h144v47q0 78 8 141h-152v62h162q43 233 184 381t375 149q195 0 336 -110v-295h-31q-27 172 -107 262q-81 90 -200 90
q-154 0 -241 -130t-111 -347h409v-62h-415q-4 -77 -4 -121t2 -67h417v-62z" />
    <glyph glyph-name="afii61289" unicode="&#x2113;" horiz-adv-x="847" 
d="M365 971v-252q190 225 190 493q0 211 -92 211q-55 0 -77 -99t-21 -353zM467 -20q-141 0 -209 79q-72 88 -72 295v158l-123 -88l-24 51l147 115v262q0 246 21 352q20 106 86 182q80 100 177 100t147 -77q51 -78 51 -218q1 -267 -303 -566v-183q0 -192 44 -268t138 -76
q125 0 225 150l39 -37q-123 -231 -344 -231z" />
    <glyph glyph-name="trademark" unicode="&#x2122;" horiz-adv-x="1720" 
d="M879 1327q0 27 -41 27h-29v39h205l217 -519l207 519h223v-39q-78 0 -78 -33v-508q0 -53 15 -67t73 -17v-39h-291v39q57 2 73 16q15 14 15 68v502h-14l-246 -625h-16l-250 625h-14v-531q0 -39 48 -50q17 -3 52 -5v-39h-250v39q64 4 82 18q18 15 19 37v543zM88 1223v170
h598v-170h-45q0 79 -30 101t-111 22h-56v-562q0 -23 17 -37t84 -18v-39h-316v39q65 4 83 18q17 15 18 37v562h-41q-83 0 -111 -14q-29 -14 -37 -39q-8 -26 -8 -70h-45z" />
    <glyph glyph-name="Omega" unicode="&#x2126;" horiz-adv-x="1501" 
d="M281 145h213q-247 206 -314 411q-33 101 -33 214q0 289 172 464q171 175 435 175t430 -168t166 -455q0 -205 -121 -375q-97 -136 -234 -266h226q65 0 93 27t60 127l56 -2l-52 -297h-489l-15 39q8 16 59 107q154 281 187 452q16 84 17 168q-2 299 -113 439
q-110 141 -280 141t-276 -142t-106 -448q0 -123 44 -261t111 -270q68 -132 104 -184l-17 -41h-487l-47 297l51 2q33 -96 63 -125t97 -29z" />
    <glyph glyph-name="estimated" unicode="&#x212e;" horiz-adv-x="1736" 
d="M1372 727v393q0 29 -18 47q-209 205 -488 205t-485 -211q-20 -20 -21 -49v-385q0 -14 11 -14h993q8 0 8 14zM1667 676h-1296q-10 0 -11 -10v-392q0 -25 19 -45q207 -213 501 -213t502 240h117q-111 -129 -277 -204t-356 -75q-332 0 -565 210t-233 508t233 508t565 210
t566 -211t235 -508v-18z" />
    <glyph glyph-name="partialdiff" unicode="&#x2202;" horiz-adv-x="1091" 
d="M586 791h-2q-133 0 -219 -117q-90 -141 -91 -379q-2 -109 50 -181t141 -71q137 0 231 211q68 145 103 391q-23 51 -82 99t-131 47zM539 874h2q77 0 151 -36t123 -105q14 158 16 215q8 180 -53 320q-33 76 -104 131q-72 55 -158 55q-139 0 -285 -121q-27 -2 -53 49t-12 86
q139 84 291 84q272 0 428 -286q102 -194 102 -482t-98 -495q-145 -309 -424 -309q-170 0 -274 109q-103 111 -103 303t121 331q59 67 147 109t183 42z" />
    <glyph glyph-name="uni2206" unicode="&#x2206;" horiz-adv-x="1304" 
d="M999 98l-411 1043l-404 -1043h815zM1231 0h-1159v53l528 1333l86 23l545 -1356v-53z" />
    <glyph glyph-name="product" unicode="&#x220f;" horiz-adv-x="1411" 
d="M1354 1397v-56q-129 -9 -158 -33t-29 -114v-1145q0 -104 29 -131t154 -37v-53h-537v53q119 10 143 34t25 132v1213q0 43 -13 54t-61 11h-409q-44 0 -56 -10t-12 -49v-1219q0 -104 22 -130t132 -36v-53h-525v53q125 10 154 37t29 129v1147q0 92 -29 116t-160 31v56h1301z
" />
    <glyph glyph-name="summation" unicode="&#x2211;" horiz-adv-x="1136" 
d="M57 -180v51l457 688l-446 784v54h931q2 -51 25 -334l-57 -10q-27 139 -68 209q-23 39 -63 53t-152 14h-383l375 -647l-457 -700h524q137 0 182 35q44 36 107 206l58 -14l-91 -389h-942z" />
    <glyph glyph-name="minus" unicode="&#x2212;" 
d="M1026 397h-907v111h907v-111z" />
    <glyph glyph-name="uni2215" unicode="&#x2215;" horiz-adv-x="163" 
d="M518 1393l-782 -1393h-98l782 1393h98z" />
    <glyph glyph-name="uni2219" unicode="&#x2219;" horiz-adv-x="573" 
d="M288 340q-46 0 -79 33t-33 79t33 78t78 33q45 0 79 -34q34 -35 34 -79t-34 -77q-32 -33 -78 -33z" />
    <glyph glyph-name="radical" unicode="&#x221a;" horiz-adv-x="1126" 
d="M1094 1780l-342 -2081l-45 -23l-443 1106l-176 -86l-25 70l326 152l338 -877h4l281 1759z" />
    <glyph glyph-name="infinity" unicode="&#x221e;" horiz-adv-x="1533" 
d="M1126 780h-2q-76 0 -138 -53t-104 -103q-42 -49 -46 -53q102 -119 163 -165t139 -46t128 64q51 64 51 151q0 88 -52 147q-53 58 -139 58zM414 360h2q55 0 114 38t86 66t89 97q-59 78 -89 111q-30 32 -88 70q-60 38 -134 38t-126 -61t-53 -151q1 -90 57 -148
q56 -60 142 -60zM1436 575v-2q0 -145 -92 -235t-218 -90q-90 0 -174 53t-184 176q-92 -111 -176 -170t-200 -59t-206 91t-90 229t90 230t228 93q102 0 187 -58t175 -169q82 92 141 142q58 50 110 67t112 18q129 1 213 -87t84 -229z" />
    <glyph glyph-name="integral" unicode="&#x222b;" horiz-adv-x="768" 
d="M604 1696q45 0 85 -26t41 -70t-27 -68q-27 -24 -65 -25q-38 1 -63 51t-45 50q-98 0 -79 -334l36 -770q43 -907 -321 -907q-53 -1 -89 29t-38 71t32 70q35 29 71 29t61 -54q25 -53 45 -53q45 0 66 91q22 91 14 243l-41 823q-39 850 317 850z" />
    <glyph glyph-name="approxequal" unicode="&#x2248;" horiz-adv-x="1103" 
d="M754 262q-88 0 -214 73t-188 73q-61 0 -104 -38t-90 -108l-78 68q45 88 121 141t162 53t183 -55q28 -16 32 -18q4 -1 24 -15t26 -16t24 -12q17 -10 40 -20q23 -9 71 -9q48 1 89 35t88 110l78 -69q-104 -193 -264 -193zM754 610q-86 0 -212 74t-189 74q-62 0 -105 -37
t-90 -109l-78 70q45 88 120 140q76 52 158 52t147 -35q13 -7 40 -23t33 -18q6 -4 28 -16t27 -15q6 -3 23 -12q18 -9 26 -11t24 -9q16 -6 60 -6q86 0 174 145l78 -69q-106 -195 -264 -195z" />
    <glyph glyph-name="notequal" unicode="&#x2260;" horiz-adv-x="1103" 
d="M1004 821v-119h-338l-125 -278h463v-119h-512l-103 -227l-94 41l84 186h-281v119h330l123 278h-453v119h500l102 226l97 -41l-84 -185h291z" />
    <glyph glyph-name="lessequal" unicode="&#x2264;" horiz-adv-x="1103" 
d="M1006 0h-908v123h908v-123zM999 201l-890 442v127l888 442v-141l-764 -360v-4l766 -365v-141z" />
    <glyph glyph-name="greaterequal" unicode="&#x2265;" horiz-adv-x="1103" 
d="M1001 0h-901v123h901v-123zM111 1212l890 -442v-127l-890 -442v141l763 363v4l-763 362v141z" />
    <glyph glyph-name="lozenge" unicode="&#x25ca;" horiz-adv-x="1142" 
d="M907 672l-332 688h-6l-336 -686l336 -690h6zM1044 672l-403 -813h-141l-402 813l404 819h141z" />
    <glyph glyph-name="fi" unicode="&#xfb01;" horiz-adv-x="1105" 
d="M39 799v20l166 96q0 230 90 383q47 80 133 126t189 46t181 -22q148 -42 148 -131q0 -63 -58 -83t-95 -3q-51 88 -103 132t-126 44t-112 -29t-64 -120t-23 -373h360q55 0 109 18t71 23l23 -8v-680q0 -127 24 -159t135 -48v-31h-477v31q110 16 134 50t26 157v391
q0 111 -19 141t-92 29h-297v-561q0 -127 23 -159t129 -48v-31h-473v31q113 16 137 49t27 158v561h-166z" />
    <glyph glyph-name="fl" unicode="&#xfb02;" horiz-adv-x="1105" 
d="M39 799v20l166 96q-8 207 78 370q43 83 124 134t187 51q54 0 116 -22t77 -21t55 19t63 24l23 -8v-1224q0 -127 24 -159t135 -48v-31h-477v31q110 16 134 50t26 157v872q2 18 1 34t-2 49q-1 32 -13 76q-37 138 -170 138q-82 0 -143 -53q-34 -28 -55 -107q-26 -98 -26 -298
v-64h267v-86h-267v-561q0 -127 23 -159t129 -48v-31h-473v31q113 16 137 49t27 158v561h-166z" />
    <glyph glyph-name="a.superior" horiz-adv-x="1105" 
d="M406 906q0 -32 26 -64q26 -33 73 -33q48 0 99 51v209l-190 -94q-8 -37 -8 -69zM725 1182v-224q0 -86 18 -114t113 -47v-33q-14 -4 -65 -22t-89 -19q-86 0 -96 94q-86 -94 -172 -94t-126 52t-40 128q0 29 11 64l325 147q0 103 -16 145t-46 56t-71 14t-58 -5
q-29 -8 -33 -62q-1 -14 -1 -60l-82 -6q-39 0 -39 21q0 45 102 123t183 77q182 1 182 -235z" />
    <glyph glyph-name="o.superior" horiz-adv-x="1105" 
d="M778 1064q0 110 -57 208t-165 98t-164 -89t-56 -203t62 -211t166 -97t159 91q55 93 55 203zM564 1417q158 0 260 -97q102 -96 102 -248t-111 -250t-263 -99q-152 0 -257 93q-107 93 -107 248t109 254t267 99z" />
    <glyph glyph-name="one.superior" horiz-adv-x="688" 
d="M102 1417h310q-12 -264 -10 -465q2 -200 4 -226q4 -26 22 -56t55 -40q37 -11 109 -18v-30h-494v30q85 9 107 20t35 15q12 5 21 23t17 29t7 46q0 35 2 76v385q0 100 -29 134t-156 46v31z" />
    <glyph glyph-name="two.superior" horiz-adv-x="688" 
d="M477 1149q0 70 -48 119t-136 49t-205 -113l-18 15q111 199 286 198q110 -1 176 -71t66 -167t-95 -226q-69 -90 -319 -285h246q98 0 132 24t87 113l19 -8l-95 -230h-544l-9 17q457 336 457 565z" />
    <glyph glyph-name="three.superior" horiz-adv-x="688" 
d="M467 1208q0 55 -41 85t-100 30q-109 0 -207 -94l-25 14q117 174 287 174q82 0 144 -46q63 -46 63 -126t-79 -133q-57 -39 -149 -78v-4q115 -10 189 -64t74 -159q-1 -105 -103 -179t-225 -75q-82 0 -157 35t-75 104q0 45 42 68t94 -4v-25q0 -57 39 -96q40 -39 108 -39
t112 51t44 128t-72 124t-166 47q-41 0 -96 -10l-10 16q16 12 42 32t43 32q17 11 48 18l24 6q61 20 107 66t45 102z" />
    </font>
</defs>
</svg>
